<svg id="_1" data-name="1" xmlns="http://www.w3.org/2000/svg" xmlns:xlink="http://www.w3.org/1999/xlink" width="101.532" height="110.186" viewBox="0 0 101.532 110.186">
  <defs>
    <clipPath id="clip-path">
      <rect id="Rectangle_16" data-name="Rectangle 16" width="101.532" height="110.186" fill="none"/>
    </clipPath>
    <clipPath id="clip-path-3">
      <rect id="Rectangle_11" data-name="Rectangle 11" width="16.061" height="3.473" fill="none"/>
    </clipPath>
    <clipPath id="clip-path-5">
      <rect id="Rectangle_13" data-name="Rectangle 13" width="7.308" height="0.821" fill="none"/>
    </clipPath>
  </defs>
  <g id="Group_15" data-name="Group 15" clip-path="url(#clip-path)">
    <path id="Path_1" data-name="Path 1" d="M161.9,155.664l-3.509-2.779.639,4.432,1.008-.929.751,1.288.472-.279-.74-1.282Z" transform="translate(-100.61 -97.112)" fill="#fff"/>
    <g id="Group_14" data-name="Group 14">
      <g id="Group_13" data-name="Group 13" clip-path="url(#clip-path)">
        <g id="Group_3" data-name="Group 3" transform="translate(42.991 44.728)" opacity="0.4">
          <g id="Group_2" data-name="Group 2">
            <g id="Group_1" data-name="Group 1" clip-path="url(#clip-path-3)">
              <path id="Path_2" data-name="Path 2" d="M132.5,126.081H119.253a1.406,1.406,0,0,1-1.406-1.406v-.661a1.406,1.406,0,0,1,1.406-1.406H132.5a1.406,1.406,0,0,1,1.406,1.406v.661a1.406,1.406,0,0,1-1.406,1.406" transform="translate(-117.847 -122.608)" fill="#fff"/>
            </g>
          </g>
        </g>
        <g id="Group_6" data-name="Group 6" transform="translate(42.991 49.788)" opacity="0.4">
          <g id="Group_5" data-name="Group 5">
            <g id="Group_4" data-name="Group 4" clip-path="url(#clip-path-3)">
              <path id="Path_3" data-name="Path 3" d="M132.5,139.952H119.253a1.407,1.407,0,0,1-1.406-1.406v-.661a1.406,1.406,0,0,1,1.406-1.406H132.5a1.406,1.406,0,0,1,1.406,1.406v.661a1.406,1.406,0,0,1-1.406,1.406" transform="translate(-117.847 -136.479)" fill="#fff"/>
            </g>
          </g>
        </g>
        <g id="Group_9" data-name="Group 9" transform="translate(44.926 46.062)" opacity="0.6">
          <g id="Group_8" data-name="Group 8">
            <g id="Group_7" data-name="Group 7" clip-path="url(#clip-path-5)">
              <path id="Path_4" data-name="Path 4" d="M123.479,126.534v-.268h.208v.268l.255-.1.073.2-.269.091.183.226-.175.135-.168-.24-.168.24-.178-.131.176-.226-.267-.071.071-.213Z" transform="translate(-123.151 -126.265)" fill="#262626"/>
              <path id="Path_5" data-name="Path 5" d="M126.423,126.534v-.268h.209v.268l.255-.1.074.2-.269.091.183.226-.175.135-.168-.24-.168.24-.178-.131.176-.226-.266-.071.071-.213Z" transform="translate(-125.021 -126.265)" fill="#262626"/>
              <path id="Path_6" data-name="Path 6" d="M129.366,126.534v-.268h.208v.268l.255-.1.073.2-.269.091.183.226-.175.135-.168-.24-.168.24-.178-.131.176-.226-.267-.071.071-.213Z" transform="translate(-126.89 -126.265)" fill="#262626"/>
              <path id="Path_7" data-name="Path 7" d="M132.31,126.534v-.268h.209v.268l.255-.1.074.2-.269.091.183.226-.175.135-.168-.24-.168.24-.178-.131.176-.226-.266-.071.071-.213Z" transform="translate(-128.761 -126.265)" fill="#262626"/>
              <path id="Path_8" data-name="Path 8" d="M135.253,126.534v-.268h.208v.268l.255-.1.073.2-.269.091.183.226-.175.135-.168-.24-.168.24-.178-.131.176-.226-.267-.071.071-.213Z" transform="translate(-130.629 -126.265)" fill="#262626"/>
              <path id="Path_9" data-name="Path 9" d="M138.2,126.534v-.268h.209v.268l.255-.1.074.2-.269.091.183.226-.175.135-.168-.24-.168.24-.178-.131.176-.226-.266-.071.071-.213Z" transform="translate(-132.5 -126.265)" fill="#262626"/>
              <path id="Path_10" data-name="Path 10" d="M141.14,126.534v-.268h.208v.268l.255-.1.073.2-.269.091.183.226-.175.135-.168-.24-.168.24-.178-.131.176-.226-.267-.071.071-.213Z" transform="translate(-134.369 -126.265)" fill="#262626"/>
            </g>
          </g>
        </g>
        <g id="Group_12" data-name="Group 12" transform="translate(44.926 51.212)" opacity="0.6">
          <g id="Group_11" data-name="Group 11">
            <g id="Group_10" data-name="Group 10" clip-path="url(#clip-path-5)">
              <path id="Path_11" data-name="Path 11" d="M123.479,140.652v-.268h.208v.268l.255-.1.073.2-.269.09.183.227-.175.135-.168-.239-.168.239-.178-.131.176-.226-.267-.071.071-.213Z" transform="translate(-123.151 -140.383)" fill="#262626"/>
              <path id="Path_12" data-name="Path 12" d="M126.423,140.652v-.268h.209v.268l.255-.1.074.2-.269.09.183.227-.175.135-.168-.239-.168.239-.178-.131.176-.226-.266-.071.071-.213Z" transform="translate(-125.021 -140.383)" fill="#262626"/>
              <path id="Path_13" data-name="Path 13" d="M129.366,140.652v-.268h.208v.268l.255-.1.073.2-.269.09.183.227-.175.135-.168-.239-.168.239-.178-.131.176-.226-.267-.071.071-.213Z" transform="translate(-126.89 -140.383)" fill="#262626"/>
              <path id="Path_14" data-name="Path 14" d="M132.31,140.652v-.268h.209v.268l.255-.1.074.2-.269.09.183.227-.175.135-.168-.239-.168.239-.178-.131.176-.226-.266-.071.071-.213Z" transform="translate(-128.761 -140.383)" fill="#262626"/>
              <path id="Path_15" data-name="Path 15" d="M135.253,140.652v-.268h.208v.268l.255-.1.073.2-.269.09.183.227-.175.135-.168-.239-.168.239-.178-.131.176-.226-.267-.071.071-.213Z" transform="translate(-130.629 -140.383)" fill="#262626"/>
              <path id="Path_16" data-name="Path 16" d="M138.2,140.652v-.268h.209v.268l.255-.1.074.2-.269.09.183.227-.175.135-.168-.239-.168.239-.178-.131.176-.226-.266-.071.071-.213Z" transform="translate(-132.5 -140.383)" fill="#262626"/>
              <path id="Path_17" data-name="Path 17" d="M141.14,140.652v-.268h.208v.268l.255-.1.073.2-.269.09.183.227-.175.135-.168-.239-.168.239-.178-.131.176-.226-.267-.071.071-.213Z" transform="translate(-134.369 -140.383)" fill="#262626"/>
            </g>
          </g>
        </g>
        <path id="Path_18" data-name="Path 18" d="M148.167,153.562a.169.169,0,0,0-.058-.058.162.162,0,0,0-.085-.022.151.151,0,0,0-.084.023.173.173,0,0,0-.056.059.261.261,0,0,0-.031.082.464.464,0,0,0-.009.093.51.51,0,0,0,.009.1.281.281,0,0,0,.029.085.163.163,0,0,0,.057.063.156.156,0,0,0,.088.024.152.152,0,0,0,.139-.073.369.369,0,0,0,.045-.2.449.449,0,0,0-.01-.095.285.285,0,0,0-.033-.083" transform="translate(-93.91 -97.492)" fill="#fff"/>
        <path id="Path_19" data-name="Path 19" d="M147.892,150.832a.482.482,0,0,0-.482-.482h-7.067a.482.482,0,0,0-.482.482v1.7a.482.482,0,0,0,.482.482h6.338l-.314-2.176,1.524,1.208Zm-5.516,1.39h-.726v-.934h.306V152h.42Zm1.033-.263a.44.44,0,0,1-.1.157.446.446,0,0,1-.156.1.559.559,0,0,1-.193.033.579.579,0,0,1-.2-.033.425.425,0,0,1-.155-.1.443.443,0,0,1-.1-.158.6.6,0,0,1-.035-.21.541.541,0,0,1,.035-.2.427.427,0,0,1,.256-.252.558.558,0,0,1,.2-.034.542.542,0,0,1,.213.039.429.429,0,0,1,.154.109.472.472,0,0,1,.092.156.548.548,0,0,1,.03.181.558.558,0,0,1-.037.209m1.081.265h-.2l-.012-.092a.309.309,0,0,1-.112.082.4.4,0,0,1-.17.032.5.5,0,0,1-.173-.03.407.407,0,0,1-.244-.241.562.562,0,0,1-.036-.209.586.586,0,0,1,.034-.2.462.462,0,0,1,.1-.159.437.437,0,0,1,.155-.1.537.537,0,0,1,.2-.036.482.482,0,0,1,.294.089.383.383,0,0,1,.148.257h-.29a.166.166,0,0,0-.057-.088.161.161,0,0,0-.1-.03.146.146,0,0,0-.133.073.386.386,0,0,0-.045.2.484.484,0,0,0,.009.1.252.252,0,0,0,.032.08.155.155,0,0,0,.061.055.2.2,0,0,0,.094.02.178.178,0,0,0,.1-.031.128.128,0,0,0,.06-.077h-.135v-.2h.419Zm.492,0h-.306v-.934h.306Zm1.09,0h-.286l-.333-.509.012.213v.3h-.293v-.934h.287l.333.51-.012-.213v-.3h.293Z" transform="translate(-88.84 -95.502)" fill="#fff"/>
        <path id="Path_20" data-name="Path 20" d="M113.436,145.417l-10.031-13.4V101.313a.826.826,0,0,0-.82-.833H55.9a.832.832,0,0,0-.825.838v30.7L45.4,145.429a.826.826,0,0,0,.658,1.309H112.78a.83.83,0,0,0,.656-1.321m-57.088-43.43H102.4v28.522H56.347Zm34.477,42.84H69.539c-.176,0-.306-.3-.267-.626l1.463-4.014c.028-.233.139-.4.267-.4H89.386c.123,0,.23.151.263.37l1.438,4.013c.052.328-.08.656-.263.656m-38.693-6.244,3.653-5.271H102.61l3.964,5.271Z" transform="translate(-28.741 -63.825)" fill="#fff"/>
        <path id="Path_21" data-name="Path 21" d="M61.472,9.792a10.841,10.841,0,0,0-21.584.037,50.767,50.767,0,1,0,21.584-.037m.034,1.645v0M47.419,7.821A3.439,3.439,0,0,0,49.3,7.315a2.364,2.364,0,0,0,.919-1.622h2.075v9.39H49.559v-5.4H47.419Zm-7.56,3.656c0-.008,0-.015,0-.023,0,.008,0,.015,0,.023M50.766,108A48.58,48.58,0,0,1,39.91,12.066a10.841,10.841,0,0,0,21.548-.036h0A48.579,48.579,0,0,1,50.766,108" transform="translate(0 0.001)" fill="#fff"/>
      </g>
    </g>
  </g>
</svg>
