<svg id="_2" data-name="2" xmlns="http://www.w3.org/2000/svg" xmlns:xlink="http://www.w3.org/1999/xlink" width="99.85" height="110.481" viewBox="0 0 99.85 110.481">
  <defs>
    <clipPath id="clip-path">
      <rect id="Rectangle_17" data-name="Rectangle 17" width="99.85" height="110.481" fill="none"/>
    </clipPath>
  </defs>
  <path id="Path_22" data-name="Path 22" d="M126.611,126.732,96.643,102.991l5.455,37.853,8.611-7.934,6.414,11,4.032-2.383-6.323-10.95Z" transform="translate(-61.477 -64.107)" fill="#fff"/>
  <g id="Group_18" data-name="Group 18">
    <g id="Group_17" data-name="Group 17" clip-path="url(#clip-path)">
      <path id="Path_23" data-name="Path 23" d="M60.764,9.887a10.644,10.644,0,0,0-21.229-.075c0-.008,0-.017,0-.026C16.977,14.674,0,35.141,0,59.578c0,28.067,22.4,50.9,49.925,50.9S99.85,87.645,99.85,59.578C99.85,35.3,83.1,14.948,60.764,9.887M60.79,11.5c0,.01,0,.019,0,.029,0-.01,0-.019,0-.029M51.065,8.02a1.215,1.215,0,0,0-.769-.257,1.1,1.1,0,0,0-1.007.493,2.382,2.382,0,0,0-.31,1.284H46.564a3.857,3.857,0,0,1,1.026-2.9,4.016,4.016,0,0,1,2.835-.929,5.467,5.467,0,0,1,1.388.171,3.63,3.63,0,0,1,1.168.533,2.5,2.5,0,0,1,.807.942,2.99,2.99,0,0,1,.291,1.356,2.5,2.5,0,0,1-.665,1.752,4.265,4.265,0,0,1-.652.579q-.348.25-.891.593l-.207.132q-.285.184-.866.513-.7.408-.969.606h4.224v2.239H46.4a3.533,3.533,0,0,1,.272-1.442,4.325,4.325,0,0,1,.814-1.192,6.106,6.106,0,0,1,.846-.763q.458-.342,1.117-.777A9.974,9.974,0,0,0,50.923,9.8,1.521,1.521,0,0,0,51.394,8.7a.819.819,0,0,0-.329-.678M39.5,11.461v0m10.425,96.825c-26.342,0-47.772-21.85-47.772-48.707,0-23.224,16.026-42.7,37.393-47.546a10.641,10.641,0,0,0,21.191.1C81.888,17.137,97.7,36.51,97.7,59.578c0,26.857-21.431,48.707-47.772,48.707" transform="translate(0 0.001)" fill="#fff"/>
    </g>
  </g>
</svg>
