<svg id="_3" data-name="3" xmlns="http://www.w3.org/2000/svg" xmlns:xlink="http://www.w3.org/1999/xlink" width="100.545" height="109.115" viewBox="0 0 100.545 109.115">
  <defs>
    <clipPath id="clip-path">
      <rect id="Rectangle_18" data-name="Rectangle 18" width="100.545" height="109.115" fill="none"/>
    </clipPath>
  </defs>
  <g id="Group_20" data-name="Group 20" clip-path="url(#clip-path)">
    <path id="Path_24" data-name="Path 24" d="M133.156,159.324a.867.867,0,0,0-.3-.3.828.828,0,0,0-.432-.109.77.77,0,0,0-.428.115.883.883,0,0,0-.287.3,1.372,1.372,0,0,0-.155.419,2.43,2.43,0,0,0-.046.475,2.657,2.657,0,0,0,.043.485,1.527,1.527,0,0,0,.148.435.855.855,0,0,0,.29.323.794.794,0,0,0,.449.122.773.773,0,0,0,.709-.369,1.888,1.888,0,0,0,.228-1,2.211,2.211,0,0,0-.053-.485,1.386,1.386,0,0,0-.168-.422" transform="translate(-84.001 -101.508)" fill="#fff"/>
    <path id="Path_25" data-name="Path 25" d="M119.029,139.423a3.247,3.247,0,0,0-3.247-3.247H69.86a3.247,3.247,0,0,0-3.248,3.247V150.6a3.248,3.248,0,0,0,3.248,3.248h39.13L107.168,141.2l11.861,9.4Zm-31.261,6.849a2.081,2.081,0,0,1-.462,1.458,1.8,1.8,0,0,1-1.392.5,1.957,1.957,0,0,1-1.425-.472,1.849,1.849,0,0,1-.482-1.382q0-.158.013-.337h1.385q0,.251.01.413a1.643,1.643,0,0,0,.046.3.487.487,0,0,0,.122.228.313.313,0,0,0,.231.086.335.335,0,0,0,.29-.152.743.743,0,0,0,.105-.429v-3.133h1.557Zm5.525.5a2.219,2.219,0,0,1-1.323,1.293,2.817,2.817,0,0,1-.983.168,2.927,2.927,0,0,1-1.013-.168,2.143,2.143,0,0,1-.788-.5,2.226,2.226,0,0,1-.508-.8,3.034,3.034,0,0,1-.178-1.069,2.761,2.761,0,0,1,.178-1.006,2.213,2.213,0,0,1,.511-.785,2.242,2.242,0,0,1,.792-.5,2.854,2.854,0,0,1,1.006-.171,2.745,2.745,0,0,1,1.085.2,2.177,2.177,0,0,1,.785.555,2.364,2.364,0,0,1,.468.795,2.77,2.77,0,0,1,.155.924,2.858,2.858,0,0,1-.188,1.065m2.5,1.336H94.239v-4.749H95.8Zm5.548,0H99.885l-1.7-2.586.06,1.082v1.5H96.759v-4.749h1.458l1.7,2.592-.059-1.082v-1.51h1.491Z" transform="translate(-42.548 -86.982)" fill="#fff"/>
    <path id="Path_26" data-name="Path 26" d="M202.791,174.77l-17.849-14.141,3.249,22.546,5.129-4.726L197.14,185l2.4-1.419-3.766-6.522Z" transform="translate(-118.131 -102.601)" fill="#fff"/>
    <path id="Path_27" data-name="Path 27" d="M61.056,9.737a10.736,10.736,0,0,0-21.374-.042,50.273,50.273,0,1,0,21.374.042m.03,1.606c0,.009,0,.018,0,.027,0-.009,0-.018,0-.027m-9.853.134a.835.835,0,0,0-.384-.305,1.821,1.821,0,0,0-.514-.124q-.273-.026-.65-.026v-1.6H49.8a.862.862,0,0,0,.13.013,1.973,1.973,0,0,0,.962-.221.766.766,0,0,0,.4-.729.69.69,0,0,0-.306-.618,1.356,1.356,0,0,0-.761-.2,1.289,1.289,0,0,0-.813.247,1.013,1.013,0,0,0-.371.729H46.6a3.145,3.145,0,0,1,.345-1.34,2.762,2.762,0,0,1,.813-.943,3.484,3.484,0,0,1,1.157-.546,5.32,5.32,0,0,1,1.392-.176,4.272,4.272,0,0,1,2.575.7A2.2,2.2,0,0,1,53.834,8.2a1.846,1.846,0,0,1-1.066,1.808,2.076,2.076,0,0,1,.969.741,1.994,1.994,0,0,1,.345,1.17A2.816,2.816,0,0,1,53,14.306a4.8,4.8,0,0,1-2.972.826,4.033,4.033,0,0,1-2.686-.858,3.109,3.109,0,0,1-1.021-2.523h2.549a1.4,1.4,0,0,0,.325.989,1.265,1.265,0,0,0,.975.364,1.2,1.2,0,0,0,.891-.318,1.025,1.025,0,0,0,.319-.748.973.973,0,0,0-.143-.559m-11.585-.137c0-.005,0-.01,0-.015s0,.01,0,.015m10.625,95.606A48.107,48.107,0,0,1,39.7,11.91a10.736,10.736,0,0,0,21.338.039h0a48.108,48.108,0,0,1-10.761,95" transform="translate(0 0.001)" fill="#fff"/>
  </g>
</svg>
