<svg id="_4" data-name="4" xmlns="http://www.w3.org/2000/svg" xmlns:xlink="http://www.w3.org/1999/xlink" width="101.361" height="110" viewBox="0 0 101.361 110">
  <defs>
    <clipPath id="clip-path">
      <rect id="Rectangle_19" data-name="Rectangle 19" width="101.361" height="110" fill="none"/>
    </clipPath>
  </defs>
  <path id="Path_28" data-name="Path 28" d="M152.064,150.781v-2.1l1.635-1.722,5.051,8.379h8.263l-8.5-13.109,7.679-7.912h-8.087l-6.044,6.8v-6.8h-6.89v11Z" transform="translate(-92.304 -85.401)" fill="#fff"/>
  <path id="Path_29" data-name="Path 29" d="M145.174,174.69v6.318h.91Z" transform="translate(-92.304 -111.07)" fill="#fff"/>
  <g id="Group_23" data-name="Group 23">
    <g id="Group_22" data-name="Group 22" clip-path="url(#clip-path)">
      <path id="Path_30" data-name="Path 30" d="M94.793,136.137a9.607,9.607,0,0,0-3.474-2.453,12.147,12.147,0,0,0-4.8-.89,12.617,12.617,0,0,0-4.453.759,9.886,9.886,0,0,0-3.5,2.2,9.733,9.733,0,0,0-2.263,3.474,12.2,12.2,0,0,0-.788,4.452,13.393,13.393,0,0,0,.788,4.73,9.85,9.85,0,0,0,2.248,3.562,9.473,9.473,0,0,0,3.489,2.2,12.924,12.924,0,0,0,4.482.745,12.451,12.451,0,0,0,4.35-.745,10.039,10.039,0,0,0,3.518-2.189,9.918,9.918,0,0,0,2.336-3.533,12.638,12.638,0,0,0,.833-4.715,12.269,12.269,0,0,0-.686-4.088,10.485,10.485,0,0,0-2.073-3.518m-5.138,12.014a3.422,3.422,0,0,1-3.139,1.635,3.519,3.519,0,0,1-1.985-.54,3.793,3.793,0,0,1-1.285-1.431,6.706,6.706,0,0,1-.657-1.927,11.832,11.832,0,0,1-.19-2.145,10.672,10.672,0,0,1,.2-2.1,6.034,6.034,0,0,1,.686-1.854,3.9,3.9,0,0,1,1.27-1.343,3.414,3.414,0,0,1,1.9-.511,3.65,3.65,0,0,1,1.912.482,3.855,3.855,0,0,1,1.314,1.314,6.129,6.129,0,0,1,.745,1.869,9.744,9.744,0,0,1,.233,2.146,8.35,8.35,0,0,1-1.007,4.408" transform="translate(-48.01 -84.432)" fill="#fff"/>
      <path id="Path_31" data-name="Path 31" d="M167.582,188.026l-17.994-14.255,3.275,22.729,5.17-4.764,3.852,6.6,2.421-1.431-3.8-6.575Z" transform="translate(-95.11 -110.486)" fill="#fff"/>
      <path id="Path_32" data-name="Path 32" d="M61.454,9.795a10.823,10.823,0,0,0-21.548,0,50.68,50.68,0,1,0,21.548,0m.032,1.632c0,.007,0,.015,0,.022s0-.014,0-.022m-15.02-.485L50.78,5.815h2.543V11.1h1.154v2.032H53.323v1.927h-2.6V13.131H46.467Zm-6.591.5v0m10.805,96.369A48.5,48.5,0,0,1,39.925,12.027a10.823,10.823,0,0,0,21.511,0,48.5,48.5,0,0,1-10.756,95.787" transform="translate(0 0.001)" fill="#fff"/>
      <path id="Path_33" data-name="Path 33" d="M135.444,22.737l-2.2,2.819h2.2Z" transform="translate(-84.717 -14.456)" fill="#fff"/>
    </g>
  </g>
</svg>
