<svg id="_5" data-name="5" xmlns="http://www.w3.org/2000/svg" xmlns:xlink="http://www.w3.org/1999/xlink" width="101.361" height="110" viewBox="0 0 101.361 110">
  <defs>
    <clipPath id="clip-path">
      <rect id="Rectangle_20" data-name="Rectangle 20" width="101.361" height="110" fill="none"/>
    </clipPath>
  </defs>
  <g id="Group_25" data-name="Group 25" clip-path="url(#clip-path)">
    <path id="Path_34" data-name="Path 34" d="M61.455,9.795s0,.009,0,.014a10.823,10.823,0,0,0-21.549-.014,50.681,50.681,0,1,0,21.548,0m.032,1.631c0,.008,0,.015,0,.022,0-.008,0-.015,0-.022M51.41,11.02a1.086,1.086,0,0,0-.891-.367,1.784,1.784,0,0,0-.656.118.825.825,0,0,0-.446.393l-2.569-.092.917-5.257h5.926V8.044H49.679l-.3,1.389a2.428,2.428,0,0,1,.865-.393,4.758,4.758,0,0,1,1.049-.1,3.268,3.268,0,0,1,2.242.773,2.586,2.586,0,0,1,.669.924,3.046,3.046,0,0,1,.236,1.226,3.461,3.461,0,0,1-.334,1.58,2.776,2.776,0,0,1-.918,1.062,3.928,3.928,0,0,1-1.317.577,6.685,6.685,0,0,1-1.574.177,4.333,4.333,0,0,1-2.484-.662,3.49,3.49,0,0,1-1.37-1.947l2.74-.275a.1.1,0,0,0,.013.039.216.216,0,0,1,.013.053.983.983,0,0,0,.452.55,1.408,1.408,0,0,0,.728.2,1.334,1.334,0,0,0,.957-.347,1.149,1.149,0,0,0,.367-.871,1.48,1.48,0,0,0-.3-.97m-11.534.425c0-.007,0-.012,0-.018s0,.012,0,.018m10.8,96.369A48.5,48.5,0,0,1,39.925,12.027a10.823,10.823,0,0,0,21.511,0,48.5,48.5,0,0,1-10.756,95.787" transform="translate(0 0.001)" fill="#fff"/>
    <path id="Path_35" data-name="Path 35" d="M69.675,125.37H114.96v22.905H69.675Zm8.6,7.587,1.4,2.371,2.722.58-1.855,2.047.278,2.73-2.548-1.106-2.547,1.106.279-2.73-1.855-2.047,2.72-.58Zm5.44-4.426H72.837v16.582H83.716Zm4.475,7.376,2.72-.58,1.4-2.371,1.4,2.371,2.721.58-1.854,2.047.278,2.73-2.548-1.105-2.548,1.105.279-2.73Zm-1.313,9.206H97.756V128.531H86.879Zm15.354-9.206,2.72-.58,1.4-2.371,1.4,2.371,2.721.58-1.854,2.047.279,2.73-2.548-1.105-2.547,1.105.278-2.73Zm-1.316,9.206H111.8V128.531H100.917Zm5.059-23.3c-6.241-9.38-21.078-9.384-27.318,0H66.117v30.022h52.4v-8.777h1.86V138.6h5.448V118.094a2.877,2.877,0,1,0-3.558,0v16.949h-1.889v-4.455h-1.86V121.81H105.976Z" transform="translate(-42.038 -71.82)" fill="#fff" fill-rule="evenodd"/>
  </g>
</svg>
