<svg id="_6" data-name="6" xmlns="http://www.w3.org/2000/svg" xmlns:xlink="http://www.w3.org/1999/xlink" width="101.361" height="110" viewBox="0 0 101.361 110">
  <defs>
    <clipPath id="clip-path">
      <rect id="Rectangle_21" data-name="Rectangle 21" width="101.361" height="110" fill="none"/>
    </clipPath>
  </defs>
  <g id="Group_27" data-name="Group 27" clip-path="url(#clip-path)">
    <path id="Path_36" data-name="Path 36" d="M110.279,102.984h4.066v3.037a23.053,23.053,0,0,1,4.776.759,12.653,12.653,0,0,1,3.993,1.861,9,9,0,0,1,2.792,3.209,10,10,0,0,1,1.029,4.7h-8.475a4.2,4.2,0,0,0-1.2-2.719,3.852,3.852,0,0,0-2.915-1.151v6.809q3.086.931,5.143,1.715a19.575,19.575,0,0,1,3.895,2.008,9.474,9.474,0,0,1,2.939,3.086,8.7,8.7,0,0,1,1.1,4.507,11.352,11.352,0,0,1-1,4.972,8.844,8.844,0,0,1-2.793,3.38,12.191,12.191,0,0,1-4.139,1.911,23.755,23.755,0,0,1-5.143.711v4.752h-4.066v-4.752a14.776,14.776,0,0,1-9.21-3.209,10.563,10.563,0,0,1-3.674-8.5h8.867a5.257,5.257,0,0,0,1.053,3.38,4.89,4.89,0,0,0,2.964,1.715v-7.691l-.979-.294q-2.842-.882-4.532-1.543a15.445,15.445,0,0,1-3.258-1.763,8.071,8.071,0,0,1-2.5-2.841,8.877,8.877,0,0,1-.93-4.237,10.254,10.254,0,0,1,.98-4.678,8.465,8.465,0,0,1,2.67-3.135,13.935,13.935,0,0,1,3.821-1.886,30.21,30.21,0,0,1,4.727-1.078Zm0,9.406a4.208,4.208,0,0,0-2.474.857,2.544,2.544,0,0,0-1.2,2.131,2.374,2.374,0,0,0,.784,1.959,8.023,8.023,0,0,0,2.2,1.176,5.842,5.842,0,0,1,.686.245Zm4.066,23.073a5.184,5.184,0,0,0,2.939-.882,2.7,2.7,0,0,0,1.323-2.351,3.161,3.161,0,0,0-1.176-2.548,6.915,6.915,0,0,0-3.086-1.372Z" transform="translate(-61.926 -65.479)" fill="#fff"/>
    <path id="Path_37" data-name="Path 37" d="M61.454,9.795a10.823,10.823,0,0,0-21.548,0,50.68,50.68,0,1,0,21.548,0m.032,1.633v0M46.761,8.5A4.282,4.282,0,0,1,47.554,7a3.543,3.543,0,0,1,1.279-.97,4.073,4.073,0,0,1,1.7-.341,6.47,6.47,0,0,1,1.292.125,3.966,3.966,0,0,1,1.121.406,2.7,2.7,0,0,1,.865.754,2.893,2.893,0,0,1,.5,1.154l-2.543.157a.927.927,0,0,0-.393-.55,1.293,1.293,0,0,0-.708-.184,1.165,1.165,0,0,0-1.062.577,2.937,2.937,0,0,0-.354,1.547,3.583,3.583,0,0,1,1.016-.525A4.015,4.015,0,0,1,51.409,9a3.31,3.31,0,0,1,1.371.269,2.853,2.853,0,0,1,.983.708,3.006,3.006,0,0,1,.577.964,3.059,3.059,0,0,1,.19,1.049,3.515,3.515,0,0,1-.275,1.442,2.706,2.706,0,0,1-.78,1.022,3.362,3.362,0,0,1-1.173.6,5.19,5.19,0,0,1-1.469.2,4.23,4.23,0,0,1-3.211-1.18,5.09,5.09,0,0,1-1.128-3.631,6.61,6.61,0,0,1,.269-1.94m-6.886,2.943v0m10.805,96.369A48.5,48.5,0,0,1,39.925,12.027a10.823,10.823,0,0,0,21.511,0,48.5,48.5,0,0,1-10.756,95.787" transform="translate(0 0.001)" fill="#fff"/>
    <path id="Path_38" data-name="Path 38" d="M136.779,32.13a1.148,1.148,0,0,0,.9-.341,1.356,1.356,0,0,0,.308-.944,1.247,1.247,0,0,0-.321-.892,1.092,1.092,0,0,0-.833-.341,1.245,1.245,0,0,0-.97.38,1.4,1.4,0,0,0-.315.944,1.12,1.12,0,0,0,.367.845,1.215,1.215,0,0,0,.866.347" transform="translate(-86.182 -18.828)" fill="#fff"/>
  </g>
</svg>
