<svg xmlns="http://www.w3.org/2000/svg" xmlns:xlink="http://www.w3.org/1999/xlink" width="84.306" height="67.911" viewBox="0 0 84.306 67.911">
  <defs>
    <clipPath id="clip-path">
      <rect id="Rectangle_209" data-name="Rectangle 209" width="84.306" height="67.911" fill="none"/>
    </clipPath>
  </defs>
  <g id="Bastones" transform="translate(0 0)">
    <g id="Group_572" data-name="Group 572" transform="translate(0 0)" clip-path="url(#clip-path)">
      <path id="Path_2694" data-name="Path 2694" d="M37.592,9.505C31.071.216,19.433-2.668,9.876,2.65c-9.528,5.3-12.5,18.3-6.687,28.677A5.185,5.185,0,0,0,6.4,33.916a5.315,5.315,0,0,0,4.069-.619A5.307,5.307,0,0,0,12.4,25.952c-2.841-5.073-1.535-10.917,3.106-13.893,4.319-2.792,10.483-.993,13.571,3.847L58.611,65.26a5.333,5.333,0,1,0,9.153-5.476L38.126,10.257a5.917,5.917,0,0,0-.535-.752" transform="translate(0.014 0)" fill="#e52336"/>
      <path id="Path_2695" data-name="Path 2695" d="M1.005,13.43A15.884,15.884,0,0,0,.66,23.57,11.056,11.056,0,0,1,11.369,22.6v0a13.644,13.644,0,0,1,.2-6.526C5.54,11.1,1.018,13.425,1.005,13.43" transform="translate(0 0.839)" fill="#fff"/>
      <path id="Path_2696" data-name="Path 2696" d="M6.95,4.323c5.533,2.107,7.358,8.274,7.358,8.274v0a12.376,12.376,0,0,1,4.973-1.846l0-.006C22.415,3.907,18.3.046,18.292.04,14.28-.179,9.163,2.313,6.95,4.323" transform="translate(0.453 0.002)" fill="#fff"/>
      <path id="Path_2697" data-name="Path 2697" d="M36.014,9.358a17.287,17.287,0,0,0-8-7.1c.953,4.83-3.561,10.3-3.561,10.3v.01A18.02,18.02,0,0,1,27.5,15.759c6.115-.718,8.513-6.4,8.513-6.4" transform="translate(1.592 0.147)" fill="#fff"/>
      <path id="Path_2698" data-name="Path 2698" d="M30.5,20.608s6.109-.455,8.942-5.826c0,0,3.215,5.369,2.04,3.4s1.932,3.233,1.932,3.233-2.1,4.813-9.151,5.477c0,0-.681-.9-1.985-3.08S30.5,20.608,30.5,20.608" transform="translate(1.986 0.963)" fill="#fff"/>
      <path id="Path_2699" data-name="Path 2699" d="M37.167,31.757s6.109-.455,8.943-5.827c0,0,3.215,5.37,2.041,3.406s1.931,3.23,1.931,3.23-2.1,4.814-9.153,5.478c0,0-.677-.9-1.984-3.081s-1.778-3.206-1.778-3.206" transform="translate(2.42 1.688)" fill="#fff"/>
      <path id="Path_2700" data-name="Path 2700" d="M43.839,42.906s6.109-.454,8.945-5.826c0,0,3.211,5.369,2.038,3.405s1.931,3.23,1.931,3.23-2.1,4.815-9.151,5.477c0,0-.677-.9-1.985-3.08s-1.777-3.206-1.777-3.206" transform="translate(2.854 2.414)" fill="#fff"/>
      <path id="Path_2701" data-name="Path 2701" d="M50.511,54.055s6.109-.454,8.945-5.826l2.037,3.407,1.932,3.23s-2.1,4.813-9.153,5.476c0,0-.677-.9-1.983-3.081s-1.778-3.206-1.778-3.206" transform="translate(3.289 3.14)" fill="#fff"/>
      <path id="Path_2702" data-name="Path 2702" d="M45.738,9.505C52.26.216,63.9-2.668,73.454,2.65c9.528,5.3,12.5,18.3,6.688,28.677a5.19,5.19,0,0,1-3.207,2.589,5.435,5.435,0,0,1-6.006-7.965c2.842-5.073,1.535-10.917-3.1-13.893-4.32-2.792-10.483-.993-13.572,3.847L24.72,65.26a5.332,5.332,0,1,1-9.151-5.476L45.2,10.257a6.026,6.026,0,0,1,.535-.752" transform="translate(0.96 0)" fill="#f23d57"/>
      <path id="Path_2703" data-name="Path 2703" d="M78.853,13.43A15.877,15.877,0,0,1,79.2,23.57,11.054,11.054,0,0,0,68.491,22.6v0a13.644,13.644,0,0,0-.2-6.526c6.024-4.978,10.546-2.649,10.558-2.645" transform="translate(4.447 0.839)" fill="#fff"/>
      <path id="Path_2704" data-name="Path 2704" d="M73.028,4.323C67.495,6.429,65.67,12.6,65.67,12.6v0A12.37,12.37,0,0,0,60.7,10.753l0-.006c-3.132-6.839.984-10.7.991-10.707C65.7-.179,70.815,2.313,73.028,4.323" transform="translate(3.875 0.002)" fill="#fff"/>
      <path id="Path_2705" data-name="Path 2705" d="M43.844,9.358a17.292,17.292,0,0,1,8-7.1c-.953,4.83,3.562,10.3,3.562,10.3v.01a18.063,18.063,0,0,0-3.047,3.191c-6.114-.718-8.513-6.4-8.513-6.4" transform="translate(2.855 0.147)" fill="#fff"/>
      <path id="Path_2706" data-name="Path 2706" d="M49.443,20.608s-6.107-.455-8.941-5.826c0,0-3.215,5.369-2.04,3.4s-1.932,3.233-1.932,3.233,2.1,4.813,9.153,5.477c0,0,.68-.9,1.984-3.08s1.776-3.207,1.776-3.207" transform="translate(2.379 0.963)" fill="#fff"/>
      <path id="Path_2707" data-name="Path 2707" d="M42.773,31.757s-6.108-.455-8.943-5.827c0,0-3.215,5.37-2.04,3.406l-1.932,3.23s2.1,4.814,9.154,5.478c0,0,.677-.9,1.983-3.081s1.778-3.206,1.778-3.206" transform="translate(1.944 1.688)" fill="#fff"/>
      <path id="Path_2708" data-name="Path 2708" d="M36.1,42.906s-6.109-.454-8.944-5.826L25.12,40.485c1.177-1.965-1.932,3.23-1.932,3.23s2.1,4.815,9.153,5.477c0,0,.677-.9,1.984-3.08S36.1,42.906,36.1,42.906" transform="translate(1.51 2.414)" fill="#fff"/>
      <path id="Path_2709" data-name="Path 2709" d="M29.429,54.055s-6.109-.454-8.944-5.826c0,0-3.211,5.37-2.036,3.407l-1.933,3.23s2.1,4.813,9.154,5.476c0,0,.677-.9,1.983-3.081s1.777-3.206,1.777-3.206" transform="translate(1.075 3.14)" fill="#fff"/>
      <path id="Path_2710" data-name="Path 2710" d="M31.624,22.28s10.186,2.2,17.015,0l.593,8.44s-5.009,4.118-18.2,0Z" transform="translate(2.02 1.451)" fill="#40c1ab"/>
      <path id="Path_2711" data-name="Path 2711" d="M58.905,15.678c-2.9-2.149-11.486,7.053-11.486,7.053v8.816S56,40.282,58.905,38.134s.656-9.211.656-11.228,2.245-9.08-.656-11.227" transform="translate(3.088 1)" fill="#50d6bc"/>
      <path id="Path_2712" data-name="Path 2712" d="M47.258,25.061s5.875-5.129,6.68-3.459-6.68,4.205-6.68,4.205Z" transform="translate(3.077 1.385)" fill="#40c1ab"/>
      <path id="Path_2713" data-name="Path 2713" d="M47.207,27.845s7.031-.982,7.148.984-7.414-.324-7.414-.324Z" transform="translate(3.056 1.797)" fill="#40c1ab"/>
      <path id="Path_2714" data-name="Path 2714" d="M21.293,15.678c2.872-2.149,11.372,7.053,11.372,7.053v8.816s-8.5,8.735-11.372,6.587-.651-9.211-.651-11.228-2.223-9.08.651-11.227" transform="translate(1.291 1)" fill="#50d6bc"/>
      <path id="Path_2715" data-name="Path 2715" d="M32.448,25.061s-5.82-5.129-6.615-3.459,6.615,4.205,6.615,4.205Z" transform="translate(1.678 1.385)" fill="#40c1ab"/>
      <path id="Path_2716" data-name="Path 2716" d="M32.539,27.845s-6.963-.982-7.079.984,7.341-.324,7.341-.324Z" transform="translate(1.658 1.797)" fill="#40c1ab"/>
    </g>
  </g>
</svg>
