<svg width="99" height="43" viewBox="0 0 99 43" fill="none" xmlns="http://www.w3.org/2000/svg">
<path d="M72.8227 25.992C73.0893 26.5814 73.2218 26.8761 73.4592 27.3997C71.4447 26.4565 69.616 25.5981 67.7857 24.7413L67.6807 24.9094C68.0651 25.3434 68.4496 25.7774 69.0587 26.4645C66.6338 25.5933 64.503 24.8278 62.3415 24.0494C66.5579 20.8625 75.0182 20.286 79.7903 27.9378C78.3881 27.2396 77.1813 26.6374 75.6918 25.896C76.1135 26.6743 76.3639 27.1387 76.7807 27.9106C75.3962 27.2396 74.2621 26.6903 72.8227 25.992Z" fill="#8CC63F"/>
<path d="M79.5189 15.2702C78.0327 15.5232 76.7613 15.741 75.1474 16.0164C75.8501 16.4184 76.2896 16.6698 76.9697 17.059C75.5174 17.3345 74.3025 17.5651 72.9003 17.8309C73.2848 18.1544 73.5319 18.361 73.8857 18.6589C71.7985 19.0817 69.8179 19.4836 67.8357 19.8856L67.839 20.073C68.3527 20.1979 68.8648 20.3228 69.3785 20.4493L69.3979 20.6575C67.2445 21.3061 65.091 21.9547 62.8891 22.6194C65.0248 17.2672 71.847 11.8061 79.5205 15.2718L79.5189 15.2702Z" fill="#8CC63F"/>
<path d="M61.02 24.9975C58.5419 25.2442 56.3303 25.4652 53.7762 25.7198C54.5645 25.241 55.046 24.9495 55.5274 24.658L55.4854 24.4386C53.5274 24.8102 51.5694 25.1801 49.4532 25.5821C49.7972 25.1737 50.0218 24.9079 50.4014 24.4578C48.9524 24.7461 47.7327 24.9895 46.2173 25.2906C46.7957 24.7189 47.1479 24.373 47.7876 23.742C46.1963 24.0623 44.925 24.3185 43.597 24.586C49.038 19.4212 56.2139 20.3629 61.02 25.0007V24.9975Z" fill="#8CC63F"/>
<path d="M67.0958 11.1864C67.6095 11.1367 67.9359 11.1047 68.5352 11.0454C67.7533 11.9919 67.1378 12.7366 66.4157 13.611C66.7582 13.6526 66.9779 13.6799 67.3317 13.7215C66.2477 15.0587 65.2154 16.3303 64.1847 17.6019L64.2784 17.7765C64.608 17.6179 64.9375 17.461 65.5643 17.1615C64.3188 18.9888 63.2413 20.5678 62.1072 22.2302C61.0555 17.5442 63.0216 10.3376 69.3947 8.42059C68.6111 9.36387 67.9133 10.203 67.0974 11.1864H67.0958Z" fill="#8CC63F"/>
<path d="M58.1558 7.65509C58.1606 8.83058 58.1638 9.91798 58.1703 11.3145C58.5758 10.7572 58.8052 10.4449 59.1315 9.99486C59.1558 11.2296 59.1768 12.309 59.201 13.5325C59.4934 13.2731 59.6566 13.1306 59.9134 12.9031C59.9344 14.6952 59.9554 16.3768 59.9797 18.4026C60.3092 17.8309 60.4691 17.5522 60.7615 17.043C60.9506 19.1489 61.1186 21.005 61.2914 22.9316C57.0459 20.0682 54.9442 12.9208 58.1542 7.65509H58.1558Z" fill="#8CC63F"/>
<path d="M7.07581 40.2677C5.06454 40.2677 3.38121 39.6047 2.02905 38.277C0.676887 36.9494 0 35.2887 0 33.2948C0 31.301 0.675272 29.6803 2.02905 28.3526C3.38121 27.025 5.06454 26.362 7.07581 26.362C8.84315 26.362 10.331 26.8344 11.541 27.7777C12.751 28.721 13.5394 30.0086 13.9061 31.6389H11.1129C10.827 30.7629 10.3342 30.079 9.63474 29.5874C8.93362 29.0957 8.08226 28.8491 7.07581 28.8491C5.82543 28.8491 4.80606 29.2639 4.01771 30.0919C3.22935 30.9198 2.83517 31.996 2.83517 33.3156C2.83517 34.6353 3.22612 35.7483 4.00801 36.5698C4.78991 37.3914 5.81251 37.803 7.07743 37.803C8.05641 37.803 8.89969 37.558 9.60566 37.0647C10.3116 36.573 10.8092 35.8892 11.0935 35.0132H13.9077C13.5135 36.6307 12.7106 37.9103 11.5022 38.8536C10.2922 39.7968 8.8173 40.2693 7.07743 40.2693L7.07581 40.2677Z" fill="#3FA9F5"/>
<path d="M24.754 37.9023H25.6926V40.005H22.8171V38.4484C22.0416 39.6206 20.8801 40.2068 19.3309 40.2068C18.0659 40.2068 16.9933 39.7488 16.1096 38.8327C15.2259 37.9167 14.7849 36.7572 14.7849 35.3559C14.7849 33.9546 15.2308 32.7951 16.1209 31.8791C17.011 30.963 18.0821 30.505 19.3325 30.505C20.9092 30.505 22.0707 31.0703 22.8187 32.2026V30.7068H24.7557V37.9023H24.754ZM19.7784 37.9231C20.5263 37.9231 21.1273 37.6812 21.5828 37.196C22.0384 36.7107 22.2662 36.091 22.2662 35.3367C22.2662 34.5824 22.0384 33.985 21.5828 33.5078C21.1273 33.0289 20.5263 32.7903 19.7784 32.7903C19.0304 32.7903 18.4666 33.0321 18.0046 33.5174C17.5425 34.0026 17.3115 34.608 17.3115 35.3367C17.3115 36.0654 17.5425 36.7107 18.0046 37.196C18.4666 37.6812 19.0578 37.9231 19.7784 37.9231Z" fill="#3FA9F5"/>
<path d="M31.7071 30.7069H31.8702V33.2532H31.6457C31.0334 33.2532 30.5682 33.4246 30.2483 33.7689C29.9284 34.1132 29.7685 34.568 29.7685 35.1334V37.9023H31.0124V40.0051H26.2419V37.9023H27.1999V32.808H26.2419V30.7053H29.2806V32.2219C29.4712 31.7638 29.783 31.3971 30.2192 31.12C30.6538 30.8446 31.1497 30.7053 31.7071 30.7053V30.7069Z" fill="#3FA9F5"/>
<path d="M36.1916 37.9023H37.1706V40.005H32.6651V37.9023H33.623V32.808H32.6651V30.7052H36.1933V37.9007L36.1916 37.9023ZM34.8863 29.5345C34.3968 29.5345 33.9817 29.3728 33.6424 29.0493C33.3032 28.7258 33.1319 28.3222 33.1319 27.837C33.1319 27.3517 33.3016 26.9241 33.6424 26.5942C33.9817 26.2643 34.3968 26.0994 34.8863 26.0994C35.3758 26.0994 35.8104 26.2643 36.1513 26.5942C36.4905 26.9241 36.6618 27.3389 36.6618 27.837C36.6618 28.335 36.4921 28.7258 36.1513 29.0493C35.812 29.3728 35.3904 29.5345 34.8863 29.5345Z" fill="#3FA9F5"/>
<path d="M44.0009 30.5051C45.3191 30.5051 46.4064 30.9599 47.2626 31.8695C48.1188 32.7792 48.5469 33.9418 48.5469 35.3559C48.5469 36.7701 48.1042 37.9167 47.2222 38.8328C46.3385 39.7488 45.2642 40.2068 44.0009 40.2068C42.4646 40.2068 41.3031 39.5999 40.5147 38.3876V40.0051H37.6198V37.9023H38.5987V28.2806H37.6198V26.1779H41.1674V31.554C41.9428 30.8542 42.8862 30.5035 44.0009 30.5035V30.5051ZM41.7586 37.1864C42.2207 37.6781 42.8184 37.9247 43.5534 37.9247C44.2885 37.9247 44.8862 37.6829 45.3482 37.1977C45.8103 36.7124 46.0413 36.0926 46.0413 35.3383C46.0413 34.584 45.807 34.0043 45.3385 33.519C44.87 33.0338 44.2755 32.792 43.555 32.792C42.8345 32.792 42.2223 33.0306 41.7602 33.5094C41.2982 33.9883 41.0672 34.5984 41.0672 35.3383C41.0672 36.0782 41.2982 36.6964 41.7602 37.188L41.7586 37.1864Z" fill="#3FA9F5" stroke="white" stroke-width="0.874164" stroke-miterlimit="10"/>
<path d="M54.4417 38.064C55.5968 38.064 56.4062 37.6332 56.8682 36.77H59.1525C58.8666 37.8078 58.3189 38.6405 57.5112 39.2667C56.7018 39.8929 55.6243 40.2068 54.2786 40.2068C52.9329 40.2068 51.7633 39.7424 50.8538 38.8119C49.9426 37.8814 49.4871 36.73 49.4871 35.3559C49.4871 33.9818 49.9556 32.8464 50.8941 31.9095C51.8327 30.9726 52.9878 30.505 54.361 30.505C55.7341 30.505 56.8795 30.963 57.7971 31.8791C58.7147 32.7951 59.1735 33.9274 59.1735 35.2742C59.1735 35.4232 59.1606 35.6313 59.1331 35.9004H51.9345C52.0298 36.5746 52.298 37.1031 52.7406 37.4875C53.1817 37.8718 53.7503 38.064 54.4434 38.064H54.4417ZM54.4207 32.4844C53.7956 32.4844 53.2721 32.6494 52.8505 32.9793C52.4289 33.3092 52.1429 33.7912 51.9943 34.4238H56.8068C56.6711 33.8041 56.3916 33.3252 55.9716 32.9889C55.55 32.6526 55.033 32.4828 54.4224 32.4828L54.4207 32.4844Z" fill="#3FA9F5"/>
<path d="M66.1476 30.5051C67.4658 30.5051 68.553 30.9599 69.4108 31.8695C70.267 32.7792 70.6951 33.9418 70.6951 35.3559C70.6951 36.7701 70.2525 37.9167 69.3704 38.8328C68.4868 39.7488 67.4125 40.2068 66.1492 40.2068C64.6128 40.2068 63.4513 39.5999 62.663 38.3875V40.005H59.768V37.9023H60.747V28.2806L60.7373 28.2678V26.165L63.3156 26.1779V31.554C64.091 30.8542 65.0345 30.5035 66.1492 30.5035L66.1476 30.5051ZM63.9053 37.1864C64.3673 37.6781 64.965 37.9247 65.7001 37.9247C66.4351 37.9247 67.0312 37.6829 67.4949 37.1976C67.9569 36.7124 68.1879 36.0926 68.1879 35.3383C68.1879 34.584 67.9537 34.0043 67.4852 33.519C67.0167 33.0338 66.4206 32.792 65.7017 32.792C64.9828 32.792 64.3689 33.0306 63.9069 33.5094C63.4449 33.9883 63.2138 34.5984 63.2138 35.3383C63.2138 36.0782 63.4449 36.6964 63.9069 37.188L63.9053 37.1864Z" fill="#8CC63F"/>
<path d="M76.5868 38.064C77.7419 38.064 78.5512 37.6332 79.0133 36.77H81.2975C81.0116 37.8078 80.464 38.6405 79.6562 39.2667C78.8469 39.8929 77.7693 40.2068 76.4236 40.2068C75.0779 40.2068 73.9083 39.7424 72.9972 38.8119C72.0861 37.8814 71.6305 36.73 71.6305 35.3559C71.6305 33.9818 72.099 32.8464 73.0376 31.9095C73.9762 30.9726 75.1313 30.505 76.5044 30.505C77.8776 30.505 79.0229 30.963 79.9405 31.8791C80.8581 32.7951 81.3169 33.9274 81.3169 35.2742C81.3169 35.4232 81.304 35.6313 81.2765 35.9004H74.0796C74.1749 36.5746 74.4431 37.1031 74.8857 37.4875C75.3267 37.8718 75.8954 38.064 76.5884 38.064H76.5868ZM76.5658 32.4844C75.9406 32.4844 75.4172 32.6494 74.9956 32.9793C74.5739 33.3092 74.288 33.7912 74.1393 34.4238H78.9519C78.8162 33.8041 78.5367 33.3252 78.1167 32.9889C77.695 32.6526 77.1781 32.4828 76.5674 32.4828L76.5658 32.4844Z" fill="#3FA9F5"/>
<path d="M85.5592 36.1647C85.5592 36.6772 85.682 37.0711 85.9259 37.3466C86.1698 37.6236 86.5042 37.7614 86.9243 37.7614H87.2716V40.005H86.5786C85.3831 40.005 84.4849 39.6847 83.8872 39.0458C83.2894 38.4052 82.9906 37.4987 82.9906 36.3264V32.8096H81.829V30.7068H82.3185C82.8629 30.7068 83.1343 30.3769 83.1343 29.7171L83.1554 27.8162H85.5608V30.7068H87.2328V32.8096H85.5608V36.1647H85.5592Z" fill="#3FA9F5"/>
<path d="M98.3586 34.56C97.9305 34.0059 97.4055 33.6119 96.7852 33.3765C96.1648 33.1427 95.5445 32.9441 94.9241 32.7792C94.3038 32.6142 93.7788 32.4108 93.3507 32.169C92.9225 31.9272 92.7077 31.6053 92.7077 31.2065C92.7077 30.8606 92.8289 30.5867 93.0744 30.3882C93.3183 30.1896 93.6689 30.0887 94.1229 30.0887C95.1018 30.0887 95.6963 30.6092 95.9063 31.6485H98.79C98.6672 30.4522 98.2213 29.5041 97.4524 28.8027C97.0033 28.3927 96.4395 28.106 95.769 27.9347V25.5805H92.5009V27.9411C91.845 28.1044 91.2909 28.3719 90.8434 28.7514C90.0567 29.4193 89.6625 30.2632 89.6625 31.2866C89.6625 32.153 89.8774 32.864 90.3055 33.4182C90.7336 33.9723 91.2586 34.3662 91.8789 34.6017C92.4993 34.8355 93.1148 35.0309 93.7271 35.1862C94.3393 35.3415 94.8595 35.5369 95.2876 35.7707C95.7157 36.0046 95.9306 36.3297 95.9306 36.746C95.9306 37.526 95.3716 37.9151 94.2521 37.9151C93.1326 37.9151 92.3991 37.361 92.1536 36.2512H89.27C89.4913 38.3715 90.5704 39.6511 92.5009 40.0979V42.2423H95.769V40.1476C96.5574 39.997 97.2149 39.7216 97.7415 39.3196C98.58 38.679 99 37.803 99 36.6948C99 35.8284 98.7851 35.1173 98.357 34.5632L98.3586 34.56Z" fill="#3FA9F5"/>
<path d="M41.19 24.8854C41.1722 24.5459 41.1641 24.2032 41.1641 23.8589C41.1641 12.5572 50.4386 3.36311 61.8391 3.36311C73.2395 3.36311 82.514 12.5572 82.514 23.8589C82.514 24.2032 82.5043 24.5443 82.4882 24.8854H85.8823C85.8968 24.5443 85.9065 24.2032 85.9065 23.8589C85.9049 10.7027 75.1086 0 61.8374 0C48.5663 0 37.7716 10.7027 37.7716 23.8589C37.7716 24.2032 37.7813 24.5443 37.7958 24.8854H41.19Z" fill="url(#paint0_linear_350_36)"/>
<defs>
<linearGradient id="paint0_linear_350_36" x1="37.7716" y1="12.4419" x2="85.9049" y2="12.4419" gradientUnits="userSpaceOnUse">
<stop stop-color="#D1CB0D"/>
<stop offset="0.24" stop-color="#FFFF00"/>
<stop offset="0.29" stop-color="#EFED04"/>
<stop offset="0.38" stop-color="#D9D40A"/>
<stop offset="0.44" stop-color="#D1CB0D"/>
<stop offset="0.55" stop-color="#FFFF00"/>
<stop offset="0.58" stop-color="#FFFF00"/>
<stop offset="0.7" stop-color="#FFFF00"/>
<stop offset="0.71" stop-color="#F7F602"/>
<stop offset="0.76" stop-color="#E6E207"/>
<stop offset="0.81" stop-color="#DAD50A"/>
<stop offset="0.88" stop-color="#D3CD0C"/>
<stop offset="1" stop-color="#D1CB0D"/>
</linearGradient>
</defs>
</svg>
