<svg width="26" height="25" viewBox="0 0 26 25" fill="none" xmlns="http://www.w3.org/2000/svg">
<path fill-rule="evenodd" clip-rule="evenodd" d="M12.5786 0C5.63179 0 0 5.59659 0 12.5C0 19.4034 5.63179 25 12.5786 25C19.5254 25 25.1572 19.4034 25.1572 12.5C25.1572 5.59659 19.5254 0 12.5786 0ZM16.8176 9.89432C17.0259 9.68 17.1412 9.39295 17.1386 9.095C17.136 8.79705 17.0157 8.51203 16.8037 8.30134C16.5917 8.09065 16.3049 7.97114 16.005 7.96855C15.7052 7.96596 15.4164 8.0805 15.2007 8.2875L12.5786 10.8932L9.95655 8.2875C9.85106 8.17897 9.72488 8.09239 9.58537 8.03284C9.44586 7.97328 9.2958 7.94194 9.14397 7.94062C8.99213 7.93931 8.84156 7.96807 8.70103 8.0252C8.56049 8.08234 8.43282 8.16672 8.32545 8.27341C8.21808 8.38011 8.13317 8.50699 8.07568 8.64664C8.01818 8.7863 7.98925 8.93593 7.99057 9.08682C7.99189 9.2377 8.02343 9.38682 8.08336 9.52546C8.14329 9.6641 8.23041 9.78949 8.33962 9.89432L10.9617 12.5L8.33962 15.1057C8.23041 15.2105 8.14329 15.3359 8.08336 15.4745C8.02343 15.6132 7.99189 15.7623 7.99057 15.9132C7.98925 16.0641 8.01818 16.2137 8.07568 16.3534C8.13317 16.493 8.21808 16.6199 8.32545 16.7266C8.43282 16.8333 8.56049 16.9177 8.70103 16.9748C8.84156 17.0319 8.99213 17.0607 9.14397 17.0594C9.2958 17.0581 9.44586 17.0267 9.58537 16.9672C9.72488 16.9076 9.85106 16.821 9.95655 16.7125L12.5786 14.1068L15.2007 16.7125C15.4164 16.9195 15.7052 17.034 16.005 17.0314C16.3049 17.0289 16.5917 16.9093 16.8037 16.6987C17.0157 16.488 17.136 16.203 17.1386 15.905C17.1412 15.607 17.0259 15.32 16.8176 15.1057L14.1955 12.5L16.8176 9.89432Z" fill="white"/>
</svg>
