<svg id="Galleta" xmlns="http://www.w3.org/2000/svg" xmlns:xlink="http://www.w3.org/1999/xlink" width="79.909" height="94.758" viewBox="0 0 79.909 94.758">
  <defs>
    <clipPath id="clip-path">
      <rect id="Rectangle_210" data-name="Rectangle 210" width="79.909" height="94.758" transform="translate(0 0)" fill="none"/>
    </clipPath>
  </defs>
  <g id="Group_574" data-name="Group 574" clip-path="url(#clip-path)">
    <path id="Path_2717" data-name="Path 2717" d="M77.939,34.67l-.175-.6A9.173,9.173,0,0,0,66.442,27.8L52.367,31.855a17.605,17.605,0,1,0-24.674,0L13.619,27.8A9.176,9.176,0,0,0,2.3,34.065l-.174.6a9.176,9.176,0,0,0,6.26,11.323l14.607,4.2c.516.981,1.034,3.026.422,6.333-.907,4.911-4.128,11.02-4.128,11.02L13.225,78.28c-2.473,4.383-.5,10.222,4.376,12.975l.611.346c4.881,2.754,10.9,1.423,13.371-2.959L35.9,80.981s.843-1.484,1.239-2.2l.026-.045a30.87,30.87,0,0,1,3.592-5.255,31.044,31.044,0,0,1,3.592,5.255l.024.045c.4.712,1.241,2.2,1.241,2.2l4.321,7.661c2.475,4.382,8.49,5.713,13.37,2.959l.612-.346C68.8,88.5,70.771,82.663,68.3,78.28L62.242,67.55a51.116,51.116,0,0,1-4.129-11.02c-.808-4.092.333-6.285.737-6.844l12.828-3.693A9.176,9.176,0,0,0,77.939,34.67" fill="#d99566"/>
    <path id="Path_2718" data-name="Path 2718" d="M12.639,27.582A4.277,4.277,0,0,0,14.117,30.9c.611.678.871,1.021.8,1.262s-.483.375-1.372.585c-1.107.262-2.779.656-3.325,2.4s.607,3.024,1.368,3.868c.611.675.87,1.019.8,1.258s-.483.373-1.371.582c-1.106.262-2.779.656-3.325,2.4a3.072,3.072,0,0,0,.395,2.628c.1.033.2.074.3.1l3.926,1.13a6.521,6.521,0,0,0-1.257-1.8c-.609-.678-.87-1.019-.8-1.259s.484-.374,1.371-.582c1.107-.261,2.78-.655,3.325-2.4s-.606-3.023-1.368-3.867c-.611-.677-.871-1.019-.8-1.258s.485-.376,1.373-.586c1.106-.261,2.779-.655,3.324-2.4s-.6-3.026-1.366-3.87a7.91,7.91,0,0,1-.623-.752l-1.877-.54a8.959,8.959,0,0,0-.979-.221" fill="#fff"/>
    <path id="Path_2719" data-name="Path 2719" d="M67.318,27.582A4.277,4.277,0,0,1,65.84,30.9c-.611.678-.871,1.021-.795,1.262s.484.375,1.372.585c1.107.262,2.779.656,3.325,2.4s-.607,3.024-1.367,3.868c-.612.675-.871,1.019-.8,1.258s.483.373,1.371.582c1.105.262,2.778.656,3.324,2.4a3.072,3.072,0,0,1-.4,2.628c-.1.033-.2.074-.3.1l-3.926,1.13a6.521,6.521,0,0,1,1.257-1.8c.61-.678.869-1.019.8-1.259s-.484-.374-1.371-.582c-1.107-.261-2.78-.655-3.325-2.4s.606-3.023,1.369-3.867c.61-.677.869-1.019.8-1.258s-.486-.376-1.374-.586c-1.107-.261-2.779-.655-3.325-2.4s.6-3.026,1.367-3.87a7.909,7.909,0,0,0,.623-.752l1.877-.54a9.011,9.011,0,0,1,.979-.221" fill="#fff"/>
    <path id="Path_2720" data-name="Path 2720" d="M67.418,76.722l-1.871-3.315a4.87,4.87,0,0,0-4.44-.073,4.025,4.025,0,0,0-1.976,3.912c-.028.922-.085,1.358-.346,1.5s-.715-.013-1.643-.414a5.156,5.156,0,0,0-4.79-.223,4.021,4.021,0,0,0-1.974,3.912c-.028.92-.085,1.355-.344,1.5s-.716-.013-1.643-.412a9,9,0,0,0-1.933-.635l2.087,3.7a4.193,4.193,0,0,0,3.033-.384,4.026,4.026,0,0,0,1.975-3.913c.028-.92.084-1.355.344-1.5s.715.015,1.641.414a5.169,5.169,0,0,0,4.791.226A4.024,4.024,0,0,0,62.305,77.1c.029-.922.087-1.357.346-1.5s.719.012,1.646.412a6.6,6.6,0,0,0,3.121.708" fill="#fff"/>
    <path id="Path_2721" data-name="Path 2721" d="M14.188,76.722l1.871-3.315a4.87,4.87,0,0,1,4.44-.073,4.028,4.028,0,0,1,1.976,3.912c.028.922.085,1.358.346,1.5s.715-.013,1.642-.414a5.158,5.158,0,0,1,4.791-.223,4.023,4.023,0,0,1,1.974,3.912c.028.92.084,1.355.343,1.5s.716-.013,1.643-.412a9.008,9.008,0,0,1,1.934-.635l-2.087,3.7a4.189,4.189,0,0,1-3.032-.384,4.025,4.025,0,0,1-1.976-3.913c-.028-.92-.083-1.355-.344-1.5s-.716.015-1.642.414a5.168,5.168,0,0,1-4.791.226A4.027,4.027,0,0,1,19.3,77.1c-.029-.922-.086-1.357-.346-1.5s-.718.012-1.646.412a6.6,6.6,0,0,1-3.12.708" fill="#fff"/>
    <path id="Path_2722" data-name="Path 2722" d="M60.051,51.093l1.409-.407c8.473-2.439,20.422-4.424,18.172-16.085a1.78,1.78,0,0,0-.069-.378,1.738,1.738,0,0,0-.123-.373c-3.391-10.844-14.077-7.89-22.752-5.115A19.439,19.439,0,0,0,40.029.011C32.471-.255,25.667,4.733,22.474,11.324a18.786,18.786,0,0,0,.962,17.552l-9.113-2.623C7.451,24.274,1.658,28.847.236,35.433c-1.446,6.7,4,11.12,9.673,12.751q4.665,1.346,9.333,2.688l3.052.879c-.518-.15-.341.991-.29,1.886a15.762,15.762,0,0,1-.837,4.967C18.316,69,4.4,80.825,14.371,90.973c4.592,4.674,14.113,5.413,18.033-.525,3.013-4.562,5.13-9.77,8.346-14.2,4.832,6.988,7.13,17.476,16.691,18.464,5.274.546,10.547-3.411,12.68-7.941,2.07-4.395.217-8.3-1.94-12.119-1.679-2.974-3.5-5.905-4.994-8.979-1.793-3.686-3.459-7.72-3.673-11.857a7.014,7.014,0,0,1,.336-2.346c.091-.155.155-.274.2-.373M61.123,69l5.144,9.116c3.458,6.127-1.094,12.416-7.648,13.218-5.894.721-8.091-5.073-10.426-9.213a64.645,64.645,0,0,0-6.242-9.822,1.677,1.677,0,0,0-2.381,0c-3.207,3.859-5.462,8.445-7.92,12.8-1.478,2.618-2.643,4.857-5.744,5.938-4.868,1.7-10.291-2.2-11.793-6.648C12.6,79.889,17.8,73.6,19.87,69.934a41.757,41.757,0,0,0,5.382-14.5c.244-1.75.342-5.007-1.074-6.423-.882-.881-2.925-1.062-4.04-1.382-4.27-1.23-9.182-1.991-13.145-4.072-4.769-2.5-4.169-8.985-1.026-12.379,2.542-2.747,6.13-2.056,9.248-1.158l12.031,3.463a1.7,1.7,0,0,0,1.639-2.814A16.058,16.058,0,0,1,40.029,3.379c14.527-.51,20.334,17.535,11.146,27.285a1.7,1.7,0,0,0,1.638,2.814c6.9-1.986,20.5-8.779,23.5,1.639C78.424,44.89,65.042,46.15,58.4,48.062c-3.379.972-2.125,7.986-1.63,10.164A41.447,41.447,0,0,0,61.123,69" fill="#edb188"/>
    <path id="Path_2723" data-name="Path 2723" d="M33.5,18.145a2.352,2.352,0,1,1-2.352-2.352A2.353,2.353,0,0,1,33.5,18.145" fill="#fff"/>
    <path id="Path_2724" data-name="Path 2724" d="M51.847,18.145a2.352,2.352,0,1,1-2.352-2.352,2.353,2.353,0,0,1,2.352,2.352" fill="#fff"/>
    <path id="Path_2725" data-name="Path 2725" d="M35.148,22.176a5.463,5.463,0,0,0,10.865,0Z" fill="#fff"/>
    <path id="Path_2726" data-name="Path 2726" d="M42.432,38.217a2.3,2.3,0,1,1-2.3-2.3,2.3,2.3,0,0,1,2.3,2.3" fill="#fff"/>
    <path id="Path_2727" data-name="Path 2727" d="M42.432,47.2a2.3,2.3,0,1,1-2.3-2.3,2.3,2.3,0,0,1,2.3,2.3" fill="#fff"/>
    <path id="Path_2728" data-name="Path 2728" d="M42.432,56.18a2.3,2.3,0,1,1-2.3-2.3,2.3,2.3,0,0,1,2.3,2.3" fill="#fff"/>
    <path id="Path_2729" data-name="Path 2729" d="M42.432,65.162a2.3,2.3,0,1,1-2.3-2.3,2.3,2.3,0,0,1,2.3,2.3" fill="#fff"/>
  </g>
</svg>
