<svg xmlns="http://www.w3.org/2000/svg" xmlns:xlink="http://www.w3.org/1999/xlink" width="27.241" height="27.248" viewBox="0 0 27.241 27.248">
  <defs>
    <clipPath id="clip-path">
      <rect id="Rectangle_211" data-name="Rectangle 211" width="27.241" height="27.248" fill="none"/>
    </clipPath>
  </defs>
  <g id="Group_579" data-name="Group 579" transform="translate(0 0)">
    <g id="Group_576" data-name="Group 576" transform="translate(0 0)" clip-path="url(#clip-path)">
      <path id="Path_2730" data-name="Path 2730" d="M14.369,25.005c0,.463,0,.928,0,1.39a.755.755,0,1,1-1.5-.006c0-.462,0-.924,0-1.461-.326.322-.6.6-.883.87a.746.746,0,0,1-1.248-.431.745.745,0,0,1,.25-.678c.52-.52,1.022-1.059,1.566-1.551a.947.947,0,0,0,.266-1.037c-.306.337-.561.634-.836.913a.69.69,0,0,1-.752.162.708.708,0,0,1-.494-.593.772.772,0,0,1,.273-.7q.854-.847,1.7-1.705a.454.454,0,0,0,.151-.26c.01-1.122.007-2.243.007-3.352l-.947-.431c-.716.722-1.454,1.46-2.182,2.208a.467.467,0,0,0-.074.293c-.006.794,0,1.586,0,2.38,0,.535-.3.869-.764.862s-.731-.334-.734-.861c0-.338,0-.677,0-1.079-.258.231-.5.375-.481.753.028.762.01,1.527.008,2.292,0,.537-.3.87-.761.864s-.732-.335-.736-.859c0-.344,0-.687,0-1.118-.419.423-.777.786-1.137,1.145-.088.09-.173.184-.267.266a.74.74,0,0,1-1.045-.009.727.727,0,0,1,0-1.043c.373-.393.764-.768,1.145-1.153.067-.066.127-.136.236-.253-.411,0-.764,0-1.117,0a.752.752,0,1,1,0-1.495c.735,0,1.471,0,2.206,0,.5,0,.5,0,.857-.472-.382,0-.734,0-1.086,0a.752.752,0,1,1-.014-1.495c.792-.006,1.586.007,2.379-.009a.686.686,0,0,0,.425-.168c.683-.66,1.338-1.345,2.023-2,.281-.268-.02-.449-.054-.667-.009-.06-.186-.133-.286-.133-1.112-.01-2.224-.014-3.336,0a.678.678,0,0,0-.419.183c-.585.563-1.152,1.146-1.732,1.715a.718.718,0,0,1-.877.15.7.7,0,0,1-.388-.772,1.145,1.145,0,0,1,.258-.469c.228-.263.483-.5.727-.749,0,0,0-.017.007-.049a.886.886,0,0,0-.894.261c-.49.546-1.029,1.049-1.551,1.568a.752.752,0,0,1-1.129.074.764.764,0,0,1,.073-1.13c.231-.235.464-.467.7-.7a.459.459,0,0,0,.038-.092c-.4,0-.779.008-1.158,0a.746.746,0,1,1,0-1.493c.375-.007.752,0,1.213,0-.295-.3-.554-.535-.783-.8a1.227,1.227,0,0,1-.28-.49.7.7,0,0,1,.387-.771.721.721,0,0,1,.879.149c.524.514,1.059,1.021,1.555,1.564a.9.9,0,0,0,.99.307c-.259-.26-.516-.5-.749-.759a1.2,1.2,0,0,1-.274-.462.7.7,0,0,1,.357-.787.722.722,0,0,1,.9.136c.587.576,1.16,1.166,1.751,1.737a.646.646,0,0,0,.4.163c1.111.013,2.224,0,3.335.013.2,0,.254-.085.347-.246.216-.374.1-.6-.192-.872-.643-.6-1.246-1.242-1.88-1.854a.641.641,0,0,0-.4-.166c-.782-.016-1.566-.007-2.35-.009a.752.752,0,1,1-.013-1.495c.336,0,.672,0,1.058,0-.221-.291-.4-.5-.783-.483-.744.035-1.489.013-2.234.009a.749.749,0,0,1-.838-.727A.758.758,0,0,1,4,6.267c.335,0,.67,0,1.092,0-.243-.244-.427-.432-.616-.619s-.385-.381-.573-.574A.75.75,0,1,1,4.952,4.01c.332.325.657.656.987.984.067.066.136.128.258.243,0-.449-.009-.841,0-1.23a.742.742,0,0,1,1.13-.654.766.766,0,0,1,.366.712c0,.754.024,1.511-.012,2.263a.9.9,0,0,0,.483.853c0-.389,0-.742,0-1.1,0-.535.3-.878.753-.874s.744.349.745.887c0,.784-.009,1.568.009,2.351a.729.729,0,0,0,.18.449c.712.735,1.442,1.453,2.153,2.166l.864-.377c0-1.109,0-2.231-.007-3.352a.451.451,0,0,0-.148-.261C12.133,6.481,11.54,5.9,10.957,5.3a.713.713,0,0,1-.135-.879.7.7,0,0,1,.777-.375,1.053,1.053,0,0,1,.445.244c.263.24.5.509.8.818.028-.366.094-.635-.184-.893-.586-.548-1.145-1.126-1.706-1.7a.715.715,0,0,1-.134-.88.7.7,0,0,1,.779-.374,1.246,1.246,0,0,1,.446.245,4.126,4.126,0,0,1,.393.386c.121.126.239.253.4.423.015-.127.03-.2.03-.263,0-.417,0-.833,0-1.248a.75.75,0,1,1,1.5.01c0,.474,0,.947,0,1.5.223-.218.4-.393.583-.57.1-.095.187-.2.288-.286a.75.75,0,0,1,1.047,0A.724.724,0,0,1,16.3,2.5c-.516.537-1.035,1.074-1.583,1.578a.886.886,0,0,0-.311.98c.181-.176.355-.343.528-.513.1-.095.188-.194.288-.285a.753.753,0,0,1,1.069-.017.729.729,0,0,1-.012,1.065c-.538.554-1.082,1.106-1.643,1.639a.8.8,0,0,0-.271.655c.016,1.025.007,2.05.007,3.083.226.1.442.2.667.283a.257.257,0,0,0,.213-.065c.7-.687,1.389-1.376,2.071-2.075a.534.534,0,0,0,.112-.335c.009-.85,0-1.7.009-2.553A.736.736,0,0,1,18.86,5.67a1.312,1.312,0,0,1,.059.426c.008.353,0,.706,0,1.1a.912.912,0,0,0,.492-.856c-.034-.782-.013-1.568-.008-2.35a.707.707,0,0,1,.476-.7.638.638,0,0,1,.769.163,1.075,1.075,0,0,1,.229.567c.035.381.01.767.01,1.244l.431-.429c.274-.274.545-.55.821-.821a.763.763,0,0,1,1.109-.066.749.749,0,0,1-.061,1.129c-.373.377-.751.746-1.191,1.185.426,0,.767-.006,1.108,0a.764.764,0,0,1,.782.528.743.743,0,0,1-.737.966c-.725.008-1.451,0-2.176,0-.521,0-.521,0-.9.471.387,0,.738-.006,1.088,0a.749.749,0,1,1-.007,1.495c-.794,0-1.586-.007-2.38.008a.647.647,0,0,0-.4.163c-.68.66-1.342,1.338-2.018,2a.259.259,0,0,0-.067.371,5.836,5.836,0,0,1,.258.6c1.263,0,2.53,0,3.8-.007a.49.49,0,0,0,.288-.156c.545-.534,1.082-1.078,1.623-1.618.427-.426.85-.478,1.19-.144s.285.783-.146,1.212c-.218.216-.442.427-.712.686.381.039.658.079.92-.208.487-.536,1.019-1.034,1.532-1.546.427-.426.851-.478,1.191-.144s.288.78-.126,1.191a5.578,5.578,0,0,0-.661.736c.341,0,.682-.008,1.021,0a.747.747,0,1,1,.012,1.494c-.338.007-.677,0-1.065,0a2.357,2.357,0,0,0,.152.192c.21.214.426.422.634.639a.752.752,0,0,1,.039,1.088.735.735,0,0,1-1.086-.028c-.518-.508-1.044-1.008-1.534-1.543a.884.884,0,0,0-.981-.312c.17.174.33.341.493.507.1.1.208.2.306.308a.751.751,0,0,1,.017,1.067.729.729,0,0,1-1.065-.009c-.554-.541-1.107-1.084-1.639-1.645a.808.808,0,0,0-.655-.27c-1.1.015-2.205.012-3.307,0a.291.291,0,0,0-.343.25,2.568,2.568,0,0,1-.342.661,2.494,2.494,0,0,1,.356.246c.531.52,1.062,1.043,1.579,1.58a.742.742,0,0,0,.6.256c.725-.017,1.451-.007,2.176,0a1.689,1.689,0,0,1,.317.02.741.741,0,0,1-.092,1.471c-.386.014-.773,0-1.222,0,.231.259.377.5.753.483.783-.029,1.568-.014,2.35-.006a.747.747,0,1,1,.039,1.493,7.952,7.952,0,0,0-1.159.068c.259.251.521.5.779.755.208.2.414.408.616.616a.75.75,0,1,1-1.048,1.064c-.394-.386-.781-.777-1.168-1.171a2.318,2.318,0,0,1-.193-.253c-.032.013-.064.027-.095.042,0,.379.006.758,0,1.137a.747.747,0,1,1-1.494-.009c-.007-.744,0-1.49,0-2.234,0-.524,0-.524-.474-.894,0,.414.007.794,0,1.174a.739.739,0,0,1-.858.758.751.751,0,0,1-.637-.806c0-.8.006-1.607-.01-2.409a.681.681,0,0,0-.172-.424c-.589-.615-1.2-1.2-1.8-1.816-.133-.135-.231-.11-.4-.07-.436.1-.512.357-.5.765.033.879.016,1.759.006,2.641a.6.6,0,0,0,.2.478c.554.539,1.1,1.091,1.645,1.638A.754.754,0,0,1,16.294,23a.767.767,0,0,1-1.131-.067q-.36-.355-.722-.712c-.006-.006-.017,0-.052-.014a.886.886,0,0,0,.238.876c.551.5,1.063,1.043,1.587,1.572a.754.754,0,0,1,.079,1.13.763.763,0,0,1-1.13-.07c-.244-.245-.478-.5-.717-.75l-.076.044" transform="translate(0 0.001)" fill="#fff"/>
      <path id="Path_2731" data-name="Path 2731" d="M22.778,6.414a.86.86,0,0,1,.855.872.874.874,0,0,1-.872.863A.885.885,0,0,1,21.9,7.27a.873.873,0,0,1,.879-.856" transform="translate(3.399 0.996)" fill="#fff"/>
      <path id="Path_2732" data-name="Path 2732" d="M7.384.575a.864.864,0,1,1-.869.858A.866.866,0,0,1,7.384.575" transform="translate(1.011 0.09)" fill="#fff"/>
      <path id="Path_2733" data-name="Path 2733" d="M7.374,23.243a.864.864,0,1,1,.012-1.727.864.864,0,1,1-.012,1.727" transform="translate(1.011 3.34)" fill="#fff"/>
      <path id="Path_2734" data-name="Path 2734" d="M2.034,7.279a.869.869,0,0,1-.862.87.883.883,0,0,1-.868-.872.869.869,0,0,1,.869-.863.855.855,0,0,1,.861.865" transform="translate(0.047 0.996)" fill="#fff"/>
      <path id="Path_2735" data-name="Path 2735" d="M17.406,22.374a.853.853,0,0,1-.855.869.864.864,0,1,1,.855-.869" transform="translate(2.432 3.34)" fill="#fff"/>
      <path id="Path_2736" data-name="Path 2736" d="M16.528.576a.853.853,0,0,1,.878.846.862.862,0,0,1-.849.88A.863.863,0,1,1,16.528.576" transform="translate(2.432 0.09)" fill="#fff"/>
      <path id="Path_2737" data-name="Path 2737" d="M22.756,17.417a.862.862,0,1,1,.025-1.725.862.862,0,1,1-.025,1.725" transform="translate(3.399 2.436)" fill="#fff"/>
      <path id="Path_2738" data-name="Path 2738" d="M2.034,16.553a.852.852,0,0,1-.859.864.862.862,0,1,1,0-1.725.854.854,0,0,1,.863.861" transform="translate(0.047 2.436)" fill="#fff"/>
    </g>
  </g>
</svg>
