<svg width="78" height="30" viewBox="0 0 78 30" fill="none" xmlns="http://www.w3.org/2000/svg">
<path d="M15.9298 0.423462C16.1714 0.445766 16.4093 0.456924 16.6473 0.486663C17.1974 0.557294 17.7625 0.613058 18.2978 0.709711C19.4386 0.915601 20.554 1.24337 21.6249 1.68739C22.3836 1.98701 23.1037 2.37639 23.7698 2.84723L23.9297 2.97734L22.8553 4.43456C21.7698 5.92153 20.6769 7.37132 19.5989 8.84714C19.465 9.03301 19.3312 9.14454 19.1007 9.09621C18.9494 9.06496 18.7921 9.08443 18.653 9.15163C18.5139 9.21883 18.4008 9.33001 18.3312 9.46795C17.4651 10.6984 16.5655 11.9066 15.6807 13.1259L15.5878 13.2263L14.9298 12.2932L12.7625 9.23003C12.7445 9.19179 12.7162 9.15935 12.6807 9.13636C12.6453 9.11337 12.604 9.10076 12.5618 9.09993C11.6436 9.09993 10.7254 9.09993 9.80719 9.09993H9.67336L10.2533 9.93263L14.0339 15.2931C14.0569 15.3179 14.0697 15.3504 14.0697 15.3842C14.0697 15.418 14.0569 15.4506 14.0339 15.4753C13.2904 16.4914 12.5556 17.505 11.8295 18.5162C11.1975 19.3836 10.568 20.251 9.94101 21.1184C9.92884 21.1365 9.92003 21.1566 9.91498 21.1778H10.5432L6.65852 26.7986L6.43548 26.6201C3.88649 24.5021 2.08871 21.6183 1.30917 18.3972C1.16052 17.7383 1.05619 17.0701 0.996894 16.3972C0.934383 15.7698 0.914521 15.1389 0.937425 14.5088C1.06089 11.4712 2.13055 8.54812 3.99686 6.1483C5.40557 4.32624 7.22264 2.86061 9.30162 1.86954C10.4581 1.31384 11.6831 0.913832 12.9447 0.679965C13.656 0.537403 14.3791 0.461492 15.1045 0.453208C15.1807 0.44855 15.2565 0.438606 15.3313 0.423462H15.9298ZM8.72913 20.412V20.189C8.72913 17.36 8.72913 14.5311 8.72913 11.7021C8.71552 11.326 8.66321 10.9523 8.573 10.5869C8.49336 10.2226 8.27975 9.90149 7.9745 9.68728C7.52508 9.38808 6.99372 9.23608 6.45407 9.25234C5.62136 9.25234 4.79239 9.25234 3.95969 9.25234H3.7924V10.4828H4.32399L4.84444 10.5125C4.93781 10.5141 5.02984 10.5351 5.11467 10.5741C5.1995 10.6132 5.27527 10.6695 5.33716 10.7394C5.39905 10.8093 5.44571 10.8914 5.47416 10.9803C5.50261 11.0693 5.51222 11.1632 5.50241 11.256C5.50241 14.2597 5.50241 17.2634 5.50241 20.2671V20.4195L8.72913 20.412Z" fill="#1500FF"/>
<path d="M7.87402 27.5977L9.21231 25.6386C10.1689 24.2409 11.1206 22.8419 12.0673 21.4417C12.0897 21.397 12.1252 21.3603 12.169 21.3364C12.2129 21.3125 12.263 21.3025 12.3126 21.3079C12.465 21.3079 12.6212 21.3079 12.7736 21.3079C12.833 21.3138 12.8929 21.3022 12.9457 21.2744C12.9986 21.2467 13.0421 21.204 13.071 21.1517C14.0152 19.8506 14.9619 18.552 15.9111 17.2559C15.9331 17.2273 15.9567 17.2 15.9817 17.1741L16.6472 18.1146L18.8367 21.2038C18.8546 21.2286 18.8774 21.2496 18.9035 21.2656C18.9297 21.2815 18.9588 21.2921 18.9891 21.2967C19.9333 21.2967 20.8738 21.2967 21.8181 21.2967H21.8924C20.424 19.2112 18.9668 17.1332 17.4984 15.044L21.714 9.22994H21.0709L24.9556 3.65381C28.2269 6.44559 30.2678 9.89536 30.5986 14.215C30.828 17.2605 30.1033 20.3018 28.5251 22.9166C26.9469 25.5314 24.5936 27.5898 21.792 28.8059C16.7475 31.0066 10.7587 29.7724 7.87402 27.5977ZM24.6024 18.8469C24.6024 18.6685 24.6024 18.5086 24.6024 18.3488C24.583 18.0478 24.6288 17.7463 24.7366 17.4646C24.8444 17.183 25.0116 16.9279 25.2269 16.7168C25.7367 16.2305 26.2822 15.7832 26.8589 15.3786C27.3688 15.0296 27.8399 14.627 28.2641 14.1778C28.5931 13.811 28.7757 13.336 28.7771 12.8433C28.7771 12.3154 28.7771 11.7875 28.7771 11.2597C28.7756 11.1347 28.7619 11.0102 28.7362 10.8879C28.6741 10.582 28.5341 10.2973 28.3295 10.0616C28.125 9.82576 27.863 9.64685 27.5689 9.5422C27.0791 9.35315 26.5618 9.24518 26.0373 9.22251C25.2898 9.15035 24.5353 9.20693 23.8069 9.3898C23.2414 9.53019 22.7453 9.86928 22.4092 10.3452C22.1258 10.7887 21.9797 11.3059 21.9891 11.8321C21.9891 12.3117 21.9891 12.7949 21.9891 13.2745C21.9891 13.5496 21.9891 13.8247 21.9891 14.1295L22.2084 13.9734L24.4649 12.334C24.5036 12.3095 24.5352 12.2754 24.5567 12.235C24.5782 12.1946 24.5889 12.1493 24.5876 12.1035C24.5876 11.795 24.5876 11.4901 24.5876 11.1816C24.5815 11.0535 24.6196 10.9272 24.6953 10.8237C24.7711 10.7202 24.88 10.6458 25.0039 10.6128C25.2462 10.5385 25.5051 10.5385 25.7474 10.6128C25.8814 10.6401 26.0014 10.7141 26.0859 10.8217C26.1703 10.9294 26.2137 11.0635 26.2083 11.2002C26.2083 11.5719 26.2083 11.9437 26.2083 12.3377C26.2109 12.5259 26.1738 12.7125 26.0995 12.8854C26.0252 13.0583 25.9154 13.2137 25.7771 13.3414C25.1603 13.9286 24.5059 14.475 23.818 14.9771C23.4463 15.2893 23.0485 15.5905 22.7028 15.9362C22.4589 16.1643 22.2665 16.4417 22.1383 16.75C22.0101 17.0584 21.9491 17.3905 21.9593 17.7243C21.9854 18.557 21.9593 19.3934 21.9593 20.2298V20.3934H28.7362C28.7362 19.9212 28.7362 19.464 28.7362 19.0068C28.7362 18.8618 28.7102 18.8395 28.5763 18.8395H24.8069L24.6024 18.8469Z" fill="#1500FF"/>
<path d="M67.4839 17.4937V17.2558C67.3389 17.2744 67.3574 17.174 67.3574 17.0885C67.3574 15.6424 67.3574 14.2001 67.3574 12.754C67.374 12.6101 67.3575 12.4643 67.3092 12.3277C67.2609 12.1911 67.182 12.0674 67.0786 11.9659C66.9619 11.8716 66.8273 11.8018 66.683 11.7608C66.5386 11.7197 66.3874 11.7082 66.2385 11.7269C66.0896 11.7457 65.946 11.7943 65.8164 11.8698C65.6867 11.9454 65.5736 12.0464 65.4839 12.1667C65.2926 12.4223 65.1955 12.7361 65.2088 13.0551V17.4565H62.7033C62.6475 17.3896 62.759 17.2261 62.562 17.2409V11.0551C62.562 10.6128 62.562 10.1741 62.5322 9.73174C62.5322 9.65367 62.5322 9.59048 62.64 9.59048H64.6772C64.6772 9.702 64.6772 9.82096 64.8296 9.81725L64.8928 10.3786C65.1122 10.2038 65.3092 10.0328 65.521 9.88044C65.8311 9.68433 66.1798 9.55753 66.5433 9.50869C66.9904 9.43347 67.4486 9.45759 67.8853 9.57933C68.4422 9.73027 68.9231 10.0827 69.2347 10.5682C69.5801 11.078 69.7935 11.6656 69.8556 12.2782C69.8779 12.5124 69.9076 12.7429 69.9225 12.8804C70.0042 12.5607 70.0935 12.1369 70.2124 11.7652C70.3435 11.3786 70.5466 11.0204 70.8109 10.7094C71.2034 10.1955 71.7488 9.81938 72.3686 9.63508C73.0009 9.42501 73.6842 9.42501 74.3165 9.63508C74.6951 9.75656 75.0256 9.99469 75.2607 10.3154C75.2854 10.3403 75.3115 10.3639 75.3388 10.386L75.4057 9.64253H77.5729L77.5952 9.83955L77.6956 9.85813C77.697 9.88041 77.697 9.90277 77.6956 9.92505V10.847C77.6956 12.8098 77.6956 14.7726 77.6584 16.7317C77.6615 17.4289 77.5064 18.1178 77.2049 18.7465C76.9294 19.3156 76.4768 19.7799 75.9149 20.0699C75.421 20.3412 74.8747 20.5035 74.3128 20.5457C73.7774 20.5897 73.2396 20.5984 72.7031 20.5717C72.0379 20.541 71.3868 20.3699 70.7924 20.0699C70.7106 20.0253 70.6362 19.9955 70.7254 19.8692C70.4727 19.8283 70.5656 19.6758 70.5991 19.542L71.0266 17.8878C71.3017 17.9956 71.5693 18.1108 71.8481 18.2149C72.3514 18.4024 72.8879 18.4847 73.4243 18.4565C73.7285 18.4638 74.0286 18.3863 74.2913 18.2327C74.5539 18.079 74.7685 17.8553 74.9113 17.5867C75.054 17.3265 75.121 17.0316 75.1046 16.7354C74.9262 16.8614 74.7413 16.9781 74.5507 17.0848C74.041 17.3373 73.4676 17.4318 72.9038 17.3562C72.3967 17.3016 71.9112 17.1215 71.4912 16.832C71.1176 16.5621 70.8037 16.2178 70.5693 15.8209C70.2796 15.3676 70.0802 14.8628 69.982 14.3339C69.9631 14.2025 69.9371 14.0722 69.9039 13.9436V14.0923C69.9039 15.1666 69.9039 16.2447 69.9039 17.319C69.9039 17.4714 69.8593 17.5086 69.7106 17.5086C69.0191 17.5086 68.3277 17.5086 67.6362 17.5086L67.4839 17.4937ZM73.8481 15.2818C73.9393 15.2718 74.0298 15.2569 74.1194 15.2372C74.4073 15.1433 74.654 14.953 74.8179 14.6984C74.9818 14.4438 75.0528 14.1404 75.0191 13.8395C74.9745 13.4678 75.0191 13.096 74.993 12.7057C74.9983 12.5813 74.9908 12.4568 74.9708 12.3339C74.932 12.2013 74.8667 12.078 74.7789 11.9713C74.6912 11.8646 74.5827 11.7768 74.46 11.7133C74.3374 11.6497 74.2031 11.6116 74.0654 11.6014C73.9276 11.5911 73.7892 11.6089 73.6585 11.6537C73.4355 11.7126 73.2314 11.8281 73.066 11.9889C72.9006 12.1498 72.7794 12.3506 72.7143 12.5719C72.5162 13.0989 72.4736 13.6718 72.5916 14.2224C72.6344 14.5225 72.7861 14.7963 73.0178 14.9917C73.2496 15.1871 73.5451 15.2904 73.8481 15.2818V15.2818Z" fill="#1500FF"/>
<path d="M33.8225 17.8952C34.1943 18.0328 34.5883 18.1889 34.9749 18.3004C35.3831 18.4229 35.8098 18.4719 36.2351 18.4454C36.5142 18.4476 36.7894 18.3809 37.0365 18.2512C37.2836 18.1215 37.4948 17.9329 37.6515 17.7019C37.8346 17.4029 37.9239 17.0559 37.908 16.7057C37.7407 16.8209 37.5883 16.9324 37.4284 17.0328C37.1422 17.1993 36.8244 17.3043 36.4953 17.3413C36.0229 17.412 35.5404 17.3712 35.0865 17.2224C34.7095 17.1093 34.3619 16.9152 34.0679 16.6536C33.3878 16.0395 32.9401 15.2098 32.8002 14.3042C32.7391 13.987 32.7092 13.6645 32.711 13.3414C32.7157 12.6597 32.8732 11.9877 33.172 11.3749C33.4868 10.7232 33.9977 10.1864 34.6329 9.83959C35.1929 9.53885 35.829 9.40956 36.4619 9.46785C36.7919 9.48708 37.1136 9.57945 37.4035 9.73825C37.6935 9.89705 37.9445 10.1183 38.1385 10.3861L38.2091 9.62397H40.3615V9.80985L40.4842 9.85446C40.4619 10.2262 40.4395 10.624 40.4209 11.0106C40.419 11.0316 40.419 11.0528 40.4209 11.0738V14.3079C40.5213 14.0923 40.618 13.8693 40.7295 13.6574C40.943 13.2888 41.2544 12.9864 41.6291 12.7838C42.1841 12.4662 42.7996 12.2686 43.4358 12.2039C43.8744 12.1518 44.3131 12.1147 44.7592 12.0738C44.7677 11.9853 44.7492 11.8964 44.706 11.8187C44.6629 11.741 44.5971 11.6783 44.5176 11.6388C44.2787 11.4954 44.0043 11.422 43.7257 11.4269C42.9662 11.4054 42.2157 11.5959 41.5585 11.9771C41.5364 11.9912 41.5127 12.0024 41.4878 12.0106C41.4104 11.8745 41.3433 11.7329 41.2871 11.5868C41.1533 11.1593 41.0492 10.7243 40.9154 10.3005C40.8708 10.1593 40.9154 10.1072 41.0343 10.0626C41.3317 9.94368 41.6217 9.80242 41.9302 9.6909C42.5757 9.50096 43.2462 9.40946 43.9191 9.41952C44.5372 9.40083 45.1511 9.52819 45.7108 9.79126C46.187 10.0414 46.5759 10.4303 46.8261 10.9065C47.063 11.3444 47.2179 11.8218 47.2833 12.3154C47.3075 12.4653 47.3187 12.6171 47.3168 12.7689C47.3168 13.9473 47.3168 15.1258 47.3168 16.3042C47.3356 16.6368 47.3728 16.9682 47.4283 17.2967C47.4283 17.3822 47.4581 17.4677 47.3279 17.4677H45.209C45.1569 17.3748 45.1607 17.2819 45.0491 17.2187C44.9376 17.1555 44.9897 16.9919 44.9636 16.8692C44.6057 17.1818 44.1765 17.4018 43.7138 17.51C43.2511 17.6183 42.7689 17.6114 42.3094 17.49C41.2834 17.2744 40.7629 16.5124 40.4172 15.5533C40.4172 15.8804 40.4172 16.1704 40.4172 16.4603C40.4304 17.1731 40.3041 17.8815 40.0455 18.5458C39.81 19.1374 39.3834 19.6334 38.8336 19.9547C38.3329 20.2556 37.7718 20.4422 37.1905 20.5012C36.6308 20.555 36.0679 20.5662 35.5065 20.5346C34.8367 20.4993 34.1801 20.3339 33.5735 20.0476C33.4805 20.003 33.4359 19.9473 33.4954 19.8357C33.2686 19.7837 33.3541 19.635 33.3876 19.5049C33.54 18.977 33.685 18.4268 33.8225 17.8952ZM37.9117 13.2968C37.9117 13.215 37.9117 13.1332 37.9117 13.0514C37.935 12.7681 37.8931 12.4833 37.789 12.2187C37.6723 11.9798 37.4741 11.7904 37.2301 11.6848C36.986 11.5791 36.7123 11.5642 36.4582 11.6425C36.2313 11.7056 36.0247 11.8264 35.8586 11.9932C35.6924 12.16 35.5724 12.3671 35.5102 12.5942C35.3018 13.1847 35.2836 13.8256 35.4582 14.4269C35.5008 14.6022 35.5878 14.7635 35.711 14.8953C35.852 15.0435 36.0282 15.1536 36.2232 15.2153C36.4182 15.2771 36.6256 15.2885 36.8262 15.2484C37.0341 15.2195 37.2304 15.1352 37.3945 15.0044C37.5587 14.8736 37.6847 14.7011 37.7593 14.505C37.8916 14.1168 37.9422 13.7055 37.908 13.2968H37.9117ZM44.7852 13.9325C44.7249 13.9432 44.6641 13.9507 44.603 13.9548C44.2599 13.9549 43.9198 14.0179 43.5994 14.1407C43.4374 14.1832 43.2903 14.2695 43.1742 14.3902C43.0581 14.5108 42.9776 14.6612 42.9414 14.8247C42.8819 15.1964 42.9079 15.4157 43.3131 15.5198C43.4818 15.5625 43.657 15.5739 43.8298 15.5533C44.0414 15.5216 44.2394 15.4298 44.4002 15.2888C44.561 15.1477 44.6779 14.9634 44.7369 14.7577C44.7778 14.4901 44.7666 14.215 44.7815 13.9325H44.7852Z" fill="#1500FF"/>
<path d="M49.7474 9.78037C49.937 9.80639 49.8775 9.95509 49.9035 10.0517C49.9219 10.1422 49.9294 10.2346 49.9259 10.3268C50.1639 10.1294 50.4121 9.94456 50.6694 9.77294C51.0266 9.57332 51.4274 9.46479 51.8366 9.45696C52.2655 9.42539 52.6957 9.49941 53.0894 9.67256C53.4095 9.81173 53.6866 10.0337 53.8923 10.3157C53.9576 10.3968 54.0057 10.4904 54.0336 10.5908C54.2083 10.4495 54.4053 10.3157 54.554 10.1633C54.9518 9.80337 55.4472 9.56925 55.9778 9.49041C56.4565 9.40425 56.9494 9.44265 57.409 9.60193C57.8878 9.77838 58.29 10.1162 58.5465 10.5573C58.8306 10.9846 59.0206 11.4674 59.1042 11.9736C59.1466 12.182 59.1727 12.3933 59.1822 12.6056C59.1822 14.1669 59.1822 15.732 59.1822 17.2933V17.4754H59.0633H56.9072C56.8031 17.4754 56.7845 17.442 56.7436 17.3379C56.5689 16.8621 56.6879 16.3751 56.6656 15.8992C56.6433 15.4234 56.6656 14.8918 56.6656 14.39C56.6656 13.8881 56.6656 13.3974 56.6656 12.903C56.6567 12.6428 56.6116 12.385 56.5317 12.1372C56.4789 12.0071 56.3885 11.8958 56.2719 11.8176C56.1552 11.7394 56.0179 11.6979 55.8775 11.6986C55.7297 11.6866 55.5811 11.7057 55.4412 11.7547C55.3014 11.8038 55.1734 11.8816 55.0655 11.9832C54.9576 12.0848 54.8721 12.2079 54.8148 12.3446C54.7574 12.4813 54.7294 12.6284 54.7325 12.7766C54.7325 14.2636 54.7325 15.7803 54.7325 17.2821C54.7325 17.4791 54.7325 17.4791 54.528 17.4791H52.2976C52.2641 17.3713 52.3385 17.2301 52.1786 17.1929C52.1786 17.1929 52.1786 17.1297 52.1786 17.0925V15.6465C52.1786 14.7506 52.1786 13.8547 52.1786 12.9588C52.1847 12.7141 52.1546 12.4698 52.0894 12.2339C52.0245 12.0419 51.89 11.8812 51.7125 11.7835C51.5349 11.6858 51.3272 11.6581 51.1303 11.706C50.907 11.7637 50.7055 11.8857 50.5509 12.0569C50.3963 12.228 50.2953 12.4408 50.2604 12.6688C50.2419 12.8032 50.2307 12.9384 50.227 13.074V17.468H50.0894H47.9668C47.8478 17.468 47.833 17.4197 47.7846 17.3156C47.6211 16.9438 47.7326 16.5721 47.7103 16.2004C47.688 15.8286 47.7103 15.4309 47.7103 15.048C47.7103 13.7543 47.7103 12.4643 47.7103 11.1744C47.7103 10.6651 47.662 10.1558 47.6396 9.64655C47.6422 9.62814 47.6488 9.61054 47.6591 9.59509C47.6694 9.57963 47.6831 9.56672 47.6991 9.55732C47.7252 9.55732 47.7697 9.55732 47.8032 9.55732C48.3831 9.55732 48.963 9.55732 49.543 9.55732C49.6991 9.58706 49.792 9.60565 49.7474 9.78037Z" fill="#1500FF"/>
<path d="M59.6323 9.59814H62.0263V9.78402H62.0709C62.1054 9.83852 62.1294 9.89905 62.1415 9.96244C62.1415 12.4209 62.1415 14.8794 62.1415 17.3378C62.1415 17.4791 62.0969 17.5125 61.9631 17.5125C61.2679 17.5125 60.5691 17.5125 59.8739 17.5125C59.7624 17.5125 59.74 17.4791 59.6992 17.3676C59.5244 16.9066 59.6434 16.4382 59.6211 15.9735C59.5988 15.5088 59.6211 15.0219 59.6211 14.546V9.59814H59.6323Z" fill="#1500FF"/>
<path d="M60.9853 9.13353C60.736 9.14334 60.4892 9.0817 60.2738 8.95591C60.0584 8.83011 59.8835 8.6454 59.7696 8.4235C59.6531 8.2305 59.5737 8.01743 59.5354 7.79526C59.5114 7.64724 59.5174 7.49589 59.5532 7.35026C59.589 7.20463 59.6537 7.06771 59.7436 6.94769C59.8863 6.74472 60.0865 6.58915 60.3184 6.50102C60.5503 6.4129 60.8033 6.39626 61.0447 6.45326C61.3465 6.50272 61.625 6.64612 61.8406 6.86303C62.0562 7.07995 62.1978 7.35933 62.2454 7.66143C62.282 7.82391 62.2838 7.99229 62.2508 8.15553C62.2178 8.31877 62.1507 8.47318 62.0538 8.60866C61.9569 8.74414 61.8325 8.85761 61.6887 8.94166C61.5449 9.02571 61.385 9.07843 61.2195 9.09636L60.9853 9.13353Z" fill="#1500FF"/>
</svg>
