<svg width="57" height="19" viewBox="0 0 57 19" fill="none" xmlns="http://www.w3.org/2000/svg">
<path d="M5.53271 13.9142C5.53271 12.503 5.53271 11.0873 5.53271 9.67601C5.53271 9.58223 5.55505 9.55989 5.64883 9.55989H10.8874C10.9173 9.55603 10.9477 9.56173 10.9742 9.57617C11.0006 9.5906 11.0218 9.61306 11.0348 9.64029C11.3105 10.1113 11.4526 10.6487 11.4457 11.1944C11.4457 12.5744 11.4457 13.9499 11.4457 15.3255C11.4463 15.962 11.2421 16.5818 10.8633 17.0933C10.4845 17.6048 9.9512 17.9808 9.34219 18.1658C8.98743 18.2622 8.61959 18.3014 8.25249 18.2819H5.63543C5.55505 18.2819 5.53271 18.2596 5.53271 18.1792C5.53271 16.759 5.53271 15.3344 5.53271 13.9142ZM7.51114 13.2354V16.2142C7.51114 16.2767 7.51114 16.2991 7.59153 16.2991H8.48472C8.58498 16.2987 8.68452 16.2821 8.77948 16.2499C8.97926 16.1805 9.1516 16.049 9.27132 15.8746C9.39104 15.7003 9.45187 15.4922 9.44491 15.2808C9.44491 14.2715 9.44491 13.2622 9.44491 12.2529C9.44491 11.8688 9.44491 11.4847 9.44491 11.1007C9.4409 10.9745 9.41185 10.8505 9.35943 10.7357C9.30702 10.6209 9.23229 10.5177 9.13961 10.4321C9.04692 10.3465 8.93813 10.2802 8.81956 10.237C8.701 10.1938 8.57503 10.1747 8.44899 10.1807H7.59599C7.53347 10.1807 7.50667 10.1807 7.50667 10.2655C7.50965 11.254 7.51114 12.2439 7.51114 13.2354V13.2354Z" fill="#1500FF"/>
<path d="M5.53474 4.45933C5.53474 3.03915 5.53474 1.62046 5.53474 0.203263C5.53474 0.122876 5.53474 0.0916138 5.63746 0.0916138H8.3751C8.98946 0.104364 9.58447 0.3088 10.0769 0.676341C10.5694 1.04388 10.9347 1.55615 11.1217 2.14149C11.2133 2.44406 11.2584 2.75877 11.2556 3.07488C11.2556 4.44147 11.2556 5.80805 11.2556 7.17464C11.2576 7.72602 11.1027 8.26659 10.8091 8.73327C10.7966 8.75896 10.7768 8.78034 10.7521 8.79467C10.7275 8.809 10.6991 8.81561 10.6706 8.81366H5.64639C5.55707 8.81366 5.53027 8.79132 5.53027 8.69754C5.53027 7.28033 5.53027 5.86611 5.53027 4.45486L5.53474 4.45933ZM7.4819 5.12476C7.4819 6.1162 7.4819 7.10765 7.4819 8.09463C7.4819 8.17948 7.48191 8.19735 7.58462 8.19735C7.80792 8.19735 8.03122 8.19735 8.26345 8.19735C8.38219 8.20023 8.5004 8.18053 8.61179 8.13929C8.81186 8.06995 8.98403 7.93754 9.10241 7.76198C9.22079 7.58642 9.279 7.37719 9.26829 7.16571C9.26829 6.04029 9.26829 4.91189 9.26829 3.78051C9.26829 3.52595 9.26829 3.26692 9.26829 3.00789C9.26127 2.75479 9.15456 2.5147 8.97139 2.33989C8.78821 2.16508 8.5434 2.0697 8.29024 2.07451H7.58462C7.50424 2.07451 7.48637 2.09684 7.48637 2.17276C7.48339 3.15825 7.4819 4.14224 7.4819 5.12476Z" fill="#1500FF"/>
<path d="M33.3441 12.6141C33.3441 11.6271 33.3441 10.6356 33.3441 9.64419C33.3441 9.55934 33.3664 9.54149 33.4512 9.54149H35.1706C35.251 9.54149 35.2778 9.54149 35.2734 9.63974C35.2734 11.4648 35.2734 13.2899 35.2734 15.115C35.2666 15.2724 35.2801 15.43 35.3135 15.5839C35.3738 15.8072 35.5117 16.0018 35.7023 16.1327C35.893 16.2636 36.1241 16.3224 36.3541 16.2985C36.5747 16.2784 36.7822 16.1854 36.944 16.0342C37.1057 15.8829 37.2125 15.6821 37.2473 15.4634C37.254 15.3861 37.254 15.3084 37.2473 15.2311V9.66206C37.2473 9.55934 37.2741 9.53702 37.3679 9.54149H39.1096C39.1855 9.54149 39.2079 9.54148 39.2079 9.63527C39.2079 11.5333 39.2079 13.4269 39.2079 15.3249C39.2107 16.0025 38.9794 16.6603 38.5529 17.1868C38.1264 17.7134 37.5311 18.0764 36.8677 18.2144C36.4357 18.3052 35.9888 18.2973 35.5602 18.1914C35.1317 18.0855 34.7325 17.8843 34.3926 17.6027C34.0526 17.3211 33.7806 16.9664 33.5967 16.5651C33.4128 16.1637 33.3219 15.7261 33.3307 15.2847C33.3307 14.3915 33.3307 13.4983 33.3307 12.6051L33.3441 12.6141Z" fill="#1500FF"/>
<path d="M39.2218 5.72782V8.67983C39.2218 8.76468 39.2218 8.79148 39.1101 8.79148H37.3684C37.2746 8.79148 37.2612 8.76022 37.2612 8.67983C37.2612 6.82199 37.2612 4.96414 37.2612 3.10629C37.2719 2.97163 37.2549 2.8362 37.2112 2.70839C37.1674 2.58058 37.0979 2.46311 37.007 2.36325C36.916 2.26339 36.8055 2.18326 36.6823 2.12784C36.5591 2.07241 36.4259 2.04286 36.2908 2.04102C36.1557 2.03918 36.0217 2.0651 35.897 2.11715C35.7724 2.1692 35.6597 2.24629 35.5661 2.34364C35.4724 2.44099 35.3998 2.55654 35.3526 2.68311C35.3054 2.80968 35.2847 2.9446 35.2917 3.0795C35.2917 4.8123 35.2917 6.54956 35.2917 8.28235V8.70662C35.2917 8.76915 35.2917 8.79148 35.2158 8.79148H33.4294C33.3401 8.79148 33.3446 8.74681 33.3446 8.68876C33.3446 7.48294 33.3446 6.27713 33.3446 5.07132C33.3446 4.41929 33.3446 3.76279 33.3446 3.10629C33.3298 2.47772 33.5167 1.86093 33.878 1.3463C34.2392 0.831682 34.7558 0.446274 35.3519 0.246547C35.9481 0.0468205 36.5926 0.0432807 37.1909 0.236435C37.7893 0.429588 38.3101 0.809289 38.6769 1.3199C39.0465 1.83084 39.238 2.4491 39.2218 3.0795C39.2218 3.97269 39.2218 4.84355 39.2218 5.72782V5.72782Z" fill="#1500FF"/>
<path d="M28.083 9.54173H31.2092C31.2385 9.53988 31.2678 9.54547 31.2943 9.55796C31.3208 9.57045 31.3438 9.58945 31.361 9.61318C31.8277 10.2246 32.1125 10.9552 32.1828 11.7211C32.2245 12.3261 32.2349 12.9327 32.214 13.5388C32.214 14.1685 32.214 14.8026 32.214 15.4323C32.1885 16.1613 31.8928 16.8547 31.3845 17.3777C30.8761 17.9007 30.1914 18.216 29.4635 18.2622C28.7356 18.3085 28.0165 18.0823 27.446 17.6278C26.8756 17.1733 26.4945 16.5229 26.377 15.803C26.3436 15.4095 26.3346 15.0142 26.3502 14.6195C26.3502 14.4186 26.3502 14.2176 26.3502 14.0166C26.3502 13.9496 26.3502 13.9318 26.4395 13.9318H28.2259C28.2974 13.9318 28.3197 13.9318 28.3197 14.0211C28.3197 14.432 28.3197 14.8473 28.2974 15.2582C28.2871 15.4233 28.3184 15.5883 28.3886 15.7381C28.4587 15.8879 28.5654 16.0177 28.6988 16.1156C28.8322 16.2134 28.988 16.2761 29.152 16.298C29.316 16.3198 29.4828 16.3001 29.6372 16.2407C29.832 16.1663 29.9987 16.033 30.114 15.8592C30.2293 15.6854 30.2875 15.48 30.2803 15.2716C30.2803 14.432 30.2803 13.5924 30.2803 12.7483C30.2782 12.3286 30.1899 11.9139 30.0209 11.5298C29.8519 11.1457 29.6057 10.8004 29.2978 10.5153C28.9584 10.2027 28.5921 9.92133 28.2349 9.62211C28.1772 9.61152 28.1242 9.58346 28.083 9.54173V9.54173Z" fill="#1500FF"/>
<path d="M30.429 8.77812C30.4022 8.80045 30.3665 8.77812 30.3397 8.77812H27.3341C27.3032 8.78027 27.2722 8.77392 27.2447 8.75975C27.2171 8.74558 27.194 8.72413 27.1778 8.69774C26.6931 8.05023 26.4132 7.27259 26.3739 6.46475C26.3248 5.76359 26.3739 5.06244 26.3739 4.36575C26.3739 3.91915 26.3739 3.49934 26.3739 3.07061C26.3712 2.3981 26.5955 1.74436 27.0104 1.21513C27.4254 0.685906 28.0067 0.312148 28.6605 0.15433C29.4063 -0.0229005 30.1919 0.100207 30.8478 0.497073C31.5036 0.893939 31.9772 1.53274 32.1663 2.27567C32.2294 2.52975 32.2595 2.79096 32.2556 3.05275C32.2556 3.47702 32.2556 3.90129 32.2556 4.32556C32.2556 4.40148 32.2556 4.43274 32.1573 4.43274C31.5678 4.43274 30.9783 4.43274 30.3709 4.43274C30.2905 4.43274 30.2727 4.40594 30.2727 4.33002C30.2727 3.88342 30.2727 3.43682 30.2727 2.99022C30.2698 2.86549 30.2423 2.74257 30.1917 2.62851C30.1412 2.51445 30.0686 2.4115 29.9781 2.32559C29.8876 2.23968 29.781 2.1725 29.6645 2.12791C29.548 2.08332 29.4238 2.0622 29.2991 2.06576C29.0474 2.06563 28.8055 2.16345 28.6246 2.33848C28.4438 2.51352 28.3381 2.75205 28.33 3.00362C28.33 3.84769 28.2942 4.68729 28.33 5.53136C28.3307 5.9733 28.4232 6.41028 28.6015 6.81463C28.7799 7.21899 29.0402 7.58193 29.3661 7.88047C29.6921 8.17522 30.0449 8.44764 30.3799 8.729C30.4022 8.74686 30.4245 8.75132 30.429 8.77812Z" fill="#1500FF"/>
<path d="M40.5278 4.44151V0.212236C40.5278 0.122917 40.5278 0.0961304 40.6439 0.0961304H45.5788C45.6682 0.0961304 45.6905 0.096126 45.6905 0.203309C45.6905 0.792818 45.6905 1.37786 45.6905 1.9629C45.6905 2.04776 45.6905 2.07455 45.5833 2.07455C44.6008 2.07455 43.6227 2.07455 42.6402 2.07455C42.5152 2.07455 42.5152 2.07455 42.5152 2.19513C42.5152 4.15122 42.5152 6.10733 42.5152 8.06342C42.5152 8.20187 42.5152 8.20186 42.6536 8.19739H45.561C45.7128 8.19739 45.6816 8.19739 45.686 8.32244C45.6905 8.44749 45.686 8.577 45.686 8.70205C45.686 8.8271 45.6592 8.79583 45.5878 8.79583H40.6305C40.5546 8.79583 40.5368 8.7735 40.5368 8.69758V4.44151H40.5278Z" fill="#1500FF"/>
<path d="M12.8403 13.9048C12.8403 12.4846 12.8403 11.06 12.8403 9.63983C12.8403 9.55944 12.8403 9.53711 12.9386 9.53711H17.8512C17.9271 9.53711 17.9494 9.55944 17.9449 9.63536C17.9405 9.71128 17.9449 9.91672 17.9449 10.082C17.9449 10.2472 17.9449 10.207 17.8288 10.207C16.8552 10.207 15.8861 10.207 14.9125 10.207C14.8277 10.207 14.8009 10.207 14.8009 10.3187C14.8009 12.2837 14.8009 14.2487 14.8009 16.2137C14.8009 16.312 14.8009 16.3298 14.917 16.3298H17.8467C17.9271 16.3298 17.9494 16.3522 17.9494 16.4326C17.9494 17.0265 17.9494 17.625 17.9494 18.219C17.9494 18.3038 17.9494 18.3127 17.8512 18.3127H12.9386C12.8671 18.3127 12.8582 18.2904 12.8582 18.2279C12.8582 17.2037 12.8582 16.181 12.8582 15.1598V13.9406L12.8403 13.9048Z" fill="#1500FF"/>
<path d="M12.8403 4.43706C12.8403 3.02581 12.8403 1.61009 12.8403 0.198839C12.8403 0.113986 12.8403 0.0961304 12.9475 0.0961304H17.8601C17.9405 0.0961304 17.9717 0.0961216 17.9673 0.198839C17.9673 0.797279 17.9673 1.39572 17.9673 1.98523C17.9673 2.05222 17.9673 2.07455 17.8779 2.07455H14.9304C14.8545 2.07455 14.8277 2.07455 14.8277 2.1728C14.8277 4.14379 14.8277 6.11476 14.8277 8.08575C14.8277 8.17507 14.8589 8.18847 14.9393 8.18847H17.8422C17.9851 8.18847 17.9851 8.18846 17.9851 8.33584V8.70652C17.9851 8.76905 17.9851 8.79138 17.9047 8.79138H12.9475C12.8582 8.79138 12.8493 8.76458 12.8493 8.68865C12.8493 7.26848 12.8493 5.85276 12.8493 4.43258L12.8403 4.43706Z" fill="#1500FF"/>
<path d="M23.2636 5.43743V8.70652C23.2636 8.78244 23.2413 8.79583 23.1743 8.79583H21.3879C21.3254 8.79583 21.3075 8.79584 21.3075 8.71545C21.3075 6.74149 21.3075 4.76753 21.3075 2.79357C21.3075 2.58367 21.3075 2.37823 21.3075 2.16833C21.3075 2.09241 21.2807 2.07901 21.2137 2.07901H19.4274C19.347 2.07901 19.3291 2.05669 19.3291 1.9763C19.3291 1.37786 19.3291 0.779419 19.3291 0.189911C19.3291 0.118455 19.3291 0.100586 19.4229 0.100586H24.9518C25.0232 0.100586 25.0411 0.100591 25.0411 0.189911C25.0411 0.783885 25.0411 1.38233 25.0411 1.9763C25.0411 2.06115 25.0411 2.08348 24.9384 2.08348H23.3663C23.2904 2.08348 23.2681 2.08347 23.2681 2.17726C23.2681 3.26696 23.2681 4.35518 23.2681 5.4419L23.2636 5.43743Z" fill="#1500FF"/>
<path d="M50.3542 5.43743V8.67973C50.3542 8.76905 50.3542 8.79138 50.2425 8.79138H48.4919C48.4025 8.79138 48.3802 8.79138 48.3802 8.67973V2.1996C48.3802 2.07455 48.3802 2.07455 48.2552 2.07455C47.6746 2.07455 47.094 2.07455 46.5134 2.07455C46.433 2.07455 46.4062 2.07455 46.4062 1.97183C46.4062 1.37339 46.4062 0.779415 46.4062 0.18544C46.4062 0.118451 46.4063 0.100586 46.4911 0.100586H52.0423C52.1093 0.100586 52.1316 0.100587 52.1272 0.18544C52.1272 0.788347 52.1272 1.39126 52.1272 1.99417C52.1272 2.07455 52.0914 2.07901 52.0289 2.07901H50.4569C50.372 2.07901 50.3542 2.10135 50.3542 2.1862V5.44635V5.43743Z" fill="#1500FF"/>
<path d="M40.5289 13.9097V9.6447C40.5289 9.55985 40.5289 9.54199 40.6361 9.54199H45.5933C45.6693 9.54199 45.7005 9.54199 45.6961 9.64024C45.6916 9.7385 45.6961 9.92606 45.6961 10.0645C45.6961 10.2029 45.6961 10.1806 45.5844 10.1806H42.6056C42.5342 10.1806 42.5163 10.203 42.5163 10.2699C42.5163 10.6272 42.5163 10.989 42.5163 11.3507C42.5163 13.6224 42.5163 15.8956 42.5163 18.1703C42.5163 18.2551 42.5163 18.2819 42.4091 18.2819H40.6629C40.5066 18.2819 40.5289 18.2819 40.5289 18.1479V13.9097Z" fill="#1500FF"/>
<path d="M23.2597 13.9093C23.2597 15.325 23.2597 16.7452 23.2597 18.1654C23.2597 18.2636 23.2329 18.2815 23.1391 18.2815H21.3795C21.3036 18.2815 21.2813 18.2815 21.2813 18.1877C21.2813 16.1959 21.2813 14.2055 21.2813 12.2167C21.2813 11.3592 21.2813 10.4973 21.2813 9.63983C21.2813 9.55944 21.2812 9.53711 21.384 9.53711H23.1704C23.2552 9.53711 23.2731 9.55943 23.2731 9.64429V13.9093H23.2597Z" fill="#1500FF"/>
<path d="M48.3977 13.9052C48.3977 12.4851 48.3977 11.0694 48.3977 9.64917C48.3977 9.55539 48.429 9.54199 48.5139 9.54199H50.2645C50.3538 9.54199 50.3762 9.56432 50.3762 9.65364V16.1516C50.3762 16.8215 50.3762 17.4914 50.3762 18.1613C50.3762 18.2462 50.3762 18.2774 50.2645 18.2774H48.4781C48.3977 18.2774 48.3799 18.2551 48.3799 18.1792C48.3948 16.756 48.4007 15.3314 48.3977 13.9052Z" fill="#1500FF"/>
<path d="M56.3631 5.78143V12.5742C56.3184 12.5742 56.3005 12.5385 56.2782 12.5161L53.0002 9.2783C52.9019 9.18004 52.8885 9.20684 53.0002 9.09519L56.305 5.83502C56.3223 5.81504 56.3418 5.79707 56.3631 5.78143Z" fill="#1500FF"/>
<path d="M0.264648 12.5875V5.77686L0.635325 6.14305L3.63199 9.09953C3.69898 9.16652 3.70791 9.19778 3.63199 9.26924L0.358437 12.4981C0.329085 12.5299 0.297758 12.5597 0.264648 12.5875V12.5875Z" fill="#1500FF"/>
</svg>
