<svg width="95" height="26" viewBox="0 0 95 26" fill="none" xmlns="http://www.w3.org/2000/svg">
<path d="M13.8937 4.42024V21.7815H0.158138C0.158138 21.4266 0.100586 21.0621 0.100586 20.7072C0.100586 16.2374 0.100586 11.7676 0.100586 7.27862C0.100586 6.31943 0.100587 5.36025 0.158138 4.40106L13.8937 4.42024ZM9.42387 13.1488L9.88427 12.7556C10.216 12.4117 10.4605 11.9935 10.5975 11.5358C10.7345 11.0782 10.7599 10.5943 10.6716 10.1248C10.5834 9.65531 10.384 9.21374 10.0901 8.83706C9.7963 8.46038 9.41655 8.15952 8.98264 7.95963C7.20815 7.24983 5.33774 7.59514 3.52488 7.58555V19.0478C5.21304 19.0478 6.83407 19.1437 8.43591 19.0478C9.07488 18.9961 9.67599 18.7239 10.1362 18.2776C10.5965 17.8314 10.8872 17.239 10.9586 16.6019C11.1426 15.9377 11.0902 15.2301 10.8103 14.6002C10.5303 13.9704 10.0403 13.4573 9.42387 13.1488V13.1488Z" fill="#1500FF"/>
<path d="M84.5857 4.42023C84.5857 6.63594 84.5282 8.85167 84.5857 11.077C84.5857 14.6451 84.5857 18.2133 84.5857 21.7815H83.6841V4.42023H84.5857Z" fill="#1500FF"/>
<path d="M27.6382 25.3784C27.919 25.3784 28.1466 19.8815 28.1466 13.1008C28.1466 6.3201 27.919 0.823242 27.6382 0.823242C27.3575 0.823242 27.1299 6.3201 27.1299 13.1008C27.1299 19.8815 27.3575 25.3784 27.6382 25.3784Z" fill="#1500FF"/>
<path d="M41.7393 25.3784C42.0201 25.3784 42.2477 19.8815 42.2477 13.1008C42.2477 6.3201 42.0201 0.823242 41.7393 0.823242C41.4586 0.823242 41.231 6.3201 41.231 13.1008C41.231 19.8815 41.4586 25.3784 41.7393 25.3784Z" fill="#1500FF"/>
<path d="M55.8394 25.3784C56.1202 25.3784 56.3478 19.8815 56.3478 13.1008C56.3478 6.3201 56.1202 0.823242 55.8394 0.823242C55.5587 0.823242 55.3311 6.3201 55.3311 13.1008C55.3311 19.8815 55.5587 25.3784 55.8394 25.3784Z" fill="#1500FF"/>
<path d="M70.3032 4.42023C70.3032 4.62166 70.3703 4.83268 70.3703 5.0341C70.3703 10.3768 70.3703 15.729 70.3703 21.0717C70.3703 21.3019 70.3224 21.5417 70.3032 21.7815H69.5742V4.42023H70.3032Z" fill="#1500FF"/>
<path d="M62.1777 19.019V7.60474H63.6069V19.019H62.1777Z" fill="#1500FF"/>
<path d="M22.5557 14.175H20.6373V13.1487H24.1671C24.1671 14.4244 24.1671 15.681 24.1671 16.9375C24.1096 17.2609 23.9439 17.5552 23.6971 17.772C23.1134 18.3672 22.3704 18.7815 21.5573 18.9652C20.7441 19.1489 19.8952 19.0943 19.1122 18.8079C18.4172 18.6293 17.799 18.2296 17.3509 17.6691C16.9028 17.1085 16.6491 16.4175 16.6279 15.7001C16.4456 13.879 16.4456 12.0443 16.6279 10.2232C17.1171 6.74135 21.1457 6.53033 22.9682 7.98829C23.3356 8.29417 23.624 8.68388 23.8093 9.12457C23.9946 9.56526 24.0713 10.044 24.0329 10.5205H22.6133C22.6133 10.3671 22.5269 10.1752 22.4886 9.98339C22.4136 9.56624 22.2026 9.18565 21.8885 8.90106C21.5744 8.61648 21.175 8.44392 20.7524 8.41033C20.2875 8.32305 19.8067 8.39599 19.3886 8.61724C18.9705 8.8385 18.6397 9.195 18.4504 9.6285C18.3301 9.8369 18.258 10.0696 18.2394 10.3095C18.2394 12.1416 18.1051 13.9832 18.2394 15.7961C18.2672 16.1458 18.3747 16.4847 18.5535 16.7866C18.7324 17.0885 18.9779 17.3455 19.2713 17.538C19.5646 17.7305 19.8982 17.8534 20.2463 17.8973C20.5945 17.9412 20.948 17.9048 21.28 17.7912C21.4678 17.7721 21.6498 17.7158 21.8156 17.6256C21.9813 17.5354 22.1274 17.413 22.2453 17.2656C22.3632 17.1183 22.4505 16.9489 22.5022 16.7674C22.5538 16.5858 22.5688 16.3959 22.5461 16.2085C22.5173 15.585 22.5557 14.952 22.5557 14.175Z" fill="#1500FF"/>
<path d="M38.8044 18.9998C37.3272 19.2204 37.3272 19.2204 36.9435 17.8775C36.7901 17.3308 36.6174 16.7936 36.4352 16.1702C35.3513 16.1702 34.277 16.1702 33.1931 16.1702C33.0649 16.205 32.9459 16.2679 32.8447 16.3541C32.7436 16.4403 32.6628 16.5478 32.608 16.669C32.3395 17.4267 32.1476 18.2132 31.9174 19.019H30.2964C31.0925 16.4579 31.8599 13.9641 32.6272 11.4606C32.9725 10.3479 33.3274 9.22569 33.5864 8.10344C33.7303 7.57589 34.0468 7.47996 34.5456 7.50874C35.0444 7.53751 35.3609 7.44159 35.5048 8.0171C36.579 11.6236 37.6821 15.211 38.7756 18.7983C38.8027 18.8618 38.8126 18.9313 38.8044 18.9998V18.9998ZM36.0515 14.8753L34.6895 10.0122H34.5168L33.126 14.8561L36.0515 14.8753Z" fill="#1500FF"/>
<path d="M79.4916 15.7961V7.60463H80.9975V18.9038C79.6451 19.2491 79.5587 19.2108 78.9353 17.9926L75.6069 11.5277C75.4757 11.2397 75.2786 10.9867 75.0314 10.7891V19.0381H73.4487V7.67177C74.83 7.33605 74.9163 7.37442 75.5493 8.63095C76.7068 10.9074 77.8706 13.1807 79.0408 15.4508C79.1175 15.6042 79.223 15.7385 79.3094 15.8824L79.4916 15.7961Z" fill="#1500FF"/>
<path d="M45.5092 10.4632V19.0191H44.0513V7.65278C44.1365 7.60749 44.2266 7.57209 44.3198 7.54727C46.008 7.46095 46.0176 7.46094 46.4972 9.08196C47.159 11.3648 47.8113 13.6477 48.4731 15.9305C48.5498 16.2087 48.6554 16.4869 48.828 17.0144L50.7464 10.4344C50.9685 9.77692 51.1543 9.10767 51.3027 8.42972C51.4274 7.68156 51.7919 7.41298 52.5305 7.52809C52.8753 7.55249 53.2215 7.55249 53.5664 7.52809V19.0383H52.118V10.5879L52.0221 10.5399L49.3652 19.0095C48.5115 19.3069 48.2141 18.952 47.9935 18.2038C47.3125 15.8634 46.5547 13.5518 45.8162 11.2305C45.7586 11.0195 45.6723 10.8469 45.5092 10.4632Z" fill="#1500FF"/>
<path d="M93.0262 14.2326H91.1078V13.1487H94.5513C94.6671 14.4997 94.6478 15.8589 94.4937 17.2061C94.2347 18.4147 92.9878 18.8751 91.8368 19.0573C88.9592 19.4986 87.0409 17.9255 86.9833 15.0383C86.9225 13.4129 86.9673 11.7853 87.1176 10.1657C87.1815 9.4964 87.4581 8.8652 87.907 8.36461C88.3558 7.86402 88.9531 7.52038 89.6115 7.38404C90.2918 7.12555 91.0324 7.06951 91.7438 7.2227C92.4553 7.37588 93.1072 7.73174 93.6209 8.24731C94.1137 8.96138 94.5073 9.73902 94.7911 10.5589H93.0837C92.8535 9.70527 92.6905 8.79403 91.6066 8.52546C90.2733 8.18975 88.9496 8.70772 88.8153 10.0314C88.5999 12.0559 88.5999 14.0977 88.8153 16.1222C88.873 16.4528 89.005 16.766 89.2014 17.0381C89.3978 17.3103 89.6535 17.5342 89.9491 17.6931C90.2447 17.852 90.5725 17.9416 90.9078 17.9553C91.2431 17.969 91.5772 17.9063 91.8847 17.772C92.2465 17.7106 92.5705 17.5115 92.7887 17.2164C93.0068 16.9214 93.1023 16.5533 93.0549 16.1894C92.9878 15.5659 93.0262 14.9424 93.0262 14.2326Z" fill="#1500FF"/>
<path d="M5.58691 13.9737C6.5461 14.1367 7.58202 13.5996 8.23426 14.578C8.46343 14.9019 8.5865 15.289 8.5865 15.6858C8.5865 16.0827 8.46343 16.4697 8.23426 16.7937C7.57243 17.7049 6.53651 17.2349 5.6061 17.3404L5.58691 13.9737Z" fill="#1500FF"/>
<path d="M5.58691 12.3813V9.4174C6.44059 9.4174 7.40937 9.07209 7.87937 9.98331C8.00525 10.2757 8.07018 10.5906 8.07018 10.9089C8.07018 11.2272 8.00525 11.5422 7.87937 11.8345C7.44773 12.7745 6.45977 12.3333 5.58691 12.3813Z" fill="#1500FF"/>
</svg>
