<svg width="78" height="27" viewBox="0 0 78 27" fill="none" xmlns="http://www.w3.org/2000/svg">
<path d="M15.562 12.2695C13.9301 12.2695 12.5652 11.7406 11.4672 10.6829C10.3692 9.61519 9.82025 8.2402 9.82025 6.55797C9.82025 4.86567 10.3793 3.47557 11.4974 2.38766C12.6256 1.28968 13.9906 0.740691 15.5922 0.740691C16.5894 0.740691 17.5162 0.952228 18.3724 1.3753C19.2286 1.7883 19.9035 2.34737 20.3971 3.05249L18.9012 4.51814C18.0249 3.44031 16.9622 2.90139 15.7131 2.90139C14.7058 2.90139 13.8596 3.24892 13.1746 3.94397C12.4896 4.62895 12.1472 5.50028 12.1472 6.55797C12.1472 7.58544 12.4846 8.43662 13.1595 9.11153C13.8344 9.78643 14.6806 10.1239 15.698 10.1239C16.9974 10.1239 18.0803 9.57993 18.9466 8.49203L20.4878 9.89724C19.964 10.6124 19.2639 11.1866 18.3875 11.6198C17.5212 12.0529 16.5794 12.2695 15.562 12.2695ZM30.9143 12.1033H28.5571L27.7261 9.6857H23.8278L22.9665 12.1033H20.6245L24.8854 0.937119H26.7137L30.9143 12.1033ZM27.0915 7.69121L25.792 3.97419L24.4624 7.69121H27.0915ZM35.218 12.2846C34.3416 12.2846 33.5307 12.1033 32.7853 11.7406C32.0399 11.378 31.4405 10.8643 30.9872 10.1994L32.2715 8.64312C33.017 9.68066 34.0041 10.1994 35.2331 10.1994C35.6964 10.1994 36.0792 10.0886 36.3814 9.86702C36.6836 9.64541 36.8347 9.35832 36.8347 9.00576C36.8347 8.54239 36.4973 8.15457 35.8223 7.8423C35.7418 7.80201 35.3741 7.65595 34.7193 7.40412C34.2056 7.20265 33.7674 7.00119 33.4048 6.79973C32.2262 6.12482 31.6369 5.19809 31.6369 4.01952C31.6369 3.08271 31.9895 2.30708 32.6946 1.69261C33.4098 1.06807 34.3265 0.755801 35.4446 0.755801C36.8951 0.755801 38.119 1.25946 39.1163 2.26678L37.9226 3.89864C37.6204 3.5763 37.2427 3.32447 36.7894 3.14315C36.3462 2.95176 35.908 2.85606 35.4748 2.85606C35.0316 2.85606 34.679 2.9568 34.4171 3.15826C34.1653 3.34965 34.0394 3.60652 34.0394 3.92886C34.0394 4.36201 34.3416 4.72968 34.946 5.03188L36.049 5.51539C36.6735 5.7773 37.1268 5.97372 37.4089 6.10468C38.6781 6.71914 39.3127 7.64588 39.3127 8.88488C39.3127 9.88213 38.935 10.6981 38.1795 11.3327C37.424 11.9673 36.4368 12.2846 35.218 12.2846ZM41.1024 12.1033V0.937119H43.3538V12.1033H41.1024ZM53.1521 7.8423V0.937119H55.3582V12.1033H53.8321L48.045 5.25853V12.1033H45.839V0.937119H47.2593L53.1521 7.8423ZM62.9878 12.2846C61.3257 12.2846 59.9457 11.7356 58.8477 10.6376C57.7396 9.52957 57.1856 8.16968 57.1856 6.55797C57.1856 4.93618 57.7447 3.56119 58.8628 2.43299C59.991 1.30479 61.371 0.740691 63.0029 0.740691C64.6348 0.740691 66.0097 1.30479 67.1279 2.43299C68.2561 3.56119 68.8202 4.92611 68.8202 6.52775C68.8202 8.12939 68.2561 9.48927 67.1279 10.6074C66.0097 11.7255 64.6297 12.2846 62.9878 12.2846ZM66.4933 6.52775C66.4933 5.50028 66.1558 4.6491 65.4809 3.97419C64.7959 3.28921 63.9699 2.94672 63.0029 2.94672C62.0359 2.94672 61.2099 3.28921 60.5249 3.97419C59.85 4.6491 59.5125 5.50028 59.5125 6.52775C59.5125 7.54514 59.8449 8.39129 60.5098 9.0662C61.1847 9.7411 62.0157 10.0786 63.0029 10.0786C63.9901 10.0786 64.8211 9.7411 65.496 9.0662C66.1709 8.39129 66.5033 7.54514 66.4933 6.52775ZM0.826781 14.9371H4.95176C6.26128 14.9371 7.24342 15.2947 7.89817 16.0099C8.56301 16.715 8.89542 17.5864 8.89542 18.6239C8.89542 19.6514 8.55293 20.5177 7.86795 21.2228C7.18298 21.9078 6.15551 22.2503 4.78555 22.2503H3.06303V26.1033H0.826781V14.9371ZM3.06303 20.2256H4.8611C5.41513 20.2256 5.84324 20.0745 6.14544 19.7723C6.45771 19.46 6.61384 19.0671 6.61384 18.5937C6.61384 18.1404 6.46274 17.7627 6.16055 17.4605C5.86842 17.1583 5.47557 17.0072 4.98198 17.0072H3.06303V20.2256ZM18.3945 26.1033H10.477V14.9371H12.7284V23.9577H18.3945V26.1033ZM29.0034 26.1033H26.6463L25.8152 23.6857H21.9169L21.0556 26.1033H18.7136L22.9746 14.9371H24.8029L29.0034 26.1033ZM25.1806 21.6912L23.8812 17.9742L22.5515 21.6912H25.1806ZM31.4955 26.1033V17.0978H28.3073V14.9371H36.9501V17.0978H33.7619V26.1033H31.4955ZM38.3947 26.1033V14.9371H40.6461V26.1033H38.3947ZM50.4445 21.8423V14.9371H52.6505V26.1033H51.1244L45.3373 19.2585V26.1033H43.1313V14.9371H44.5516L50.4445 21.8423ZM55.0068 22.0236V14.9371H57.2582V21.8725C57.2582 22.6079 57.4445 23.1669 57.8172 23.5497C58.1899 23.9325 58.7087 24.1239 59.3735 24.1239C60.0182 24.1239 60.5269 23.9275 60.8996 23.5346C61.2723 23.1417 61.4587 22.5877 61.4587 21.8725V14.9371H63.7252V22.0236C63.7252 23.4238 63.3122 24.4865 62.4862 25.2118C61.6702 25.9371 60.6327 26.2997 59.3735 26.2997C58.1144 26.2997 57.0718 25.9371 56.2458 25.2118C55.4198 24.4865 55.0068 23.4238 55.0068 22.0236ZM68.2824 26.1033H66.0764V14.9371H67.5571L71.939 21.2681L76.2755 14.9371H77.7865V26.1033H75.5502V19.7723L72.3016 24.4412H71.531L68.2824 19.7723V26.1033Z" fill="#1500FF"/>
</svg>
