<svg width="52" height="24" viewBox="0 0 52 24" fill="none" xmlns="http://www.w3.org/2000/svg">
<path d="M18.9804 19.4235C18.964 19.4098 18.953 19.4372 18.9475 19.4536C18.9421 19.4701 18.868 19.5057 18.8324 19.5359C18.168 20.0947 17.4368 20.5689 16.6557 20.9478C15.4072 21.5499 14.0741 21.9576 12.7024 22.1568C11.3639 22.396 9.99548 22.4164 8.65047 22.2171C7.94851 22.1258 7.27692 21.8744 6.68755 21.4824C5.76915 20.8217 5.31681 19.9252 5.47033 18.7847C5.5995 17.9578 5.97277 17.1884 6.54225 16.5751C7.15675 15.8951 7.83827 15.2788 8.57645 14.7355C8.87527 14.508 9.18232 14.2832 9.48389 14.0584C9.49462 14.0594 9.5054 14.057 9.51473 14.0516C9.52406 14.0462 9.53148 14.038 9.53598 14.0282C9.55105 14.0145 9.5676 14.0026 9.58532 13.9926C10.0858 13.7329 10.5398 13.392 10.9287 12.9837C11.141 12.7759 11.2681 12.4963 11.2851 12.1996C11.2809 12.0419 11.2456 11.8866 11.1811 11.7426C11.1167 11.5987 11.0243 11.4689 10.9095 11.3607C10.5108 10.9414 10.0388 10.5986 9.51678 10.3491C9.51666 10.3415 9.51479 10.3341 9.51132 10.3273C9.50785 10.3206 9.50288 10.3148 9.49678 10.3102C9.49068 10.3057 9.48362 10.3027 9.47616 10.3014C9.46869 10.3 9.46102 10.3004 9.45373 10.3025C9.45373 10.2477 9.39342 10.2312 9.35778 10.2066C8.7618 9.791 8.18803 9.34444 7.63885 8.86872C6.98276 8.34746 6.42164 7.71678 5.98025 7.0045C5.67019 6.50717 5.4823 5.94349 5.43195 5.3596C5.39639 4.82996 5.51428 4.3013 5.77149 3.83695C6.02871 3.3726 6.41435 2.99225 6.88221 2.74147C7.71574 2.2814 8.64978 2.03376 9.60177 2.02045C11.1226 1.94389 12.6462 2.10013 14.1198 2.48377C15.5629 2.8302 16.9287 3.4429 18.147 4.29041C18.4212 4.47409 18.6597 4.67422 18.9146 4.86887L18.964 4.91548C18.9679 4.90343 18.9672 4.89038 18.9622 4.87878C18.9571 4.86718 18.948 4.85781 18.9366 4.85242C18.9009 4.79485 18.868 4.73454 18.8297 4.67971C17.8976 3.41447 16.6754 2.39155 15.2657 1.69696C14.3201 1.23489 13.3141 0.908184 12.2775 0.726464C10.8874 0.453051 9.46148 0.413212 8.0583 0.608582C6.33829 0.851636 4.6913 1.46423 3.23053 2.40426C2.50124 2.8478 1.83695 3.3903 1.25664 4.01626C0.950018 4.33147 0.74803 4.73354 0.678189 5.1677C0.64071 5.33797 0.636061 5.51382 0.664485 5.68584C0.755596 6.20099 0.983822 6.68209 1.32518 7.07852C1.70147 7.53931 2.11401 7.96927 2.55885 8.36428C3.16588 8.90277 3.68401 9.53378 4.0941 10.234C4.56094 11.0065 4.73507 11.9209 4.58483 12.811C4.42969 13.5552 4.10092 14.2522 3.6253 14.8452C3.18276 15.3941 2.69489 15.9049 2.16682 16.3722C1.68742 16.8002 1.27686 17.2995 0.949595 17.8526C0.689127 18.2588 0.591243 18.7482 0.675445 19.2234C0.675143 19.3022 0.690036 19.3804 0.71931 19.4536C0.89187 19.9423 1.19078 20.3764 1.58562 20.712C2.21799 21.2928 2.91101 21.8038 3.65272 22.2363C5.18854 23.1426 6.90711 23.6952 8.68337 23.8538C10.0119 23.9685 11.3502 23.876 12.6503 23.5796C14.6494 23.157 16.4839 22.166 17.9332 20.7257C18.3242 20.3507 18.6677 19.929 18.9558 19.4701C18.9832 19.4564 18.9996 19.4372 18.9804 19.4235ZM36.2245 10.4478C35.7823 10.3765 35.3316 10.3765 34.8894 10.4478C34.6411 10.4664 34.4024 10.5517 34.1985 10.6946C34.1414 10.7261 34.0932 10.7715 34.0582 10.8266C34.0232 10.8817 34.0027 10.9447 33.9984 11.0098C33.9984 12.2517 33.9984 13.4936 33.9984 14.7383C33.9956 14.8431 34.0095 14.9476 34.0395 15.0481C34.0552 15.1283 34.0994 15.2002 34.1638 15.2506C34.2283 15.3009 34.3087 15.3264 34.3904 15.3222C34.5893 15.3153 34.7875 15.3508 34.9716 15.4264V15.2564C34.9716 14.8507 34.9716 14.434 34.9716 14.0419C34.9716 13.9487 34.9908 13.924 35.0868 13.9487C35.3491 14.0087 35.6195 14.0254 35.8873 13.9981C36.2495 14.0005 36.6008 13.8737 36.8781 13.6406C37.1554 13.4075 37.3407 13.0833 37.4006 12.726C37.4728 12.3316 37.4625 11.9265 37.3704 11.5362C37.3256 11.254 37.1891 10.9945 36.9819 10.7978C36.7748 10.601 36.5086 10.478 36.2245 10.4478ZM36.3999 12.5697C36.3489 12.7588 36.2338 12.9242 36.0743 13.0377C35.9147 13.1513 35.7207 13.2058 35.5254 13.1921C35.3856 13.1921 35.2513 13.1537 35.1032 13.14C34.9552 13.1263 34.9689 13.0797 34.9716 12.9755C34.9716 12.7233 34.9716 12.4711 34.9716 12.2188C34.9716 11.9611 34.9716 11.7034 34.9716 11.4457C34.9716 11.3772 34.9716 11.3224 35.0621 11.3114C35.2996 11.263 35.5439 11.2584 35.7831 11.2977C35.9648 11.325 36.1308 11.4162 36.2514 11.5549C36.372 11.6935 36.4392 11.8706 36.4411 12.0543C36.4598 12.227 36.4468 12.4017 36.4027 12.5697H36.3999ZM25.3161 9.77341C25.3225 9.68214 25.3225 9.59053 25.3161 9.49926C25.3167 9.44728 25.3063 9.39575 25.2857 9.34802C25.2651 9.3003 25.2347 9.25746 25.1964 9.22229C25.1581 9.18711 25.1129 9.16039 25.0636 9.14388C25.0143 9.12736 24.9621 9.12141 24.9103 9.12642C24.7228 9.13012 24.5364 9.09657 24.362 9.02773V10.5684C24.016 10.4211 23.6329 10.3847 23.2654 10.4643C22.9752 10.4925 22.6998 10.606 22.474 10.7904C22.2481 10.9748 22.0818 11.2219 21.9961 11.5006C21.8467 11.9986 21.8467 12.5295 21.9961 13.0276C22.0492 13.2493 22.163 13.4519 22.3247 13.6127C22.4864 13.7734 22.6897 13.886 22.9118 13.9378C23.3516 14.0482 23.8083 14.0742 24.2578 14.0145C24.5459 14.0083 24.8282 13.9321 25.0803 13.7925C25.1648 13.7502 25.2356 13.6846 25.2841 13.6035C25.3327 13.5224 25.3571 13.4291 25.3544 13.3346C25.3106 12.1421 25.3188 10.9577 25.3161 9.77341ZM24.2195 13.1208C24.0016 13.1564 23.7794 13.1564 23.5615 13.1208C23.3682 13.0977 23.1904 13.0035 23.0627 12.8565C22.935 12.7096 22.8665 12.5204 22.8706 12.3257C22.8582 12.1683 22.8721 12.0098 22.9118 11.857C22.9499 11.683 23.0457 11.5269 23.1834 11.414C23.3212 11.3011 23.493 11.2379 23.6712 11.2346C23.8501 11.2246 24.0297 11.2366 24.2057 11.2703C24.3127 11.2867 24.3538 11.3278 24.351 11.443C24.351 11.6897 24.351 11.9365 24.351 12.1832C24.351 12.4354 24.351 12.6876 24.351 12.9398C24.3565 13.0632 24.3401 13.1043 24.2222 13.1208H24.2195ZM41.6417 11.5143C41.6465 11.2827 41.5763 11.0557 41.4413 10.8674C41.3064 10.6791 41.1141 10.5396 40.8933 10.4698C40.7427 10.4214 40.5854 10.3974 40.4272 10.3985C40.0579 10.3848 39.6886 10.4245 39.3306 10.5164C39.3306 10.456 39.3306 10.4149 39.3306 10.3738C39.343 10.0528 39.3347 9.73143 39.3059 9.41153C39.3039 9.36265 39.292 9.31469 39.271 9.2705C39.25 9.22631 39.2203 9.18679 39.1838 9.1543C39.1472 9.12181 39.1044 9.09702 39.0581 9.0814C39.0117 9.06577 38.9627 9.05964 38.9139 9.06337C38.7261 9.06811 38.5393 9.03357 38.3656 8.96193V13.5841C38.3656 14.0474 38.3656 14.0474 38.8344 13.9706C39.21 13.9076 39.3388 13.7568 39.3388 13.373C39.3388 12.7589 39.3388 12.1421 39.3388 11.5252C39.3353 11.5052 39.336 11.4846 39.3409 11.4648C39.3457 11.445 39.3546 11.4264 39.3669 11.4101C39.3793 11.3939 39.3949 11.3805 39.4127 11.3705C39.4305 11.3606 39.4501 11.3545 39.4704 11.3525C39.6632 11.2997 39.8629 11.2766 40.0626 11.284C40.5122 11.3141 40.6109 11.4183 40.6575 11.8652C40.7041 12.312 40.6739 12.8247 40.6767 13.3017C40.6794 13.7787 40.8905 14.0118 41.3922 14.0063C41.4388 14.0063 41.4854 14.0063 41.532 14.0063C41.6307 14.0063 41.6554 13.9706 41.6554 13.8747C41.6417 13.0824 41.6499 12.2983 41.6444 11.5143H41.6417ZM14.5694 12.7041C14.8559 12.6316 15.1514 12.6011 15.4467 12.6136C15.6777 12.6204 15.9089 12.6066 16.1375 12.5725C16.2264 12.5706 16.314 12.5504 16.3947 12.5132C16.4755 12.476 16.5477 12.4225 16.6068 12.3562C16.666 12.2898 16.7109 12.2119 16.7386 12.1275C16.7663 12.043 16.7764 11.9537 16.7681 11.8652C16.7717 11.7071 16.7589 11.5491 16.7297 11.3936C16.7 11.1726 16.6018 10.9665 16.4488 10.8042C16.2959 10.6419 16.0959 10.5317 15.8771 10.4889C15.3798 10.3644 14.8584 10.3749 14.3665 10.5191C14.1446 10.573 13.9424 10.6882 13.7829 10.8516C13.6234 11.015 13.5131 11.2199 13.4645 11.443C13.3384 11.9505 13.3441 12.4818 13.481 12.9865C13.5362 13.2069 13.6491 13.4086 13.8081 13.571C13.9671 13.7334 14.1665 13.8505 14.3857 13.9103C14.684 13.9988 14.993 14.0468 15.3041 14.0529C15.4768 14.0529 15.6495 14.0392 15.8222 14.0227C16.3705 13.9679 16.6036 13.7075 16.62 13.1756C16.62 13.0248 16.5734 13.0166 16.4473 13.0385C15.9659 13.1298 15.4754 13.1639 14.9861 13.14C14.8936 13.1429 14.8015 13.1252 14.7167 13.0882C14.6318 13.0513 14.5562 12.9959 14.4954 12.9261C14.4049 12.8083 14.4296 12.7425 14.5721 12.7041H14.5694ZM14.3912 11.8816C14.3797 11.7416 14.4192 11.6021 14.5023 11.4888C14.5854 11.3755 14.7065 11.296 14.8435 11.2648C14.9744 11.2238 15.1125 11.2111 15.2486 11.2276C15.3848 11.2442 15.5158 11.2896 15.6331 11.3607C15.681 11.3836 15.7213 11.4198 15.749 11.465C15.7768 11.5103 15.7908 11.5626 15.7893 11.6157C15.7856 11.6712 15.7661 11.7244 15.7331 11.7691C15.7 11.8138 15.6549 11.8481 15.6029 11.8679C15.4872 11.9197 15.3623 11.9477 15.2356 11.9502C14.979 11.953 14.7235 11.9834 14.4734 12.0406C14.3363 12.068 14.4323 11.9145 14.3939 11.8707L14.3912 11.8816ZM29.8861 11.8021C29.8719 11.4944 29.7568 11.2 29.5586 10.9641C29.3604 10.7283 29.0902 10.5642 28.7895 10.4972C28.3702 10.3922 27.9327 10.3828 27.5093 10.4698C27.1814 10.5222 26.8804 10.6825 26.6539 10.9253C26.4275 11.1682 26.2885 11.4796 26.2591 11.8103C26.2101 12.2451 26.2588 12.6853 26.4017 13.0989C26.4518 13.272 26.5438 13.4301 26.6695 13.5592C26.7953 13.6883 26.9509 13.7844 27.1227 13.8391C27.6722 14.0309 28.2657 14.0585 28.8307 13.9186C29.0853 13.8655 29.318 13.7369 29.4984 13.5496C29.6789 13.3623 29.7987 13.125 29.8423 12.8686C29.8892 12.648 29.9049 12.4219 29.8889 12.1969C29.8916 12.0543 29.8998 11.9227 29.8889 11.7912L29.8861 11.8021ZM28.9677 12.2572C28.9677 12.5889 28.9156 12.8987 28.573 13.0468C28.4096 13.1154 28.2335 13.1488 28.0563 13.1445C27.8791 13.1402 27.7048 13.0985 27.5449 13.0221C27.4836 12.9909 27.4295 12.9472 27.386 12.8939C27.3426 12.8405 27.3108 12.7787 27.2927 12.7123C27.197 12.4377 27.1743 12.143 27.2269 11.857C27.2501 11.713 27.3207 11.5809 27.4275 11.4816C27.5342 11.3823 27.6711 11.3214 27.8163 11.3087C27.9066 11.2913 27.9985 11.284 28.0904 11.2867C28.2065 11.2726 28.3242 11.2844 28.4351 11.3212C28.546 11.3581 28.6473 11.4191 28.7318 11.4999C28.8162 11.5807 28.8817 11.6792 28.9234 11.7884C28.9652 11.8975 28.9822 12.0146 28.9732 12.1311C28.9732 12.1613 28.9705 12.2051 28.9705 12.2408L28.9677 12.2572ZM51.9634 12.2764V11.6925C51.9698 11.4306 51.8889 11.1741 51.7336 10.9632C51.5783 10.7523 51.3573 10.599 51.1054 10.5273C50.6499 10.4171 50.1798 10.3801 49.7127 10.4177C49.6104 10.4097 49.5077 10.4248 49.4121 10.4618C49.3164 10.4988 49.2303 10.5568 49.1601 10.6315C49.0898 10.7062 49.0372 10.7958 49.0062 10.8935C48.9751 10.9912 48.9664 11.0947 48.9807 11.1963C48.9807 11.284 48.9944 11.3141 49.0958 11.2867C49.4876 11.1806 49.8949 11.1435 50.2994 11.1771C50.5001 11.1806 50.6979 11.2254 50.8805 11.3087C50.9221 11.3258 50.9574 11.3552 50.9819 11.3929C51.0064 11.4306 51.0188 11.4748 51.0176 11.5197C51.0161 11.5649 51.0009 11.6085 50.9739 11.6447C50.947 11.681 50.9096 11.7081 50.8668 11.7226C50.7446 11.7719 50.6147 11.7997 50.483 11.8049C50.1622 11.8029 49.8416 11.8231 49.5235 11.8652C49.3287 11.8918 49.1479 11.9811 49.0085 12.1196C48.869 12.2581 48.7784 12.4382 48.7504 12.6328C48.7504 12.7123 48.734 12.7918 48.7257 12.8686C48.6971 13.0039 48.6991 13.1438 48.7316 13.2782C48.7641 13.4126 48.8262 13.5381 48.9135 13.6453C49.0008 13.7526 49.111 13.839 49.236 13.8981C49.361 13.9572 49.4976 13.9876 49.6359 13.9871C50.0553 14.0268 50.4776 14.0268 50.897 13.9871C51.1514 13.9883 51.3976 13.8973 51.5902 13.731C51.7827 13.5647 51.9085 13.3343 51.9442 13.0824C51.9759 12.8113 51.9832 12.5379 51.9662 12.2654L51.9634 12.2764ZM51.0286 12.9124C51.0219 12.9829 50.9909 13.0488 50.9408 13.0988C50.8908 13.1489 50.8249 13.1799 50.7544 13.1866C50.4889 13.2246 50.2186 13.2143 49.9567 13.1564C49.8888 13.1496 49.8259 13.1177 49.7803 13.067C49.7347 13.0164 49.7096 12.9505 49.7099 12.8823C49.7099 12.7315 49.8114 12.6739 49.9265 12.6301C50.0706 12.5785 50.2232 12.5552 50.3761 12.5615C50.6289 12.5603 50.8729 12.4689 51.0642 12.3038C51.0686 12.5036 51.0576 12.7034 51.0313 12.9015L51.0286 12.9124ZM47.821 11.6925C47.8463 11.4131 47.7652 11.1345 47.5939 10.9123C47.4226 10.6902 47.1738 10.541 46.8971 10.4944C46.3571 10.3729 45.7987 10.3561 45.2522 10.4451C45.0852 10.4612 44.9215 10.5028 44.767 10.5684C44.6947 10.5948 44.6332 10.6443 44.592 10.7093C44.5509 10.7742 44.5324 10.851 44.5395 10.9276C44.5395 11.4101 44.5395 11.8953 44.5395 12.3806C44.5395 12.7891 44.5395 13.203 44.5395 13.6115C44.5395 14.02 44.5395 14.0419 44.9699 13.9844C45.4003 13.9268 45.5182 13.7705 45.5182 13.3703C45.5182 12.7342 45.5182 12.0955 45.5182 11.4512C45.5182 11.3964 45.5182 11.347 45.584 11.3361C45.8615 11.2719 46.1475 11.2524 46.4311 11.2785C46.4949 11.281 46.5574 11.2968 46.6148 11.3248C46.6722 11.3528 46.7231 11.3924 46.7643 11.4411C46.8056 11.4898 46.8363 11.5466 46.8544 11.6078C46.8725 11.669 46.8778 11.7333 46.8697 11.7966C46.8697 12.3449 46.8697 12.8932 46.8697 13.4415C46.862 13.501 46.8662 13.5613 46.8819 13.6191C46.8976 13.677 46.9245 13.7311 46.9612 13.7785C46.9979 13.8259 47.0436 13.8655 47.0956 13.8952C47.1477 13.9249 47.2051 13.944 47.2645 13.9515C47.4079 13.9811 47.554 13.9958 47.7004 13.9953C47.8155 13.9953 47.8402 13.9569 47.8402 13.85C47.8183 13.129 47.821 12.408 47.821 11.6925ZM20.9543 11.6513C20.9697 11.3938 20.8937 11.139 20.7398 10.9319C20.5858 10.7248 20.3638 10.5786 20.1127 10.5191C19.6232 10.3883 19.113 10.3539 18.6103 10.4177C18.3739 10.4276 18.1406 10.4757 17.9195 10.5602C17.8413 10.5859 17.7741 10.6372 17.7288 10.7059C17.6835 10.7746 17.6628 10.8566 17.67 10.9386C17.67 11.4156 17.67 11.8953 17.67 12.3751V13.5896C17.67 14.0584 17.67 14.0584 18.1388 13.9789C18.2121 13.9785 18.2844 13.9624 18.3508 13.9316C18.4173 13.9008 18.4763 13.856 18.5239 13.8004C18.5715 13.7447 18.6066 13.6794 18.6267 13.609C18.6468 13.5386 18.6515 13.4646 18.6405 13.3922C18.6405 12.7452 18.6405 12.0982 18.6405 11.4512C18.6405 11.3991 18.6405 11.3553 18.7008 11.3443C18.9923 11.2736 19.2941 11.256 19.5918 11.2922C19.7091 11.3053 19.8164 11.3643 19.8903 11.4562C19.9643 11.5481 19.9989 11.6656 19.9866 11.7829C19.9866 12.3312 19.9866 12.8987 19.9866 13.4552C19.9745 13.5699 20.0067 13.6848 20.0765 13.7765C20.1463 13.8682 20.2485 13.9298 20.3622 13.9487C20.5099 13.9866 20.6621 14.0041 20.8145 14.0008C20.9214 14.0008 20.9598 13.9761 20.9571 13.861C20.9488 13.118 20.9543 12.3833 20.9516 11.6459L20.9543 11.6513ZM33.091 10.4067C32.7263 10.4067 32.3645 10.4067 31.9944 10.4067C31.8456 10.3989 31.6968 10.4215 31.557 10.4731C31.4172 10.5246 31.2894 10.6042 31.1814 10.7068C31.0734 10.8094 30.9875 10.933 30.9288 11.0699C30.8701 11.2069 30.84 11.3543 30.8402 11.5033C30.81 11.8734 30.8265 12.249 30.8265 12.6218C30.8265 12.9124 30.8265 13.203 30.8402 13.4909C30.839 13.5929 30.876 13.6917 30.944 13.7678C31.012 13.8439 31.106 13.8918 31.2075 13.9021C31.4118 13.9361 31.6103 13.9989 31.797 14.0885C31.797 13.9569 31.797 13.85 31.797 13.7458C31.797 13.1098 31.797 12.4738 31.8134 11.8268C31.8134 11.4731 31.9861 11.3333 32.3398 11.3059C32.4741 11.3059 32.6139 11.3059 32.7483 11.2895C32.8496 11.292 32.9484 11.2574 33.0261 11.1923C33.1038 11.1272 33.1551 11.036 33.1705 10.9358C33.1992 10.797 33.2103 10.6552 33.2033 10.5136C33.2088 10.4232 33.1759 10.3985 33.0882 10.4012L33.091 10.4067ZM43.5772 11.0427C43.581 10.9372 43.5681 10.8317 43.5388 10.7302C43.5218 10.649 43.4762 10.5766 43.4103 10.5263C43.3443 10.4759 43.2625 10.451 43.1797 10.456C43.0333 10.4679 42.886 10.4502 42.7465 10.404C42.593 10.3299 42.604 10.404 42.604 10.5164C42.604 11.5252 42.604 12.5341 42.604 13.5457C42.604 13.691 42.5354 13.8994 42.6341 13.9652C42.7328 14.031 42.9795 13.9953 43.1523 13.9652C43.2159 13.9599 43.2778 13.9416 43.3341 13.9114C43.3904 13.8811 43.4399 13.8397 43.4794 13.7896C43.519 13.7394 43.5479 13.6817 43.5643 13.6199C43.5806 13.5582 43.5841 13.4937 43.5744 13.4306C43.5744 13.0303 43.5744 12.6301 43.5744 12.2298L43.5772 11.0427ZM43.1057 9.15383C42.9675 9.15382 42.8348 9.20815 42.7363 9.30509C42.6378 9.40203 42.5814 9.53381 42.5793 9.67198C42.5792 9.74071 42.593 9.80874 42.6198 9.87204C42.6466 9.93533 42.6858 9.9926 42.7352 10.0404C42.7846 10.0883 42.843 10.1257 42.9072 10.1504C42.9713 10.1752 43.0397 10.1868 43.1084 10.1846C43.1756 10.1847 43.2421 10.1712 43.304 10.1452C43.3659 10.1192 43.422 10.081 43.469 10.033C43.516 9.98503 43.5529 9.92812 43.5776 9.86564C43.6023 9.80317 43.6143 9.7364 43.6128 9.66924C43.6139 9.60145 43.6016 9.53413 43.5764 9.47116C43.5513 9.40819 43.514 9.35082 43.4666 9.30238C43.4192 9.25393 43.3626 9.21538 43.3002 9.18894C43.2378 9.1625 43.1707 9.14871 43.1029 9.14835L43.1057 9.15383Z" fill="#1500FF"/>
</svg>
