<svg width="70" height="24" viewBox="0 0 70 24" fill="none" xmlns="http://www.w3.org/2000/svg">
<path d="M15.4493 10.5778C14.3556 10.5957 13.3405 10.6171 12.3255 10.6279C10.5338 10.6599 8.75185 10.3569 7.07147 9.73433C4.93924 8.91612 3.20375 7.30861 2.22491 5.24519C1.68521 4.19796 1.22415 3.1007 0.709473 1.99986C3.99055 0.384339 7.24661 0.241371 10.4383 2.05347C13.6944 3.91203 15.0883 6.90717 15.4493 10.5778Z" fill="#1500FF"/>
<path d="M0.712402 19.824C1.3772 18.4909 1.98123 17.1291 2.71393 15.846C4.05424 13.4978 6.19159 12.2361 8.79 11.6571C9.93529 11.3947 11.107 11.2651 12.2819 11.2711C13.3149 11.2711 14.3514 11.2925 15.4344 11.3068C15.3883 12.5325 15.1333 13.7412 14.6802 14.881C13.9906 16.7192 12.7529 18.3012 11.1346 19.413C9.60842 20.4462 7.82377 21.0322 5.98215 21.1048C4.14052 21.1775 2.31525 20.7338 0.712402 19.824V19.824Z" fill="#1500FF"/>
<path d="M59.2755 20.4067V20.9786H56.4341V20.4246L56.9273 20.3495C57.0292 20.3361 57.1218 20.2833 57.1853 20.2025C57.2487 20.1217 57.278 20.0192 57.2669 19.917C57.2669 18.9091 57.299 17.9012 57.2669 16.8933C57.2347 15.8854 56.6592 15.3171 55.7478 15.3779C55.4299 15.4307 55.1321 15.5685 54.8861 15.7768C54.6401 15.9851 54.4549 16.256 54.3503 16.5609C54.2457 16.9352 54.1833 17.32 54.1645 17.7082C54.1359 18.3301 54.1645 18.952 54.1645 19.5739C54.1531 19.7541 54.1811 19.9347 54.2467 20.1029C54.3398 20.2334 54.4708 20.332 54.622 20.3853C54.7403 20.4052 54.8611 20.4052 54.9794 20.3853V20.9821H45.3649V20.3853C45.5472 20.3853 45.7223 20.3853 45.9046 20.3853C45.9681 20.3888 46.0317 20.379 46.0912 20.3565C46.1507 20.3339 46.2048 20.299 46.2499 20.2542C46.2951 20.2094 46.3303 20.1556 46.3533 20.0963C46.3764 20.0369 46.3867 19.9734 46.3835 19.9099C46.3835 18.8019 46.4229 17.6903 46.3835 16.5824C46.3514 15.9354 46.0833 15.5494 45.3113 15.3993C45.0401 15.3739 44.7676 15.4323 44.5305 15.5665C44.2934 15.7007 44.1032 15.9043 43.9853 16.1499C43.7546 16.5734 43.6318 17.0472 43.6279 17.5295C43.6279 18.2443 43.6279 18.9592 43.6279 19.674C43.6279 20.2816 43.7423 20.3888 44.3427 20.3888H44.6358V20.9714H41.4655V20.3781C41.6407 20.3781 41.8229 20.3781 41.9981 20.3781C42.0613 20.3816 42.1245 20.3719 42.1838 20.3496C42.243 20.3272 42.2969 20.2927 42.342 20.2483C42.3871 20.2038 42.4224 20.1505 42.4457 20.0916C42.4689 20.0327 42.4796 19.9696 42.477 19.9063C42.477 18.877 42.5056 17.8476 42.477 16.8182C42.4639 16.4614 42.3526 16.1151 42.1553 15.8175C41.6728 15.1027 40.5684 15.2849 40.1216 16.0677C39.8742 16.4725 39.7419 16.9371 39.7392 17.4116C39.7392 18.2265 39.7392 19.0414 39.7392 19.8563C39.7392 20.2459 39.8714 20.371 40.2682 20.3781H40.7042V20.9714C40.6256 20.9714 40.547 20.9929 40.4719 20.9929C39.3997 20.9929 38.3274 20.9929 37.2552 20.9929C36.9834 20.9948 36.7119 20.9733 36.4438 20.9285C36.2462 20.891 36.0655 20.792 35.9275 20.6457C35.7895 20.4993 35.7012 20.3131 35.6754 20.1136C35.4073 20.3352 35.1857 20.5568 34.932 20.7319C34.663 20.9159 34.3604 21.0451 34.0415 21.1119C33.7226 21.1788 33.3936 21.182 33.0734 21.1215C32.8464 21.0981 32.6217 21.0563 32.4014 20.9964C32.1691 20.9243 31.9589 20.7941 31.7909 20.6181C31.623 20.4421 31.5027 20.2261 31.4415 19.9906C31.3803 19.7551 31.3802 19.5079 31.4412 19.2724C31.5023 19.0368 31.6224 18.8208 31.7903 18.6446C32.355 17.9691 33.1484 17.6939 33.9526 17.4652C34.3994 17.3365 34.8712 17.2936 35.3323 17.2043C35.418 17.2043 35.5646 17.1113 35.561 17.0684C35.5431 16.6109 35.6968 16.1356 35.4359 15.6995C35.3414 15.5386 35.2128 15.4005 35.059 15.2949C34.9052 15.1893 34.73 15.1187 34.5459 15.0884C34.0673 14.987 33.5681 15.0741 33.152 15.3314C32.9411 15.4672 32.8697 15.6566 33.0484 15.8639C33.1258 15.9553 33.1843 16.0611 33.2205 16.1752C33.2567 16.2893 33.2699 16.4095 33.2592 16.5287C33.2639 16.6467 33.2282 16.7627 33.1581 16.8576C33.0879 16.9525 32.9874 17.0205 32.8732 17.0506C32.737 17.1072 32.5882 17.1268 32.4419 17.1073C32.2957 17.0879 32.1572 17.0301 32.0405 16.9398C31.9106 16.8344 31.8149 16.693 31.7653 16.5334C31.7157 16.3738 31.7144 16.203 31.7617 16.0427C31.8576 15.7186 32.0357 15.4248 32.2787 15.19C32.5217 14.9551 32.8213 14.7871 33.1484 14.7023C33.915 14.4408 34.7434 14.4209 35.5217 14.6452C35.7943 14.7028 36.0464 14.8327 36.2514 15.0214C36.4564 15.2101 36.6068 15.4505 36.6869 15.7174C36.7177 15.8232 36.7345 15.9325 36.7369 16.0427C36.7369 17.1506 36.7369 18.2622 36.7369 19.3738C36.7392 19.6212 36.7953 19.8651 36.9013 20.0886C37.0072 20.2369 37.1657 20.3392 37.3445 20.3745C37.5822 20.3986 37.8217 20.3986 38.0593 20.3745C38.1218 20.3801 38.1848 20.3724 38.2441 20.352C38.3035 20.3315 38.3578 20.2989 38.4037 20.256C38.4495 20.2132 38.4858 20.1612 38.5103 20.1034C38.5347 20.0456 38.5467 19.9833 38.5454 19.9206C38.5454 18.5767 38.5776 17.2293 38.5454 15.8854C38.5454 15.4136 38.4346 15.3242 37.9521 15.242C37.7484 15.2063 37.6984 15.1098 37.6984 14.9168C37.6984 14.7238 37.7627 14.638 37.9307 14.6344C38.4525 14.6344 38.9779 14.6344 39.5426 14.6344L39.732 15.771C40.2717 15.0562 40.8865 14.588 41.7729 14.563C42.7272 14.5379 43.2276 15.0669 43.5314 15.9033C43.8488 15.3816 44.3175 14.9689 44.8753 14.7202C45.1829 14.5776 45.5225 14.5177 45.8603 14.5465C46.1982 14.5754 46.5227 14.6919 46.8017 14.8846C46.9937 15.0315 47.1525 15.2172 47.2677 15.4297C47.3829 15.6422 47.4518 15.8767 47.4701 16.1177C47.538 16.711 47.5309 17.3115 47.5416 17.9048C47.5523 18.4981 47.5416 19.1879 47.5416 19.8277C47.5298 19.9009 47.5353 19.9759 47.5576 20.0466C47.58 20.1174 47.6186 20.1819 47.6703 20.235C47.7221 20.2882 47.7856 20.3285 47.8557 20.3527C47.9258 20.3769 48.0006 20.3844 48.0741 20.3745C48.4315 20.3745 48.7639 20.3745 49.1106 20.3745C49.6289 20.3924 49.7218 20.2065 49.7325 19.7955C49.7576 18.5338 49.754 17.2686 49.7325 16.0069C49.7325 15.4636 49.4573 15.242 48.9069 15.2349H48.6531V14.6595H50.8977V19.8313C50.8977 20.2637 51.0049 20.371 51.4303 20.371C51.7877 20.371 52.1236 20.371 52.4703 20.371C52.5458 20.3774 52.6218 20.3674 52.693 20.3415C52.7642 20.3156 52.8289 20.2746 52.8827 20.2212C52.9364 20.1678 52.9779 20.1033 53.0042 20.0323C53.0305 19.9613 53.041 19.8853 53.0351 19.8098C53.0351 18.5767 53.0351 17.3436 53.0351 16.1106C53.0351 15.3957 52.8063 15.2313 51.8985 15.1598V14.6666L53.9929 14.5415C54.0537 14.9633 54.1109 15.3528 54.1681 15.7531C54.3539 15.5566 54.5255 15.36 54.7256 15.1706C55.0972 14.8475 55.5559 14.6412 56.0442 14.5776C56.5325 14.5141 57.0286 14.596 57.4706 14.8131C57.7229 14.9606 57.9347 15.1685 58.0869 15.418C58.2391 15.6675 58.327 15.9509 58.3427 16.2428C58.4034 17.0113 58.3963 17.7833 58.4106 18.5553C58.4106 18.952 58.4106 19.3488 58.4106 19.7455C58.4106 20.2208 58.55 20.3638 59.0146 20.371L59.2755 20.4067ZM35.6361 17.6725C34.957 17.7477 34.2924 17.9211 33.6631 18.1871C33.3621 18.2964 33.1078 18.506 32.9431 18.7807C32.7784 19.0554 32.7134 19.3784 32.7589 19.6954C32.7652 19.9272 32.8604 20.1477 33.0247 20.3114C33.189 20.475 33.4099 20.5693 33.6417 20.5747C34.0389 20.5859 34.4289 20.4664 34.7517 20.2346C35.0745 20.0028 35.3124 19.6715 35.4288 19.2916C35.5334 18.757 35.6026 18.2161 35.6361 17.6725V17.6725Z" fill="#1500FF"/>
<path d="M25.9277 1.03798C25.992 1.8922 26.0528 2.75 26.1171 3.62567H25.631C25.5667 3.34331 25.4988 3.04666 25.4345 2.74643C25.2379 1.77426 24.6624 1.60984 24.0048 1.57767C23.1399 1.53478 22.2749 1.57767 21.4064 1.57767C21.1455 1.57767 20.9703 1.69562 20.9703 1.96369C20.9703 3.06453 20.9703 4.16179 20.9703 5.29123C21.5851 5.31267 22.1748 5.36628 22.6859 4.93381C23.197 4.50134 23.197 3.89373 23.3114 3.31472H23.7618V7.92895H23.3221C23.2542 7.57154 23.2006 7.23557 23.1077 6.89245C23.0282 6.58455 22.8483 6.31195 22.5965 6.11775C22.3447 5.92355 22.0353 5.81885 21.7173 5.8202C21.485 5.79876 21.2491 5.8202 21.0025 5.8202C20.9894 5.90065 20.9811 5.98181 20.9775 6.06324C20.9775 7.18195 20.9775 8.30424 20.9775 9.42295C20.9775 9.69816 21.1097 9.8447 21.3349 9.8447C22.1677 9.8447 23.004 9.8447 23.8368 9.78394C24.977 9.68029 25.4559 9.0155 25.749 7.99686C25.8169 7.76097 25.8455 7.51078 25.8991 7.24629H26.4317C26.3709 8.29352 26.3137 9.33717 26.2565 10.388H18.3934V9.85542C18.5864 9.85542 18.7758 9.85542 18.9652 9.85542C19.033 9.86257 19.1016 9.85461 19.1659 9.8321C19.2302 9.80958 19.2888 9.77308 19.3373 9.72523C19.3859 9.67738 19.4232 9.61935 19.4466 9.55534C19.47 9.49133 19.479 9.42292 19.4728 9.35504V2.02802C19.4763 1.96527 19.4667 1.90248 19.4445 1.84368C19.4223 1.78488 19.3881 1.73137 19.344 1.68659C19.2999 1.64182 19.2469 1.60677 19.1885 1.5837C19.13 1.56064 19.0673 1.55007 19.0046 1.55266C18.8044 1.55266 18.6043 1.55266 18.3862 1.55266V1.02368L25.9277 1.03798Z" fill="#1500FF"/>
<path d="M27.4589 16.9684V16.4359H31.3333V16.9684C31.1904 16.9684 31.0402 16.9684 30.8937 16.9684C30.8233 16.9608 30.7521 16.9693 30.6855 16.9932C30.6188 17.017 30.5585 17.0557 30.5089 17.1063C30.4594 17.1569 30.4219 17.218 30.3994 17.2851C30.3769 17.3523 30.37 17.4236 30.379 17.4938V21.1716H29.8679L29.4211 19.6169C29.2817 19.7849 29.1817 19.9028 29.0852 20.0243C28.8445 20.3405 28.54 20.6025 28.1915 20.7934C27.843 20.9843 27.4582 21.0998 27.0622 21.1323C26.392 21.2157 25.7116 21.1361 25.0788 20.9003C24.446 20.6645 23.8794 20.2794 23.4273 19.7777C22.5467 18.8618 22.0581 17.6385 22.0655 16.368C22.0549 15.6777 22.1873 14.9927 22.4542 14.3561C22.7212 13.7195 23.117 13.145 23.6167 12.6687C24.0477 12.2121 24.5785 11.8613 25.1675 11.6437C25.7565 11.4261 26.3878 11.3475 27.0122 11.4142C27.6775 11.5084 28.3056 11.7786 28.8314 12.1969C28.8709 12.2276 28.9127 12.2551 28.9565 12.2791C28.9818 12.292 29.0081 12.3028 29.0351 12.3113C29.1587 12.1507 29.2619 11.9754 29.3425 11.7895C29.4605 11.4142 29.6999 11.3391 30.0573 11.4321C30.136 12.7259 30.2182 14.0376 30.2968 15.3636H29.85C29.5963 14.7596 29.3782 14.1484 29.0816 13.5766C28.7492 12.8891 28.162 12.3583 27.4446 12.0969C26.8924 11.915 26.2944 11.9291 25.7514 12.1368C25.2084 12.3445 24.7537 12.7331 24.4638 13.237C24.0989 13.839 23.8878 14.5214 23.849 15.2243C23.7974 15.8185 23.7795 16.4151 23.7954 17.0113C23.8705 18.1157 24.1064 19.1808 24.9534 19.9886C25.3344 20.3507 25.8363 20.5583 26.3617 20.5712C26.9363 20.6342 27.5158 20.5088 28.0129 20.2138C28.2931 20.0342 28.5265 19.7904 28.6937 19.5026C28.8609 19.2148 28.9571 18.8913 28.9744 18.5589C29.0065 18.2015 28.9744 17.8262 28.9744 17.4581C28.9744 17.09 28.8493 16.9577 28.4633 16.947C28.138 16.9649 27.8128 16.9684 27.4589 16.9684Z" fill="#1500FF"/>
<path d="M63.932 15.0169C64.4868 14.5423 65.1274 14.1783 65.8191 13.9446C66.0311 13.8731 66.2617 13.8795 66.4693 13.9627C66.677 14.0459 66.8482 14.2004 66.9521 14.3985C67.0026 14.4915 67.0329 14.5941 67.041 14.6996C67.049 14.8051 67.0347 14.9111 66.9989 15.0106C66.9632 15.1102 66.9068 15.2011 66.8334 15.2773C66.76 15.3535 66.6714 15.4134 66.5733 15.4529C66.3802 15.53 66.165 15.5304 65.9716 15.454C65.7783 15.3776 65.6214 15.2302 65.5332 15.0419C65.4903 14.9418 65.4581 14.8382 65.3974 14.6845L64.2715 15.3207C64.5196 15.5933 64.6876 15.9291 64.757 16.2911C64.8263 16.6531 64.7944 17.0272 64.6647 17.3722C64.5332 17.7408 64.2814 18.0543 63.9498 18.2622C63.4169 18.6456 62.7725 18.8428 62.1163 18.8234C61.7127 18.8151 61.309 18.8354 60.9082 18.8841C60.7608 18.8867 60.6199 18.9455 60.5143 19.0484C60.4086 19.1514 60.3463 19.2908 60.3399 19.4381C60.3677 19.582 60.4476 19.7105 60.5644 19.7989C60.6812 19.8873 60.8266 19.9294 60.9726 19.917C61.7875 19.917 62.6024 19.917 63.4173 19.917C63.9206 19.9088 64.4132 20.0629 64.8219 20.3567C64.9971 20.5049 65.133 20.6939 65.2178 20.9071C65.3026 21.1203 65.3336 21.351 65.308 21.579C65.283 22.7514 64.2143 23.3232 63.3172 23.5126C62.4991 23.6932 61.6514 23.6932 60.8332 23.5126C60.3647 23.426 59.9384 23.1858 59.6215 22.83C59.5174 22.7159 59.4412 22.5793 59.399 22.4308C59.3567 22.2823 59.3495 22.126 59.3779 21.9742C59.4063 21.8224 59.4696 21.6793 59.5627 21.5562C59.6559 21.433 59.7763 21.3332 59.9146 21.2645C60.1575 21.1414 60.4068 21.0317 60.6616 20.9357C60.0683 20.7105 59.5322 20.3817 59.5608 19.674C59.5894 18.9663 60.0719 18.6339 60.6938 18.423C60.2523 18.1981 59.9117 17.8154 59.7395 17.3508C59.425 16.0998 59.886 15.0204 61.3336 14.6309C61.7681 14.498 62.2269 14.4636 62.6764 14.5304C63.1259 14.5972 63.5548 14.7634 63.932 15.0169ZM60.8511 16.6395C60.8796 16.8468 60.8939 17.0577 60.9404 17.2614C60.9971 17.5225 61.1288 17.7613 61.3193 17.9486C61.5097 18.1358 61.7507 18.2635 62.0127 18.3158C62.3078 18.3688 62.6122 18.3123 62.8688 18.1571C63.1253 18.0018 63.3165 17.7584 63.4066 17.4723C63.5461 17.077 63.5818 16.6524 63.5102 16.2392C63.3351 15.1098 62.2843 14.6523 61.4194 15.2671C60.9547 15.5887 60.8725 16.107 60.8511 16.6395V16.6395ZM62.6596 20.9714C62.2057 21.0107 61.8554 21.0322 61.5051 21.0751C61.3809 21.0949 61.2604 21.1335 61.1477 21.1894C60.7903 21.361 60.4329 21.5469 60.3828 21.9972C60.3567 22.2147 60.4131 22.4341 60.5408 22.6121C60.6685 22.7901 60.8582 22.9137 61.0726 22.9587C61.7106 23.1883 62.4027 23.2219 63.0599 23.0552C63.4303 22.9641 63.7797 22.8027 64.0892 22.5798C64.8041 22.0615 64.3966 21.2716 63.7783 21.1323C63.3744 21.0429 62.9777 21.0107 62.6596 20.9714Z" fill="#1500FF"/>
<path d="M53.2424 8.01512C53.1816 8.90509 53.0422 9.74501 52.213 10.2525C51.3838 10.7601 49.9506 10.5242 49.6718 9.45908C49.646 9.35258 49.6328 9.24342 49.6325 9.13384C49.6325 7.78995 49.6325 6.44488 49.6325 5.09861V4.74119H48.5781C48.4709 4.28013 48.4709 4.26226 48.8748 4.13716C49.6325 3.90484 49.9291 3.29724 50.115 2.60742C50.2008 2.28217 50.2294 1.93905 50.2865 1.57806H50.7798V4.03351H55.6764V9.10167C55.6764 9.69855 55.7836 9.8165 56.3912 9.8165H56.6521V10.349H53.5784V9.81292C53.7356 9.81292 53.8929 9.81292 54.0537 9.81292C54.1168 9.81651 54.1799 9.80679 54.2389 9.7844C54.298 9.762 54.3517 9.72744 54.3965 9.68295C54.4413 9.63845 54.4763 9.58503 54.4991 9.52614C54.522 9.46725 54.5322 9.40422 54.5291 9.34114C54.5291 8.04729 54.5291 6.75345 54.5291 5.4596C54.5349 5.30169 54.4818 5.14725 54.3801 5.02634C54.2783 4.90544 54.1353 4.82673 53.9787 4.80553C52.935 4.80553 51.8913 4.80553 50.8155 4.80553C50.8155 4.85557 50.8155 4.95207 50.8155 5.05215V8.86935C50.808 9.06093 50.8624 9.24984 50.9705 9.40817C51.0786 9.5665 51.2348 9.68585 51.416 9.74859C51.6135 9.79844 51.8221 9.77788 52.0061 9.69047C52.1901 9.60305 52.3378 9.45424 52.4239 9.26965C52.559 9.00452 52.6518 8.71992 52.6991 8.42615C52.7384 7.95079 52.7134 7.94721 53.2424 8.01512Z" fill="#1500FF"/>
<path d="M62.5337 4.62313V4.10488C62.8911 4.07271 63.2485 4.0334 63.6059 4.0191C63.9634 4.00481 64.2886 4.0191 64.6782 4.0191C64.7354 4.37652 64.8069 4.77682 64.8783 5.21287C65.2001 4.71948 65.6727 4.34336 66.2258 4.14062C66.9013 3.91903 68.0629 3.9226 68.5561 4.56952C68.8664 4.94158 69.047 5.40454 69.0708 5.88839C69.0708 6.91417 69.0708 7.94352 69.0708 8.97288C69.0708 9.64482 69.2281 9.86285 69.9107 9.83783C69.9107 9.92361 69.9107 10.0094 69.9107 10.0987C69.9107 10.1881 69.9107 10.2596 69.9107 10.3597H67.1193V9.87357C67.1193 9.87357 67.1444 9.83783 67.1587 9.83783C67.7269 9.83783 67.9771 9.70916 67.9628 8.96216C67.9485 8.21516 67.9628 7.39311 67.9628 6.61037C67.947 6.2827 67.8893 5.9584 67.7913 5.64534C67.737 5.43325 67.6212 5.24199 67.4583 5.09569C67.2955 4.94938 67.0929 4.8546 66.8763 4.82329C66.5911 4.76946 66.2967 4.79612 66.0258 4.90028C65.755 5.00445 65.5185 5.182 65.343 5.41302C65.0074 5.85472 64.8356 6.3992 64.8569 6.95348C64.8569 7.62543 64.8569 8.30094 64.8569 8.97288C64.8569 9.7306 64.9212 9.79851 65.6897 9.8414V10.3597H62.8589V9.87357C62.8589 9.87357 62.8911 9.83783 62.9054 9.83783C63.6774 9.83783 63.7167 9.65197 63.7024 8.97288C63.7024 7.822 63.7024 6.67113 63.7024 5.52025C63.7024 4.83401 63.5094 4.641 62.8268 4.63385L62.5337 4.62313Z" fill="#1500FF"/>
<path d="M45.6725 4.60171V4.05843H47.917V9.00864C47.917 9.60195 48.1315 9.81998 48.7141 9.81998H49.0715C49.0894 9.93844 49.0894 10.0589 49.0715 10.1774C49.0429 10.2596 48.9428 10.3704 48.8749 10.374C48.2244 10.374 47.5739 10.374 46.9055 10.374C46.8662 10.0166 46.8305 9.65914 46.7912 9.25883C46.5803 9.45184 46.3909 9.61625 46.1943 9.80925C45.3651 10.5563 44.2428 10.7528 43.3349 10.1238C43.1283 9.98607 42.9563 9.8025 42.8323 9.58736C42.7083 9.37223 42.6357 9.13136 42.6201 8.88354C42.5594 8.07578 42.5665 7.26446 42.5486 6.45312C42.5486 6.16719 42.5486 5.88125 42.5486 5.59532C42.5737 4.88049 42.2913 4.72323 41.673 4.6303C41.6051 4.62669 41.5371 4.62669 41.4692 4.6303V4.09775L43.7031 4.00482V4.36224C43.7031 5.69897 43.7031 7.03213 43.7031 8.36529C43.7003 8.58104 43.7497 8.79425 43.8472 8.98673C43.9447 9.17921 44.0874 9.34523 44.263 9.47061C44.4386 9.59599 44.6419 9.677 44.8556 9.70671C45.0693 9.73643 45.287 9.71398 45.4902 9.64127C45.7953 9.5385 46.0682 9.3578 46.282 9.11706C46.4958 8.87633 46.643 8.58391 46.709 8.26879C46.7556 8.06246 46.7772 7.85125 46.7733 7.63974C46.7733 6.87844 46.7733 6.11357 46.7733 5.3487C46.7833 5.27311 46.7783 5.19628 46.7586 5.12262C46.7388 5.04897 46.7047 4.97994 46.6582 4.91949C46.6118 4.85905 46.5538 4.80839 46.4877 4.77042C46.4215 4.73244 46.3485 4.7079 46.2729 4.69821C46.0728 4.65175 45.8833 4.63387 45.6725 4.60171Z" fill="#1500FF"/>
<path d="M62.7301 7.24666C62.7823 7.98767 62.5764 8.72392 62.1475 9.33039C61.8864 9.69271 61.5472 9.99166 61.155 10.2051C60.7627 10.4186 60.3275 10.541 59.8814 10.5635C58.2052 10.6993 56.9757 9.29107 56.8255 7.90073C56.6603 6.94316 56.8606 5.95844 57.3867 5.14148C57.6121 4.80736 57.9083 4.52689 58.2542 4.31998C58.6001 4.11306 58.9872 3.98475 59.3882 3.94414C59.7664 3.89395 60.1507 3.91891 60.5192 4.01758C60.8878 4.11624 61.2332 4.28668 61.5356 4.51912C61.8381 4.75155 62.0918 5.04141 62.282 5.37208C62.4723 5.70274 62.5954 6.06771 62.6443 6.44605C62.6765 6.70339 62.7015 6.97502 62.7301 7.24666ZM61.5041 7.19304H61.4184C61.4767 6.55974 61.3709 5.92209 61.111 5.34163C61.0031 5.09354 60.8286 4.88023 60.6067 4.72545C60.3849 4.57067 60.1244 4.48048 59.8544 4.46492C59.5843 4.44936 59.3152 4.50904 59.0771 4.63732C58.8389 4.7656 58.641 4.95745 58.5054 5.19152C58.2137 5.70422 58.0632 6.28511 58.0693 6.87494C58.0587 7.2891 58.0767 7.70349 58.123 8.11518C58.1496 8.64654 58.3463 9.15528 58.6841 9.56628C58.819 9.73701 58.994 9.87171 59.1936 9.9584C59.3931 10.0451 59.611 10.081 59.8278 10.0631C60.1512 10.0377 60.4578 9.90893 60.7023 9.6959C60.9469 9.48287 61.1165 9.19684 61.186 8.88005C61.3326 8.3189 61.4005 7.74704 61.5041 7.19304V7.19304Z" fill="#1500FF"/>
<path d="M38.4664 7.27495C38.5069 8.0047 38.3018 8.72698 37.8838 9.32652C37.621 9.68841 37.281 9.9874 36.8885 10.2019C36.496 10.4164 36.0608 10.541 35.6142 10.5668C33.9844 10.7026 32.7156 9.29793 32.5655 7.95048C32.4547 6.93899 32.5154 5.98111 33.1302 5.13404C33.3541 4.79963 33.6495 4.51909 33.995 4.31266C34.3405 4.10622 34.7275 3.97904 35.1281 3.94027C35.554 3.88402 35.9871 3.92349 36.3958 4.05581C36.8045 4.18813 37.1785 4.40996 37.4907 4.70514C37.9587 5.138 38.2704 5.71357 38.377 6.34211C38.4247 6.65109 38.4545 6.96255 38.4664 7.27495V7.27495ZM37.244 7.16773H37.1618C37.2012 6.09549 36.9724 5.47716 36.6757 5.06613C36.5584 4.89886 36.4065 4.7587 36.2304 4.65508C36.0543 4.55147 35.858 4.48681 35.6548 4.46547C35.4515 4.44413 35.2461 4.46661 35.0523 4.53138C34.8585 4.59615 34.6808 4.70171 34.5313 4.84095C34.1166 5.28034 33.872 5.85309 33.8414 6.45648C33.7195 7.29467 33.7866 8.14953 34.038 8.95839C34.2525 9.61603 34.9602 10.1486 35.5213 10.0771C35.8472 10.0588 36.1588 9.93748 36.4112 9.73063C36.6637 9.52379 36.8439 9.24211 36.9259 8.92622C37.0725 8.35435 37.1332 7.74675 37.244 7.16773Z" fill="#1500FF"/>
<path d="M25.748 4.6229V4.08677H29.1328V4.59073C28.9362 4.6229 28.736 4.64434 28.543 4.68723C28.2285 4.75514 28.1534 4.87309 28.275 5.18404C28.4537 5.64153 28.6538 6.0883 28.854 6.53507C29.1757 7.2499 29.5045 7.96473 29.8297 8.66169C29.8573 8.70805 29.8884 8.75225 29.9227 8.79394C30.2479 8.02907 30.5553 7.28922 30.8662 6.55294C31.0235 6.19553 31.1879 5.81667 31.3416 5.44853C31.3826 5.38278 31.4068 5.30795 31.412 5.23064C31.4172 5.15334 31.4033 5.07594 31.3715 5.00528C31.3397 4.93462 31.291 4.87288 31.2297 4.82551C31.1684 4.77815 31.0963 4.74662 31.0199 4.7337C30.8341 4.66936 30.6411 4.63005 30.4552 4.58001V4.07605H33.1072V4.5943C32.2137 4.62647 32.0672 5.39134 31.7884 6.02396C31.2058 7.33925 30.6446 8.66169 30.0728 9.98413C30.0351 10.1178 29.9786 10.2454 29.9048 10.363C29.8219 10.4586 29.7055 10.5188 29.5795 10.531C29.5211 10.5206 29.4656 10.4972 29.4174 10.4626C29.3691 10.428 29.3293 10.3829 29.3008 10.3308C28.8683 9.38367 28.4465 8.43295 28.0212 7.4715C27.6852 6.71378 27.3385 5.95963 27.0133 5.19833C26.9442 5.01467 26.818 4.85798 26.6534 4.75121C26.4887 4.64444 26.2942 4.59321 26.0983 4.60503L25.748 4.6229Z" fill="#1500FF"/>
<path d="M41.425 10.3563H38.4012V9.82015H38.7586C39.184 9.82015 39.3734 9.62714 39.3734 9.19467C39.3734 7.09545 39.3734 4.99742 39.3734 2.90058V2.32157C39.3787 2.22444 39.3642 2.12724 39.3307 2.03592C39.2972 1.94461 39.2454 1.8611 39.1784 1.7905C39.1115 1.7199 39.0309 1.66369 38.9415 1.62534C38.8521 1.58698 38.7558 1.56727 38.6586 1.56742C38.4656 1.56742 38.2726 1.56742 38.0581 1.56742V1.02415L40.5386 0.891907V9.20539C40.5386 9.72007 40.6351 9.813 41.164 9.82015H41.4428L41.425 10.3563Z" fill="#1500FF"/>
<path d="M13.0212 20.0029C13.0153 19.8307 13.0446 19.6592 13.1074 19.4987C13.1701 19.3383 13.265 19.1924 13.3861 19.0699C13.5073 18.9474 13.6521 18.851 13.8119 18.7865C13.9716 18.722 14.1428 18.6907 14.315 18.6947C14.6501 18.7018 14.9697 18.8369 15.2083 19.0722C15.4469 19.3074 15.5864 19.6251 15.5982 19.96C15.6004 20.3081 15.4683 20.6436 15.2292 20.8966C14.9902 21.1497 14.6627 21.3007 14.315 21.3182C13.6431 21.3289 12.9461 20.682 13.0212 20.0029ZM14.3115 19.0414C14.183 19.034 14.0544 19.0532 13.9337 19.0979C13.8131 19.1426 13.703 19.2118 13.6103 19.301C13.5177 19.3903 13.4445 19.4978 13.3954 19.6168C13.3463 19.7357 13.3223 19.8635 13.325 19.9922C13.3221 20.1238 13.3457 20.2547 13.3942 20.3771C13.4427 20.4995 13.5152 20.6109 13.6075 20.7049C13.6997 20.7988 13.8099 20.8733 13.9314 20.924C14.0529 20.9747 14.1834 21.0006 14.315 21.0001C14.4439 20.9987 14.5713 20.9718 14.6898 20.9211C14.8084 20.8704 14.9157 20.7967 15.0057 20.7044C15.0957 20.6121 15.1665 20.5029 15.2142 20.3831C15.2619 20.2634 15.2855 20.1354 15.2836 20.0065C15.2887 19.8777 15.267 19.7494 15.2199 19.6295C15.1727 19.5097 15.1012 19.4009 15.0098 19.3102C14.9183 19.2194 14.8091 19.1487 14.6889 19.1024C14.5686 19.0562 14.4401 19.0354 14.3115 19.0414V19.0414Z" fill="#1500FF"/>
<path d="M55.6805 1.94248C55.6844 2.04497 55.6675 2.14718 55.6307 2.24292C55.5939 2.33865 55.538 2.42592 55.4665 2.49944C55.395 2.57296 55.3093 2.6312 55.2146 2.67062C55.1199 2.71004 55.0182 2.72983 54.9157 2.72879C54.8131 2.72693 54.7118 2.70481 54.6177 2.6637C54.5237 2.62259 54.4387 2.56331 54.3676 2.48925C54.2965 2.41519 54.2408 2.3278 54.2036 2.23213C54.1664 2.13646 54.1484 2.03438 54.1508 1.93176C54.1474 1.82865 54.165 1.72591 54.2027 1.62986C54.2404 1.53381 54.2973 1.44647 54.3699 1.37319C54.4425 1.2999 54.5293 1.24222 54.625 1.20367C54.7207 1.16513 54.8233 1.14653 54.9264 1.14902C55.0296 1.1462 55.1322 1.1651 55.2276 1.20451C55.323 1.24393 55.4091 1.30296 55.4802 1.37778C55.5513 1.4526 55.6059 1.54154 55.6404 1.63883C55.6749 1.73611 55.6886 1.83957 55.6805 1.94248V1.94248Z" fill="#1500FF"/>
<path d="M49.3842 12.5148C49.3714 12.4141 49.3818 12.3118 49.4146 12.2158C49.4475 12.1198 49.5019 12.0325 49.5736 11.9608C49.6454 11.889 49.7326 11.8346 49.8287 11.8018C49.9247 11.769 50.027 11.7586 50.1277 11.7714C50.2305 11.7614 50.3342 11.7738 50.4318 11.8077C50.5294 11.8417 50.6184 11.8964 50.6928 11.9681C50.7672 12.0398 50.8252 12.1267 50.8627 12.2229C50.9003 12.3192 50.9166 12.4224 50.9104 12.5255C50.9109 12.6281 50.8911 12.7298 50.8521 12.8248C50.8132 12.9197 50.7558 13.0061 50.6834 13.0788C50.611 13.1515 50.525 13.2092 50.4302 13.2486C50.3355 13.288 50.2339 13.3083 50.1312 13.3083C50.0286 13.3101 49.9268 13.2904 49.8323 13.2506C49.7377 13.2107 49.6525 13.1515 49.5822 13.0768C49.5119 13.0021 49.4579 12.9135 49.4238 12.8167C49.3897 12.7199 49.3762 12.6171 49.3842 12.5148V12.5148Z" fill="#1500FF"/>
<path d="M14.6305 20.1458L14.8807 20.639C14.6555 20.7498 14.5519 20.639 14.459 20.4817C14.385 20.3718 14.3025 20.2679 14.2124 20.1708L14.123 20.2208C14.1374 20.3096 14.1374 20.4001 14.123 20.4889C14.1016 20.5639 14.0265 20.6211 13.9729 20.689C13.9228 20.6247 13.8335 20.5675 13.8335 20.5032C13.8335 20.1172 13.8335 19.7312 13.8335 19.2951C14.0543 19.268 14.2775 19.268 14.4983 19.2951C14.5786 19.3199 14.6523 19.3623 14.7141 19.4191C14.776 19.476 14.8243 19.546 14.8557 19.6239C14.8914 19.774 14.7842 19.9563 14.7378 20.1243L14.6305 20.1458ZM14.2088 19.4881L14.1409 19.5668V19.9706L14.5483 19.774L14.2088 19.4881Z" fill="#1500FF"/>
</svg>
