<svg width="66" height="27" viewBox="0 0 66 27" fill="none" xmlns="http://www.w3.org/2000/svg">
<path d="M22.7415 1.50502C22.6732 3.62449 22.6892 5.74397 22.6168 7.86344C22.5404 10.1156 22.4922 12.3718 22.4037 14.624C22.3474 16.0156 22.3434 17.4071 22.3072 18.8027C22.2509 20.8135 22.1423 22.8244 22.1383 24.8353C22.1486 24.8762 22.1486 24.9191 22.1383 24.96C21.8699 25.4258 21.5052 25.8289 21.0685 26.1424C20.984 26.1987 20.803 26.1183 20.6663 26.0941C19.508 25.889 18.3417 25.7161 17.1915 25.4667C16.0413 25.2174 14.9755 25.0284 13.8655 24.8192C12.0517 24.4774 10.2459 24.1275 8.43609 23.7816C7.57141 23.6127 6.71075 23.4116 5.84205 23.2789C4.85269 23.1301 3.8754 22.925 2.89409 22.744C2.32702 22.6394 1.75995 22.5027 1.18886 22.4102C0.919403 22.3659 0.991795 22.185 1.01593 22.008C1.12451 21.276 1.24919 20.5521 1.34571 19.8202C1.46636 18.8952 1.63528 17.9742 1.78811 17.0532C1.94093 16.1322 2.05354 15.2394 2.19028 14.3385C2.38333 13.0877 2.59246 11.841 2.77344 10.5942C2.94637 9.49226 3.11127 8.39029 3.27616 7.28833C3.38073 6.60061 3.48127 5.91288 3.58181 5.22516C3.58249 5.16901 3.60374 5.11507 3.64155 5.07355C3.67936 5.03204 3.73109 5.00585 3.78692 4.99994C5.47607 4.56023 7.16655 4.11113 8.85838 3.65265C10.1534 3.30275 11.4524 2.96493 12.7434 2.60699C13.8253 2.30536 14.9152 2.02383 15.997 1.73024L20.5255 0.523712C20.8593 0.435233 21.2012 0.366861 21.531 0.258273C21.5961 0.23228 21.6665 0.22201 21.7364 0.228299C21.8063 0.234587 21.8737 0.257259 21.9331 0.294471C22.1704 0.443276 22.3997 0.61219 22.6289 0.781105C22.6809 0.818138 22.7214 0.869151 22.7456 0.92823C22.7698 0.987309 22.7767 1.05203 22.7657 1.11491C22.7496 1.22752 22.7496 1.36828 22.7415 1.50502ZM3.88345 20.1459C3.61566 20.1648 3.34688 20.1648 3.07909 20.1459C2.80159 20.1097 2.85387 20.3108 2.82572 20.4435C2.79757 20.5763 2.7855 20.717 3.01474 20.7492C4.34595 20.9422 5.67716 21.1514 7.01238 21.3484C8.06207 21.5013 9.11979 21.6139 10.1735 21.7707C11.5771 21.9718 12.9887 22.201 14.3883 22.4142C15.3978 22.567 16.3992 22.6716 17.4167 22.8646C17.4728 22.8864 17.5331 22.8953 17.5931 22.8907C17.6531 22.8861 17.7113 22.868 17.7634 22.8379C17.8155 22.8078 17.8601 22.7664 17.8941 22.7167C17.9281 22.6671 17.9505 22.6104 17.9596 22.5509C18.1688 21.9115 18.4382 21.2921 18.6715 20.6607C18.945 19.9247 19.2064 19.1847 19.4758 18.4447C19.5 18.3763 19.5442 18.312 19.496 18.2356C19.3559 18.1319 19.1881 18.0724 19.0141 18.0645C18.84 18.0566 18.6675 18.1008 18.5187 18.1913C18.0763 18.8107 17.7143 19.4743 17.2237 20.0735C16.921 20.4747 16.5261 20.7971 16.0725 21.0135C15.6189 21.2298 15.1198 21.3336 14.6175 21.3163C13.0044 21.2959 11.3988 21.0921 9.83164 20.709C9.53193 20.6583 9.25726 20.5102 9.05008 20.2878C8.84291 20.0654 8.71476 19.7809 8.68544 19.4783C8.63639 18.9852 8.6499 18.488 8.72566 17.9983C8.85838 16.6671 9.01925 15.3399 9.15599 14.0127C9.15307 13.9683 9.16016 13.9238 9.17673 13.8825C9.1933 13.8411 9.21894 13.8041 9.25174 13.774C9.28454 13.7439 9.32368 13.7215 9.36627 13.7085C9.40887 13.6956 9.45382 13.6923 9.49784 13.699C9.71099 13.699 9.92012 13.699 10.1333 13.6789C11.4145 13.5698 12.7007 13.5308 13.9861 13.5623C14.9192 13.6065 15.3214 13.8519 15.4219 14.986C15.4822 15.6375 15.4903 15.6536 16.1901 15.6415C16.3831 15.6415 16.4595 15.5812 16.5038 15.3841C16.5882 14.982 16.6083 14.5798 16.6646 14.2017C16.8496 12.8907 16.9663 11.5715 17.1151 10.2564C17.1151 10.0794 17.0668 10.0111 16.914 10.0191C16.7612 10.0272 16.5118 10.0553 16.2866 10.0835C16.182 10.0835 16.0815 10.1518 16.0815 10.2524C16.0431 10.4895 15.9671 10.7189 15.8563 10.932C15.7964 11.1714 15.6876 11.3958 15.5367 11.591C15.3858 11.7862 15.1961 11.948 14.9795 12.0662C14.5271 12.2714 14.0399 12.3888 13.5437 12.4121C12.2527 12.5005 10.9618 12.585 9.67077 12.7016C9.37316 12.7298 9.31686 12.6212 9.34903 12.3759C9.40936 11.853 9.47371 11.3342 9.53001 10.8114C9.65871 9.60487 9.77132 8.39834 9.93219 7.16767C9.96838 6.85398 9.93219 6.46386 10.3344 6.31908C10.6402 6.20365 10.9532 6.10826 11.2714 6.03353C12.1602 5.83647 13.0611 5.6756 13.954 5.46646C14.7012 5.28818 15.4608 5.16585 16.2263 5.10048C16.5056 5.06207 16.7899 5.11199 17.0394 5.24325C17.289 5.3745 17.4912 5.58052 17.6178 5.83245C17.8848 6.32115 18.0503 6.85875 18.1044 7.413C18.1366 7.74681 18.1808 7.81518 18.5066 7.73475C18.6916 7.69855 18.8645 7.60605 19.0495 7.56985C19.2345 7.53366 19.2386 7.43713 19.2466 7.29637C19.2707 6.7293 19.2788 6.15821 19.3311 5.59114C19.3954 4.88733 19.3311 4.1795 19.4718 3.47971C19.5241 3.20221 19.3391 3.19416 19.1702 3.24243C18.0843 3.53199 16.9864 3.76526 15.8925 4.02265C14.3602 4.38059 12.8319 4.76266 11.3036 5.13266L8.93881 5.69169L6.39705 6.31104C5.85814 6.43973 5.3152 6.57648 4.78835 6.71322C4.73912 6.72311 4.69242 6.74292 4.65109 6.77144C4.60976 6.79996 4.57468 6.8366 4.54796 6.87911C4.52125 6.92163 4.50347 6.96914 4.4957 7.01875C4.48794 7.06836 4.49035 7.11903 4.5028 7.16767C4.52693 7.39692 4.74008 7.32854 4.90498 7.30844C5.30468 7.24723 5.70748 7.20829 6.11151 7.1918C6.87162 7.15561 7.09282 7.40898 7.10891 8.18518C7.08669 9.00615 7.01821 9.8252 6.9038 10.6385C6.80727 11.6881 6.71879 12.7378 6.58608 13.7835C6.41314 15.163 6.30857 16.5464 6.1839 17.9299C6.15057 18.3813 6.08063 18.8292 5.97477 19.2692C5.91972 19.4951 5.79489 19.6979 5.61801 19.8488C5.44112 19.9997 5.22118 20.091 4.98943 20.1097C4.62374 20.168 4.25217 20.1802 3.88345 20.1459V20.1459Z" fill="#1500FF"/>
<path d="M53.9681 18.1833C54.4225 18.1833 54.877 18.1551 55.3274 18.1833C56.0035 18.2049 56.6609 18.4112 57.2281 18.7798C57.7952 19.1485 58.2506 19.6655 58.5448 20.2746C58.8518 20.8519 58.9482 21.5181 58.8176 22.1587C58.687 22.7994 58.3374 23.3746 57.8289 23.7856C56.95 24.5197 55.8878 25.0007 54.7563 25.1772C53.6606 25.416 52.53 25.4487 51.4223 25.2737C50.291 25.141 49.24 24.6226 48.4462 23.8057C48.2572 23.5893 48.1135 23.3371 48.0236 23.0642C47.9337 22.7913 47.8993 22.5032 47.9226 22.2168C47.9458 21.9304 48.0262 21.6516 48.1589 21.3968C48.2917 21.1419 48.4741 20.9163 48.6955 20.7331C49.1899 20.3515 49.7176 20.0151 50.272 19.7277C50.3967 19.6553 50.5254 19.599 50.5134 19.4421C50.5013 19.2853 50.3686 19.2491 50.2358 19.1928C49.8338 19.0708 49.4423 18.9161 49.0655 18.7303C48.9366 18.653 48.8279 18.5461 48.7485 18.4184C48.6692 18.2907 48.6214 18.146 48.6093 17.9962C48.5971 17.8463 48.6208 17.6958 48.6785 17.5569C48.7361 17.4181 48.8261 17.295 48.9408 17.198C49.3255 16.9068 49.7493 16.6712 50.1997 16.4982C50.3967 16.4097 50.6702 16.3333 50.6863 16.096C50.7024 15.8587 50.4168 15.8145 50.2439 15.6938C49.5607 15.2875 49.0302 14.6677 48.7344 13.9299C48.4385 13.1921 48.3938 12.3775 48.607 11.6117C48.9851 10.1116 50.0187 9.22681 51.4223 8.69996C52.2197 8.34437 53.1081 8.24597 53.964 8.41844C55.3475 8.77638 56.7471 8.61148 58.1386 8.65974C58.3638 8.65974 58.577 8.65975 58.7057 8.90909C58.7448 8.96782 58.7687 9.03533 58.7753 9.10558C58.7819 9.17583 58.771 9.24661 58.7435 9.31159C58.716 9.37656 58.6728 9.4337 58.6177 9.47786C58.5627 9.52203 58.4976 9.55185 58.4282 9.56464C58.1949 9.62095 57.9576 9.67725 57.7204 9.72551C57.5068 9.78567 57.3179 9.91249 57.1814 10.0875C57.0809 10.1961 57.1131 10.3248 57.1814 10.4575C57.6929 11.299 57.853 12.3079 57.6273 13.2664C57.4016 14.2249 56.8081 15.0563 55.9749 15.5812C54.9426 16.2519 53.704 16.5302 52.484 16.3655C51.6797 16.2649 51.3137 16.4057 50.9879 17.013C50.9401 17.0843 50.908 17.165 50.8938 17.2497C50.8797 17.3344 50.8838 17.4212 50.9059 17.5042C50.928 17.5872 50.9675 17.6645 51.0219 17.731C51.0763 17.7975 51.1442 17.8516 51.2212 17.8897C51.5681 18.0714 51.9558 18.1614 52.3473 18.1511C52.8902 18.1994 53.4291 18.1833 53.9681 18.1833ZM53.5659 24.2441C54.5362 24.271 55.4921 24.0047 56.3087 23.48C56.6485 23.2318 56.9018 22.8834 57.0331 22.4837C57.1644 22.084 57.1671 21.6532 57.0407 21.2519C56.8432 20.7378 56.4698 20.3103 55.987 20.0454C54.7282 19.1807 52.2226 19.0962 50.8673 20.2706C50.4168 20.6728 50.0147 21.1152 50.0629 21.7587C50.0988 22.3295 50.3521 22.8649 50.7707 23.2548C51.1458 23.5949 51.5844 23.8574 52.0614 24.0272C52.5383 24.197 53.0442 24.2707 53.5498 24.2441H53.5659ZM50.8311 12.2271C50.8311 12.396 50.8311 12.5649 50.8592 12.7338C50.8976 13.5992 51.2592 14.4187 51.8727 15.0302C52.1015 15.2649 52.3842 15.4401 52.6962 15.5405C53.0082 15.6409 53.34 15.6636 53.6627 15.6065C53.9855 15.5494 54.2894 15.4143 54.548 15.2129C54.8066 15.0115 55.012 14.75 55.1464 14.4511C55.4302 13.8955 55.5686 13.277 55.5486 12.6534C55.5486 11.6117 55.3636 10.6425 54.6156 9.83813C54.4201 9.62694 54.1824 9.45916 53.9179 9.34567C53.6535 9.23217 53.3681 9.17548 53.0803 9.17927C52.7926 9.18306 52.5088 9.24725 52.2475 9.36767C51.9861 9.4881 51.7529 9.66207 51.563 9.87834C51.0425 10.5475 50.7773 11.3801 50.815 12.2271H50.8311Z" fill="#1500FF"/>
<path d="M45.4573 13.1883V17.3669C45.4594 17.7054 45.5234 18.0408 45.6464 18.3562C45.7157 18.562 45.8466 18.7415 46.0215 18.8703C46.1963 18.9991 46.4065 19.071 46.6236 19.0761C46.7724 19.0761 46.9213 19.1003 47.066 19.0761C47.3154 19.0761 47.4682 19.1566 47.4682 19.4381C47.4682 19.7196 47.3275 19.792 47.066 19.8121C45.952 19.8926 44.8299 19.8966 43.7199 20.0534C43.4384 20.0936 43.3419 19.9609 43.3419 19.7076V18.8509C43.3419 18.686 43.3901 18.489 43.2011 18.4005C43.0121 18.312 42.8673 18.4729 42.7265 18.5734C42.0237 19.1358 41.2365 19.5837 40.3939 19.9006C39.111 20.3028 37.9125 20.1459 36.9191 19.1767C36.4231 18.6368 36.1192 17.9483 36.0544 17.2181C36.0121 16.9264 35.9919 16.632 35.9941 16.3373C35.9941 14.565 35.9941 12.7914 35.9941 11.0165C36.009 10.6894 35.9584 10.3626 35.8453 10.0553C35.7961 9.9412 35.721 9.84005 35.6261 9.75981C35.5312 9.67956 35.419 9.6224 35.2983 9.5928C35.1178 9.53325 34.932 9.49149 34.7433 9.46812C34.4135 9.43997 34.3412 9.21475 34.3693 8.95736C34.3975 8.69997 34.6106 8.67986 34.8117 8.67584C35.8011 8.63562 36.7944 8.61149 37.7838 8.5592C38.0854 8.5592 38.186 8.6316 38.186 8.96138C38.1015 11.1251 38.1297 13.2888 38.1337 15.4525C38.0955 16.146 38.2339 16.8379 38.5359 17.4634C38.683 17.7508 38.9001 17.9965 39.1672 18.1778C39.4343 18.3591 39.7428 18.4703 40.0641 18.501C40.6414 18.5619 41.225 18.497 41.7748 18.311C42.3246 18.1249 42.8277 17.8221 43.2494 17.4232C43.2988 17.3758 43.337 17.318 43.3613 17.254C43.3857 17.19 43.3955 17.1214 43.3901 17.0532C43.3901 15.0423 43.3901 13.0636 43.3901 11.0688C43.3922 10.8048 43.3556 10.542 43.2816 10.2886C43.2332 10.1 43.1268 9.93137 42.9774 9.80653C42.828 9.68168 42.6432 9.60692 42.449 9.5928C42.1555 9.55258 41.8699 9.48019 41.5763 9.43997C41.2827 9.39976 41.3069 9.17454 41.3028 8.96943C41.2988 8.76432 41.4436 8.69595 41.6366 8.69192C42.7989 8.65573 43.9572 8.61953 45.1155 8.56725C45.393 8.56725 45.4855 8.64366 45.4815 8.92519C45.4573 10.3368 45.4573 11.7646 45.4573 13.1883Z" fill="#1500FF"/>
<path d="M28.2877 19.8321H24.2659C24.1778 19.8468 24.0873 19.8351 24.0057 19.7986C23.9242 19.7622 23.8552 19.7025 23.8074 19.627C23.7696 19.5455 23.7601 19.4537 23.7805 19.3663C23.8009 19.2788 23.85 19.2007 23.92 19.1444C24.0172 19.0154 24.1071 18.8811 24.1895 18.7422C25.5207 16.9123 26.7755 15.0261 28.0222 13.1399C28.6791 12.1478 29.332 11.1518 29.9808 10.1517C30.19 9.83398 30.0773 9.58865 29.7033 9.58865C28.8185 9.58865 27.9297 9.56855 27.0449 9.61681C26.6372 9.64422 26.2458 9.78693 25.9161 10.0283C25.5864 10.2697 25.3321 10.5998 25.1828 10.9802C25.0461 11.2577 24.8732 11.5191 24.7244 11.7845C24.706 11.8282 24.6783 11.8673 24.6433 11.8991C24.6083 11.931 24.5668 11.9548 24.5216 11.969C24.4764 11.9832 24.4287 11.9873 24.3818 11.9811C24.3348 11.975 24.2898 11.9587 24.2498 11.9333C24.2039 11.9208 24.1612 11.8988 24.1245 11.8687C24.0877 11.8385 24.0577 11.801 24.0365 11.7585C24.0152 11.716 24.0032 11.6695 24.0011 11.622C23.9991 11.5745 24.0071 11.5271 24.0246 11.4829C24.2257 10.8314 24.4268 10.1758 24.6077 9.5243C24.6325 9.46635 24.6501 9.40557 24.66 9.34332C24.7364 8.6194 24.9335 8.6918 25.4885 8.68778H32.4864C32.5814 8.67968 32.6769 8.67968 32.7719 8.68778C33.1138 8.74408 33.2183 8.95723 33.0293 9.2468C32.5387 9.99887 32.0359 10.7389 31.5413 11.4869C30.6565 12.8275 29.773 14.1681 28.8909 15.5087C28.2997 16.4136 27.7125 17.3265 27.1213 18.2355C27.0688 18.3139 27.0218 18.3959 26.9806 18.4808C26.868 18.7261 26.9806 18.9594 27.246 18.9594C28.3802 18.9594 29.5264 19.076 30.6525 18.8588C31.3765 18.6815 32.0045 18.2322 32.4059 17.604C32.6317 17.321 32.8335 17.0197 33.0092 16.7032C33.1178 16.4779 33.2586 16.3291 33.5602 16.4538C33.8618 16.5785 33.8658 16.7997 33.7774 17.041C33.5401 17.6805 33.2867 18.3119 33.0374 18.9473C32.9811 19.0921 32.9167 19.2369 32.8725 19.3857C32.8405 19.5295 32.7549 19.6558 32.6331 19.7387C32.5113 19.8217 32.3625 19.8551 32.2169 19.8321C30.9058 19.8241 29.5947 19.8321 28.2877 19.8321Z" fill="#1500FF"/>
<path d="M63.578 13.3049C63.578 14.6844 63.578 16.0679 63.578 17.4513C63.5793 17.7573 63.6281 18.0613 63.7228 18.3522C63.7917 18.5348 63.9103 18.6945 64.0653 18.8132C64.2202 18.9319 64.4053 19.0049 64.5995 19.0239C64.8248 19.0721 65.058 19.0882 65.2873 19.1244C65.5165 19.1606 65.6573 19.2571 65.6251 19.5266C65.5929 19.796 65.4401 19.8363 65.2229 19.8363H59.5321C59.2908 19.8363 59.1098 19.7598 59.0937 19.4984C59.0776 19.237 59.2667 19.1485 59.4959 19.0962C59.8412 19.0635 60.1839 19.0071 60.5215 18.9273C60.7834 18.867 61.0216 18.7306 61.2062 18.5352C61.3908 18.3399 61.5136 18.0943 61.5591 17.8294C61.6195 17.5655 61.6505 17.2957 61.6516 17.025C61.6516 15.1871 61.6516 13.3532 61.6516 11.5152C61.6518 11.2209 61.6235 10.9273 61.5671 10.6385C61.5355 10.4351 61.447 10.2448 61.3118 10.0897C61.1765 9.9345 61.0001 9.8208 60.803 9.76172C60.6823 9.72151 60.5577 9.69335 60.437 9.6652C60.3455 9.65494 60.2578 9.6227 60.1814 9.57123C60.1051 9.51975 60.0423 9.45057 59.9984 9.36959C59.9546 9.2886 59.931 9.19821 59.9296 9.10612C59.9282 9.01404 59.9492 8.92299 59.9906 8.84074C60.0157 8.78174 60.0587 8.73213 60.1136 8.69893C60.1684 8.66573 60.2323 8.65062 60.2962 8.65574L63.2321 8.52704C63.5539 8.52704 63.582 8.73215 63.586 8.96541C63.586 9.69335 63.586 10.4213 63.586 11.1492V13.2727L63.578 13.3049Z" fill="#1500FF"/>
<path d="M62.2114 3.50386C62.5816 3.48729 62.9436 3.6166 63.2196 3.864C63.4956 4.1114 63.6635 4.45716 63.6874 4.82702C63.6583 5.27654 63.4543 5.69677 63.1189 5.99753C62.7836 6.29829 62.3437 6.45561 61.8937 6.43573C61.7097 6.44612 61.5255 6.41888 61.3524 6.35569C61.1794 6.2925 61.021 6.19468 60.887 6.0682C60.753 5.94173 60.6462 5.78925 60.5731 5.6201C60.5 5.45095 60.4622 5.26868 60.4619 5.08441C60.4659 4.22778 61.2824 3.55614 62.2114 3.50386Z" fill="#1500FF"/>
</svg>
