<svg width="49" height="28" viewBox="0 0 49 28" fill="none" xmlns="http://www.w3.org/2000/svg">
<path d="M30.5486 0.94635C29.9621 6.03036 29.3774 11.1162 28.7945 16.2038C28.7932 16.36 28.7472 16.5125 28.6621 16.6435C28.577 16.7745 28.4563 16.8784 28.3142 16.9432C27.8932 17.1429 27.4885 17.3749 26.9595 17.6556L28.039 4.99953C25.3836 6.61864 22.8794 8.19995 20.1539 9.63016C21.5924 10.3759 22.9307 11.3007 24.1369 12.3826C24.2502 11.3032 24.6118 10.3048 23.2032 9.7921C24.1045 9.21462 24.9248 8.71269 25.729 8.17299C26.1284 7.91393 26.2687 8.05962 26.2201 8.47519C26.0474 11.1035 25.8747 13.7319 25.6804 16.5707C23.1762 13.4944 20.3697 11.0658 16.5864 9.91622C16.8606 9.65079 17.1855 9.44337 17.5417 9.30635C21.9187 6.83991 26.0258 3.95253 30.2031 1.17845C30.2787 1.12988 30.3219 1.02731 30.3813 0.951752L30.5486 0.94635Z" fill="#1500FF"/>
<path d="M5.88355 25.2329C5.52195 26.4796 4.58827 26.9438 3.39553 27.0463C3.16346 27.0463 2.92059 26.9276 2.7263 27.1435H2.40786C1.54973 26.6901 0.697025 26.2368 0.34082 25.2383V24.445C0.934494 22.8258 2.78568 22.0109 4.72861 22.9662C4.88513 23.0417 5.04164 23.1065 4.9283 23.2954C4.81496 23.4843 4.59367 23.8027 4.23746 23.5814C3.81833 23.3501 3.33421 23.2647 2.86123 23.3385C2.50222 23.3505 2.15676 23.4784 1.87656 23.7032C1.59635 23.9279 1.39648 24.2374 1.30688 24.5853C1.26552 24.9165 1.33741 25.2519 1.51085 25.537C1.68428 25.8222 1.94907 26.0402 2.26216 26.1558C2.72529 26.3844 3.25968 26.4221 3.75027 26.2606C4.24086 26.0991 4.6484 25.7513 4.88512 25.2923C4.41557 24.8551 3.36314 25.832 3.22282 24.6014L3.35775 24.4611H5.74863C5.77022 24.6932 5.64069 24.9954 5.88355 25.2329Z" fill="#1500FF"/>
<path d="M23.882 27.0086C23.89 27.0274 23.8941 27.0476 23.8941 27.068C23.8941 27.0884 23.89 27.1086 23.882 27.1274H23.4016C23.3045 26.334 23.6175 25.5082 23.2289 24.7418C23.067 24.5583 22.9483 24.7095 22.835 24.8012C22.4518 25.1088 22.0578 25.4057 21.6962 25.7403C21.3346 26.0749 21.0431 26.1991 20.6168 25.7727C20.1977 25.3307 19.7045 24.9654 19.1596 24.6933C18.9977 25.5406 19.3107 26.3664 18.9599 27.1436H18.1665V22.6208C18.9707 23.2469 19.7209 23.7812 20.4009 24.3964C20.8596 24.8066 21.1835 25.0063 21.7178 24.499C22.2521 23.9917 22.9915 23.4897 23.6283 22.9932C23.9791 23.1497 23.8766 23.4736 23.882 23.7434C23.8766 24.8228 23.8766 25.913 23.882 27.0086Z" fill="#1500FF"/>
<path d="M29.2739 27.1273C29.1228 26.8521 28.7666 26.906 28.5723 26.701C28.378 26.4959 27.9624 26.3286 28.2107 26.0425C28.3404 25.9404 28.4992 25.8822 28.6641 25.8764C28.8291 25.8706 28.9916 25.9174 29.1282 26.0101C29.3231 26.1892 29.5676 26.3053 29.8296 26.3428C30.0916 26.3804 30.3588 26.3378 30.5962 26.2206C30.7149 26.19 30.8197 26.1199 30.8933 26.0218C30.9669 25.9237 31.0048 25.8035 31.001 25.6809C30.9862 25.5751 30.9404 25.476 30.8693 25.3963C30.7982 25.3166 30.705 25.2597 30.6016 25.233C30.1752 25.1034 29.7381 25.0009 29.3063 24.9038C28.7666 24.7742 28.3132 24.526 28.2269 23.8891C28.1934 23.6234 28.2599 23.3546 28.4135 23.1352C28.5671 22.9157 28.7968 22.7613 29.058 22.7018C29.7812 22.5075 30.553 22.2322 31.2168 22.9662C31.3733 23.139 31.6648 23.2361 31.4813 23.5059C31.4436 23.5603 31.3946 23.6057 31.3375 23.6391C31.2805 23.6725 31.2168 23.6929 31.1509 23.6991C31.0851 23.7053 31.0188 23.697 30.9565 23.6748C30.8942 23.6526 30.8376 23.6171 30.7905 23.5707C30.6563 23.4255 30.4835 23.3215 30.2923 23.2708C30.1012 23.2202 29.8996 23.225 29.7111 23.2847C29.4466 23.3602 29.1714 23.4574 29.1714 23.7704C29.1714 24.0834 29.4304 24.2022 29.7111 24.2507C30.2811 24.3008 30.8335 24.4738 31.3302 24.758C31.4884 24.854 31.6212 24.9866 31.7175 25.1447C31.8138 25.3027 31.8706 25.4816 31.8833 25.6662C31.896 25.8508 31.8642 26.0358 31.7904 26.2056C31.7167 26.3753 31.6033 26.5248 31.4597 26.6416C31.2276 26.8359 30.8822 26.8521 30.7095 27.1327L29.2739 27.1273Z" fill="#1500FF"/>
<path d="M36.1077 22.5346H36.5934C36.6366 22.6318 36.6852 22.6264 36.7392 22.5346C37.0792 22.9664 36.8471 23.4629 36.8687 23.927C36.8687 24.2994 36.982 24.4667 37.3598 24.3966C38.0452 24.3102 38.7576 24.5585 39.4269 24.2562C39.7939 23.7165 39.5348 23.1013 39.605 22.5238H40.0907C40.0907 24.0134 40.0907 25.4976 40.0907 26.9872C40.1011 27.0052 40.1066 27.0257 40.1066 27.0465C40.1066 27.0674 40.1011 27.0878 40.0907 27.1059H39.5942C39.524 26.971 39.3891 26.89 39.3675 26.7119C39.3135 26.21 39.6266 25.503 39.2002 25.2493C38.7738 24.9957 38.1208 25.1738 37.5811 25.163C37.5001 25.163 37.4246 25.163 37.3436 25.163C36.9604 25.1144 36.8579 25.2817 36.8579 25.6541C36.9413 26.1425 36.8985 26.644 36.7337 27.1113H36.2534C36.2534 26.9116 36.1617 26.7929 35.9512 26.7983V22.6641L36.1077 22.5346Z" fill="#1500FF"/>
<path d="M13.3757 27.1275L11.8861 24.3588C11.5245 24.6664 11.5731 25.1629 11.001 25.3572C11.5731 25.5623 12.1344 25.5947 12.048 26.2855H9.78125L11.8537 22.5076C12.5607 24.1267 13.6131 25.3896 14.0881 26.9601C14.0881 27.0357 14.25 27.0789 14.3309 27.1329L13.3757 27.1275Z" fill="#1500FF"/>
<path d="M23.2356 27.1273C23.1682 26.3336 23.1682 25.5356 23.2356 24.7418C23.6242 25.5136 23.3112 26.361 23.4084 27.1273H23.2356Z" fill="#1500FF"/>
<path d="M46.847 26.9706L46.9226 27.1272H45.9673L46.0752 26.9706H46.847Z" fill="#1500FF"/>
<path d="M2.72559 27.1274C2.91988 26.9116 3.16274 27.0141 3.39481 27.0303L3.51893 27.1274H2.72559Z" fill="#1500FF"/>
<path d="M35.9674 26.8145C36.178 26.8145 36.2644 26.9278 36.2698 27.1277H35.9512L35.9674 26.8145Z" fill="#1500FF"/>
<path d="M46.8463 26.9708H46.0692C46.2419 25.3516 45.4323 24.1157 44.45 22.95C44.4147 22.8844 44.391 22.8132 44.3799 22.7395C45.3999 22.3941 45.7184 23.1982 46.0908 23.8189C46.3822 24.2938 46.5441 24.2399 46.787 23.8189C46.8949 23.6354 47.0622 23.4897 47.154 23.3062C47.2026 23.1703 47.2801 23.0465 47.3811 22.9435C47.4821 22.8404 47.6043 22.7604 47.7393 22.7091C47.8742 22.6578 48.0186 22.6364 48.1626 22.6463C48.3066 22.6562 48.4468 22.6972 48.5734 22.7665C47.6883 24.0456 46.6089 25.2653 46.8463 26.9708Z" fill="#1500FF"/>
<path d="M40.0947 27.0086C40.0947 25.5191 40.0947 24.0349 40.0947 22.5453C40.1487 22.5831 40.2566 22.6262 40.2566 22.664C40.2566 24.0618 40.2566 25.4543 40.2566 26.8521C40.2458 26.9061 40.1325 26.9547 40.0947 27.0086Z" fill="#1500FF"/>
<path d="M23.8836 27.0088C23.8836 25.9294 23.8836 24.8499 23.8836 23.7273C23.8836 23.4575 23.9807 23.1336 23.6299 22.9771C23.7756 22.9232 24.0239 22.4374 24.0509 22.9178C24.121 24.2508 24.0509 25.6163 24.0509 26.9278C24.0077 26.9548 23.9429 26.9818 23.8836 27.0088Z" fill="#1500FF"/>
<path d="M39.5934 22.5345C39.5233 23.112 39.7823 23.7218 39.4153 24.2669C39.4855 23.7002 39.1563 23.0742 39.5934 22.5345Z" fill="#1500FF"/>
<path d="M5.88337 25.2329C5.6405 25.0116 5.77003 24.7256 5.74844 24.4611C6.13163 24.6446 5.87257 24.9523 5.88337 25.2329Z" fill="#1500FF"/>
<path d="M36.1087 22.5345L35.9676 22.6702C35.9459 22.567 36.0001 22.5345 36.1087 22.5345Z" fill="#1500FF"/>
<path d="M36.7388 22.5346C36.6846 22.616 36.6357 22.6215 36.5923 22.5346C36.6132 22.5183 36.639 22.5095 36.6656 22.5095C36.6921 22.5095 36.7179 22.5183 36.7388 22.5346V22.5346Z" fill="#1500FF"/>
<path d="M3.35841 24.4451L3.22274 24.5862C3.1956 24.4668 3.24987 24.4288 3.35841 24.4451Z" fill="#1500FF"/>
</svg>
