<svg width="112" height="14" viewBox="0 0 112 14" fill="none" xmlns="http://www.w3.org/2000/svg">
<path d="M77.8518 7.55481C78.2553 8.04713 78.6589 8.49102 79.014 8.93088C79.8614 9.91955 80.7129 10.9042 81.5522 11.8969C81.9094 12.3229 82.3881 12.6298 82.9243 12.7766C83.3924 12.9098 83.5578 12.8694 83.804 12.4457C84.1147 11.913 84.3931 11.3562 84.6514 10.7952C85.5876 8.77754 86.5077 6.78002 87.4399 4.77443C87.501 4.61425 87.6059 4.47443 87.7425 4.37089C87.9967 4.21755 88.2469 4.33053 88.3922 4.61705C89.6956 7.17548 91.0031 9.73392 92.2944 12.2843C92.3819 12.5229 92.5352 12.7319 92.7367 12.8869C92.9381 13.0419 93.1793 13.1366 93.4324 13.16C93.4909 13.1817 93.5436 13.2167 93.5863 13.2622C93.629 13.3077 93.6606 13.3625 93.6786 13.4223C93.7068 13.6119 93.5333 13.624 93.384 13.624C92.1007 13.624 90.8134 13.624 89.5302 13.624C89.3647 13.624 89.1509 13.6523 89.1589 13.3617C89.1589 13.1963 89.2195 13.1398 89.3768 13.1156C90.2162 12.9824 90.3131 12.7887 89.9378 12.0341C89.51 11.1746 89.51 11.1746 88.5577 11.1746C87.6053 11.1746 86.77 11.1746 85.8741 11.1746C85.7654 11.1593 85.6547 11.1834 85.5622 11.2427C85.4697 11.3019 85.4014 11.3922 85.3697 11.4974C85.2809 11.7516 85.1558 11.9937 85.0751 12.248C85.0427 12.3312 85.0293 12.4206 85.036 12.5097C85.0427 12.5988 85.0693 12.6853 85.1138 12.7627C85.1583 12.8401 85.2197 12.9066 85.2933 12.9572C85.3669 13.0078 85.4509 13.0412 85.5392 13.055C85.6877 13.0724 85.8347 13.1007 85.9791 13.1398C86.0799 13.1882 86.1445 13.3133 86.2292 13.4061C86.1405 13.4747 86.0517 13.6039 85.9589 13.6039C84.0138 13.6039 82.0647 13.6039 80.1197 13.6039C79.9538 13.6022 79.7907 13.5614 79.6435 13.485C79.4963 13.4086 79.3691 13.2987 79.2722 13.164C77.8841 11.5176 76.4838 9.88323 75.1037 8.22872C75.0094 8.08998 74.8794 7.97925 74.7274 7.90822C74.5754 7.8372 74.407 7.80851 74.2401 7.82518C73.655 7.87361 73.6267 7.67991 73.6227 8.45067C73.6227 9.38284 73.6227 10.311 73.6227 11.2432C73.6219 11.3635 73.6314 11.4836 73.6509 11.6023C73.8245 12.5627 74.1392 12.8412 75.1118 12.8936H75.4427C75.7897 12.8936 75.8462 12.9986 75.8462 13.3375C75.8462 13.503 75.7655 13.5877 75.5799 13.5837C73.3846 13.5837 71.1867 13.5837 68.986 13.5837C68.7318 13.5837 68.7237 13.4263 68.7237 13.2447C68.7237 13.0631 68.6793 12.8977 68.9618 12.8977C69.2122 12.9022 69.4624 12.8806 69.7084 12.8331C69.9967 12.8066 70.266 12.6776 70.4673 12.4696C70.6687 12.2615 70.7889 11.9882 70.806 11.6992C70.8455 11.482 70.8671 11.262 70.8706 11.0414C70.8706 8.50986 70.8706 5.97832 70.8706 3.44679C70.8706 3.18449 70.8463 2.92622 70.8302 2.66796C70.8304 2.33634 70.7061 2.01672 70.4819 1.77236C70.2577 1.528 69.95 1.3767 69.6196 1.34839C69.4205 1.31758 69.2197 1.29871 69.0183 1.29189C68.8367 1.29189 68.7641 1.21522 68.7681 1.0417C68.7722 0.868175 68.7399 0.662371 69.0022 0.638158C69.0815 0.634091 69.1609 0.634091 69.2403 0.638158C71.5122 0.638158 73.7801 0.638158 76.048 0.638158C77.0136 0.610699 77.9769 0.747145 78.8969 1.0417C80.1076 1.44524 80.9146 2.25231 81.1285 3.51942C81.3424 4.78653 80.7694 5.75503 79.8533 6.52983C79.4288 6.82891 78.9744 7.08316 78.4974 7.28848C78.2795 7.40955 78.0939 7.46199 77.8518 7.55481ZM73.5258 4.3265H73.5662C73.5662 4.99637 73.5662 5.66625 73.5662 6.34419C73.5616 6.46448 73.578 6.58464 73.6146 6.69931C73.6469 6.77194 73.7438 6.87284 73.8083 6.87284C74.5882 6.88059 75.3676 6.83339 76.1408 6.7316C76.6596 6.62858 77.1282 6.35254 77.4698 5.94863C77.8114 5.54473 78.0058 5.03686 78.0213 4.50809C78.0979 3.29748 77.5612 2.35319 76.5201 1.96983C75.6756 1.66327 74.7574 1.62244 73.889 1.85281C73.8298 1.86013 73.7728 1.87939 73.7212 1.90945C73.6697 1.93951 73.6249 1.97973 73.5894 2.02766C73.5539 2.0756 73.5286 2.13026 73.5149 2.1883C73.5012 2.24634 73.4994 2.30656 73.5097 2.3653C73.5339 3.015 73.5258 3.66469 73.5258 4.31439V4.3265ZM89.1912 10.424L87.4681 7.0625H87.3793C86.883 8.16416 86.3826 9.26179 85.854 10.428L89.1912 10.424Z" fill="#1500FF"/>
<path d="M13.5242 6.84456H16.5669C16.7566 6.84456 16.9341 6.84456 16.9704 7.10686C17.0068 7.36916 16.8736 7.46601 16.6234 7.48215C15.6428 7.54268 15.3119 8.07536 15.2675 9.0156C15.2231 9.95585 15.2151 11.0333 15.211 12.0179C15.2194 12.1537 15.1849 12.2886 15.1125 12.4037C15.0401 12.5188 14.9334 12.6083 14.8075 12.6596C13.6249 13.238 12.3559 13.6196 11.0505 13.7895C9.57026 14.0135 8.06382 14.0013 6.58739 13.7531C4.25494 13.3012 2.37445 12.1955 1.27682 9.99216C0.259906 7.97447 0.497991 4.69369 2.57218 2.72846C3.37004 1.9608 4.31641 1.36436 5.35317 0.975748C6.38992 0.587138 7.49518 0.414564 8.60105 0.46864C9.81316 0.54228 11.0128 0.754861 12.1764 1.1022C12.4008 1.18267 12.6455 1.18674 12.8725 1.11376C13.0995 1.04078 13.296 0.894847 13.4314 0.69866C13.5587 0.57231 13.721 0.487079 13.8972 0.453985C14.0735 0.42089 14.2556 0.441459 14.4201 0.513035C14.5467 0.634887 14.6255 0.798103 14.642 0.973063C14.6985 1.44924 14.7227 1.92946 14.7469 2.40563C14.7833 3.08761 14.8156 3.76556 14.8317 4.44754C14.8317 4.82283 14.7712 4.85107 14.3878 4.87125C14.1961 4.87402 14.0081 4.81784 13.8493 4.71031C13.6905 4.60277 13.5686 4.44906 13.5 4.26998C12.9672 3.22464 12.1009 2.38683 11.0384 1.8891C9.97315 1.37909 8.75531 1.28722 7.62558 1.63167C6.49586 1.97612 5.53643 2.73181 4.93692 3.74941C4.2126 4.9734 3.91548 6.40335 4.09224 7.81457C4.26901 9.22578 4.90964 10.5383 5.91348 11.5458C6.63643 12.2515 7.55046 12.7297 8.54243 12.9212C9.53439 13.1127 10.5607 13.0091 11.4944 12.6232C11.6589 12.5737 11.8041 12.4747 11.9102 12.3396C12.0164 12.2046 12.0783 12.0401 12.0876 11.8686C12.0876 10.7992 12.1522 9.72986 12.0634 8.66855C11.9948 7.81709 11.6276 7.56286 10.7802 7.49425C10.6793 7.49425 10.5784 7.47408 10.4775 7.47408C10.2515 7.47408 10.074 7.42969 10.074 7.15528C10.074 6.88088 10.2556 6.84456 10.4775 6.84456H13.5242Z" fill="#1500FF"/>
<path d="M40.352 4.51246C41.3165 4.51246 42.2769 4.51246 43.2414 4.51246C44.3997 4.51011 45.5294 4.87301 46.4697 5.54956C47.0356 5.96736 47.4907 6.51734 47.7952 7.1515C48.0997 7.78566 48.2443 8.48472 48.2165 9.18764C48.1886 9.89056 47.9891 10.576 47.6354 11.1841C47.2817 11.7921 46.7845 12.3044 46.1872 12.676C45.3463 13.2284 44.3682 13.5359 43.3624 13.5638C41.2882 13.6082 39.21 13.6082 37.1358 13.6163C37.0795 13.6083 37.026 13.5864 36.9802 13.5526C36.9344 13.5188 36.8977 13.4741 36.8735 13.4226C36.8412 13.2531 36.9502 13.1442 37.1399 13.1442C37.3295 13.1442 37.5232 13.1442 37.7129 13.1442C37.8423 13.1527 37.9719 13.1327 38.0927 13.0856C38.2135 13.0384 38.3224 12.9653 38.4118 12.8713C38.5011 12.7773 38.5687 12.6648 38.6097 12.5418C38.6507 12.4188 38.6642 12.2883 38.6491 12.1595C38.6733 11.4695 38.6814 10.7794 38.6854 10.0894C38.6854 8.91911 38.6854 7.74884 38.6854 6.57858C38.6828 6.28904 38.6476 6.0007 38.5805 5.71904C38.5454 5.5089 38.4353 5.31862 38.2705 5.18355C38.1057 5.04847 37.8976 4.97778 37.6846 4.9846C37.5151 4.9846 37.3416 4.9846 37.1721 4.9846C37.0027 4.9846 36.8574 4.94022 36.8614 4.74248C36.8654 4.54475 37.0228 4.5286 37.1802 4.5286H40.3117L40.352 4.51246ZM40.687 9.1128V12.1393C40.687 12.5792 40.7394 12.6761 41.1833 12.7325C41.7256 12.8247 42.276 12.8612 42.8257 12.8415C44.3107 12.7164 45.364 12.0828 45.828 10.6624C45.9528 10.2841 46.034 9.89284 46.0702 9.49617C46.1479 8.97031 46.1163 8.43408 45.9775 7.92097C45.8386 7.40786 45.5954 6.92889 45.2631 6.51401C44.2058 5.26708 42.8176 5.09759 41.3205 5.33567C40.7959 5.41638 40.7031 5.55762 40.7031 6.08222L40.687 9.1128Z" fill="#1500FF"/>
<path d="M110.135 10.5008C110.01 10.5008 109.942 10.5008 109.873 10.5008C109.264 10.5008 109.264 10.5008 109.151 9.93181C109.038 9.36282 108.888 9.23369 108.344 9.20545C107.642 9.17316 106.935 9.18123 106.233 9.20545C106.161 9.20545 106.056 9.31036 106.023 9.39107C105.986 9.51525 105.971 9.64502 105.979 9.77443C105.979 10.5573 105.979 11.3361 105.979 12.119C105.979 12.7162 106.148 12.8575 106.738 12.8534H108.461C108.922 12.8811 109.382 12.7718 109.782 12.5392C110.182 12.3066 110.504 11.961 110.708 11.546C111.064 10.8801 111.112 10.8842 111.919 11.0375C111.834 11.3119 111.754 11.5782 111.669 11.8446C111.528 12.2925 111.378 12.7404 111.265 13.1884C111.148 13.5717 111.084 13.6282 110.668 13.6323C110.135 13.6323 109.607 13.6323 109.074 13.6323H103.041C102.873 13.6383 102.705 13.6151 102.545 13.5637C102.499 13.5403 102.46 13.5066 102.43 13.4653C102.4 13.4239 102.38 13.3761 102.371 13.3256C102.371 13.2691 102.484 13.1924 102.561 13.1359C102.638 13.0794 102.658 13.1359 102.706 13.1359C103.513 13.035 103.747 12.7889 103.751 11.9899C103.751 10.0609 103.751 8.12799 103.751 6.19504C103.751 5.34357 103.473 5.06916 102.609 4.98442C102.472 4.98442 102.319 4.98442 102.319 4.77055C102.319 4.55667 102.464 4.5365 102.622 4.5365H104.038H110.495C110.898 4.5365 111.027 4.6172 111.055 5.02478C111.08 5.4118 111.08 5.79995 111.055 6.18697C111.055 6.38067 110.999 6.59051 110.741 6.64297C110.337 6.71964 110.119 6.64297 109.966 6.38067C109.869 6.21522 109.784 6.0417 109.679 5.88432C109.576 5.71178 109.432 5.56759 109.26 5.46473C109.087 5.36188 108.891 5.3036 108.691 5.29515C107.884 5.26287 107.044 5.2669 106.221 5.25076C106.06 5.25076 105.979 5.30322 105.979 5.46867C105.979 6.34839 106.003 7.23213 106.019 8.11185C106.019 8.36204 106.128 8.47503 106.423 8.46292C107.024 8.43064 107.633 8.46293 108.231 8.42661C108.917 8.4024 109.151 8.18449 109.195 7.50251C109.195 7.26442 109.288 7.19179 109.514 7.19986C110.321 7.19986 110.152 7.09896 110.16 7.84551C110.168 8.59206 110.16 9.36686 110.16 10.1255L110.135 10.5008Z" fill="#1500FF"/>
<path d="M22.416 4.33075C24.7081 4.359 26.5442 5.54136 27.3069 7.5066C27.5256 8.1071 27.6178 8.74633 27.5777 9.38416C27.5376 10.022 27.3661 10.6446 27.074 11.213C26.7818 11.7814 26.3753 12.2833 25.88 12.6871C25.3846 13.091 24.8112 13.388 24.1956 13.5597C23.1146 13.8892 21.9653 13.9241 20.8664 13.6606C19.8302 13.3891 18.9155 12.7772 18.2692 11.923C17.6229 11.0689 17.2826 10.0222 17.3031 8.95127C17.3514 7.8973 17.7486 6.88926 18.4324 6.08571C19.1161 5.28217 20.0476 4.7287 21.0802 4.51235C21.5282 4.42357 21.9721 4.39128 22.416 4.33075ZM19.6477 9.06426C19.6028 10.1404 19.8766 11.2059 20.4346 12.1271C21.169 13.2974 23.7194 13.6485 24.5951 11.9778C25.0473 11.166 25.301 10.2587 25.3354 9.33012C25.3697 8.4015 25.1838 7.47794 24.7928 6.63495C24.6719 6.33155 24.4909 6.05574 24.2607 5.82411C24.0304 5.59248 23.7557 5.40982 23.4531 5.28713C22.8128 5.0455 22.1041 5.05997 21.4742 5.32754C20.8444 5.59511 20.342 6.09517 20.0714 6.72373C19.7666 7.46527 19.6222 8.26293 19.6477 9.06426Z" fill="#1500FF"/>
<path d="M60.0689 6.70343V8.68076C60.0689 9.72997 60.0689 10.7792 60.0689 11.8324C60.0663 12.0122 60.0798 12.1918 60.1093 12.3691C60.1313 12.5606 60.2211 12.7379 60.3625 12.8689C60.5039 12.9999 60.6875 13.076 60.8801 13.0834C61.0979 13.1136 61.3179 13.1257 61.5378 13.1197C61.7436 13.1197 61.7638 13.2286 61.7638 13.386C61.7638 13.5434 61.7113 13.6201 61.5378 13.6201C60.3272 13.6201 59.1166 13.6201 57.906 13.6201C57.7365 13.6201 57.6719 13.5555 57.676 13.3901C57.68 13.2246 57.7002 13.1157 57.906 13.1237C58.0757 13.1312 58.2458 13.1244 58.4144 13.1035C58.5411 13.1032 58.6663 13.0771 58.7825 13.0267C58.8986 12.9764 59.0033 12.9029 59.0902 12.8108C59.177 12.7186 59.2442 12.6098 59.2876 12.4908C59.331 12.3719 59.3497 12.2453 59.3426 12.1189C59.3426 11.5984 59.3426 11.0778 59.3426 10.5572C59.3426 9.09641 59.3426 7.6356 59.3426 6.17479C59.3283 6.0024 59.2606 5.83877 59.1489 5.70668C58.8593 5.34111 58.4459 5.0942 57.9867 5.0126C57.6316 4.95207 57.6598 4.77047 57.7284 4.49607C58.4911 4.49607 59.2538 4.52028 60.0124 4.49607C60.2092 4.48204 60.4065 4.51414 60.5886 4.5898C60.7708 4.66546 60.9328 4.78259 61.0616 4.93188C62.7283 6.63885 64.411 8.32969 66.0897 10.0246C66.2431 10.1779 66.4085 10.3232 66.6184 10.5209C66.6511 10.388 66.6753 10.2533 66.691 10.1174C66.691 8.76551 66.691 7.41365 66.691 6.08197C66.691 5.31525 66.348 4.99243 65.5773 4.98032C65.4885 4.98032 65.3957 4.98032 65.3069 4.98032C65.1374 4.98032 65.0486 4.944 65.0486 4.7503C65.0486 4.5566 65.1213 4.50817 65.2988 4.50817C66.4771 4.50817 67.6528 4.50817 68.8257 4.50817C68.9872 4.50817 69.0961 4.56871 69.0517 4.72609C69.0333 4.77901 69.004 4.82751 68.9658 4.8685C68.9276 4.90949 68.8813 4.94207 68.8298 4.96417C68.6504 4.98586 68.4697 4.9953 68.289 4.99242C68.104 4.99263 67.9253 5.05973 67.7859 5.18136C67.6464 5.30299 67.5557 5.47094 67.5304 5.65422C67.4867 5.90066 67.4651 6.1505 67.4658 6.40077C67.4658 8.59199 67.4658 10.7832 67.4658 12.9744C67.4639 13.1637 67.4477 13.3525 67.4174 13.5394C67.3891 13.6968 67.2802 13.7371 67.151 13.6362C67.0316 13.5457 66.9183 13.4473 66.8121 13.3416L60.3555 6.9052C60.2855 6.82144 60.222 6.7324 60.1658 6.63886L60.0689 6.70343Z" fill="#1500FF"/>
<path d="M56.5866 6.57816C56.2879 6.67904 56.1386 6.59834 56.0458 6.35218C55.9372 6.01688 55.719 5.72787 55.4262 5.53169C55.1334 5.33551 54.7831 5.24359 54.4317 5.2707C53.6488 5.2707 52.8659 5.27069 52.0831 5.24245C51.8167 5.24245 51.7037 5.31105 51.7118 5.59756C51.7118 6.40464 51.7118 7.23996 51.7118 8.05914C51.7118 8.34969 51.8208 8.46268 52.1153 8.46268C52.8094 8.43847 53.5035 8.46268 54.1936 8.42636C54.8836 8.39004 55.15 8.19232 55.2629 7.47805C55.2629 7.40138 55.2912 7.32471 55.3073 7.24803C55.7351 7.14715 55.7674 7.17136 55.7674 7.58701V10.1414C55.7674 10.5449 55.7674 10.545 55.3033 10.4925C55.3033 10.327 55.2629 10.1535 55.2347 9.97595C55.2326 9.78615 55.1554 9.6049 55.02 9.47182C54.8847 9.33874 54.7022 9.26465 54.5124 9.26573C53.6609 9.2173 52.8094 9.22134 51.9539 9.20116C51.7643 9.20116 51.7199 9.32222 51.7158 9.47557C51.7158 9.96788 51.6916 10.4562 51.6916 10.9485C51.6916 11.4408 51.6916 11.8484 51.732 12.2963C51.7602 12.6635 51.9176 12.833 52.2889 12.8371C53.2331 12.8371 54.1774 12.837 55.1136 12.7765C56.0499 12.716 56.5543 11.9694 56.9457 11.2148C57.0789 10.9485 57.2484 10.9162 57.5268 11.005C57.2887 11.8121 57.0668 12.5949 56.8206 13.3738C56.7843 13.4787 56.6269 13.5513 56.5139 13.6159C56.4354 13.6324 56.3543 13.6324 56.2758 13.6159C53.7255 13.6159 51.1697 13.6159 48.6086 13.6159C48.3624 13.6159 48.2615 13.5271 48.3423 13.3011C48.3632 13.257 48.3949 13.2187 48.4343 13.1898C48.4738 13.1609 48.5198 13.1423 48.5682 13.1357C49.569 13.059 49.7385 12.7604 49.7385 11.8121C49.7385 9.95309 49.7385 8.09143 49.7385 6.22708C49.7391 6.06748 49.7256 5.90814 49.6981 5.75091C49.6827 5.53005 49.5834 5.32344 49.4206 5.1734C49.2578 5.02335 49.0438 4.94123 48.8225 4.94383C48.6368 4.91962 48.314 5.02453 48.3544 4.65731C48.3947 4.29009 48.6691 4.47975 48.8346 4.47975C51.2841 4.47975 53.7335 4.47975 56.183 4.47975C56.4695 4.47975 56.5866 4.55643 56.5583 4.84295C56.5744 5.43615 56.5866 6.00513 56.5866 6.57816Z" fill="#1500FF"/>
<path d="M102.357 11.2915C102.027 11.9705 101.533 12.5562 100.919 12.9953C100.305 13.4344 99.591 13.713 98.8419 13.8055C97.591 13.9805 96.316 13.7914 95.1697 13.2607C94.6123 13.0116 94.111 12.6521 93.6963 12.2039C93.2816 11.7557 92.962 11.2281 92.7569 10.6529C92.5517 10.0778 92.4652 9.46706 92.5026 8.85758C92.54 8.24809 92.7005 7.6525 92.9745 7.10677C93.7009 5.69035 94.9478 4.90345 96.4732 4.53623C97.7415 4.24029 99.0682 4.31594 100.295 4.75415C100.597 4.85503 100.823 4.88731 100.997 4.50798C101.057 4.37885 101.437 4.38288 101.675 4.36674C101.715 4.36674 101.8 4.57658 101.808 4.69361C101.877 5.48051 101.929 6.27145 101.99 7.05835C101.99 7.1552 101.99 7.25608 102.014 7.40943C101.773 7.42372 101.532 7.42372 101.291 7.40943C101.219 7.40943 101.146 7.26416 101.102 7.17538C100.873 6.6724 100.532 6.22878 100.104 5.87889C99.6768 5.529 99.1744 5.28223 98.6361 5.15768C98.1838 5.05034 97.7115 5.06074 97.2643 5.18791C96.8171 5.31507 96.4099 5.55475 96.0817 5.88405C95.328 6.5918 94.8818 7.56684 94.8388 8.59987C94.7656 9.29903 94.8469 10.0057 95.0769 10.67C95.2634 11.2804 95.6225 11.8238 96.1108 12.2348C96.5991 12.6458 97.1958 12.9068 97.8291 12.9863C98.4315 13.078 99.0474 13.0087 99.6144 12.7855C100.181 12.5622 100.679 12.193 101.057 11.7152C101.154 11.6022 101.243 11.4811 101.332 11.3601C101.61 10.9162 101.994 10.9041 102.357 11.2915Z" fill="#1500FF"/>
<path d="M37.0033 11.1422C36.9266 11.3601 36.854 11.5739 36.7813 11.7878C36.6361 12.2236 36.4948 12.6595 36.3495 13.0993C36.2043 13.5392 36.1599 13.5957 35.6393 13.5997C34.8322 13.5997 34.0252 13.5997 33.2181 13.5997H27.9519C27.8147 13.5997 27.6291 13.6562 27.6129 13.4181C27.5968 13.18 27.7582 13.1397 27.9398 13.1235C28.1214 13.1074 28.3191 13.1235 28.5088 13.0751C28.7293 13.0667 28.9376 12.9718 29.0887 12.8109C29.2397 12.65 29.3213 12.4362 29.3159 12.2156C29.3482 11.5053 29.3603 10.7951 29.3643 10.0849C29.3643 8.82584 29.3643 7.56277 29.3643 6.30372C29.3637 6.13463 29.3489 5.96589 29.3199 5.7993C29.291 5.57826 29.187 5.37387 29.0254 5.22033C28.8638 5.0668 28.6543 4.97345 28.4321 4.95591C28.2628 4.95283 28.094 4.93528 27.9277 4.90344C27.8429 4.87923 27.7865 4.75413 27.7179 4.67342C27.7986 4.60886 27.8752 4.4878 27.9559 4.48376C28.3595 4.46358 28.7388 4.48376 29.1302 4.48376H32.7419C32.8993 4.48376 33.0849 4.44745 33.1051 4.68957C33.1051 4.83888 33.0809 4.94783 32.8993 4.95187H32.6612C31.8541 4.95187 31.4506 5.30698 31.4506 6.11406C31.4264 8.13175 31.4506 10.1737 31.4506 12.2035C31.4506 12.607 31.5757 12.7482 31.9954 12.7603C32.7661 12.7886 33.5409 12.8047 34.3117 12.7967C34.6315 12.7947 34.946 12.7141 35.2275 12.5621C35.5089 12.4102 35.7487 12.1914 35.9258 11.925C36.0348 11.7797 36.1276 11.6264 36.2204 11.4731C36.398 11.1058 36.4827 11.0655 37.0033 11.1422Z" fill="#1500FF"/>
</svg>
