<svg width="97" height="20" viewBox="0 0 97 20" fill="none" xmlns="http://www.w3.org/2000/svg">
<path d="M95.8798 7.57198C95.8069 7.57198 95.7725 7.58678 95.7489 7.66928C95.6523 8.031 95.5342 8.39063 95.4376 8.75024C95.4376 8.77985 95.4376 8.82007 95.384 8.82853C95.3773 8.8105 95.3716 8.79214 95.3668 8.77353C95.2531 8.40546 95.135 8.03946 95.0277 7.66928C95.0258 7.65402 95.0209 7.63928 95.0132 7.62595C95.0054 7.61262 94.995 7.60099 94.9826 7.59171C94.9702 7.58243 94.956 7.57568 94.9408 7.57193C94.9257 7.56818 94.91 7.56748 94.8946 7.56986C94.6799 7.56986 94.4653 7.56986 94.2506 7.56986C94.1304 7.56986 94.1305 7.56988 94.1305 7.69045C94.1305 8.29121 94.1305 8.89196 94.1305 9.4906C94.1315 9.51033 94.1315 9.53011 94.1305 9.54984C94.1305 9.60272 94.154 9.61542 94.2034 9.61542H94.5146C94.7014 9.61542 94.6757 9.64503 94.6714 9.45042C94.6714 9.04639 94.6499 8.64025 94.6391 8.23622V8.11352C94.6705 8.14528 94.6928 8.18472 94.7036 8.22775C94.8431 8.64024 94.9783 9.05063 95.1329 9.46101C95.1951 9.64081 95.1457 9.61331 95.3475 9.61542C95.4119 9.61542 95.4763 9.61542 95.5407 9.61542C95.6051 9.61542 95.6673 9.59215 95.6952 9.50542C95.8347 9.06332 95.9829 8.62545 96.1245 8.18546C96.1245 8.15796 96.1245 8.11987 96.1803 8.11564V8.16217L96.1417 9.50754C96.1417 9.61119 96.1417 9.61331 96.2447 9.61331C96.3929 9.61331 96.541 9.61331 96.6912 9.61331V7.56563L95.8798 7.57198ZM5.93002 1.01446C6.02944 1.01381 6.12579 0.980357 6.20362 0.919381C6.28146 0.858405 6.33627 0.773466 6.35932 0.678153C6.38362 0.58028 6.37166 0.477054 6.32562 0.387088C6.27958 0.297122 6.2025 0.22631 6.10819 0.187381C6.07385 0.170459 6.02878 0.174694 6.00302 0.138733H5.85492C5.83131 0.174694 5.78624 0.170459 5.75189 0.187381C5.65714 0.226362 5.57965 0.297539 5.53357 0.387966C5.48749 0.478393 5.47585 0.582095 5.50071 0.68027C5.52507 0.774195 5.58054 0.857414 5.6583 0.916799C5.73605 0.976183 5.83165 1.0083 5.93002 1.0081V1.01446ZM65.2769 7.43027C64.5643 7.43027 63.8495 7.43027 63.1304 7.43027C63.0574 7.43027 63.0252 7.44719 63.0274 7.52757C63.0274 7.80045 63.0274 8.07335 63.0381 8.34623C63.0524 9.35876 63.0682 10.3727 63.0853 11.388L63.1111 13.1734C63.1111 13.4314 63.1111 13.6895 63.1111 13.9476C63.1111 13.9751 63.1111 14.0089 63.0767 14.0153C63.0622 14.0192 63.0467 14.0175 63.0335 14.0104C63.0203 14.0033 63.0104 13.9914 63.0059 13.9772C62.9931 13.9412 62.978 13.9053 62.9651 13.8672C62.1723 11.7646 61.3796 9.66055 60.5868 7.55509C60.5374 7.41971 60.5739 7.43239 60.4129 7.43239H56.6995C56.5707 7.43239 56.5685 7.41972 56.5707 7.55933V15.9741C56.5707 16.1073 56.5556 16.101 56.6973 16.101H58.7472C58.7673 16.0999 58.7873 16.0999 58.8073 16.101C58.8653 16.101 58.8867 16.0778 58.8824 16.0228C58.8824 15.9001 58.8825 15.7795 58.8718 15.6568C58.8532 14.468 58.8353 13.2785 58.8181 12.0882C58.8081 11.4015 58.7959 10.714 58.7816 10.0258V9.51389C58.7816 9.48005 58.7816 9.44195 58.8266 9.43984C58.844 9.43675 58.8619 9.44061 58.8764 9.45053C58.8909 9.46044 58.9008 9.47561 58.9039 9.49272C58.912 9.52087 58.922 9.54841 58.934 9.57519C59.5836 11.3253 60.2355 13.0754 60.8895 14.8255C61.0354 15.2189 61.1835 15.6103 61.3188 16.0058C61.3445 16.0778 61.3788 16.1116 61.4561 16.101C61.4797 16.101 61.5055 16.101 61.5291 16.101H65.1782C65.3928 16.101 65.3671 16.1243 65.3671 15.9149C65.3671 13.1509 65.3671 10.3854 65.3671 7.61851C65.365 7.58894 65.365 7.55926 65.3671 7.52969C65.3864 7.44719 65.3456 7.42392 65.2769 7.42392V7.43027ZM45.7028 11.8005L45.471 11.7561C45.4056 11.7514 45.3416 11.7349 45.2821 11.7075C45.3279 11.6692 45.3853 11.6469 45.4453 11.644C45.6396 11.6071 45.8275 11.543 46.0033 11.4536C46.1212 11.3959 46.2257 11.3149 46.3103 11.2155C46.3949 11.1161 46.4578 11.0006 46.4949 10.8762C46.6933 10.2241 46.7258 9.53393 46.5894 8.86659C46.5464 8.59483 46.4274 8.34024 46.2458 8.13139C46.0642 7.92253 45.8271 7.76765 45.5612 7.6841C45.0996 7.51851 44.6121 7.43404 44.1209 7.43451C42.5411 7.43451 40.9612 7.43451 39.3814 7.43451C39.2526 7.43451 39.2526 7.43453 39.2526 7.56145V15.9762C39.2526 16.1137 39.2397 16.1031 39.3792 16.1031H44.0307C44.2024 16.1031 44.3763 16.1031 44.5502 16.0904C44.9362 16.0761 45.3183 16.0092 45.6857 15.8916C45.9112 15.8229 46.1159 15.7002 46.2815 15.5345C46.447 15.3687 46.5683 15.1651 46.6345 14.9418C46.7231 14.6673 46.7772 14.3832 46.7954 14.0957C46.8331 13.702 46.8179 13.3051 46.7504 12.9153C46.6366 12.3188 46.3146 11.9253 45.7028 11.7942V11.8005ZM41.7168 9.35736C42.043 9.35736 42.3607 9.35736 42.6956 9.35736H43.5434C43.682 9.35578 43.82 9.37359 43.9535 9.41024C44.0287 9.42841 44.0976 9.46631 44.1528 9.51993C44.2079 9.57356 44.2474 9.64092 44.2668 9.71484C44.3464 9.9726 44.353 10.2469 44.2861 10.5081C44.2705 10.585 44.2323 10.6557 44.1762 10.7114C44.1201 10.7671 44.0486 10.8052 43.9706 10.8212C43.7359 10.8819 43.4942 10.9125 43.2515 10.9121H41.7812H41.676C41.633 10.9121 41.6116 10.8931 41.6137 10.8507V10.8212C41.6137 10.3685 41.6137 9.91369 41.6137 9.46101C41.6116 9.36793 41.6438 9.35101 41.7168 9.35101V9.35736ZM44.3871 13.7996C44.3624 13.874 44.3182 13.9408 44.2591 13.9932C44.1999 14.0455 44.1278 14.0816 44.05 14.0978C43.8339 14.1516 43.6119 14.1793 43.3889 14.1803H41.7339C41.5987 14.1803 41.6051 14.1803 41.6051 14.0534V12.6213C41.6051 12.5113 41.6051 12.5113 41.7189 12.5092H42.6698C42.9704 12.5092 43.273 12.5092 43.5757 12.5092C43.7583 12.5113 43.9398 12.539 44.1144 12.5917C44.1746 12.6075 44.2299 12.6378 44.2752 12.6799C44.3206 12.722 44.3546 12.7746 44.3742 12.8328C44.4898 13.145 44.4943 13.4866 44.3871 13.8017V13.7996ZM80.1695 7.62275C79.6567 7.48978 79.1285 7.42366 78.5982 7.42604C77.1472 7.42604 75.6961 7.42604 74.2451 7.42604C74.0755 7.42604 74.0884 7.40065 74.0884 7.58257V15.9678C74.0884 16.1074 74.0755 16.0947 74.2151 16.0947H76.325C76.3451 16.0936 76.3651 16.0936 76.3852 16.0947C76.4367 16.0947 76.4539 16.0735 76.4517 16.0248C76.4496 15.9762 76.4517 15.9571 76.4517 15.9233C76.4517 15.2654 76.4517 14.6055 76.4517 13.9476C76.4517 13.789 76.4517 13.808 76.5998 13.808H78.1603C78.2689 13.8079 78.3773 13.8164 78.4845 13.8334C78.6197 13.8471 78.7481 13.8988 78.8543 13.9825C78.9605 14.0661 79.04 14.1781 79.0833 14.3051C79.1548 14.5025 79.1897 14.711 79.1864 14.9206V15.9783C79.1864 16.0968 79.1864 16.0989 79.3087 16.0989H81.4553C81.5883 16.0989 81.5862 16.0989 81.5862 15.972C81.5862 15.5045 81.5862 15.037 81.5862 14.5674C81.588 14.3874 81.5736 14.2076 81.5432 14.0301C81.5031 13.7447 81.3729 13.4789 81.1711 13.2705C80.9692 13.0621 80.7059 12.9215 80.4185 12.8688C80.2974 12.8429 80.1748 12.8245 80.0514 12.8138C80.0278 12.8138 79.9999 12.8138 79.9956 12.78C79.9913 12.7461 80.0106 12.7292 80.045 12.7228C80.0841 12.7157 80.1228 12.7065 80.1609 12.6953C80.4111 12.6375 80.6532 12.5501 80.8821 12.4351C81.0344 12.3635 81.1685 12.2594 81.2747 12.1302C81.3809 12.001 81.4565 11.8501 81.496 11.6884C81.5872 11.3089 81.6383 10.9212 81.6484 10.5313C81.6686 10.0536 81.6326 9.57517 81.5411 9.1056C81.4923 8.75065 81.3349 8.41881 81.0898 8.15427C80.8448 7.88972 80.5237 7.70504 80.1695 7.62486V7.62275ZM79.2422 10.7048C79.2468 10.9046 79.2266 11.1042 79.1821 11.2992C79.17 11.4404 79.1034 11.5716 78.9959 11.6657C78.8885 11.7598 78.7484 11.8096 78.6047 11.8048C78.521 11.809 78.4372 11.809 78.3535 11.8048H76.5247C76.4668 11.8048 76.4496 11.7815 76.4496 11.7265C76.4496 11.5658 76.4496 11.4029 76.4496 11.2421V10.6075C76.4496 10.2521 76.4496 9.89462 76.4496 9.53925C76.4496 9.41868 76.4496 9.41654 76.5655 9.41654H78.2827C78.4612 9.41582 78.6387 9.44298 78.8086 9.49695C78.8872 9.51938 78.9587 9.56128 79.0162 9.61868C79.0737 9.67608 79.1153 9.74708 79.137 9.82484C79.22 10.1121 79.2556 10.4106 79.2422 10.709V10.7048ZM90.4728 9.06542C90.3746 8.76409 90.2074 8.48906 89.984 8.26163C89.7607 8.03421 89.4873 7.8605 89.1849 7.75392C88.9403 7.6624 88.6882 7.59163 88.4314 7.54239C87.6076 7.3938 86.7676 7.35254 85.9329 7.41968C85.2902 7.46678 84.6584 7.60941 84.059 7.84275C83.6147 8.00994 83.2476 8.3311 83.0265 8.746C82.9297 8.92195 82.8527 9.10782 82.7968 9.30024C82.6611 9.8151 82.589 10.3442 82.5822 10.8762C82.5672 11.2463 82.5822 11.6186 82.5822 11.9888C82.5822 12.3928 82.5822 12.799 82.5822 13.203C82.5868 13.7162 82.6956 14.2232 82.902 14.6943C83.0062 14.943 83.1614 15.1677 83.3579 15.3544C83.5544 15.5412 83.788 15.6859 84.044 15.7795C84.4951 15.9559 84.969 16.0691 85.452 16.1158C86.3846 16.2083 87.325 16.1905 88.2533 16.0629C88.6355 16.0097 89.0079 15.9021 89.3587 15.7435C89.5819 15.6486 89.782 15.508 89.9459 15.3312C90.1099 15.1543 90.2338 14.9452 90.3096 14.7176C90.5032 14.1385 90.6285 13.5395 90.6831 12.9322C90.7761 12.0636 90.7876 11.1884 90.7175 10.3177C90.6881 9.89266 90.6059 9.47283 90.4728 9.06753V9.06542ZM88.3563 11.7265C88.3563 12.1052 88.3434 12.4204 88.3306 12.7377C88.3206 12.9765 88.2802 13.2131 88.2103 13.442C88.1719 13.5918 88.0925 13.7284 87.9809 13.8369C87.8693 13.9455 87.7297 14.0218 87.5771 14.0576C87.3524 14.1196 87.1212 14.1565 86.8881 14.1676C86.5033 14.2057 86.1147 14.1822 85.7375 14.0978C85.647 14.0739 85.5597 14.0391 85.4778 13.9941C85.3367 13.9202 85.2293 13.7962 85.1773 13.6472C85.0675 13.3224 85.0103 12.9826 85.0078 12.6403C84.9802 11.9531 84.9988 11.2648 85.0636 10.58C85.0858 10.3766 85.1231 10.1751 85.1751 9.97714C85.2003 9.87129 85.2532 9.77376 85.3285 9.69434C85.4039 9.61491 85.499 9.55632 85.6044 9.52443C85.8502 9.44887 86.1049 9.40552 86.3622 9.39542C86.7515 9.35411 87.1449 9.36906 87.5299 9.43984C87.597 9.45539 87.6629 9.47518 87.7274 9.49907C87.8284 9.53365 87.9206 9.58934 87.9976 9.66237C88.0747 9.7354 88.1348 9.82404 88.1739 9.92214C88.2824 10.2004 88.3398 10.4955 88.3434 10.7936C88.3649 11.1321 88.3563 11.4579 88.3563 11.7286V11.7265ZM28.5973 15.9128V7.56986C28.5973 7.39852 28.5973 7.42392 28.4427 7.42392H26.3777C26.2339 7.42392 26.2339 7.40063 26.2339 7.56563V10.5652C26.2339 10.7112 26.2339 10.6963 26.0944 10.6963H26.0644C25.1585 10.6963 24.2506 10.6963 23.3447 10.6963C23.158 10.6963 23.1773 10.7259 23.1773 10.5377V7.55086C23.1773 7.41971 23.1773 7.42392 23.0485 7.42392H20.9385C20.8033 7.42392 20.8075 7.42394 20.8097 7.55086V15.9233C20.8097 15.9571 20.8097 15.991 20.8097 16.0248C20.8097 16.0587 20.8312 16.0947 20.8805 16.0925C20.9299 16.0904 20.9385 16.0925 20.9685 16.0925H23.0206C23.2031 16.0925 23.1773 16.0925 23.1773 15.9339V12.744C23.1773 12.7102 23.1923 12.689 23.231 12.6911H26.1738C26.2168 12.6911 26.2339 12.7122 26.2339 12.7545V15.9974C26.2339 16.0608 26.2339 16.1031 26.3241 16.1031C27.0518 16.1031 27.7816 16.1031 28.5092 16.1031C28.5844 16.1031 28.6037 16.0756 28.5973 16.0079C28.5948 15.977 28.5948 15.9459 28.5973 15.9149V15.9128ZM35.7344 7.56145C35.6936 7.42395 35.6915 7.42392 35.5455 7.42392H32.2614C32.1154 7.42392 32.1154 7.42395 32.0725 7.56145C31.231 10.3241 30.391 13.0853 29.5525 15.8451C29.5197 15.9205 29.4987 16.0003 29.4902 16.082C29.5066 16.0836 29.5231 16.0836 29.5396 16.082H31.8428C31.9136 16.082 31.9415 16.0608 31.9608 15.991C32.0789 15.5679 32.2034 15.1449 32.3236 14.7091C32.3622 14.5695 32.3494 14.5843 32.491 14.5843H35.3738C35.5284 14.5843 35.4983 14.5674 35.5434 14.7112C35.6722 15.1195 35.7967 15.5299 35.9233 15.9402C35.977 16.1116 35.9577 16.0798 36.1101 16.082H38.2201C38.2685 16.0882 38.3178 16.0832 38.3639 16.0672C38.3532 16.027 38.3467 15.9931 38.336 15.9614L35.7344 7.56145ZM32.8624 12.9132C33.2173 11.6778 33.5708 10.446 33.9228 9.21772C33.9228 9.21772 33.9227 9.21772 33.9335 9.21772C33.9355 9.21677 33.9377 9.21632 33.9399 9.21632C33.9421 9.21632 33.9444 9.21677 33.9464 9.21772C33.9541 9.22973 33.9606 9.24248 33.9657 9.25578L35.039 12.9068L32.8624 12.9132ZM53.5827 8.36523C53.4947 8.08178 53.4045 7.79832 53.3187 7.5191C53.2994 7.45352 53.2693 7.41758 53.1963 7.43027H49.7769C49.7673 7.42811 49.7572 7.42805 49.7475 7.43006C49.7378 7.43208 49.7287 7.43611 49.7208 7.44194C49.7128 7.44777 49.7062 7.45527 49.7015 7.46384C49.6967 7.47241 49.6939 7.48188 49.6932 7.49162C49.6932 7.51912 49.676 7.5466 49.6675 7.5741C48.8174 10.3692 47.9674 13.1628 47.1174 15.9551C47.0946 15.9965 47.0842 16.0434 47.0873 16.0904C47.1052 16.0918 47.1231 16.0918 47.141 16.0904C47.903 16.0904 48.6651 16.0904 49.4292 16.0904C49.5215 16.0904 49.5451 16.0523 49.5644 15.9783C49.6803 15.5552 49.8027 15.1322 49.9207 14.7091C49.9551 14.5906 49.9573 14.5886 50.0775 14.5886H52.9753C53.1255 14.5886 53.0955 14.5758 53.1363 14.7049C53.2693 15.1279 53.396 15.551 53.5269 15.9741C53.5677 16.1094 53.5398 16.0968 53.6965 16.0968H55.8215C55.8687 16.1034 55.9169 16.0975 55.9611 16.0798C55.946 16.0312 55.9332 15.9804 55.916 15.9297C55.139 13.4096 54.3612 10.8888 53.5827 8.36735V8.36523ZM50.4574 12.9132C50.8137 11.6736 51.1658 10.4446 51.5178 9.2156C51.9127 10.4404 52.2691 11.6694 52.6361 12.9132H50.4574ZM72.9958 14.3474C72.9958 14.1591 73.0151 14.1803 72.8327 14.1803H69.072C68.881 14.1803 68.9046 14.2035 68.9046 14.0216C68.9046 13.5704 68.9046 13.1212 68.9046 12.6742C68.9046 12.488 68.8767 12.5113 69.0677 12.5092H72.515C72.6566 12.5092 72.6502 12.5261 72.6502 12.3759C72.6502 11.938 72.6502 11.498 72.6502 11.0602C72.6502 10.874 72.6781 10.8973 72.485 10.8973H69.0398C68.8938 10.8973 68.9024 10.8973 68.9024 10.7619C68.9024 10.3389 68.9024 9.93273 68.9024 9.51813C68.9024 9.33621 68.9024 9.33619 69.0806 9.33619H72.7662C72.9422 9.33619 72.9143 9.33619 72.9164 9.18601V7.59104C72.9164 7.39854 72.94 7.42392 72.7382 7.42392H66.6164C66.5584 7.42392 66.537 7.44721 66.5391 7.50009C66.5413 7.55298 66.5391 7.57832 66.5391 7.61851V15.9445C66.5391 16.1074 66.5262 16.0925 66.6915 16.0925H72.8434C73.0151 16.0925 72.9936 16.0925 72.9936 15.9424L72.9958 14.3474ZM13.4149 11.5975C13.4149 10.3833 13.4149 9.16907 13.4149 7.95487C13.4179 7.89121 13.4143 7.82745 13.4042 7.76451C13.382 7.66947 13.3271 7.58489 13.2489 7.52514C13.1706 7.46539 13.0738 7.43413 12.9749 7.43662C12.8763 7.43402 12.7797 7.46498 12.7015 7.52431C12.6233 7.58365 12.5683 7.66774 12.5456 7.76239C12.5282 7.86794 12.5224 7.97504 12.5284 8.08181C12.525 8.18314 12.4847 8.27984 12.415 8.35439C12.3453 8.42893 12.2507 8.47633 12.1485 8.48794C12.0516 8.49796 11.9541 8.47649 11.8708 8.42684C11.7875 8.3772 11.723 8.30209 11.687 8.21293C11.6636 8.1449 11.6534 8.07314 11.6569 8.0014C11.6569 7.66083 11.6569 7.31818 11.6569 6.97761C11.6569 6.86441 11.6121 6.75565 11.5319 6.67462C11.4517 6.59359 11.3424 6.54672 11.2276 6.54396C11.1152 6.54403 11.0068 6.58551 10.9238 6.66026C10.8408 6.73501 10.7892 6.83762 10.779 6.94797C10.779 6.98816 10.779 7.02625 10.779 7.06644C10.7673 7.16202 10.7228 7.2508 10.6529 7.3181C10.5831 7.38541 10.492 7.42721 10.3948 7.43662C10.3022 7.44366 10.2096 7.42348 10.1286 7.37868C10.0476 7.33388 9.98183 7.26648 9.9397 7.18491C9.91397 7.10649 9.90522 7.02359 9.91397 6.94162C9.91397 6.39163 9.91397 5.83957 9.91397 5.28747C9.92109 5.2344 9.91743 5.18048 9.90322 5.12882C9.90322 5.12882 9.90322 5.12882 9.90322 5.12882L9.88818 5.10976C9.87232 5.07142 9.85297 5.0346 9.83028 4.99976C9.75944 4.9088 9.70787 4.78823 9.56406 4.78823C9.55209 4.78022 9.53911 4.7738 9.52543 4.76917C9.46358 4.75928 9.40032 4.76286 9.34002 4.77965C9.27973 4.79644 9.22387 4.82605 9.17642 4.86636C9.12896 4.90668 9.09105 4.95673 9.06532 5.01303C9.03958 5.06933 9.02662 5.13049 9.02743 5.19223C9.02743 5.43127 9.02743 5.67033 9.02743 5.90936C9.02432 6.01579 8.98066 6.11713 8.90506 6.1932C8.82947 6.26926 8.72752 6.31444 8.61961 6.31972C8.34486 6.31972 8.20106 6.22032 8.16243 5.9686C8.16341 5.95451 8.16341 5.94033 8.16243 5.92625C8.16243 5.26838 8.16243 4.60843 8.16243 3.95056C8.16511 3.92631 8.15983 3.90183 8.14739 3.88074C8.14739 3.85324 8.12165 3.83 8.11306 3.8025C8.09581 3.74431 8.06564 3.6906 8.02481 3.64524C7.98398 3.59989 7.9335 3.56402 7.87692 3.5402C7.81267 3.51334 7.74272 3.50229 7.67317 3.50808C7.60363 3.51386 7.53658 3.53627 7.47781 3.57336C7.41903 3.61044 7.37033 3.66113 7.33589 3.72095C7.30146 3.78078 7.28232 3.84794 7.28019 3.91668C7.28019 4.01399 7.28019 4.11344 7.28019 4.21074C7.28019 4.68246 7.28019 5.15629 7.28019 5.63012C7.28139 5.74467 7.2372 5.85517 7.15703 5.93813C7.07687 6.02108 6.96704 6.06996 6.85088 6.07436C6.73911 6.07904 6.6299 6.04053 6.54651 5.96705C6.46312 5.89356 6.41212 5.79087 6.40439 5.68089C6.40118 5.63229 6.40118 5.58354 6.40439 5.53494C6.40439 5.35514 6.40439 5.17321 6.40439 4.99341C6.39867 4.89226 6.35631 4.79649 6.28501 4.72352C6.21371 4.65054 6.11826 4.60522 6.01591 4.59575C5.91668 4.58651 5.81715 4.60993 5.73287 4.66237C5.64859 4.7148 5.58428 4.79327 5.55008 4.88552C5.53194 4.95453 5.52473 5.02588 5.52865 5.09706C5.52865 5.47781 5.52865 5.85861 5.52865 6.23936C5.53306 6.31055 5.52579 6.38198 5.50716 6.4509C5.49026 6.52795 5.45002 6.59809 5.39176 6.6521C5.3335 6.70612 5.25995 6.74145 5.18088 6.75338C5.10088 6.77651 5.01558 6.77493 4.93652 6.74883C4.85746 6.72273 4.78842 6.67339 4.73869 6.60743C4.67273 6.49222 4.64148 6.36087 4.64855 6.22878C4.64855 5.86283 4.64855 5.49895 4.64855 5.133C4.64855 4.92147 4.64855 4.70993 4.64855 4.4984C4.64878 4.3908 4.60741 4.28717 4.53284 4.20858C4.45827 4.12998 4.35613 4.08233 4.24718 4.07533C4.13753 4.06675 4.02853 4.09859 3.94129 4.16463C3.85406 4.23066 3.79475 4.32624 3.77491 4.43286C3.76599 4.49095 3.76244 4.54968 3.76421 4.6084V7.16374C3.76746 7.21728 3.76746 7.27096 3.76421 7.3245C3.75505 7.43036 3.70577 7.52898 3.62623 7.6007C3.54669 7.67242 3.44272 7.71201 3.33491 7.71163C3.26641 7.70652 3.19867 7.6937 3.1331 7.67351C3.05054 7.62355 2.98412 7.55147 2.94156 7.4657C2.89899 7.37993 2.88205 7.28405 2.89272 7.18915C2.89272 6.97761 2.89272 6.76608 2.89272 6.55455C2.8932 6.44897 2.85361 6.34703 2.78172 6.26875C2.70983 6.19047 2.61083 6.14151 2.50418 6.13148C2.39243 6.11568 2.27887 6.14386 2.18808 6.20998C2.09728 6.2761 2.03655 6.37481 2.01907 6.48472C2.01008 6.53712 2.00647 6.59027 2.00833 6.64337C2.00833 7.26669 2.00833 7.89068 2.00833 8.51541C2.00833 8.55983 2.00833 8.60428 2.00833 8.6487C2.00202 8.7105 1.98202 8.77016 1.94968 8.82347C1.91735 8.87677 1.87348 8.92239 1.82124 8.95712C1.76899 8.99185 1.70962 9.01484 1.64736 9.02441C1.58509 9.03399 1.52145 9.02992 1.46095 9.01253C1.3673 8.98774 1.28496 8.93241 1.22728 8.85559C1.16959 8.77877 1.13995 8.68498 1.14327 8.58947C1.14327 8.37794 1.14327 8.15162 1.14327 7.93163C1.14416 7.82833 1.10669 7.72826 1.03789 7.65033C0.969085 7.57239 0.873713 7.52199 0.769781 7.50856C0.668912 7.48966 0.564528 7.50697 0.475526 7.55742C0.386523 7.60787 0.318794 7.68808 0.284666 7.78351C0.26964 7.82371 0.265393 7.87025 0.224609 7.89775V16.1243C0.291151 16.1243 0.336228 16.1602 0.385598 16.1898L2.88627 17.6113C2.92526 17.6408 2.96972 17.6623 3.01718 17.6748C3.23183 17.8229 3.47443 17.9435 3.70411 18.0746C4.01964 18.2544 4.32873 18.4427 4.655 18.6077C4.98127 18.7727 5.3333 19.0012 5.67459 19.1958C6.01589 19.3904 6.36579 19.5871 6.70923 19.7859C6.75001 19.8092 6.80368 19.8198 6.823 19.8705H6.88306C6.88306 19.8282 6.92815 19.824 6.95606 19.8071C7.28018 19.6146 7.60003 19.4327 7.93488 19.2402C8.20105 19.0815 8.48011 18.9419 8.75057 18.7854C9.02103 18.6288 9.31938 18.4765 9.58984 18.2988C9.77015 18.1888 9.95691 18.0873 10.1415 17.9921C10.5987 17.7531 11.0302 17.4696 11.4852 17.2285C11.775 17.0741 12.0541 16.9006 12.3438 16.7377C12.6701 16.5537 12.9878 16.3654 13.3291 16.1898C13.3742 16.1722 13.4119 16.14 13.4361 16.0985C13.4603 16.057 13.4695 16.0087 13.4622 15.9614C13.4207 14.5075 13.3999 13.0556 13.3999 11.6059L13.4149 11.5975ZM9.91397 14.7874H9.52114H8.52732H7.96276C7.85973 14.7874 7.85544 14.7874 7.85544 14.6816V13.349C7.85544 13.239 7.85548 13.2368 7.73742 13.2368H5.8871C5.76904 13.2368 5.76688 13.2369 5.76688 13.3617V14.6203C5.76688 14.8085 5.78838 14.7874 5.58875 14.7895H4.60993H3.86724H3.76421C3.72128 14.7895 3.69766 14.7747 3.69766 14.7303V10.0956C3.69986 10.071 3.69986 10.0462 3.69766 10.0216C3.69766 9.95175 3.72555 9.92849 3.79424 9.93061H4.40387H5.41273H5.64881C5.76687 9.93061 5.76903 9.93057 5.76903 10.0554V11.369C5.77118 11.4029 5.77118 11.4368 5.76903 11.4706C5.76903 11.5488 5.79263 11.5721 5.86991 11.5721C6.4924 11.5721 7.11488 11.5721 7.73952 11.5721C7.84684 11.5721 7.84899 11.5721 7.84899 11.4536V10.1104C7.84899 9.89885 7.82755 9.93484 8.03361 9.93272H9.70791C9.76372 9.93272 9.81738 9.93272 9.87105 9.93272H9.90322C9.90322 9.99195 9.90322 10.049 9.90322 10.1083V14.6287C9.90752 14.6901 9.90537 14.743 9.90322 14.7959L9.91397 14.7874ZM9.9397 10.0152C9.94275 9.99974 9.94162 9.98374 9.93634 9.96887C9.93106 9.95401 9.92184 9.94082 9.90967 9.93061C9.9215 9.94273 9.92957 9.95787 9.93299 9.97435C9.93641 9.99082 9.93506 10.0079 9.92901 10.0237L9.9397 10.0152ZM7.59142 2.73213C7.65682 2.75099 7.72584 2.75422 7.79276 2.74158C7.85968 2.72895 7.92259 2.70081 7.97628 2.65947C8.02998 2.61813 8.0729 2.5648 8.10153 2.50386C8.13016 2.44293 8.14368 2.37616 8.14094 2.30906C8.14094 2.09753 8.14094 1.90077 8.14094 1.69559V1.12446C8.14268 1.06616 8.1369 1.00791 8.12375 0.951038C8.09587 0.851632 8.03314 0.765172 7.94667 0.707073C7.86021 0.648974 7.75561 0.623002 7.65153 0.633739C7.54949 0.642603 7.45402 0.687131 7.38238 0.759285C7.31073 0.831439 7.26762 0.926433 7.26085 1.02716C7.26085 1.46997 7.26085 1.91349 7.26085 2.35771C7.26448 2.44718 7.29769 2.53302 7.35544 2.60214C7.41318 2.67127 7.49228 2.7199 7.58068 2.7406L7.59142 2.73213ZM5.50071 3.45767C5.49836 3.5412 5.5212 3.62353 5.56627 3.69431C5.61135 3.76508 5.67664 3.82116 5.75399 3.85538C5.8187 3.88754 5.89061 3.90298 5.96303 3.90036C6.03545 3.89775 6.10606 3.87715 6.1682 3.84041C6.23034 3.80366 6.28202 3.75202 6.31844 3.69028C6.35487 3.62854 6.37485 3.55872 6.37651 3.48732C6.38724 3.27578 6.37651 3.04942 6.37651 2.82943C6.37651 2.61789 6.37651 2.42119 6.37651 2.216C6.379 2.15258 6.36698 2.08939 6.34135 2.03117C6.31571 1.97295 6.27712 1.92117 6.22841 1.87965C6.1676 1.82515 6.09219 1.78898 6.01114 1.77548C5.93009 1.76198 5.84679 1.7717 5.77118 1.80347C5.69294 1.8299 5.62483 1.8794 5.57607 1.94523C5.52731 2.01107 5.50026 2.09005 5.49857 2.17154C5.49857 2.35557 5.49857 2.54175 5.49857 2.7279C5.48783 2.97962 5.48782 3.22288 5.48997 3.46614L5.50071 3.45767ZM93.7226 7.56145C93.48 7.56145 93.2375 7.56145 92.9949 7.56145H92.2694C92.2028 7.56145 92.1685 7.56143 92.1707 7.64816C92.1728 7.73488 92.1707 7.85968 92.1707 7.95487C92.1707 8.01621 92.19 8.04369 92.2544 8.04158C92.3188 8.03946 92.4411 8.04158 92.5356 8.04158C92.7202 8.04158 92.6965 8.04163 92.6987 8.19605V8.25311C92.6987 8.67618 92.6987 9.09928 92.6987 9.50966C92.6987 9.58369 92.7159 9.61542 92.7974 9.60907C92.879 9.60273 92.9756 9.60907 93.0636 9.60907C93.2546 9.60907 93.2547 9.60905 93.2547 9.42501C93.2547 9.00195 93.2547 8.57888 93.2547 8.15582C93.2547 8.04582 93.2547 8.04581 93.3684 8.0437C93.4822 8.04158 93.6067 8.0437 93.7247 8.0437C93.787 8.0437 93.8149 8.0268 93.8128 7.96122C93.8128 7.85969 93.8128 7.7497 93.8128 7.65451C93.8106 7.59316 93.7891 7.56986 93.7161 7.56986L93.7226 7.56145ZM9.44819 4.22557C9.56474 4.22784 9.67747 4.18467 9.76189 4.10544C9.8463 4.02621 9.89555 3.91734 9.89893 3.8025C9.89893 3.6903 9.85372 3.58267 9.77321 3.50333C9.6927 3.42399 9.58348 3.37943 9.46962 3.37943C9.41112 3.37597 9.35251 3.38431 9.29742 3.40402C9.24232 3.42372 9.1919 3.45434 9.14927 3.49398C9.10664 3.53362 9.07271 3.58145 9.04954 3.6345C9.02638 3.68756 9.01448 3.74474 9.01459 3.8025C9.01345 3.85859 9.02363 3.9143 9.04456 3.96647C9.06549 4.01864 9.09673 4.06621 9.13648 4.10637C9.17623 4.14653 9.22369 4.1785 9.27609 4.20042C9.32849 4.22233 9.38482 4.23371 9.44174 4.23398L9.44819 4.22557Z" fill="#1500FF"/>
</svg>
