<svg width="77" height="16" viewBox="0 0 77 16" fill="none" xmlns="http://www.w3.org/2000/svg">
<path d="M39.3449 0.967564C41.3545 0.967564 43.2535 0.877241 45.1827 0.967564C46.1436 1.00366 47.0855 1.24651 47.9439 1.67952C48.8022 2.11253 49.5569 2.72549 50.1564 3.47654C50.1922 3.5121 50.2327 3.54253 50.2769 3.56689C52.3669 -0.0560697 59.8927 -0.718456 62.897 3.48658C63.7721 2.12419 65.1524 1.16412 66.7353 0.817032C69.0765 0.375453 71.3774 0.405576 73.397 1.93103C74.248 2.59705 74.9068 3.47667 75.3061 4.48013L72.6836 5.77476C72.2396 5.2251 71.7524 4.71165 71.2267 4.23927C70.4147 3.69821 69.4214 3.49981 68.4635 3.68731C67.4648 3.84139 66.5437 4.31678 65.8401 5.04131C65.1364 5.76583 64.6887 6.69989 64.565 7.70167C64.5185 8.29326 64.5905 8.88814 64.7768 9.45161C64.9632 10.0151 65.26 10.5358 65.6501 10.9834C66.2219 11.7645 67.0421 12.3288 67.9765 12.584C68.911 12.8392 69.9045 12.7703 70.7946 12.3884C71.2461 12.1966 71.646 11.9013 71.9619 11.5264C72.2779 11.1516 72.501 10.7077 72.6133 10.2307H69.0162C69.0162 9.37765 69.0162 8.5547 69.0162 7.74179C69.0162 7.67154 69.187 7.55111 69.2774 7.55111H76.1702C76.3812 9.91958 75.1655 13.8537 72.1511 15.1383C69.1367 16.4229 65.0473 16.0013 62.8066 12.8701C62.0682 13.8401 61.101 14.6125 59.9913 15.1185C58.8816 15.6246 57.6637 15.8485 56.4463 15.7705C55.232 15.8118 54.0252 15.5651 52.9248 15.0505C51.8245 14.5358 50.8619 13.768 50.1162 12.8099C49.1851 13.9562 47.9042 14.7669 46.4688 15.1182C45.7418 15.3036 44.9978 15.4146 44.2482 15.4494C42.6104 15.4996 40.9726 15.4494 39.3047 15.4494L39.3449 0.967564ZM56.5669 3.71742C55.8816 3.67075 55.1957 3.8003 54.5748 4.0937C53.9538 4.38711 53.4185 4.83458 53.02 5.3934C52.186 6.65792 51.3822 8.03284 52.3267 9.62854C52.3267 9.62854 52.3267 9.62856 52.3267 9.67874C52.6507 10.5475 53.233 11.2966 53.9954 11.8255C54.7577 12.3544 55.6638 12.6379 56.592 12.6379C57.5202 12.6379 58.4263 12.3544 59.1887 11.8255C59.951 11.2966 60.5333 10.5475 60.8573 9.67874C61.1826 9.06314 61.2889 8.35541 61.1588 7.67156C60.5157 5.30309 59.1693 3.73749 56.5669 3.71742V3.71742ZM42.721 12.4687C44.5899 12.5189 46.3884 12.4687 47.564 10.7024C48.096 9.92988 48.3698 9.00917 48.3463 8.07189C48.3228 7.1346 48.0033 6.22871 47.4334 5.48371C46.3181 3.80772 44.5497 3.67726 42.721 3.76759V12.4687Z" fill="#1500FF"/>
<path d="M34.9445 9.63867V0.977686C35.9493 0.977686 36.9541 0.977686 37.9589 0.977686C38.0593 0.977686 38.19 1.16837 38.2402 1.2888C38.2605 1.41847 38.2605 1.55053 38.2402 1.68021C38.2402 6.08597 38.2402 10.4817 38.2402 14.8774C38.2402 15.2989 38.1196 15.4093 37.7077 15.3792C37.0445 15.3792 36.3814 15.3792 35.6981 15.3792C35.4746 15.3544 35.2658 15.2555 35.1053 15.0982C33.6282 13.4623 32.1613 11.7964 30.6541 10.0802C30.3855 11.31 29.7882 12.4441 28.9258 13.362C27.6928 14.6507 26.0468 15.4675 24.2737 15.6702C22.6266 15.9174 20.9431 15.6657 19.4407 14.9477C18.35 14.4471 17.4034 13.6797 16.6886 12.7166C15.9737 11.7535 15.5138 10.6258 15.3512 9.43794C15.1318 7.98094 15.3339 6.49167 15.9339 5.14564C16.5338 3.7996 17.5065 2.65294 18.7373 1.84079C19.8568 1.18498 21.1186 0.809622 22.4149 0.74685C24.4716 0.514067 26.5379 1.09398 28.1723 2.36264C28.877 2.9577 29.5322 3.60883 30.1316 4.30961C31.6086 5.92539 33.0555 7.57128 34.5124 9.20713C34.623 9.3376 34.7436 9.43795 34.9445 9.63867ZM23.1082 3.84797C22.5105 3.82119 21.9139 3.92073 21.3574 4.14009C20.8009 4.35945 20.2971 4.69368 19.8788 5.12092C19.4605 5.54816 19.1373 6.05878 18.9302 6.61938C18.7231 7.17999 18.6368 7.77794 18.6771 8.37413C18.6568 8.94703 18.756 9.51787 18.9684 10.0504C19.1808 10.583 19.5018 11.0656 19.9109 11.4676C20.32 11.8697 20.8084 12.1823 21.345 12.3858C21.8815 12.5892 22.4546 12.679 23.0278 12.6494C23.6243 12.6783 24.2203 12.5819 24.7773 12.3664C25.3342 12.151 25.8397 11.8212 26.2611 11.3984C26.6824 10.9756 27.0103 10.4693 27.2236 9.91204C27.4368 9.35481 27.5307 8.7591 27.4991 8.16339C27.5148 7.58642 27.4114 7.01239 27.1954 6.47706C26.9793 5.94172 26.6553 5.45656 26.2434 5.05173C25.8315 4.64691 25.3406 4.33111 24.8012 4.12401C24.2618 3.91691 23.6855 3.82296 23.1082 3.84797V3.84797Z" fill="#1500FF"/>
<path d="M4.64022 1.06799C6.83065 1.06799 8.97084 0.947559 11.0909 1.06799C12.0421 1.08921 12.955 1.44679 13.667 2.07712C14.379 2.70745 14.8441 3.56964 14.9795 4.51029C15.1292 5.03781 15.1691 5.5904 15.0968 6.13393C15.0245 6.67746 14.8415 7.20041 14.5591 7.67058C14.2766 8.14075 13.9008 8.54815 13.4546 8.86764C13.0085 9.18714 12.5016 9.41195 11.9651 9.52824L16.346 15.3491H12.4273C12.2938 15.3118 12.1769 15.2304 12.0957 15.1182L8.50864 9.93971C8.44649 9.86464 8.40493 9.77475 8.38806 9.6788C8.38806 8.94618 8.38806 8.20353 8.38806 7.39062H9.6541C10.0311 7.41232 10.406 7.32189 10.7315 7.13075C11.057 6.9396 11.3185 6.65633 11.4828 6.31677C11.6534 5.9688 11.7195 5.57897 11.6731 5.19432C11.6267 4.80966 11.4699 4.44662 11.2216 4.14902C11.0235 3.9438 10.784 3.78307 10.5189 3.67751C10.2538 3.57195 9.96931 3.52398 9.68424 3.53681C9.10146 3.48663 8.51869 3.53681 7.89572 3.53681V15.4394H4.88137C4.46941 15.4394 4.54979 15.1684 4.54979 14.9276C4.54979 12.6695 4.60003 10.4014 4.61007 8.14331C4.62012 5.88524 4.61007 3.6171 4.61007 1.34899C4.62012 1.25867 4.63017 1.16835 4.64022 1.06799Z" fill="#1500FF"/>
<path d="M0.30957 1.0481H3.58516V2.70401C3.58516 6.71837 3.58517 10.7929 3.6555 14.8374C3.6555 15.3392 3.53493 15.4998 3.02249 15.4697C2.13827 15.4697 1.24402 15.4697 0.30957 15.4697V1.0481Z" fill="#1500FF"/>
</svg>
