<svg width="51" height="26" viewBox="0 0 51 26" fill="none" xmlns="http://www.w3.org/2000/svg">
<path d="M46.1823 5.46615C46.1542 5.59944 46.1358 5.73424 46.1272 5.86969C46.1449 8.23097 46.176 10.5917 46.1804 12.9524C46.1832 13.1721 46.2643 13.3851 46.4117 13.5601C46.5591 13.7351 46.7651 13.8627 46.9991 13.9241C47.5242 14.0676 48.15 13.8429 48.3308 13.4057C48.4449 13.1324 48.462 12.8141 48.4633 12.5157C48.4734 10.2779 48.469 8.04006 48.469 5.80167V5.47643C47.7279 5.70901 46.9208 5.70538 46.1823 5.46615V5.46615ZM47.2026 5.25351C48.8286 5.32439 50.0474 4.10231 50.0562 2.82535C50.0651 1.46666 48.7734 0.304595 47.3257 0.389192C45.8913 0.304024 44.6046 1.47809 44.5989 2.76876C44.5957 4.17547 45.857 5.19521 47.2026 5.25351ZM11.5466 13.5932H11.5314C11.4565 13.8641 11.3811 14.2442 11.3056 14.502L11.0875 15.316H12.0285L11.7952 14.4951C11.7197 14.2391 11.6221 13.8658 11.5466 13.5932ZM30.6473 13.6063C29.9999 13.6063 29.5858 14.163 29.5858 15.0039C29.5858 15.8613 29.9999 16.3877 30.6543 16.3877C31.3087 16.3877 31.693 15.8115 31.693 14.9907C31.693 14.2053 31.3017 13.608 30.6473 13.608V13.6063ZM25.5819 13.5994C25.4459 13.5964 25.31 13.6056 25.176 13.6269V14.7935C25.2784 14.8031 25.3813 14.8077 25.4842 14.8072C26.0188 14.8072 26.3498 14.5632 26.3498 14.1693C26.3498 13.8321 26.0936 13.6012 25.5819 13.6012V13.5994ZM39.8499 9.77258C39.7674 8.92547 38.7217 8.13552 37.761 8.15038C35.5498 8.18468 33.3373 8.16124 31.1255 8.16124H18.413C14.1009 8.16124 9.78878 8.17038 5.47667 8.15495C4.36567 8.15095 3.37832 9.06437 3.38403 10.0412C3.39544 13.7749 3.3872 17.5092 3.38974 21.2446C3.38974 21.9305 3.72075 22.4581 4.34094 22.8531C4.77088 23.1274 5.2655 23.1869 5.76012 23.1886C9.56492 23.1983 13.3754 23.1938 17.1834 23.1938C23.9898 23.1938 30.7961 23.1922 37.6025 23.1892C39.0255 23.1892 39.9076 22.3466 39.9126 21.1051C39.9266 17.5326 39.919 13.9601 39.9126 10.3882C39.9101 10.1853 39.8676 9.98007 39.8467 9.7743L39.8499 9.77258ZM8.67968 15.5366C8.67968 16.8661 7.97198 17.3617 6.75254 17.3617C6.44978 17.3634 6.1483 17.3263 5.85715 17.2514L6.00046 16.2677C6.19411 16.3156 6.39385 16.3405 6.59465 16.342C7.03093 16.342 7.31692 16.1659 7.31692 15.5349V12.7129H8.67968V15.5366ZM12.5403 17.2868L12.2162 16.2282H10.9068L10.6208 17.2868H9.21362L10.6886 12.714H12.4946L14.0077 17.2868H12.5403ZM17.1384 16.3437C17.4481 16.3441 17.7558 16.2983 18.049 16.2082L18.2392 17.1714C18.0433 17.2531 17.569 17.3549 16.9596 17.3549C15.0629 17.3549 14.2277 16.2894 14.2277 15.0753C14.2277 13.4605 15.5372 12.6397 17.0496 12.6397C17.6368 12.6397 18.1111 12.7415 18.3217 12.8432L18.0585 13.8069C17.7596 13.6978 17.4399 13.6425 17.1175 13.644C16.3349 13.644 15.6589 14.0579 15.6589 14.9941C15.6558 15.8264 16.2049 16.342 17.1384 16.342V16.3437ZM21.7891 17.2868L20.7206 15.4349L20.3141 15.903V17.2868H18.9672V12.714H20.3154V14.654H20.3306C20.4359 14.4826 20.5488 14.3151 20.6616 14.1522L21.6325 12.714H23.3034L21.6927 14.6609L23.3637 17.2863L21.7891 17.2868ZM27.2002 15.2719C26.7861 15.6046 26.1919 15.7469 25.507 15.7469C25.3802 15.7469 25.2585 15.7401 25.176 15.7332V17.2868H23.8285V12.7741C24.1976 12.7197 24.7315 12.6786 25.507 12.6786C26.2369 12.6786 26.7563 12.7929 27.1101 13.0381C27.4564 13.2668 27.6897 13.676 27.6897 14.1442C27.6897 14.6123 27.5166 15.0124 27.2002 15.2702V15.2719ZM30.5883 17.36C29.0151 17.36 28.1495 16.2945 28.1495 15.0262C28.1495 13.6966 29.1203 12.638 30.6708 12.638C32.3043 12.638 33.1319 13.7303 33.1319 14.9513C33.1306 16.4237 32.1521 17.36 30.5883 17.36ZM37.3013 13.7372H35.9842V17.2851H34.6221V13.7372H33.3272V12.7129H37.3013V13.7372ZM50.45 10.5831C50.4596 9.91262 49.8121 9.24157 48.9281 9.38275C48.9281 10.5042 48.8958 11.612 48.9383 12.7112C48.9712 13.576 48.2528 14.3688 47.2965 14.3568C46.5184 14.3494 45.7112 13.6246 45.734 12.9324C45.7695 11.8463 45.7435 10.7603 45.7435 9.67427V9.37703C44.8005 9.26271 44.226 9.88747 44.2248 10.4168C44.2176 12.7626 44.2176 15.1087 44.2248 17.4549C44.2248 18.0899 44.7726 18.5101 45.4169 18.5072C46.6535 18.5015 47.89 18.4695 49.1253 18.5192C49.854 18.5484 50.4507 17.9105 50.4443 17.332C50.4228 15.085 50.4171 12.8335 50.4488 10.5831H50.45ZM42.7637 17.1051C42.7567 14.6472 42.7713 12.1893 42.7555 9.72857C42.7504 8.97005 42.4701 8.27156 41.9983 7.64051C40.9697 6.26867 39.548 5.53588 37.697 5.53474C28.7367 5.53207 19.7766 5.53207 10.8167 5.53474C9.34742 5.53474 7.87876 5.52959 6.41011 5.5376C5.86476 5.5376 5.31814 5.5536 4.77532 5.59476C3.77783 5.67135 2.91794 6.07718 2.18742 6.6545C1.04598 7.5582 0.468281 8.72426 0.46511 10.1047C0.462151 11.962 0.462151 13.8193 0.46511 15.6766C0.46511 17.6012 0.457504 19.5252 0.472723 21.4498C0.485481 21.7765 0.542555 22.1005 0.642671 22.4147C0.986371 23.6036 1.75113 24.5182 2.92048 25.1498C3.625 25.5282 4.37708 25.7682 5.21033 25.7682C7.51731 25.766 9.82407 25.766 12.1306 25.7682H16.7915C21.6312 25.7682 26.4718 25.7682 31.3132 25.7682C32.8839 25.7682 34.4547 25.8094 36.0254 25.8168C36.6513 25.8197 37.2772 25.766 37.9031 25.77C39.2246 25.778 40.3255 25.307 41.264 24.5124C42.3642 23.5796 42.7916 22.3809 42.8271 21.0503C42.8392 20.5975 42.8271 20.1443 42.8201 19.6921C42.8024 18.8307 42.7688 17.9682 42.7637 17.1051ZM39.425 24.0854C39.0236 24.2878 38.5321 24.3975 38.0699 24.4381C37.4433 24.4953 36.806 24.4381 36.1725 24.4341C36.0203 24.4341 35.8681 24.4524 35.7159 24.4524C28.9941 24.4524 22.2723 24.4524 15.5505 24.4524C12.1503 24.4524 8.75007 24.4581 5.35048 24.4484C4.4982 24.4484 3.76514 24.1375 3.13101 23.6287C2.55384 23.1765 2.16358 22.5614 2.02381 21.8836C1.96574 21.6358 1.93368 21.3836 1.92806 21.1303C1.92045 19.1771 1.92362 17.2245 1.92362 15.2719C1.92362 13.5834 1.91284 11.8955 1.92869 10.207C1.93567 9.5165 2.10625 8.8523 2.55965 8.27556C3.18618 7.47532 4.01816 6.96088 5.11965 6.91229C6.33972 6.85799 7.56233 6.84999 8.78431 6.84942C18.4257 6.84484 28.067 6.84484 37.7084 6.84942C39.425 6.84942 40.9729 7.92974 41.2399 9.50507C41.2755 9.68023 41.2967 9.85753 41.3033 10.0355C41.3075 11.9027 41.3075 13.77 41.3033 15.6372C41.3033 17.476 41.2989 19.3143 41.3033 21.1531C41.3109 22.4638 40.6793 23.4533 39.4275 24.0854H39.425Z" fill="#1500FF"/>
</svg>
