<svg width="53" height="12" viewBox="0 0 53 12" fill="none" xmlns="http://www.w3.org/2000/svg">
<path d="M7.66266 7.45497V0.54979H9.8687V11.7159H8.3426L2.55555 4.8712V11.7159H0.349513V0.54979H1.76984L7.66266 7.45497ZM17.4983 11.8973C15.8362 11.8973 14.4562 11.3483 13.3582 10.2503C12.2502 9.14224 11.6962 7.78235 11.6962 6.17064C11.6962 4.54885 12.2552 3.17386 13.3733 2.04566C14.5015 0.917462 15.8816 0.353362 17.5134 0.353362C19.1453 0.353362 20.5203 0.917462 21.6384 2.04566C22.7666 3.17386 23.3307 4.53878 23.3307 6.14042C23.3307 7.74206 22.7666 9.10194 21.6384 10.2201C20.5203 11.3382 19.1403 11.8973 17.4983 11.8973ZM21.0038 6.14042C21.0038 5.11295 20.6663 4.26177 19.9914 3.58686C19.3065 2.90188 18.4805 2.5594 17.5134 2.5594C16.5464 2.5594 15.7204 2.90188 15.0354 3.58686C14.3605 4.26177 14.0231 5.11295 14.0231 6.14042C14.0231 7.15782 14.3555 8.00396 15.0203 8.67887C15.6952 9.35377 16.5263 9.69123 17.5134 9.69123C18.5006 9.69123 19.3316 9.35377 20.0066 8.67887C20.6815 8.00396 21.0139 7.15782 21.0038 6.14042ZM31.6661 5.59647C32.341 5.76771 32.8598 6.11524 33.2224 6.63904C33.5952 7.15278 33.7815 7.76221 33.7815 8.46733C33.7815 9.39407 33.4592 10.1647 32.8145 10.7791C32.1698 11.4037 31.3136 11.7159 30.2458 11.7159H25.1538V0.54979H30.0192C31.0164 0.54979 31.7921 0.826803 32.3461 1.38083C32.9102 1.94493 33.1922 2.59465 33.1922 3.33C33.1922 3.82358 33.0512 4.28695 32.7692 4.7201C32.4871 5.14317 32.1194 5.4353 31.6661 5.59647ZM29.6414 2.49896H27.3598V4.93164H29.5508C29.994 4.93164 30.3415 4.81076 30.5933 4.569C30.8452 4.32724 30.9711 4.03008 30.9711 3.67752C30.9711 3.34511 30.8502 3.06809 30.6085 2.84648C30.3667 2.6148 30.0444 2.49896 29.6414 2.49896ZM27.3598 9.75167H29.8076C30.3214 9.75167 30.7243 9.61064 31.0164 9.32859C31.3186 9.04654 31.4697 8.69902 31.4697 8.28601C31.4697 7.86294 31.3236 7.51038 31.0315 7.22833C30.7394 6.94628 30.3314 6.80525 29.8076 6.80525H27.3598V9.75167ZM43.5331 11.7159H35.6156V0.54979H37.8669V9.57035H43.5331V11.7159ZM52.5555 11.7159H44.9854V0.54979H52.5555V2.63494H47.2368V5.0374H52.1626V7.12256H47.2368V9.63079H52.5555V11.7159Z" fill="#1500FF"/>
</svg>
