<svg width="87" height="27" viewBox="0 0 87 27" fill="none" xmlns="http://www.w3.org/2000/svg">
<path d="M20.6411 13.4337C20.6752 14.4595 20.5514 15.4843 20.2738 16.4724C19.7403 18.4672 18.5225 19.8049 16.5199 20.3384C14.3069 20.9626 11.966 20.9746 9.74672 20.3732C8.78952 20.1503 7.91642 19.6573 7.23113 18.9528C6.54583 18.2483 6.07714 17.3619 5.88074 16.3989C5.32903 14.2491 5.34235 11.9931 5.9194 9.84996C6.13277 8.92058 6.60285 8.0698 7.27609 7.39451C7.94933 6.71922 8.79867 6.24656 9.72739 6.03036C11.8103 5.45115 14.0074 5.4192 16.1063 5.93758C18.7467 6.57934 20.1037 8.17599 20.5212 10.9363C20.627 11.7643 20.6671 12.5994 20.6411 13.4337V13.4337Z" fill="#1500FF"/>
<path d="M0.217956 13.2287C0.158755 11.1733 0.474477 9.12442 1.14966 7.18226C1.63649 5.73342 2.47004 4.42552 3.57775 3.37238C4.68547 2.31925 6.03378 1.55279 7.50534 1.13972C10.9778 0.0716092 14.684 0.0233021 18.1832 1.00054C21.8714 2.00184 24.2683 4.38328 25.2773 8.07917C26.27 11.6345 26.2096 15.4016 25.1033 18.9233C24.9796 19.3369 24.8714 19.9284 24.5775 20.0831C24.191 20.2764 23.9899 19.5805 23.5956 19.4181C23.476 19.3499 23.3656 19.2667 23.267 19.1707C22.9229 18.8846 22.2889 18.8189 22.2 18.4168C22.111 18.0148 22.4551 17.5779 22.5866 17.141C23.2916 14.537 23.2809 11.791 22.5556 9.19258C21.7051 6.17324 19.6716 4.34462 16.6368 3.63715C14.0186 2.98949 11.2727 3.07509 8.69993 3.88457C5.54915 4.89359 3.92157 7.20546 3.34167 10.3524C2.86787 12.9617 3.04987 15.6478 3.87131 18.1694C3.94477 18.413 3.95637 18.4748 3.73601 18.6024C3.05974 18.9843 2.4414 19.4608 1.89966 20.0173C1.64064 20.288 1.51306 20.1565 1.41641 19.882C0.691534 18.0889 0.29855 16.179 0.256616 14.2454C0.217956 13.8975 0.217956 13.5611 0.217956 13.2287Z" fill="#1500FF"/>
<path d="M70.1342 14.5004C70.1342 15.6409 70.2193 16.7814 69.7863 17.8832C69.4448 18.7813 68.838 19.5542 68.0466 20.099C67.2552 20.6439 66.3167 20.9349 65.3559 20.9334C64.4706 20.9334 63.5698 21.0494 62.6999 20.8716C61.6339 20.676 60.667 20.1213 59.9601 19.2998C59.2532 18.4782 58.8489 17.4394 58.8146 16.3561C58.7257 14.9587 58.7412 13.5566 58.861 12.1615C58.9959 11.0575 59.5141 10.036 60.3252 9.27505C61.1363 8.5141 62.1888 8.06208 63.2992 7.99784C64.3185 7.89615 65.3467 7.92995 66.3572 8.09836C67.4219 8.34087 68.3738 8.93522 69.0592 9.78541C69.7445 10.6356 70.1232 11.692 70.1342 12.7839C70.1458 13.3561 70.1342 13.9283 70.1342 14.5004ZM67.1613 14.6125C67.1613 14.0017 67.1845 13.4875 67.1613 12.9734C67.1687 12.5162 67.035 12.0678 66.7783 11.6893C66.5217 11.3109 66.1545 11.0208 65.727 10.8587C65.1656 10.6667 64.566 10.6137 63.9796 10.704C63.6727 10.7087 63.3701 10.7755 63.0898 10.9005C62.8095 11.0254 62.5575 11.206 62.349 11.4311C62.1405 11.6562 61.9798 11.9213 61.8767 12.2103C61.7735 12.4993 61.73 12.8063 61.7489 13.1125C61.7489 14.0404 61.7489 14.9682 61.7489 15.8961C61.7406 16.2065 61.7964 16.5154 61.9127 16.8034C62.0291 17.0914 62.2035 17.3523 62.4251 17.57C62.6467 17.7876 62.9108 17.9572 63.2008 18.0683C63.4909 18.1794 63.8007 18.2296 64.111 18.2156C64.4087 18.2156 64.7064 18.2156 65.0002 18.2156C65.4767 18.203 65.9361 18.0349 66.3081 17.7368C66.6802 17.4388 66.9445 17.0272 67.0608 16.5649C67.2618 15.8922 67.0994 15.2002 67.1613 14.6125Z" fill="#1500FF"/>
<path d="M37.2213 15.8033V20.3613C37.2213 20.9722 37.1362 21.0379 36.5408 20.8987C35.9225 20.746 35.3727 20.3918 34.9779 19.892C34.5831 19.3922 34.3659 18.7753 34.3604 18.1384C34.3295 15.0997 34.3604 12.0611 34.3604 9.01853C34.3604 8.83683 34.3604 8.659 34.5885 8.60874C36.7728 8.12549 38.9726 7.72343 41.1994 8.18735C43.4262 8.65127 44.5512 10.1667 44.6787 12.5095C44.8218 15.1925 44.7058 17.8755 44.7522 20.5585C44.7522 20.8871 44.6478 20.9451 44.3656 20.9451C43.7161 20.9219 43.0628 20.918 42.4326 20.9451C42.046 20.9644 41.8952 20.8485 41.8991 20.4232C41.9223 18.351 41.8991 16.2789 41.8991 14.2067C41.9349 13.4234 41.8409 12.6396 41.6208 11.8871C41.5026 11.4967 41.2639 11.1537 40.9389 10.9072C40.6139 10.6607 40.2193 10.5233 39.8115 10.5147C39.0638 10.4683 38.3132 10.5033 37.5731 10.6191C37.1865 10.6654 37.2715 10.9129 37.2715 11.1371C37.238 12.6912 37.2213 14.2466 37.2213 15.8033Z" fill="#1500FF"/>
<path d="M52.1239 20.8603C49.8043 20.8603 48.1844 20.4003 47.0246 18.881C46.7849 18.5678 46.8081 18.4054 47.1058 18.1851C47.562 17.841 48.0066 17.4776 48.428 17.0949C48.4708 17.0371 48.5269 16.9906 48.5916 16.9593C48.6563 16.9279 48.7276 16.9128 48.7994 16.9151C48.8712 16.9173 48.9414 16.937 49.004 16.9724C49.0666 17.0077 49.1196 17.0577 49.1587 17.1181C49.8777 17.8255 50.7051 18.3474 51.7721 18.2779C52.2671 18.2673 52.7518 18.1345 53.1832 17.8913C53.3423 17.8198 53.4784 17.7055 53.5765 17.5613C53.6746 17.417 53.7308 17.2484 53.7388 17.0742C53.7468 16.8999 53.7063 16.7269 53.6219 16.5742C53.5375 16.4216 53.4124 16.2954 53.2605 16.2096C52.7473 15.8772 52.1659 15.6645 51.5594 15.5871C50.886 15.4574 50.2241 15.2738 49.5801 15.0382C49.0467 14.8554 48.5676 14.5419 48.1868 14.1261C47.8059 13.7104 47.5354 13.2058 47.4001 12.6585C47.2647 12.1111 47.2687 11.5386 47.4118 10.9933C47.5549 10.4479 47.8325 9.94717 48.2192 9.53686C50.0208 7.49562 54.2463 7.55748 55.9783 9.65284C56.4692 10.2443 56.4693 10.2443 55.8739 10.7044L55.3095 11.1335C54.9963 11.3732 54.7025 11.7443 54.3584 11.8062C54.0143 11.8681 53.8404 11.3577 53.5427 11.1528C53.1594 10.8657 52.7057 10.6872 52.2294 10.6361C51.7532 10.5851 51.272 10.6634 50.8365 10.8629C50.0865 11.176 49.9976 11.9492 50.6316 12.4634C51.2158 12.8707 51.8974 13.1161 52.6071 13.1748C53.2051 13.2847 53.7914 13.4504 54.3584 13.6696C55.6187 14.149 56.4461 15.0266 56.6007 16.3758C56.7117 17.0534 56.6249 17.7487 56.3506 18.3782C56.0763 19.0077 55.6262 19.5447 55.0543 19.9248C54.1878 20.5119 53.1703 20.8367 52.1239 20.8603V20.8603Z" fill="#1500FF"/>
<path d="M80.7119 10.3099C80.7119 8.12179 80.7119 5.92977 80.7119 3.73776C80.7119 3.23905 80.8936 3.18879 81.2995 3.25451C81.9539 3.38209 82.5434 3.73359 82.9667 4.24861C83.39 4.76364 83.6207 5.41002 83.6191 6.07668C83.6191 6.94653 83.6191 7.81251 83.6191 8.68236C83.6191 9.02256 83.7274 9.12308 84.0599 9.10762C84.69 9.08442 85.324 9.12695 85.9503 9.10762C86.3369 9.10762 86.4258 9.22359 86.4065 9.5754C86.3736 10.1277 86.3736 10.6816 86.4065 11.2339C86.4374 11.6514 86.2635 11.721 85.9001 11.7017C85.3318 11.6746 84.7403 11.7017 84.1874 11.7017C83.766 11.6746 83.5998 11.7674 83.6114 12.2391C83.6462 13.538 83.6114 14.8409 83.6114 16.1437C83.6114 17.0561 83.8975 17.4659 84.7441 17.7945C84.9646 17.8767 85.1925 17.9375 85.4245 17.9762C86.3872 18.1579 86.391 18.154 86.391 19.136V20.2571C86.391 20.9955 86.391 20.9917 85.6178 20.9723C84.8702 20.9585 84.1294 20.8281 83.422 20.5857C81.6436 19.9672 80.7158 18.6837 80.7158 16.7932C80.7158 14.6437 80.7158 12.4942 80.7158 10.3447L80.7119 10.3099Z" fill="#1500FF"/>
<path d="M72.5884 13.6849C72.5884 11.6707 72.6155 9.66043 72.5884 7.64625C72.5498 5.03284 74.0382 3.84985 76.1606 3.39366C76.7427 3.29249 77.3327 3.24333 77.9235 3.24675C78.1748 3.24675 78.2714 3.31247 78.2637 3.57922C78.2637 4.3099 78.2637 5.04057 78.2637 5.77124C78.2637 6.05346 78.1748 6.13464 77.8771 6.15784C77.5627 6.17384 77.2512 6.22705 76.9493 6.31634C75.6155 6.66815 75.0588 7.68877 75.4531 8.99934C75.5189 9.22357 75.6735 9.18877 75.8204 9.18877C76.4544 9.18877 77.0846 9.21197 77.7147 9.18877C78.0665 9.18877 78.2096 9.25063 78.1864 9.63723C78.1555 10.2055 78.1632 10.797 78.1864 11.3499C78.1864 11.6669 78.0936 11.7597 77.7998 11.7365C77.2276 11.7133 76.64 11.7597 76.0833 11.7365C75.6 11.7017 75.4531 11.8408 75.457 12.3434C75.4841 15.0264 75.457 17.7094 75.4802 20.3924C75.4802 20.8989 75.3488 21.0342 74.8616 20.9955C74.2904 20.9491 73.7164 20.9491 73.1451 20.9955C72.6503 21.038 72.5768 20.837 72.5807 20.404C72.6 18.1269 72.5884 15.9001 72.5884 13.6849Z" fill="#1500FF"/>
<path d="M13.2376 26.0871C10.6474 26.0445 8.2853 25.7932 6.08169 24.7301C5.0476 24.2375 4.10601 23.5705 3.29817 22.7584C3.23763 22.7173 3.1875 22.6625 3.15177 22.5986C3.11604 22.5347 3.09567 22.4634 3.0923 22.3902C3.08892 22.3171 3.10262 22.2441 3.13232 22.1772C3.16201 22.1103 3.20689 22.0512 3.26338 22.0046C3.76881 21.4207 4.39725 20.9559 5.10359 20.6437C5.18466 20.5886 5.28367 20.5662 5.38057 20.5813C5.47747 20.5964 5.56503 20.6477 5.6255 20.7249C7.38066 22.4492 9.58427 23.0059 11.9425 23.1489C14.2273 23.2919 16.4735 23.1218 18.5804 22.109C19.2782 21.7813 19.9139 21.3353 20.4593 20.7907C20.5374 20.6908 20.6497 20.6233 20.7746 20.6011C20.8995 20.579 21.0281 20.6038 21.1358 20.6708C21.7986 20.9798 22.3898 21.4235 22.8717 21.9736C23.1616 22.2984 23.1191 22.5149 22.8175 22.8164C21.132 24.502 19.0366 25.3216 16.7518 25.7739C15.5885 25.9548 14.4146 26.0594 13.2376 26.0871V26.0871Z" fill="#1500FF"/>
</svg>
