<svg width="73" height="20" viewBox="0 0 73 20" fill="none" xmlns="http://www.w3.org/2000/svg">
<path d="M9.98377 0.500671C10.5853 0.590376 11.1869 0.658979 11.7831 0.76979C12.9385 0.95372 14.0486 1.35478 15.0547 1.95177C16.0085 2.48213 16.7745 3.2952 17.247 4.27897C17.7195 5.26274 17.8754 6.36882 17.6931 7.44486C17.4214 9.38015 16.5969 11.1959 15.3185 12.6741C13.8583 14.516 11.9432 15.9455 9.76214 16.8216C9.53774 16.9208 9.29512 16.972 9.04978 16.972C8.80445 16.972 8.56182 16.9208 8.33743 16.8216C4.90755 15.323 2.34305 12.9538 0.923609 9.43419C0.701343 8.77529 0.525029 8.10177 0.395935 7.41847C0.395935 7.33405 0.358998 7.24962 0.337891 7.17047V6.06763C0.3636 6.01008 0.38306 5.94993 0.395935 5.88822C0.533923 4.58151 1.17789 3.3807 2.19003 2.54277C3.48145 1.52842 5.02828 0.891057 6.65942 0.70119C7.1871 0.616762 7.71477 0.569269 8.21078 0.500671H9.98377ZM12.886 8.13084C12.886 7.15666 12.5012 6.22192 11.8153 5.53012C11.1295 4.83831 10.1981 4.44547 9.22392 4.43712C8.24428 4.43712 7.30477 4.82628 6.61207 5.51898C5.91936 6.21169 5.5302 7.1512 5.5302 8.13084C5.5302 9.11047 5.91936 10.05 6.61207 10.7427C7.30477 11.4354 8.24428 11.8246 9.22392 11.8246C10.1981 11.8162 11.1295 11.4234 11.8153 10.7316C12.5012 10.0398 12.886 9.10501 12.886 8.13084V8.13084Z" fill="#1500FF"/>
<path d="M23.4923 6.71134C23.4154 6.93559 23.3537 7.16477 23.3076 7.39732C23.1862 8.27853 23.086 9.16502 22.9699 10.0357C22.8538 10.9063 22.7588 11.6504 22.6374 12.4577C22.631 12.5467 22.6065 12.6335 22.5653 12.7126C22.5241 12.7918 22.4672 12.8617 22.398 12.918C22.3288 12.9744 22.2488 13.0159 22.1629 13.0402C22.0771 13.0645 21.9871 13.071 21.8987 13.0593C21.6137 13.0593 21.3341 13.0593 21.0491 13.0593C20.6428 13.0593 20.474 12.8113 20.5215 12.4049C20.8064 10.7375 21.0914 9.07532 21.3816 7.40787C21.4482 6.98679 21.5363 6.56938 21.6454 6.15728C21.9092 5.19691 22.3683 4.9964 23.2865 4.89087C23.6744 4.86287 24.0642 4.88237 24.4474 4.94891C24.6858 4.96363 24.9122 5.0588 25.0895 5.21887C25.2668 5.37895 25.3846 5.59444 25.4236 5.83012C25.4757 6.06233 25.504 6.29925 25.508 6.53721C25.508 7.85111 25.5502 9.17558 25.5766 10.4842C25.5827 10.6779 25.6074 10.8705 25.6505 11.0594C25.6505 11.1227 25.756 11.1702 25.814 11.2282C25.8668 11.1702 25.9512 11.1174 25.9671 11.0541C26.0409 10.6425 26.1043 10.2309 26.1676 9.81934C26.2784 9.08587 26.3892 8.35768 26.4895 7.62421C26.5897 6.89075 26.6741 6.26282 26.7586 5.58212C26.8061 5.14415 27.0066 4.94364 27.4445 4.94364H28.368C28.7268 4.94364 28.8956 5.08083 28.8482 5.4291C28.7848 6.03592 28.6899 6.64274 28.5843 7.24429C28.4207 8.18882 28.2413 9.13864 28.0566 10.0832C27.9511 10.6478 27.835 11.2124 27.7295 11.7823C27.6775 12.1037 27.5239 12.4001 27.2913 12.628C27.0586 12.8559 26.7592 13.0033 26.4367 13.0487C25.913 13.1623 25.3696 13.146 24.8537 13.0012C24.5687 12.9642 24.3086 12.8195 24.1271 12.5967C23.9455 12.3739 23.8562 12.09 23.8775 11.8034C23.8775 10.7955 23.8353 9.7824 23.8089 8.76927C23.8089 8.2416 23.7772 7.68754 23.7403 7.14404C23.7146 6.99262 23.674 6.84413 23.6189 6.70078L23.4923 6.71134Z" fill="#1500FF"/>
<path d="M53.972 13.1277C53.1963 13.0643 52.389 13.0485 51.6449 12.9271C51.2616 12.8757 50.9122 12.6801 50.6681 12.3801C50.424 12.0801 50.3034 11.6983 50.331 11.3125C50.3286 10.4071 50.4385 9.5049 50.6582 8.62659C50.7743 8.09892 50.864 7.53431 50.9959 6.99609C51.0883 6.39763 51.4021 5.85568 51.8751 5.47751C52.348 5.09934 52.9457 4.91251 53.5498 4.95398H56.8636C57.3069 4.95398 57.4546 5.09646 57.3913 5.54498C57.3712 5.82208 57.3217 6.09625 57.2436 6.36287C57.2091 6.49387 57.1291 6.60832 57.0179 6.68568C56.9067 6.76304 56.7715 6.79825 56.6367 6.78501C55.7502 6.78501 54.8637 6.78501 53.9984 6.78501C53.8222 6.76032 53.6427 6.78243 53.4778 6.84913C53.313 6.91582 53.1685 7.02474 53.0591 7.16494L53.0222 7.22298C52.7161 7.75065 52.8586 8.02505 53.4654 8.02505H55.7977C56.2832 8.02505 56.452 8.22556 56.3676 8.70047C56.3412 8.84822 56.3148 8.99596 56.299 9.14371C56.2515 9.67139 56.0827 9.83496 55.5022 9.85079C54.6157 9.85079 53.7292 9.85079 52.8639 9.85079C52.6633 9.85079 52.4945 9.85079 52.505 10.1305C52.505 10.2888 52.4523 10.4471 52.4523 10.6054C52.4425 10.6781 52.4493 10.7522 52.4719 10.822C52.4946 10.8918 52.5327 10.9557 52.5833 11.0089C52.634 11.062 52.6959 11.1032 52.7645 11.1292C52.8332 11.1553 52.9068 11.1656 52.9799 11.1594C53.381 11.1964 53.782 11.2175 54.183 11.228C54.7371 11.228 55.2964 11.228 55.8558 11.228C56.2304 11.228 56.3834 11.3388 56.3412 11.7029C56.3288 11.97 56.29 12.2351 56.2251 12.4944C56.2177 12.5812 56.1922 12.6654 56.1505 12.7417C56.1087 12.8181 56.0515 12.8849 55.9826 12.938C55.9136 12.9911 55.8343 13.0293 55.7498 13.0501C55.6653 13.071 55.5774 13.074 55.4917 13.0591H53.9773L53.972 13.1277Z" fill="#1500FF"/>
<path d="M31.1168 4.95416H31.5443C31.9769 4.95416 32.1564 5.13357 32.0719 5.55571C31.9664 6.21003 31.8186 6.85907 31.7131 7.51338C31.5601 8.4843 31.4123 9.4605 31.2963 10.442C31.2329 10.9696 31.4598 11.2124 32.0192 11.2388C32.3494 11.2625 32.6809 11.2625 33.0112 11.2388C33.2374 11.204 33.4461 11.0967 33.606 10.933C33.7659 10.7693 33.8683 10.5581 33.8977 10.3312C34.114 9.41828 34.2671 8.48958 34.4254 7.56087C34.5626 6.82741 34.6786 6.08867 34.8264 5.3552C34.8483 5.2349 34.9149 5.12731 35.0127 5.05394C35.1105 4.98057 35.2324 4.94683 35.3541 4.95944H36.4094C36.4803 4.9653 36.5493 4.98543 36.6122 5.01862C36.6751 5.05181 36.7306 5.09737 36.7755 5.15257C36.8203 5.20777 36.8536 5.27148 36.8732 5.33985C36.8928 5.40822 36.8984 5.47985 36.8896 5.55044C36.6258 6.99626 36.3936 8.44209 36.0981 9.87736C36.0007 10.7748 35.6327 11.6214 35.0427 12.3047C34.5456 12.773 33.8944 13.0433 33.2117 13.0645C32.5553 13.1252 31.8946 13.1252 31.2382 13.0645C30.3253 12.9643 29.4494 12.6793 29.233 11.5712C29.1345 10.9796 29.1256 10.3766 29.2067 9.78238C29.3228 8.83785 29.5338 7.90914 29.7027 6.96988C29.7977 6.44221 29.8768 5.96202 29.9718 5.45545C29.9995 5.31707 30.0738 5.19238 30.1823 5.10213C30.2908 5.01188 30.4269 4.96152 30.5681 4.95944L31.1168 4.95416Z" fill="#1500FF"/>
<path d="M59.3531 4.95435H59.8808C59.9533 4.95119 60.0255 4.96548 60.0913 4.99601C60.1572 5.02653 60.2148 5.07241 60.2592 5.12979C60.3037 5.18716 60.3337 5.25436 60.3468 5.32575C60.3599 5.39714 60.3557 5.47064 60.3346 5.54007C60.0866 6.90674 59.8069 8.27341 59.6011 9.64537C59.5589 10.0047 59.5589 10.3678 59.6011 10.7271C59.6051 10.8015 59.6239 10.8744 59.6565 10.9415C59.6891 11.0085 59.7347 11.0684 59.7908 11.1176C59.8468 11.1667 59.9121 11.2042 59.9829 11.2278C60.0536 11.2513 60.1283 11.2605 60.2026 11.2548C60.5034 11.2548 60.7989 11.2548 61.0997 11.2548C61.3511 11.2584 61.5956 11.1722 61.7891 11.0116C61.9825 10.851 62.1123 10.6266 62.155 10.3788C62.345 9.64537 62.4822 8.89607 62.6247 8.15205C62.7882 7.255 62.9307 6.35796 63.0996 5.46619C63.1206 5.31431 63.2004 5.17673 63.3217 5.083C63.4431 4.98928 63.5963 4.94688 63.7486 4.9649H64.5348C65.0942 4.9649 65.2789 5.14431 65.1733 5.69837C64.8831 7.28139 64.5718 8.86441 64.2657 10.4791C64.1541 11.0917 63.8911 11.6667 63.5006 12.1518C63.126 12.5886 62.6111 12.8814 62.0442 12.9803C60.9492 13.2482 59.802 13.2135 58.7252 12.88C58.3424 12.7749 58.0068 12.5426 57.7737 12.2213C57.5406 11.8999 57.424 11.5088 57.4429 11.1123C57.4284 10.1968 57.533 9.28328 57.7542 8.39478C57.9336 7.47135 58.0761 6.54265 58.2291 5.61394C58.303 5.13903 58.493 4.9649 58.9784 4.9649L59.3531 4.95435Z" fill="#1500FF"/>
<path d="M69.6572 4.81726C70.359 4.90697 71.0714 4.97557 71.7679 5.09165C72.2059 5.16553 72.3431 5.42409 72.2534 5.85678C72.2164 6.02563 72.2059 6.19977 72.1742 6.38445C72.0581 7.01766 71.7415 7.20762 71.1189 7.01239C70.4396 6.78584 69.7226 6.69441 69.0082 6.74327C68.7127 6.77554 68.4251 6.85949 68.1586 6.99127C68.0899 7.04144 68.0344 7.10746 67.9967 7.18372C67.9591 7.25998 67.9404 7.34421 67.9423 7.42924C67.9616 7.50668 67.9982 7.57873 68.0494 7.63997C68.1006 7.70121 68.165 7.75004 68.2378 7.78278C68.9924 8.06245 69.7575 8.31046 70.5068 8.57958C70.7219 8.64055 70.9227 8.74405 71.0972 8.88396C71.2717 9.02387 71.4163 9.19735 71.5226 9.39414C71.6288 9.59092 71.6945 9.80701 71.7158 10.0296C71.7371 10.2523 71.7136 10.4769 71.6465 10.6903C71.5522 11.1156 71.4125 11.5296 71.2297 11.925C71.0598 12.2409 70.809 12.506 70.5031 12.6933C70.1971 12.8806 69.847 12.9833 69.4884 12.9909C68.736 13.0877 67.9778 13.1318 67.2194 13.1228C66.7254 13.1067 66.2342 13.0431 65.7524 12.9329C65.2248 12.8274 65.0876 12.6268 65.172 12.0622C65.1902 11.9253 65.2167 11.7896 65.2511 11.6559C65.4253 10.9699 65.6786 10.8275 66.3698 10.9858C66.8907 11.1204 67.4193 11.2226 67.9528 11.2918C68.3188 11.2958 68.6838 11.255 69.0398 11.1704C69.1751 11.1571 69.3 11.092 69.3885 10.9887C69.477 10.8855 69.5222 10.7521 69.5147 10.6164C69.4785 10.5089 69.419 10.4106 69.3406 10.3285C69.2622 10.2465 69.1667 10.1826 69.0609 10.1415C68.4277 9.88293 67.7629 9.71407 67.1297 9.46079C66.4965 9.20751 65.9055 8.93312 65.7946 8.23131C65.7394 7.7537 65.7771 7.26992 65.9055 6.80659C66.2221 5.55073 66.9608 5.11276 68.2325 4.95973C68.6969 4.90169 69.1612 4.89114 69.6308 4.85948L69.6572 4.81726Z" fill="#1500FF"/>
<path d="M40.3248 13.1963C39.739 13.1119 39.2061 13.0697 38.6943 12.9589C38.1963 12.8941 37.7434 12.637 37.4327 12.2425C37.122 11.8479 36.9782 11.3474 37.0321 10.8482C37.0206 9.34321 37.3263 7.85272 37.9291 6.47374C38.1176 6.031 38.429 5.65153 38.8264 5.38032C39.2239 5.10911 39.6908 4.95752 40.1717 4.94349C40.8419 4.88545 41.5173 4.87489 42.1927 4.88017C42.6001 4.88359 43.0057 4.93496 43.4011 5.0332C44.1082 5.22316 44.066 5.45006 43.9288 6.13076C43.9288 6.16242 43.8866 6.1888 43.8866 6.22046C43.8443 7.08057 43.3589 7.165 42.6254 6.92754C41.9711 6.70245 41.2705 6.64618 40.5886 6.76397C40.3634 6.79521 40.1524 6.89187 39.9817 7.04196C39.811 7.19204 39.6881 7.38894 39.6282 7.60824C39.4611 8.19152 39.3255 8.78337 39.2219 9.38122C39.1732 9.73084 39.1502 10.0836 39.1533 10.4366C39.1413 10.6314 39.2048 10.8234 39.3305 10.9728C39.4563 11.1221 39.6347 11.2173 39.8288 11.2386C40.4238 11.3296 41.0312 11.2955 41.6123 11.1384C41.8761 11.0803 42.14 10.9959 42.388 10.9326C42.4584 10.9137 42.5323 10.9115 42.6037 10.9262C42.6752 10.9408 42.7423 10.9719 42.7996 11.017C42.857 11.062 42.903 11.1198 42.9342 11.1858C42.9653 11.2517 42.9806 11.324 42.979 11.3969C42.9567 11.7391 42.9019 12.0783 42.8154 12.4101C42.7912 12.5369 42.7268 12.6526 42.6318 12.74C42.5368 12.8274 42.4161 12.882 42.2877 12.8955L40.3248 13.1963Z" fill="#1500FF"/>
<path d="M47.4695 13.1228C46.7911 13.0969 46.1147 13.0334 45.4433 12.9328C45.2342 12.9149 45.031 12.8544 44.8463 12.7549C44.6615 12.6555 44.4991 12.5192 44.3691 12.3546C44.239 12.1899 44.1441 12.0004 44.0902 11.7976C44.0362 11.5948 44.0244 11.3832 44.0555 11.1757C44.1154 10.278 44.2281 9.3847 44.3932 8.50035C44.5409 7.57164 44.7362 6.64822 44.8839 5.72479C45 4.98077 45.2216 4.92272 45.7493 4.95438C46.0184 4.95438 46.277 4.95438 46.5672 4.95438C46.6338 4.95557 46.6994 4.97045 46.76 4.99808C46.8205 5.02572 46.8748 5.06552 46.9193 5.11501C46.9639 5.1645 46.9978 5.22263 47.0189 5.28577C47.04 5.34891 47.0479 5.41572 47.0421 5.48205C46.8627 6.48991 46.6622 7.49249 46.5144 8.50035C46.3931 9.20743 46.2981 9.91979 46.2242 10.6374C46.1873 10.9857 46.3667 11.1651 46.7202 11.1651C47.4273 11.1968 48.1344 11.239 48.8309 11.2284C49.4166 11.2284 49.6383 11.2706 49.5538 12.0041C49.5538 12.0674 49.5538 12.1307 49.5222 12.1941C49.4008 12.9328 49.3322 13.0964 48.4035 13.0647H47.4854L47.4695 13.1228Z" fill="#1500FF"/>
<path d="M41.8773 19.7976C41.3496 19.8292 41.3496 19.8292 41.3496 19.3702C41.3496 18.9111 41.3496 18.3412 41.3496 17.8294C41.3496 17.708 41.434 17.5128 41.5237 17.4811C41.5681 17.4594 41.6165 17.4472 41.6659 17.4451C41.7152 17.443 41.7645 17.4511 41.8106 17.469C41.8566 17.4868 41.8985 17.514 41.9336 17.5487C41.9687 17.5835 41.9962 17.6251 42.0145 17.6711C42.1886 18.0615 42.3997 18.4362 42.6266 18.89C42.8429 18.4678 43.0171 18.0985 43.2123 17.7449C43.2648 17.6298 43.3538 17.5352 43.4656 17.4758C43.7769 17.3703 43.9088 17.4758 43.9088 17.8188C43.9088 18.3834 43.9088 18.9533 43.9088 19.5179C43.9088 19.7554 43.8191 19.8187 43.5975 19.8187C43.3759 19.8187 43.3178 19.7237 43.3231 19.5232C43.3231 19.233 43.3231 18.9427 43.3231 18.5945C43.2474 18.6841 43.1786 18.7794 43.1173 18.8794C43.0413 19.0455 42.9568 19.2076 42.864 19.3649C42.8357 19.4105 42.798 19.4497 42.7534 19.4797C42.7089 19.5097 42.6584 19.5299 42.6055 19.539C42.5316 19.539 42.4261 19.4546 42.3786 19.3754C42.2625 19.196 42.1781 18.9955 42.0778 18.8056C42.0316 18.7299 41.9578 18.675 41.872 18.6525L41.8773 19.7976Z" fill="#1500FF"/>
<path d="M51.5797 18.7847C51.5797 18.3995 51.5797 18.0565 51.5797 17.7293C51.5797 17.5235 51.6694 17.476 51.8594 17.4708C52.0493 17.4655 52.1707 17.5077 52.1654 17.7399C52.1654 18.3256 52.1654 18.9166 52.1654 19.5023C52.1654 19.6078 52.0968 19.7978 52.044 19.8031C51.9015 19.8229 51.7567 19.789 51.6377 19.7081C51.3634 19.4179 51.1101 19.096 50.8673 18.7847L50.5982 18.4522V19.5076C50.5982 19.7028 50.5613 19.8347 50.3133 19.84C50.0653 19.8453 50.002 19.7081 50.002 19.497C50.002 18.9377 50.002 18.3836 50.002 17.8296C50.002 17.7135 50.0811 17.5077 50.1233 17.5077C50.2758 17.4952 50.4276 17.5383 50.5507 17.6291C50.8726 17.9879 51.1576 18.3836 51.4583 18.7636C51.498 18.7743 51.5387 18.7814 51.5797 18.7847V18.7847Z" fill="#1500FF"/>
<path d="M56.3291 17.9034C56.0917 18.1145 55.9123 18.2253 55.6326 18.0195C55.5024 17.965 55.3581 17.954 55.2211 17.9882C55.0842 18.0225 54.962 18.1001 54.8728 18.2095C54.7731 18.3381 54.7212 18.4974 54.726 18.6601C54.7308 18.8228 54.792 18.9787 54.8991 19.1012C54.9993 19.2002 55.1274 19.2659 55.2662 19.2895C55.4049 19.3131 55.5476 19.2934 55.6748 19.2332C55.7753 19.161 55.869 19.0798 55.9545 18.9904L55.9017 18.9113H55.4057V18.5525H56.4611V19.8083C56.318 19.7523 56.1694 19.7116 56.0178 19.687C55.8974 19.6967 55.7796 19.7271 55.6695 19.7767C55.4312 19.8504 55.1749 19.8416 54.9422 19.7516C54.7095 19.6615 54.514 19.4956 54.3873 19.2807C53.9493 18.4839 54.2712 17.7926 55.1524 17.5393C55.3626 17.4775 55.5864 17.4791 55.7957 17.5438C56.005 17.6086 56.1906 17.7337 56.3291 17.9034V17.9034Z" fill="#1500FF"/>
<path d="M35.1923 17.8399C34.9654 18.0616 34.7702 18.1724 34.4641 17.9718C34.393 17.9374 34.3156 17.9176 34.2366 17.9136C34.1577 17.9096 34.0787 17.9214 34.0044 17.9485C33.9301 17.9756 33.862 18.0173 33.8041 18.0711C33.7462 18.125 33.6997 18.1899 33.6674 18.2621C33.5898 18.4068 33.5643 18.5738 33.595 18.7352C33.6257 18.8965 33.7109 19.0424 33.8362 19.1486C34.1845 19.3755 34.5169 19.3069 34.8388 18.8847L34.2109 18.8056V18.4468C34.538 18.4468 34.8493 18.4468 35.1607 18.4468C35.2187 18.4468 35.3137 18.5892 35.3242 18.6684C35.3454 18.9283 35.3454 19.1894 35.3242 19.4493C35.3181 19.506 35.2992 19.5606 35.2691 19.609C35.2389 19.6574 35.1983 19.6984 35.1501 19.729C35.0551 19.7554 34.9285 19.6762 34.7438 19.6182C34.5242 19.7528 34.2629 19.8024 34.0092 19.7577C33.7555 19.713 33.527 19.577 33.3666 19.3755C33.1718 19.1672 33.0635 18.8928 33.0635 18.6077C33.0635 18.3226 33.1718 18.0481 33.3666 17.8399C33.4827 17.7136 33.6238 17.6127 33.781 17.5438C33.9381 17.4748 34.1078 17.4391 34.2795 17.4391C34.4511 17.4391 34.6208 17.4748 34.7779 17.5438C34.9351 17.6127 35.0762 17.7136 35.1923 17.8399Z" fill="#1500FF"/>
<path d="M39.5011 19.8028C39.2372 19.8028 38.9734 19.9241 38.889 19.5126C38.889 19.4756 38.7465 19.4334 38.6726 19.4281C38.4985 19.4281 38.3191 19.4281 38.1449 19.4281C37.9708 19.4281 37.8864 19.4862 37.7808 19.6498C37.6753 19.8133 37.4484 19.8133 37.2532 19.8872L37.1846 19.7869C37.3218 19.4228 37.4537 19.0588 37.5962 18.6999C37.7386 18.3411 37.8705 18.0087 38.0341 17.6446C38.0585 17.5968 38.0935 17.5552 38.1365 17.5232C38.1795 17.4912 38.2294 17.4695 38.2821 17.4599C38.4141 17.4599 38.6251 17.5127 38.6673 17.6024C38.9576 18.262 39.195 18.9427 39.4852 19.6181C39.5001 19.6785 39.5054 19.7408 39.5011 19.8028V19.8028ZM38.0869 18.9374H38.6779L38.3771 18.1406L38.0869 18.9374Z" fill="#1500FF"/>
<path d="M47.1651 18.6261C47.1651 18.9322 47.1651 19.2382 47.1651 19.5443C47.1651 19.8503 47.0279 19.8239 46.8327 19.8239C46.6375 19.8239 46.5266 19.7765 46.5319 19.5496C46.5319 18.9638 46.5319 18.3728 46.5319 17.7818C46.5319 17.5549 46.6269 17.4705 46.8432 17.4705C47.0596 17.4705 47.1704 17.5444 47.1651 17.7766C47.1598 18.0087 47.1651 18.3306 47.1651 18.6261Z" fill="#1500FF"/>
</svg>
