<svg width="87" height="25" viewBox="0 0 87 25" fill="none" xmlns="http://www.w3.org/2000/svg">
<path d="M39.9634 9.9777C39.5082 9.10358 38.7482 8.42681 37.8274 8.07569C36.9066 7.72457 35.8889 7.72349 34.9673 8.07266C34.3245 8.31122 33.754 8.7115 33.311 9.23486C32.868 9.75822 32.5674 10.387 32.4383 11.0604C32.1364 12.2152 32.3043 13.4425 32.9052 14.4737C33.1592 14.9372 33.5037 15.3449 33.9182 15.6727C34.3328 16.0005 34.8089 16.2417 35.3184 16.382C35.8279 16.5223 36.3604 16.5588 36.8843 16.4894C37.4082 16.42 37.9128 16.2461 38.3683 15.9779C39.0012 15.6315 39.5312 15.1236 39.9043 14.5059C40.2774 13.8882 40.4802 13.1828 40.4923 12.4613C40.5319 11.6017 40.3498 10.7465 39.9634 9.9777V9.9777ZM38.0087 14.4035C37.739 14.6593 37.4128 14.8482 37.0567 14.9548C36.7005 15.0614 36.3242 15.0828 35.9582 15.0173C35.5923 14.9517 35.2468 14.8011 34.9498 14.5774C34.6528 14.3538 34.4125 14.0635 34.2483 13.7299C33.9845 13.2183 33.843 12.6525 33.835 12.077C33.8322 11.6415 33.9239 11.2106 34.1036 10.8139C34.2834 10.4172 34.5471 10.0643 34.8764 9.77934C35.1324 9.5712 35.4291 9.41878 35.7473 9.3318C36.0656 9.24482 36.3986 9.22521 36.7249 9.27421C37.0512 9.32322 37.3637 9.43976 37.6424 9.61639C37.9211 9.79302 38.1599 10.0259 38.3435 10.3C38.7704 10.9174 38.9703 11.6635 38.9093 12.4116C38.8483 13.1597 38.5301 13.8635 38.0087 14.4035V14.4035ZM86.3578 11.2918C86.1843 10.6637 85.9033 10.1182 85.2173 9.91984C84.7817 9.76932 84.3114 9.75059 83.8653 9.86599C83.4191 9.98139 83.0169 10.2258 82.7089 10.5686C82.6595 10.6481 82.6219 10.7345 82.5973 10.8248L82.4486 10.7257V10.4364C82.4486 9.78347 82.4486 9.12642 82.4486 8.46937C82.4528 8.37385 82.4362 8.27856 82.4 8.19006C82.3638 8.10156 82.3089 8.02197 82.239 7.95676C82.1691 7.89156 82.0858 7.84228 81.995 7.81235C81.9042 7.78242 81.808 7.77254 81.713 7.78339C81.2543 7.78339 81.0022 8.08506 81.0022 8.63467V15.6143C80.998 15.6955 80.998 15.7769 81.0022 15.8581C81.024 16.0389 81.114 16.2046 81.2537 16.3213C81.3935 16.438 81.5726 16.497 81.7543 16.4862C81.8524 16.484 81.9489 16.4613 82.0377 16.4197C82.1265 16.3782 82.2057 16.3185 82.2702 16.2447C82.3347 16.1708 82.3832 16.0844 82.4125 15.9908C82.4418 15.8972 82.4512 15.7985 82.4403 15.7011C82.4403 14.6556 82.4403 13.6101 82.4403 12.5687C82.4144 12.2684 82.4939 11.9685 82.6651 11.7204C82.8362 11.4723 83.0884 11.2915 83.3784 11.2091C84.3784 10.9736 84.9363 11.2794 85.0313 12.3042C85.0313 12.4695 85.0313 12.6348 85.0313 12.796C85.0313 13.7712 85.0313 14.7424 85.0313 15.7176C85.0176 15.8385 85.0357 15.9609 85.0839 16.0726C85.1321 16.1844 85.2086 16.2816 85.3059 16.3547C85.4031 16.4277 85.5178 16.4741 85.6386 16.4892C85.7593 16.5043 85.8819 16.4876 85.9942 16.4408C86.1801 16.3705 86.3165 16.1722 86.4735 16.0275V11.7712C86.4363 11.6224 86.3826 11.4612 86.3372 11.2918H86.3578ZM47.1992 12.5109C47.1735 12.002 47.0917 11.4976 46.9554 11.0067C46.9075 10.7861 46.8075 10.5802 46.6637 10.4062C46.5199 10.2322 46.3365 10.0952 46.1289 10.0066C45.82 9.8637 45.4837 9.78968 45.1433 9.78968C44.803 9.78968 44.4667 9.8637 44.1578 10.0066C43.7824 10.2178 43.4208 10.4524 43.0751 10.7091C43.0643 10.6798 43.0573 10.6493 43.0544 10.6182C43.0255 10.1058 42.7569 9.79174 42.3271 9.79174C41.8973 9.79174 41.6122 10.1099 41.6081 10.6182C41.6081 11.0315 41.6081 11.3992 41.6081 11.7877C41.6081 13.077 41.6081 14.3704 41.6081 15.6597C41.6081 16.1391 41.8106 16.3994 42.2114 16.449C42.3162 16.4672 42.4237 16.4615 42.526 16.4324C42.6283 16.4032 42.7227 16.3514 42.8021 16.2807C42.8816 16.21 42.944 16.1222 42.9848 16.024C43.0257 15.9258 43.0438 15.8197 43.0379 15.7135C43.0379 14.6473 43.0379 13.5811 43.0379 12.515C43.0273 12.3243 43.0576 12.1336 43.1267 11.9555C43.1959 11.7775 43.3024 11.6164 43.439 11.4829C43.5756 11.3495 43.7392 11.2468 43.9187 11.1817C44.0983 11.1167 44.2897 11.0908 44.4801 11.1058C45.3355 11.1058 45.7198 11.4943 45.7446 12.4447C45.7446 12.515 45.7446 12.5894 45.7446 12.6596C45.7446 13.6555 45.7446 14.6473 45.7446 15.6432C45.729 15.7462 45.736 15.8514 45.7651 15.9515C45.7942 16.0515 45.8447 16.144 45.9131 16.2227C45.9815 16.3013 46.0661 16.3641 46.1612 16.4067C46.2563 16.4494 46.3595 16.4709 46.4636 16.4697C46.571 16.4774 46.6786 16.4607 46.7786 16.4208C46.8785 16.3808 46.968 16.3187 47.0404 16.2391C47.1129 16.1596 47.1663 16.0646 47.1966 15.9613C47.227 15.8581 47.2335 15.7493 47.2157 15.6432C47.1909 14.6225 47.2157 13.5687 47.1785 12.5109H47.1992ZM79.9113 14.9903C79.814 14.8567 79.6713 14.7632 79.51 14.7274C79.3487 14.6917 79.1798 14.7161 79.0352 14.7961C78.9402 14.8374 78.8617 14.9035 78.7707 14.949C78.4869 15.1086 78.1666 15.1925 77.841 15.1925C77.5153 15.1925 77.195 15.1086 76.9112 14.949C76.5077 14.7054 76.1996 14.3313 76.038 13.8885C75.8764 13.4458 75.871 12.9612 76.0227 12.515C76.1192 12.0711 76.3854 11.6826 76.7646 11.4324C77.1437 11.1822 77.6057 11.0902 78.0517 11.1761C78.3669 11.2463 78.6684 11.3678 78.9443 11.5356C79.057 11.6182 79.193 11.6627 79.3328 11.6627C79.4725 11.6627 79.6085 11.6182 79.7212 11.5356C79.8413 11.4391 79.9236 11.3034 79.9538 11.1524C79.984 11.0013 79.9602 10.8444 79.8865 10.7091C79.7509 10.4721 79.552 10.2775 79.3121 10.1471C78.8295 9.91158 78.2995 9.78915 77.7624 9.78915C77.2254 9.78915 76.6954 9.91158 76.2128 10.1471C75.0557 10.7133 74.5598 11.7298 74.502 12.9695C74.3945 14.9903 75.7417 16.573 77.6715 16.5069C77.9284 16.5116 78.1849 16.4867 78.436 16.4325C78.8835 16.2957 79.3167 16.1158 79.7295 15.8953C79.8023 15.8493 79.8647 15.7887 79.9127 15.7172C79.9608 15.6458 79.9934 15.5651 80.0086 15.4804C80.0238 15.3956 80.0211 15.3086 80.0008 15.225C79.9805 15.1413 79.943 15.0628 79.8906 14.9944L79.9113 14.9903ZM15.0326 15.4614C14.8621 15.6192 14.7439 15.8254 14.6937 16.0523C14.6663 16.2226 14.6975 16.3972 14.7824 16.5474C14.8673 16.6976 15.0007 16.8144 15.1607 16.8788C15.3084 16.9686 15.4834 17.0026 15.6539 16.9746C15.8245 16.9465 15.9794 16.8583 16.0905 16.7259C16.9038 16.0563 17.5212 15.1795 17.8776 14.1882C18.234 13.1968 18.3162 12.1276 18.1154 11.0934C17.872 9.69806 17.1418 8.43413 16.0546 7.52622C14.9674 6.61832 13.5935 6.12523 12.1771 6.13456C10.7898 6.13338 9.44554 6.61559 8.37531 7.49826C7.54318 8.16689 6.90858 9.04927 6.53952 10.0509C6.17045 11.0526 6.08082 12.1357 6.28018 13.1844C6.51301 14.6389 7.29186 15.9499 8.45794 16.8499C8.61331 16.9712 8.80847 17.03 9.00501 17.0147C9.20155 16.9994 9.38525 16.9111 9.51997 16.7672C9.90842 16.3788 9.85471 15.8746 9.37948 15.4614C8.66183 14.882 8.15425 14.0829 7.93476 13.1871C7.71527 12.2912 7.79601 11.348 8.16456 10.5025C8.55993 9.4691 9.34073 8.62936 10.3427 8.15998C11.3447 7.6906 12.4896 7.62819 13.5367 7.98588C14.2727 8.19896 14.9341 8.61446 15.4455 9.18506C15.9569 9.75566 16.2978 10.4584 16.4294 11.2133C16.6217 11.9854 16.5885 12.7964 16.3336 13.5502C16.0787 14.3039 15.6128 14.9687 14.9913 15.4655L15.0326 15.4614ZM12.0697 21.2467C12.2947 21.244 12.5142 21.1765 12.7019 21.0525C12.8408 20.9528 12.943 20.8102 12.993 20.6467C13.0431 20.4833 13.038 20.3079 12.9788 20.1475C12.921 19.9878 12.8155 19.8497 12.6765 19.7521C12.5375 19.6545 12.3717 19.6021 12.2019 19.6021C11.3576 19.6105 10.5184 19.4707 9.72246 19.1888C8.63915 18.8181 7.65909 18.1961 6.86251 17.3737C6.06594 16.5513 5.47552 15.5518 5.13964 14.4572C4.7923 13.4545 4.67473 12.3865 4.79561 11.3322C4.91649 10.2779 5.27273 9.26418 5.83801 8.36606C6.3917 7.43467 7.14661 6.63886 8.0475 6.03684C8.94839 5.43481 9.97247 5.04181 11.0448 4.88658C12.4087 4.62955 13.8187 4.79985 15.0822 5.3742C15.6786 5.67493 16.2531 6.01739 16.8013 6.39904C16.9816 6.53635 17.2077 6.5992 17.433 6.57459C17.6584 6.54998 17.8656 6.4398 18.0121 6.2668C18.1445 6.09426 18.2036 5.87645 18.1765 5.66062C18.1495 5.44479 18.0384 5.24833 17.8674 5.11386C16.4527 3.94891 14.7115 3.25154 12.8838 3.11791C11.6865 3.02239 10.4821 3.16572 9.34069 3.53958C8.19927 3.91343 7.14352 4.51036 6.23473 5.29569C5.23663 6.12819 4.43517 7.1713 3.88789 8.35017C3.3406 9.52905 3.06105 10.8145 3.0693 12.1141C3.05592 14.2562 3.80768 16.3327 5.18922 17.9698C6.02212 18.9801 7.06579 19.7961 8.24716 20.3607C9.42853 20.9254 10.719 21.225 12.0283 21.2385L12.0697 21.2467ZM20.0783 11.4447C19.9286 11.522 19.805 11.6415 19.7227 11.7884C19.6404 11.9354 19.6031 12.1032 19.6154 12.2712C19.6055 13.2378 19.4039 14.1928 19.0223 15.0809C18.6407 15.969 18.0866 16.7725 17.3922 17.4449C17.1071 17.7218 16.7847 17.9656 16.4831 18.226C16.4 18.2912 16.3307 18.3723 16.2792 18.4645C16.2277 18.5568 16.1951 18.6583 16.1832 18.7633C16.1712 18.8682 16.1803 18.9745 16.2098 19.0759C16.2393 19.1773 16.2886 19.2719 16.355 19.3541C16.4876 19.527 16.6832 19.6405 16.8991 19.6699C17.115 19.6993 17.3338 19.6422 17.5079 19.5111C17.7228 19.3541 17.9212 19.2012 18.1402 19.0235C19.0904 18.1974 19.8593 17.1834 20.3984 16.0455C20.9375 14.9075 21.2351 13.6703 21.2725 12.4117C21.2786 12.3167 21.2786 12.2215 21.2725 12.1265C21.2677 11.9843 21.2263 11.8456 21.1522 11.7241C21.0781 11.6025 20.9738 11.5021 20.8495 11.4327C20.7252 11.3633 20.5851 11.3272 20.4427 11.3278C20.3004 11.3285 20.1606 11.3659 20.0369 11.4364L20.0783 11.4447ZM54.0053 11.424C53.8122 11.0445 53.5392 10.7113 53.205 10.4474C52.8708 10.1836 52.4833 9.99525 52.0694 9.89549C51.6554 9.79573 51.2247 9.78688 50.807 9.86956C50.3893 9.95223 49.9945 10.1245 49.6497 10.3744C49.223 10.6816 48.8768 11.0874 48.6408 11.5573C48.4048 12.0271 48.2859 12.5471 48.2943 13.0729C48.259 13.4985 48.3092 13.9269 48.4419 14.3328C48.5746 14.7387 48.7871 15.114 49.067 15.4366C49.9886 16.4614 51.1704 16.6515 52.4473 16.4118C52.9598 16.327 53.4342 16.0877 53.8069 15.7259C53.9189 15.6218 53.9891 15.4804 54.0043 15.3282C54.0196 15.1761 53.9787 15.0236 53.8896 14.8994C53.8006 14.7694 53.6644 14.6794 53.51 14.6485C53.3556 14.6176 53.1952 14.6483 53.0631 14.7341C52.8978 14.8167 52.7407 14.9159 52.5713 14.9944C52.1316 15.2169 51.626 15.272 51.1487 15.1497C50.6713 15.0273 50.2547 14.7357 49.9762 14.3291C49.8685 14.1172 49.7733 13.8992 49.691 13.6762H53.6499C53.7638 13.6898 53.8794 13.6755 53.9865 13.6344C54.0937 13.5934 54.1892 13.5268 54.2649 13.4406C54.3406 13.3543 54.3941 13.2509 54.4209 13.1393C54.4476 13.0278 54.4468 12.9113 54.4185 12.8001C54.3321 12.3182 54.1747 11.8516 53.9515 11.4158L54.0053 11.424ZM52.592 12.4406H51.2986C50.8605 12.4406 50.4184 12.4406 49.9803 12.4406C49.7944 12.4406 49.7158 12.3745 49.7861 12.2051C49.8781 11.8866 50.0752 11.6086 50.3453 11.4165C50.6155 11.2244 50.9427 11.1295 51.2738 11.1472C51.6021 11.1178 51.9311 11.1947 52.2124 11.3666C52.4936 11.5385 52.7122 11.7962 52.8358 12.1017C52.8978 12.3869 52.8565 12.4365 52.5507 12.4323L52.592 12.4406ZM19.5328 20.0029C19.3693 19.9864 19.2041 20.0076 19.0501 20.0649C18.8961 20.1222 18.7573 20.2141 18.6443 20.3335C17.1235 21.5714 15.2699 22.3307 13.3176 22.5154C11.6357 22.7237 9.92844 22.4975 8.35877 21.8583C6.88973 21.2868 5.57185 20.3851 4.50704 19.2228C3.44223 18.0606 2.65902 16.6689 2.21803 15.1556C1.92334 14.2204 1.78375 13.2432 1.80479 12.2629C1.80875 12.0868 1.75637 11.9141 1.65527 11.7699C1.55417 11.6257 1.40966 11.5175 1.24279 11.4612C1.06599 11.4 0.873657 11.4007 0.697257 11.463C0.520857 11.5253 0.370814 11.6456 0.271658 11.8042C0.234131 11.8494 0.191095 11.8896 0.143555 11.9241V13.3993C0.22207 13.8126 0.304725 14.201 0.383241 14.6019C0.750649 16.4695 1.56446 18.2204 2.75523 19.7054C4.19537 21.5303 6.13943 22.8924 8.34638 23.6229C9.04542 23.8202 9.75444 23.9802 10.4704 24.1022C10.6068 24.1353 10.739 24.1849 10.8837 24.2262H13.454C13.5298 24.18 13.6119 24.1451 13.6978 24.1229C15.0626 23.9978 16.3867 23.5911 17.5864 22.9286C18.3762 22.4735 19.1405 21.9755 19.8758 21.4368C20.0026 21.3541 20.0994 21.2325 20.1515 21.0902C20.2036 20.948 20.2084 20.7927 20.165 20.6476C20.1311 20.481 20.0467 20.3289 19.9232 20.212C19.7997 20.0952 19.6432 20.0193 19.4749 19.9946L19.5328 20.0029ZM21.1651 4.2254C20.0496 2.94423 18.6714 1.91828 17.124 1.21734C15.5766 0.51639 13.8965 0.156879 12.1978 0.163245C11.0791 0.14551 9.96425 0.298796 8.89186 0.617806C8.77638 0.634782 8.6658 0.676033 8.56741 0.738834C8.46901 0.801636 8.38504 0.884564 8.32101 0.982165C8.25698 1.07977 8.21435 1.18983 8.19593 1.30509C8.17752 1.42036 8.18372 1.53821 8.21414 1.65091C8.24256 1.76667 8.29568 1.87492 8.36987 1.96823C8.44405 2.06153 8.53753 2.13768 8.6439 2.19146C8.75028 2.24524 8.86705 2.27537 8.98617 2.27978C9.10529 2.2842 9.22396 2.2628 9.33403 2.21705C10.4056 1.89746 11.5227 1.75782 12.64 1.80381C14.7207 1.86393 16.7276 2.58793 18.3675 3.87001C19.6566 4.80663 20.704 6.03706 21.4226 7.45929C22.1413 8.88152 22.5106 10.4546 22.4999 12.048C22.4985 12.2723 22.5836 12.4885 22.7375 12.6517C22.8914 12.8148 23.1023 12.9124 23.3263 12.9241C23.4392 12.9243 23.5509 12.9014 23.6545 12.8568C23.7581 12.8122 23.8516 12.7468 23.929 12.6648C24.0064 12.5827 24.0662 12.4856 24.1047 12.3796C24.1432 12.2735 24.1596 12.1607 24.1528 12.048C24.1405 11.3841 24.0867 10.7216 23.9916 10.0645C23.6169 7.8771 22.6148 5.84569 21.1072 4.21713L21.1651 4.2254ZM63.6007 9.81653C63.1631 9.81108 62.729 9.89491 62.3249 10.0629C61.9208 10.2309 61.5552 10.4795 61.2504 10.7935C60.9457 11.1076 60.7082 11.4805 60.5524 11.8894C60.3966 12.2984 60.3258 12.7348 60.3444 13.172C60.3285 13.6095 60.4022 14.0456 60.5608 14.4536C60.7195 14.8616 60.9597 15.2329 61.2669 15.5447C61.5741 15.8566 61.9418 16.1024 62.3474 16.2671C62.7529 16.4319 63.1878 16.512 63.6255 16.5028C64.0626 16.5103 64.4968 16.4288 64.9014 16.2631C65.306 16.0974 65.6726 15.851 65.9788 15.5389C66.2851 15.2269 66.5246 14.8557 66.6827 14.4481C66.8408 14.0404 66.9141 13.6048 66.8984 13.1679C66.8198 11.205 65.4479 9.8 63.5429 9.80827L63.6007 9.81653ZM64.3487 15.0234C63.1089 15.5812 61.7907 14.6101 61.7907 13.172C61.7907 11.8786 62.7081 11.0067 63.9189 11.172C64.2273 11.2097 64.5189 11.3337 64.7601 11.5295C65.0013 11.7254 65.1823 11.9853 65.2826 12.2794C65.6049 13.2753 65.3487 14.544 64.2825 15.0151L64.3487 15.0234ZM73.4399 12.3414V10.6182C73.451 10.5163 73.4404 10.4132 73.4089 10.3157C73.3773 10.2182 73.3255 10.1285 73.2568 10.0524C73.1881 9.9763 73.1042 9.91559 73.0104 9.87423C72.9166 9.83287 72.8151 9.8118 72.7126 9.8124C72.6126 9.81257 72.5139 9.83421 72.423 9.87585C72.332 9.9175 72.2511 9.97819 72.1857 10.0538C72.1203 10.1294 72.0719 10.2182 72.0437 10.3141C72.0156 10.4101 72.0083 10.511 72.0225 10.61C72.0225 11.6844 72.0225 12.7629 72.0225 13.8374C72.0482 14.0803 71.999 14.3252 71.8816 14.5394C71.7642 14.7536 71.5841 14.9268 71.3655 15.0357C71.1354 15.1551 70.8774 15.2103 70.6186 15.1958C70.3598 15.1813 70.1096 15.0974 69.8943 14.9531C69.725 14.8272 69.5905 14.6602 69.5037 14.4679C69.417 14.2755 69.3807 14.0642 69.3985 13.8539C69.3985 12.7588 69.3985 11.6596 69.3985 10.548C69.4052 10.3557 69.3354 10.1687 69.2046 10.0277C69.0737 9.88677 68.8923 9.8034 68.7001 9.79587C68.6044 9.79023 68.5086 9.80423 68.4185 9.837C68.3285 9.86977 68.2461 9.92062 68.1764 9.98643C68.1067 10.0522 68.0512 10.1316 68.0134 10.2196C67.9755 10.3077 67.9561 10.4025 67.9563 10.4984C67.9563 11.7588 67.9191 13.0233 67.9976 14.2795C68.0145 14.6993 68.15 15.1057 68.3884 15.4517C68.6269 15.7976 68.9584 16.0689 69.3447 16.2341C69.8887 16.4566 70.4804 16.5362 71.0638 16.4656C71.6992 16.4569 72.3054 16.1975 72.7504 15.7439C73.1954 15.2904 73.4433 14.6794 73.4399 14.044C73.4193 13.482 73.3986 12.9076 73.3986 12.3332L73.4399 12.3414ZM58.5633 15.7052C58.5633 13.639 58.5633 11.5728 58.5633 9.5066C58.5633 9.25453 58.6418 9.19667 58.8815 9.20493C59.3939 9.22559 59.9105 9.22559 60.4229 9.20493C60.5235 9.21108 60.6243 9.19683 60.7193 9.16304C60.8142 9.12925 60.9014 9.07662 60.9755 9.0083C61.0496 8.93998 61.1091 8.85739 61.1505 8.76549C61.1919 8.67359 61.2143 8.57427 61.2163 8.4735C61.2163 8.06026 60.9023 7.79992 60.3898 7.80405H55.088C54.9876 7.79629 54.8867 7.81114 54.7928 7.8475C54.6989 7.88386 54.6144 7.94081 54.5454 8.01415C54.4764 8.08749 54.4248 8.17537 54.3942 8.27131C54.3637 8.36725 54.355 8.46882 54.3689 8.56855C54.3992 8.75388 54.4971 8.92143 54.6436 9.03893C54.7901 9.15643 54.9748 9.21556 55.1623 9.20493C55.6552 9.22972 56.1489 9.22972 56.6417 9.20493C56.9641 9.17601 57.0178 9.28758 57.0136 9.57272C57.0136 10.5976 57.0136 11.6389 57.0136 12.6472C57.0136 13.6845 57.0136 14.7134 57.0136 15.7548C57.0046 15.858 57.0184 15.962 57.0542 16.0592C57.09 16.1564 57.1469 16.2445 57.2207 16.3172C57.2946 16.3899 57.3836 16.4453 57.4814 16.4795C57.5792 16.5137 57.6834 16.5259 57.7864 16.5151C57.8885 16.513 57.989 16.4895 58.0814 16.4462C58.1738 16.4028 58.2562 16.3406 58.3231 16.2636C58.3901 16.1865 58.4401 16.0963 58.4701 15.9987C58.5001 15.9011 58.5093 15.7983 58.4972 15.6969L58.5633 15.7052ZM33.3102 18.9698H32.2936V21.8212H32.5168V20.5814H33.2813C33.3973 20.5972 33.5154 20.5874 33.6273 20.5526C33.7391 20.5179 33.842 20.459 33.9286 20.3803C34.0153 20.3015 34.0836 20.2047 34.1289 20.0966C34.1741 19.9886 34.1951 19.872 34.1904 19.755C34.1947 19.6367 34.1721 19.519 34.1243 19.4108C34.0764 19.3025 34.0046 19.2066 33.9143 19.1302C33.8239 19.0538 33.7174 18.9989 33.6027 18.9697C33.4881 18.9404 33.3682 18.9377 33.2523 18.9615L33.3102 18.9698ZM33.3102 20.3748H32.4631V19.1723H33.2648C33.3474 19.1632 33.4309 19.1722 33.5097 19.1986C33.5885 19.2249 33.6607 19.2681 33.7212 19.3251C33.7817 19.382 33.8291 19.4514 33.8602 19.5285C33.8912 19.6056 33.9052 19.6885 33.9011 19.7715C33.897 20.1227 33.7028 20.3665 33.2441 20.3665L33.3102 20.3748ZM60.8568 21.8212H61.0799V18.9698H60.8568V21.8212ZM68.6422 19.1351C68.8443 19.1129 69.0475 19.1659 69.2129 19.2841C69.3784 19.4023 69.4944 19.5772 69.539 19.7756H69.7621C69.7138 19.5238 69.5729 19.2991 69.3671 19.1461C69.1613 18.9931 68.9056 18.9228 68.6505 18.9491C67.824 18.9491 67.3653 19.5897 67.3653 20.4409C67.3653 21.2922 67.7786 21.8749 68.605 21.8749C68.7898 21.8961 68.9767 21.8604 69.1406 21.7725C69.3046 21.6846 69.4378 21.5488 69.5224 21.3831C69.5156 21.5366 69.5253 21.6904 69.5514 21.8418H69.7373V20.3376H68.605V20.5401H69.5224V20.5732C69.5224 21.2054 69.3241 21.6683 68.6133 21.6683C67.9025 21.6683 67.605 21.0815 67.605 20.4285C67.5389 19.6806 67.8612 19.1268 68.5761 19.1268L68.6422 19.1351ZM59.6667 20.2922C59.7988 20.2533 59.914 20.1709 59.9935 20.0584C60.073 19.9459 60.1122 19.8099 60.1047 19.6723C60.1047 19.2591 59.8113 18.9698 59.2782 18.9698H58.2864V21.8212H59.2947C59.4113 21.8352 59.5295 21.8243 59.6415 21.7892C59.7536 21.754 59.8568 21.6953 59.9444 21.6171C60.032 21.5389 60.1019 21.443 60.1495 21.3357C60.1971 21.2283 60.2212 21.1121 60.2204 20.9947C60.2192 20.8216 60.156 20.6548 60.0423 20.5243C59.9285 20.3939 59.7718 20.3086 59.6005 20.2839L59.6667 20.2922ZM58.4889 19.1723H59.2782C59.6915 19.1723 59.8733 19.4037 59.8733 19.6847C59.8733 19.9657 59.6873 20.1971 59.1956 20.1971H58.4889V19.1723ZM59.2906 21.6145H58.4889V20.3996H59.1749C59.7493 20.3996 59.9807 20.6475 59.9807 21.0112C59.9807 21.3748 59.6005 21.6063 59.2245 21.6063L59.2906 21.6145ZM71.2746 18.9698L70.2291 21.8212H70.4522L70.8159 20.8335H72.0143L72.3862 21.8212H72.6259L71.5349 18.9698H71.2746ZM70.8903 20.6228C71.1506 19.8996 71.3324 19.383 71.4027 19.1764C71.4564 19.3706 71.6217 19.7756 71.9399 20.6228H70.8903ZM36.5955 19.7095C36.5955 19.2632 36.2979 18.9615 35.7359 18.9615H34.7152V21.8129H34.9384V20.4822H35.6367C36.1822 20.4822 36.3227 20.6765 36.3227 21.1434V21.2178C36.3063 21.4169 36.3188 21.6174 36.3599 21.8129H36.5872C36.545 21.6231 36.5325 21.428 36.55 21.2343V21.1228C36.55 20.6393 36.3558 20.4492 36.0624 20.3789C36.2174 20.351 36.3569 20.2677 36.455 20.1446C36.553 20.0214 36.603 19.8668 36.5955 19.7095V19.7095ZM35.6244 20.2756H34.9425V19.164H35.6905C36.1326 19.164 36.3641 19.3665 36.3641 19.7136C36.3641 20.0608 36.1202 20.2756 35.6202 20.2756H35.6244ZM56.3194 18.9202C55.4723 18.9202 55.0218 19.5814 55.0218 20.3872C55.0218 21.193 55.4888 21.8542 56.2905 21.8542C57.1707 21.8542 57.5839 21.1434 57.5839 20.3665C57.5839 19.5897 57.0963 18.9202 56.3153 18.9202H56.3194ZM56.3194 21.6476C55.6334 21.6476 55.2739 21.0319 55.2739 20.3748C55.2739 19.7178 55.5962 19.1351 56.3277 19.1351C57.0591 19.1351 57.3649 19.7136 57.3649 20.3748C57.3649 21.036 57.0343 21.6476 56.2987 21.6476H56.3194ZM62.1048 18.9615H61.8858V21.8129H63.5924L63.6338 21.6063H62.1048V18.9615ZM64.295 20.412H65.7454V20.2095H64.2825V19.164H65.8074V18.9615H64.0594V21.8129H65.8405L65.8735 21.6063H64.2825L64.295 20.412ZM37.5377 20.412H38.9923V20.2095H37.5377V19.164H39.0666V18.9615H37.3186V21.8129H39.0749L39.1038 21.6063H37.5128L37.5377 20.412ZM53.0631 21.5402C52.9556 21.2178 52.4639 19.9409 52.0754 18.9615H51.7448V21.8129H51.9639V20.598C51.9639 20.1103 51.9639 19.445 51.9349 19.1227C52.0672 19.5359 52.6622 21.1145 52.935 21.8129H53.154C53.5135 20.912 54.092 19.507 54.2078 19.1268C54.2078 19.412 54.2078 19.9533 54.2078 20.5029V21.8129H54.4268V18.9615H54.1003C53.6664 19.912 53.0961 21.3294 53.03 21.5402H53.0631ZM46.1 20.6889C46.1 21.441 45.7446 21.6393 45.2735 21.6393C44.8603 21.6393 44.447 21.4451 44.447 20.6889V18.9615H44.2197V20.7137C44.1984 20.8602 44.2102 21.0096 44.2542 21.151C44.2981 21.2924 44.3732 21.4222 44.4738 21.5308C44.5745 21.6393 44.6982 21.724 44.8359 21.7786C44.9735 21.8331 45.1216 21.8561 45.2694 21.8459C45.8562 21.8459 46.3314 21.5691 46.3314 20.6765V18.9615H46.1V20.6889ZM43.166 21.8129H43.3891V18.9615H43.166V21.8129ZM48.472 21.5402C48.3645 21.2178 47.8728 19.9409 47.4802 18.9615H47.1537V21.8129H47.3728V20.598C47.3728 20.1103 47.3728 19.445 47.3438 19.1227C47.4719 19.5359 48.0711 21.1145 48.3439 21.8129H48.5588C48.9224 20.912 49.501 19.507 49.6167 19.1268C49.6167 19.412 49.6167 19.9533 49.6167 20.5029V21.8129H49.8357V18.9615H49.5092C49.1208 19.912 48.5546 21.3294 48.4885 21.5402H48.472ZM74.3697 21.5402C74.2664 21.2178 73.7747 19.9409 73.3821 18.9615H73.0515V21.8129H73.2705V20.598C73.2705 20.1103 73.2705 19.445 73.2457 19.1227C73.378 19.5359 73.9772 21.1145 74.2499 21.8129H74.4648C74.8284 20.912 75.4028 19.507 75.5185 19.1268C75.5185 19.412 75.5185 19.9533 75.5185 20.5029V21.8129H75.7376V18.9615H75.44C75.0268 19.912 74.4524 21.3294 74.3863 21.5402H74.3697ZM79.8286 20.2012C79.3038 20.069 79.1179 19.9492 79.1179 19.6351C79.1179 19.321 79.341 19.1268 79.7501 19.1268C79.9141 19.1041 80.0806 19.1462 80.214 19.2442C80.3475 19.3422 80.4376 19.4884 80.465 19.6516H80.6923C80.6806 19.542 80.647 19.4359 80.5937 19.3394C80.5403 19.243 80.4682 19.1582 80.3815 19.09C80.2949 19.0219 80.1955 18.9717 80.0892 18.9426C79.9829 18.9134 79.8718 18.9058 79.7625 18.9202C79.1551 18.9202 78.8823 19.2715 78.8823 19.6475C78.8823 20.0236 79.1427 20.2508 79.746 20.4037C80.3493 20.5566 80.5146 20.7591 80.5146 21.0773C80.5146 21.3955 80.3121 21.6476 79.7914 21.6476C79.606 21.6694 79.4193 21.6195 79.2695 21.5081C79.1196 21.3967 79.0181 21.2323 78.9856 21.0484H78.7583C78.7732 21.1681 78.8114 21.2837 78.871 21.3886C78.9305 21.4935 79.0102 21.5856 79.1054 21.6597C79.2006 21.7338 79.3094 21.7884 79.4257 21.8203C79.542 21.8523 79.6635 21.861 79.7832 21.8459C80.4444 21.8459 80.7502 21.4823 80.7502 21.0608C80.7667 20.7219 80.6469 20.3996 79.8452 20.2012H79.8286ZM40.9841 21.5402C40.8808 21.2178 40.389 19.9409 39.9964 18.9615H39.6658V21.8129H39.889V20.598C39.889 20.1103 39.889 19.445 39.8601 19.1227C39.9882 19.5359 40.5874 21.1145 40.8601 21.8129H41.075C41.4386 20.912 42.0172 19.507 42.1288 19.1268C42.1288 19.412 42.1288 19.9533 42.1288 20.5029V21.8129H42.3478V18.9615H42.0254C41.6205 19.912 41.0502 21.3294 40.9841 21.5402ZM76.8037 20.412H78.2583V20.2095H76.8037V19.164H78.3327V18.9615H76.5847V21.8129H78.3658L78.3988 21.6063H76.8037V20.412Z" fill="#1500FF"/>
</svg>
