<svg width="94" height="15" viewBox="0 0 94 15" fill="none" xmlns="http://www.w3.org/2000/svg">
<path d="M0.98278 2.70093C1.03478 2.70093 1.08846 2.70926 1.14046 2.70926H8.76255C9.14613 2.70147 9.52149 2.82014 9.82987 3.04669C10.1382 3.27325 10.3622 3.59489 10.4668 3.96129C10.5006 4.09914 10.517 4.24065 10.5154 4.38252C10.5154 5.20666 10.502 6.03248 10.5154 6.85662C10.5199 7.30293 10.3458 7.73276 10.0313 8.05177C9.71683 8.37079 9.28767 8.55292 8.83804 8.55819C6.77987 8.56652 4.72003 8.55819 2.66186 8.55819C2.58302 8.55819 2.50418 8.54487 2.41025 8.53655V8.70304C2.41025 9.69035 2.41025 10.6777 2.41025 11.665C2.41025 11.7848 2.37838 11.8098 2.26264 11.8082C1.83322 11.8082 1.40549 11.8082 0.976074 11.8082L0.98278 2.70093ZM5.76002 4.08116H2.77425C2.51425 4.08116 2.41361 4.17773 2.41361 4.42914V6.83997C2.41361 7.08472 2.51257 7.19127 2.74909 7.19127H8.73572C8.9823 7.19127 9.0712 7.08804 9.0712 6.84163V4.46244C9.0712 4.16441 8.98565 4.08116 8.68372 4.08116H5.76002Z" fill="#1500FF"/>
<path d="M93.5033 7.336C93.1679 7.45421 92.8475 7.61904 92.5221 7.76556L88.3403 9.65693C88.2933 9.67857 88.2447 9.69689 88.1826 9.72353V4.93182C88.248 4.92017 88.2984 4.96512 88.3504 4.9901L93.3826 7.26607C93.4195 7.28272 93.453 7.31768 93.5 7.30436L93.5033 7.336Z" fill="#1500FF"/>
<path d="M77.5455 9.7301C78.0705 9.97152 78.5972 10.2163 79.1239 10.456L82.6867 12.0693L82.8209 12.1343C82.784 12.1892 82.7253 12.1975 82.6766 12.2192L77.6746 14.4868C77.6331 14.5073 77.5928 14.5301 77.5538 14.5551H77.522V9.90825C77.522 9.85164 77.522 9.79337 77.532 9.74176L77.5455 9.7301Z" fill="#1500FF"/>
<path d="M77.5538 0.0852661C78.0017 0.320023 78.4697 0.511492 78.9293 0.721274C80.1739 1.28735 81.4186 1.85177 82.6632 2.41452L82.8444 2.49776L81.5461 3.08549L77.6679 4.842C77.6243 4.86198 77.5857 4.88695 77.5438 4.91026H77.5337C77.5337 4.85199 77.522 4.79538 77.522 4.74377V0.0852661H77.5538Z" fill="#1500FF"/>
<path d="M46.3499 2.70083C47.3731 2.70083 48.3947 2.70083 49.4162 2.70083C49.8003 2.69978 50.1732 2.82868 50.4736 3.06627C50.7739 3.30387 50.9838 3.63596 51.0684 4.00781C51.1075 4.27287 51.1199 4.54114 51.1053 4.80864C51.1053 4.86858 51.0735 4.87691 51.0248 4.87691H49.7533C49.6862 4.87691 49.6762 4.84527 49.6779 4.79033C49.6779 4.6588 49.6779 4.52727 49.6779 4.39574C49.6839 4.35059 49.6794 4.30465 49.6647 4.26151C49.65 4.21836 49.6255 4.17916 49.593 4.14694C49.5606 4.11473 49.5211 4.09038 49.4776 4.07578C49.4341 4.06118 49.3879 4.05672 49.3424 4.06275H43.339C43.2931 4.05487 43.2461 4.05803 43.2018 4.07198C43.1574 4.08593 43.1171 4.11024 43.0842 4.14289C43.0513 4.17553 43.0268 4.21553 43.0128 4.25954C42.9987 4.30354 42.9956 4.35026 43.0035 4.39574C43.0035 4.99512 43.0035 5.59394 43.0035 6.19221C43.0035 6.48857 43.0924 6.57847 43.391 6.57847H49.3961C49.7828 6.57368 50.1594 6.7009 50.463 6.93882C50.7665 7.17674 50.9785 7.51094 51.0634 7.88545C51.0832 7.96729 51.0939 8.05104 51.0953 8.13519C51.0953 8.8378 51.1204 9.54373 51.0953 10.2463C51.0749 10.6724 50.8885 11.0739 50.5756 11.3662C50.2626 11.6585 49.8475 11.8187 49.4179 11.813C48.4433 11.8214 47.4704 11.813 46.4958 11.813C45.4206 11.813 44.3454 11.813 43.2702 11.813C42.8769 11.8182 42.4942 11.6869 42.188 11.442C41.8818 11.197 41.6713 10.8536 41.5928 10.4711C41.5623 10.2159 41.5528 9.95865 41.5643 9.7019C41.5643 9.63863 41.5995 9.63697 41.6448 9.63697C42.0692 9.63697 42.4835 9.63697 42.9163 9.63697C42.9968 9.63697 42.9968 9.68026 42.9968 9.73853C42.9968 9.87506 42.9968 10.0116 42.9968 10.1481C42.994 10.1863 42.9992 10.2246 43.0119 10.2608C43.0246 10.2969 43.0446 10.3301 43.0706 10.3583C43.0967 10.3865 43.1283 10.4091 43.1635 10.4248C43.1986 10.4405 43.2367 10.4489 43.2752 10.4495C43.3227 10.452 43.3703 10.452 43.4178 10.4495H49.2317C49.5822 10.4495 49.6644 10.3695 49.6644 10.0249C49.6644 9.45882 49.6644 8.89108 49.6644 8.32333C49.6644 8.03197 49.5688 7.93873 49.2736 7.93873H43.3004C42.9271 7.94893 42.5608 7.83715 42.2577 7.62057C41.9546 7.40399 41.7317 7.0946 41.623 6.73997C41.5809 6.58763 41.5612 6.43006 41.5643 6.27213C41.5643 5.63612 41.5643 5.00177 41.5643 4.36577C41.5643 3.9242 41.741 3.50072 42.0556 3.18848C42.3702 2.87624 42.7968 2.70083 43.2417 2.70083C44.285 2.69583 45.3183 2.70083 46.3499 2.70083Z" fill="#1500FF"/>
<path d="M31.0531 7.93364C31.0531 9.17402 31.0531 10.4144 31.0531 11.6531C31.0531 11.7863 31.0195 11.8196 30.8853 11.8196C30.5197 11.8113 30.154 11.808 29.79 11.8196C29.6357 11.8196 29.6122 11.7713 29.6223 11.6365C29.6223 10.6858 29.6223 9.73344 29.6223 8.78276C29.6223 8.64623 29.582 8.61626 29.4545 8.61626C27.3421 8.61626 25.2297 8.61626 23.1173 8.61626C22.9764 8.61626 22.9496 8.64956 22.9496 8.78276C22.9496 9.7401 22.9496 10.6958 22.9496 11.6514C22.9496 11.7747 22.9194 11.8179 22.7936 11.8063C22.4234 11.7985 22.0527 11.7985 21.6815 11.8063C21.554 11.8063 21.5137 11.783 21.5137 11.6481C21.5137 10.1813 21.5137 8.71616 21.5137 7.25101C21.5137 6.29867 21.5305 5.34798 21.5137 4.3973C21.5119 4.17163 21.5555 3.94788 21.642 3.73916C21.7285 3.53044 21.8561 3.34097 22.0173 3.18185C22.1786 3.02274 22.3702 2.89719 22.581 2.81257C22.7918 2.72795 23.0175 2.68597 23.2448 2.68908C25.2677 2.69907 27.2901 2.69907 29.3119 2.68908C29.5417 2.68482 29.77 2.72645 29.9833 2.81152C30.1965 2.89659 30.3904 3.02335 30.5533 3.18426C30.7162 3.34518 30.8448 3.53696 30.9315 3.74821C31.0183 3.95946 31.0613 4.18586 31.0581 4.41395C31.038 5.59107 31.0531 6.76319 31.0531 7.93364ZM26.2826 7.25434C27.3477 7.25434 28.4112 7.25434 29.4696 7.25434C29.5854 7.25434 29.6206 7.2277 29.6189 7.10783C29.6189 6.21542 29.6189 5.32135 29.6189 4.42894C29.6189 4.15589 29.5216 4.05932 29.2465 4.05932H23.3253C23.0536 4.05932 22.9546 4.15755 22.9546 4.43227C22.9546 5.31968 22.9546 6.20709 22.9546 7.09617C22.9546 7.23603 23.0016 7.25434 23.1224 7.25434C24.1758 7.25268 25.2292 7.25434 26.2826 7.25434Z" fill="#1500FF"/>
<path d="M56.7341 2.70092C57.7607 2.70092 58.7873 2.70092 59.8138 2.70092C60.1978 2.7021 60.57 2.833 60.8691 3.07206C61.1681 3.31111 61.3763 3.64409 61.4594 4.01622C61.4861 4.14487 61.4979 4.27615 61.4946 4.40748C61.4946 6.30884 61.4946 8.2102 61.4946 10.1116C61.4991 10.3353 61.4582 10.5576 61.3742 10.7652C61.2903 10.9728 61.165 11.1615 61.006 11.3201C60.8469 11.4786 60.6572 11.6036 60.4484 11.6878C60.2395 11.7719 60.0157 11.8134 59.7903 11.8098C57.7523 11.8098 55.7143 11.8098 53.6762 11.8098C53.4503 11.8107 53.2264 11.7671 53.0175 11.6817C52.8086 11.5962 52.6188 11.4705 52.4591 11.3118C52.2994 11.1532 52.1729 10.9647 52.087 10.7572C52.0011 10.5498 51.9575 10.3275 51.9586 10.1032C51.9798 8.20632 51.9798 6.31051 51.9586 4.41581C51.9565 4.18904 52.0001 3.96416 52.0868 3.75435C52.1735 3.54454 52.3016 3.35403 52.4634 3.19398C52.6253 3.03394 52.8177 2.9076 53.0295 2.82236C53.2412 2.73711 53.4679 2.6947 53.6963 2.69759C54.7112 2.71091 55.7226 2.70092 56.7341 2.70092ZM56.7341 4.06284H53.7802C53.4934 4.06284 53.3995 4.15607 53.3995 4.43911V10.0749C53.3995 10.368 53.49 10.4562 53.792 10.4562H59.6629C59.9698 10.4562 60.0604 10.3663 60.0604 10.0633V4.45909C60.0604 4.15441 59.9698 4.06284 59.6662 4.06284H56.7341Z" fill="#1500FF"/>
<path d="M63.8538 4.53223V4.73535C63.8538 7.0363 63.8538 9.33725 63.8538 11.6382C63.8538 11.7847 63.8136 11.8197 63.6727 11.8147C63.307 11.8047 62.9413 11.8047 62.5756 11.8147C62.4364 11.8147 62.418 11.7731 62.418 11.6482C62.418 8.71678 62.418 5.78538 62.418 2.85397C62.418 2.71745 62.4582 2.68747 62.5857 2.6958C63.052 2.70412 63.5183 2.6958 63.9847 2.6958C64.0258 2.6925 64.0672 2.69945 64.105 2.71602C64.1428 2.73259 64.1758 2.75826 64.201 2.7907C66.2642 5.14271 68.3297 7.49471 70.3974 9.84672L70.498 9.95494C70.5433 9.89667 70.5232 9.83839 70.5232 9.78845C70.5232 7.48306 70.5232 5.17656 70.5232 2.86895C70.5232 2.73742 70.5433 2.69081 70.6909 2.70246C71.065 2.71578 71.4424 2.71245 71.8181 2.70246C71.9322 2.70246 71.9557 2.73743 71.9557 2.84398C71.9557 5.78538 71.9557 8.72677 71.9557 11.6682C71.9557 11.7797 71.9355 11.8213 71.8114 11.818C71.335 11.8097 70.8586 11.818 70.3806 11.818C70.3395 11.8191 70.2987 11.8105 70.2617 11.7928C70.2246 11.7752 70.1924 11.749 70.1676 11.7164C68.4096 9.71186 66.65 7.70838 64.8888 5.70601L63.9612 4.64878C63.9343 4.61548 63.9058 4.58051 63.8538 4.53223Z" fill="#1500FF"/>
<path d="M15.9626 11.8113C14.4278 11.8113 12.893 11.8113 11.3565 11.8113C11.234 11.8113 11.2021 11.7813 11.2021 11.6581C11.2021 8.72339 11.2021 5.78699 11.2021 2.84893C11.2021 2.70408 11.2458 2.68243 11.3783 2.68243C11.7439 2.69242 12.1091 2.69242 12.4736 2.68243C12.6078 2.68243 12.6413 2.7174 12.6413 2.84893C12.6413 5.31859 12.6413 7.78769 12.6413 10.2562C12.6413 10.4227 12.6783 10.4527 12.8393 10.4527C15.4124 10.4527 17.9855 10.4527 20.5553 10.4527C20.708 10.4527 20.7516 10.486 20.7449 10.6408C20.7331 10.9738 20.7314 11.3068 20.7449 11.6498C20.7449 11.803 20.6929 11.8163 20.5587 11.8163C19.0239 11.8096 17.4941 11.8113 15.9626 11.8113Z" fill="#1500FF"/>
<path d="M41.4678 2.70091L40.1997 4.3442C39.1866 5.6584 38.1729 6.97093 37.1586 8.28179C37.1007 8.35532 37.0705 8.44657 37.073 8.53985C37.073 9.58044 37.073 10.621 37.073 11.6599C37.073 11.7798 37.0479 11.8264 36.9204 11.8148C36.5447 11.807 36.1689 11.807 35.7932 11.8148C35.6724 11.8148 35.6372 11.7898 35.6372 11.6633C35.6372 10.6294 35.6372 9.59376 35.6372 8.55817C35.641 8.44924 35.6046 8.34269 35.5349 8.25848C34.1382 6.45257 32.7403 4.64445 31.3414 2.83411L31.2407 2.70091H31.3967C31.858 2.70091 32.3193 2.70091 32.7789 2.70091C32.8249 2.69859 32.8707 2.70792 32.9121 2.72802C32.9535 2.74811 32.989 2.77831 33.0154 2.81579C34.0912 4.12332 35.1664 5.42864 36.241 6.73173C36.3283 6.83829 36.3652 6.83662 36.4507 6.73173C37.5041 5.44307 38.5642 4.16106 39.6176 2.87074C39.6574 2.81488 39.7111 2.7702 39.7734 2.74102C39.8357 2.71185 39.9045 2.69918 39.9733 2.70424C40.4698 2.70757 40.9512 2.70091 41.4678 2.70091Z" fill="#1500FF"/>
<path d="M77.5337 4.91351H77.5438C78.2584 5.23818 78.9712 5.56617 79.6875 5.89083C80.6939 6.34703 81.6976 6.80155 82.6984 7.25442C82.742 7.27273 82.7823 7.29604 82.841 7.32601L81.2005 8.06858L77.6394 9.68024C77.6072 9.69637 77.5758 9.71416 77.5455 9.73352H77.532C77.532 9.69189 77.522 9.65027 77.522 9.60865V5.03339C77.5235 4.99323 77.5274 4.9532 77.5337 4.91351V4.91351Z" fill="#1500FF"/>
<path d="M82.8647 2.5061L88.1703 4.9136L82.8647 7.31611V2.5061Z" fill="#1500FF"/>
<path d="M82.8604 12.1376V7.32428L88.176 9.73178L82.8604 12.1376Z" fill="#1500FF"/>
</svg>
