<svg width="60" height="27" viewBox="0 0 60 27" fill="none" xmlns="http://www.w3.org/2000/svg">
<path d="M50.8967 8.15466C52.5181 8.21513 54.0935 8.71017 55.4581 9.58799C56.8226 10.4658 57.9263 11.6942 58.6535 13.1446C61.0915 17.6873 59.0043 22.7913 55.036 25.0144C52.9828 26.181 50.5758 26.5623 48.2626 26.0872C45.9494 25.6121 43.8875 24.3131 42.4603 22.4317C41.1947 20.7121 40.5974 18.5911 40.7797 16.4638C40.962 14.3365 41.9115 12.348 43.4512 10.8689C45.3279 9.07548 47.63 8.15466 50.8967 8.15466ZM50.2127 25.3038C52.2021 25.3073 54.1319 24.6243 55.6762 23.3701C57.1161 22.2296 58.1098 20.6198 58.4841 18.8216C58.8583 17.0233 58.5893 15.1507 57.7239 13.5305C57.1321 12.4642 56.3202 11.5361 55.3421 10.8078C54.3639 10.0795 53.242 9.56773 52.0509 9.30643C50.8597 9.04514 49.6266 9.04033 48.4334 9.29234C47.2403 9.54434 46.1144 10.0474 45.1306 10.768C42.4427 12.7587 41.2807 15.473 41.9472 18.7879C42.3571 20.6632 43.4053 22.338 44.9128 23.5264C46.4203 24.7148 48.2935 25.343 50.2127 25.3038V25.3038Z" fill="#1500FF"/>
<path d="M47.9932 5.63793C47.9786 4.91339 48.1426 4.1964 48.4706 3.55023C48.7987 2.90405 49.2808 2.34855 49.8743 1.93274C49.7647 2.23529 49.6419 2.53346 49.5498 2.84479C49.1502 4.18202 49.1381 5.60514 49.5147 6.949C49.5717 7.16825 49.5498 7.23402 49.313 7.24717C47.8561 7.3309 46.4381 7.74954 45.1693 8.47055C44.9282 8.60648 44.915 8.44423 44.8624 8.3083C44.4238 7.16397 43.7294 6.13508 42.8322 5.3003C42.4536 4.95386 42.0373 4.65089 41.5913 4.39702C42.0561 4.29178 42.9945 4.54611 43.7004 4.94074C44.3299 5.31123 44.8834 5.79778 45.3316 6.37458C44.9896 4.38825 44.6695 2.42823 44.8536 0.384888C46.1288 1.98868 47.1846 3.75524 47.9932 5.63793V5.63793Z" fill="#1500FF"/>
<path d="M23.4249 16.6219C23.2364 17.0604 23.0478 17.5428 22.8637 18.0075C22.6313 18.5907 22.3857 19.1651 22.1752 19.7615C22.0744 20.0421 21.8727 19.9895 21.671 19.9939C21.4693 19.9983 21.329 19.9939 21.2325 19.7615C20.8642 18.7968 20.4608 17.8409 20.0705 16.885C20.0486 16.8192 20.0705 16.7052 19.9477 16.7228C19.825 16.7403 19.882 16.8456 19.882 16.9157C19.882 17.8409 19.882 18.7661 19.882 19.6913C19.882 19.9062 19.8557 20.007 19.6057 19.9983C19.0576 19.9983 19.0576 19.9983 19.0576 19.4414C19.0576 18.1259 19.0576 16.8105 19.0576 15.4731C19.0576 15.2495 19.1015 15.1706 19.3426 15.1706C20.053 15.1706 20.053 15.1705 20.3336 15.8107C20.7458 16.771 21.1623 17.7313 21.5745 18.6872C21.6096 18.7661 21.6491 18.8363 21.7017 18.9371C21.8586 18.7175 21.9772 18.4728 22.0525 18.2136C22.4471 17.3367 22.8374 16.4158 23.2013 15.5082C23.2256 15.3968 23.2923 15.2993 23.3872 15.2363C23.4821 15.1733 23.5979 15.1497 23.7099 15.1706C24.3501 15.1925 24.3501 15.1706 24.3501 15.8151C24.3501 17.0955 24.3501 18.3759 24.3501 19.6519C24.3501 19.9237 24.2844 20.0421 24.0081 19.9983C23.931 19.9873 23.8528 19.9873 23.7757 19.9983C23.5565 20.029 23.4951 19.9456 23.4995 19.7264C23.4995 18.7004 23.4995 17.6787 23.4995 16.657L23.4249 16.6219Z" fill="#1500FF"/>
<path d="M17.2653 17.3323C17.6073 17.3323 17.9493 17.3323 18.2913 17.3323C18.493 17.3323 18.5369 17.3893 18.5544 17.5954C18.5762 17.912 18.5322 18.2297 18.4252 18.5285C18.3182 18.8272 18.1504 19.1006 17.9325 19.3313C17.7145 19.5619 17.4512 19.745 17.159 19.8689C16.8668 19.9927 16.5522 20.0547 16.2348 20.0509C15.6736 20.0652 15.1236 19.8918 14.6721 19.5581C14.2206 19.2244 13.8934 18.7495 13.7424 18.2088C13.5913 17.668 13.6251 17.0924 13.8383 16.573C14.0515 16.0536 14.432 15.6203 14.9194 15.3416C15.3997 15.1026 15.9397 15.0102 16.4722 15.0756C17.0046 15.1411 17.5061 15.3617 17.9142 15.7099C18.1383 15.9225 18.3082 16.1856 18.4097 16.4773C18.4536 16.6001 18.4404 16.6746 18.2913 16.6658C17.9493 16.6658 17.6336 16.7053 17.353 16.3282C17.1411 16.0978 16.8675 15.933 16.5647 15.8535C16.262 15.774 15.9428 15.783 15.645 15.8795C15.3472 15.976 15.0833 16.1559 14.8848 16.3979C14.6862 16.6399 14.5612 16.9337 14.5247 17.2446C14.3976 18.3452 14.8711 19.0907 15.8402 19.2967C16.2498 19.403 16.6846 19.3481 17.055 19.1433C17.4253 18.9385 17.703 18.5996 17.8309 18.1962C17.8835 18.0032 17.8704 17.9199 17.6336 17.9287C17.1951 17.9287 16.7084 17.9287 16.248 17.9287C15.9717 17.9287 16.02 17.7752 16.0112 17.6086C16.0024 17.442 16.0112 17.3104 16.2436 17.3236C16.5593 17.3455 16.9145 17.3323 17.2653 17.3323Z" fill="#1500FF"/>
<path d="M7.14336 18.0339L8.45882 19.9895C8.15188 19.9895 7.90632 19.9895 7.66077 19.9895C7.50292 19.9895 7.45469 19.8799 7.38892 19.7834C7.05128 19.2704 6.71803 18.753 6.38479 18.2356C6.3025 18.1533 6.20001 18.0942 6.08762 18.0642C5.97524 18.0342 5.85692 18.0343 5.7446 18.0645C5.63936 18.1215 5.68321 18.218 5.67882 18.3013C5.67882 18.7749 5.67882 19.2485 5.67882 19.722C5.67882 19.9456 5.60867 19.9983 5.39381 19.9939C4.8457 19.9939 4.8457 19.9939 4.8457 19.4633C4.8457 18.1084 4.8457 16.7535 4.8457 15.3942C4.8457 15.1705 4.89394 15.0872 5.13949 15.1004C5.78844 15.1311 6.45494 15.0565 7.08636 15.1442C7.42178 15.1629 7.73928 15.3017 7.98082 15.5351C8.22236 15.7686 8.37179 16.0813 8.40181 16.4158C8.43042 16.594 8.42328 16.776 8.38081 16.9513C8.33835 17.1266 8.26141 17.2918 8.15448 17.4371C8.04755 17.5824 7.91278 17.7049 7.758 17.7976C7.60322 17.8903 7.43155 17.9512 7.25298 17.9769C7.2154 17.9938 7.1788 18.0128 7.14336 18.0339ZM6.31901 15.7844C6.20949 15.791 6.09967 15.791 5.99015 15.7844C5.7446 15.7493 5.6569 15.8283 5.67005 16.087C5.69636 16.4728 5.67005 16.8587 5.67005 17.2446C5.67005 17.4156 5.71829 17.4814 5.89368 17.477C6.16993 17.477 6.44617 17.477 6.71803 17.477C6.83164 17.4876 6.94621 17.4732 7.05365 17.4348C7.1611 17.3964 7.25881 17.3349 7.33992 17.2546C7.42102 17.1744 7.48354 17.0773 7.52306 16.9702C7.56259 16.8632 7.57817 16.7488 7.56869 16.6351C7.57488 16.5199 7.55615 16.4047 7.51377 16.2973C7.47139 16.19 7.40637 16.0931 7.32313 16.0132C7.23989 15.9333 7.14039 15.8723 7.03143 15.8343C6.92247 15.7963 6.8066 15.7823 6.69172 15.7932C6.5821 15.78 6.45056 15.7844 6.31901 15.7844V15.7844Z" fill="#1500FF"/>
<path d="M37.7015 15.061C38.1424 15.0482 38.5772 15.1663 38.951 15.4004C39.3248 15.6345 39.6209 15.9742 39.8018 16.3765C39.9553 16.7009 39.9334 16.7141 39.587 16.7316C39.4399 16.7563 39.2888 16.736 39.1535 16.6734C39.0182 16.6108 38.9049 16.5088 38.8284 16.3808C38.6348 16.1119 38.3591 15.9131 38.0428 15.8142C37.7266 15.7154 37.3867 15.7219 37.0744 15.8327C36.7939 15.9038 36.5406 16.0562 36.3464 16.2707C36.1521 16.4852 36.0256 16.7524 35.9826 17.0386C35.9174 17.342 35.9174 17.6559 35.9826 17.9594C36.0266 18.272 36.1667 18.5631 36.3836 18.7926C36.6004 19.022 36.8832 19.1782 37.1928 19.2398C37.526 19.3155 37.8745 19.2847 38.1892 19.1517C38.5038 19.0188 38.7688 18.7904 38.9468 18.4987C39.0788 18.4125 39.2271 18.3544 39.3825 18.328C39.5379 18.3016 39.697 18.3075 39.8501 18.3452C39.929 18.4242 39.8501 18.5075 39.8237 18.582C39.6856 18.9506 39.449 19.2742 39.1398 19.5177C38.8306 19.7613 38.4605 19.9154 38.0698 19.9633C37.4583 20.0927 36.8208 20.0043 36.2676 19.7133C35.7849 19.4166 35.4144 18.9679 35.2143 18.4377C35.0143 17.9075 34.9961 17.3259 35.1627 16.7842C35.4696 15.7231 36.351 15.0654 37.7015 15.061Z" fill="#1500FF"/>
<path d="M13.0414 19.9545C12.6468 20.0948 12.5372 19.8887 12.4451 19.6037C12.2259 18.9328 12.2171 18.9372 11.5287 18.9372C11.1121 18.9372 10.6912 18.9372 10.2746 18.9372C10.108 18.9372 10.0071 18.9811 9.97205 19.1564C9.94777 19.2511 9.91549 19.3435 9.87558 19.4327C9.66511 19.9983 9.66511 19.9896 9.08631 19.9983C8.83199 19.9983 8.78814 19.9545 8.88461 19.7133C9.32309 18.582 9.76158 17.4464 10.2001 16.3107C10.3185 16.0125 10.4368 15.7187 10.5421 15.4337C10.5619 15.3543 10.6106 15.2851 10.6787 15.2397C10.7469 15.1943 10.8295 15.1759 10.9104 15.1882C11.5725 15.1882 11.5813 15.1882 11.8181 15.7845C12.3355 17.1 12.85 18.4154 13.3615 19.7309C13.5808 20.2527 13.0941 19.8536 13.0414 19.9545ZM11.1297 16.052C10.8534 16.793 10.621 17.442 10.3755 18.0865C10.3228 18.2269 10.3053 18.3102 10.507 18.3102C10.9455 18.3102 11.3401 18.3102 11.7567 18.3102C11.8795 18.3102 11.9628 18.2882 11.9058 18.1435C11.6602 17.477 11.4147 16.8149 11.1297 16.052Z" fill="#1500FF"/>
<path d="M27.2966 15.1879C27.6956 15.0564 27.8228 15.2931 27.9455 15.6264C28.4673 17.0032 29.0067 18.3757 29.546 19.7438C29.6249 19.9498 29.6118 20.0112 29.375 20.0025C28.6208 19.9718 28.7874 20.1384 28.5463 19.4017C28.5343 19.3256 28.5069 19.2526 28.4657 19.1874C28.4245 19.1222 28.3704 19.0662 28.3068 19.0226C28.2431 18.9791 28.1712 18.949 28.0955 18.9343C28.0199 18.9196 27.9419 18.9205 27.8666 18.9369C27.4051 18.9633 26.9425 18.9633 26.481 18.9369C26.2837 18.9369 26.1697 18.9939 26.1214 19.1869C26.0973 19.2725 26.0665 19.356 26.0294 19.4368C25.8233 20.0068 25.8233 19.9981 25.2138 19.9981C24.9901 19.9981 24.9551 19.9455 25.0384 19.7394C25.5324 18.4795 26.025 17.221 26.5161 15.964C26.5663 15.8526 26.6103 15.7384 26.6476 15.622C26.7309 15.2844 26.9019 15.0651 27.2966 15.1879ZM27.3317 16.1613H27.2571L26.5117 18.1477C26.4591 18.2924 26.5117 18.3187 26.6564 18.3187C27.0949 18.3187 27.5334 18.3187 27.9411 18.3187C28.0858 18.3187 28.1078 18.2617 28.0639 18.1345C27.8184 17.4768 27.5728 16.8147 27.3317 16.1613V16.1613Z" fill="#1500FF"/>
<path d="M0.641602 17.5253C0.641602 16.8105 0.641602 16.0958 0.641602 15.3767C0.641602 15.1618 0.698603 15.0829 0.917846 15.0961C1.5668 15.1311 2.2333 15.0522 2.86472 15.1487C3.04688 15.1625 3.22451 15.2122 3.38739 15.295C3.55026 15.3777 3.69517 15.4919 3.81376 15.6309C3.93235 15.7698 4.02229 15.9309 4.0784 16.1047C4.13451 16.2786 4.15569 16.4618 4.14071 16.6439C4.14592 17.0044 4.0122 17.353 3.76728 17.6175C3.52236 17.882 3.18504 18.0421 2.82525 18.0646C2.53147 18.0953 2.2333 18.0953 1.94828 18.0997C1.5098 18.0997 1.5098 18.0997 1.5098 18.5382C1.5098 18.9766 1.5098 19.3318 1.5098 19.7265C1.5098 19.9325 1.44403 19.9852 1.24671 19.9852C0.681064 19.9852 0.681064 19.9852 0.681064 19.4327V17.5165L0.641602 17.5253ZM1.45718 16.6001C1.45718 17.477 1.45718 17.477 2.36485 17.4288C2.41746 17.4288 2.47447 17.4288 2.52708 17.4288C2.66047 17.4247 2.7908 17.3878 2.90651 17.3213C3.02222 17.2549 3.11975 17.1609 3.19044 17.0477C3.26113 16.9345 3.3028 16.8056 3.31176 16.6724C3.32073 16.5393 3.2967 16.406 3.24182 16.2843C3.11465 15.916 2.85156 15.7669 2.31223 15.7669C1.45718 15.7626 1.45718 15.7626 1.45718 16.6001Z" fill="#1500FF"/>
<path d="M31.7343 17.9155C31.7343 18.5206 31.7343 19.1257 31.7343 19.7308C31.7343 19.9193 31.7036 19.9983 31.4844 19.9983C30.9056 19.9983 30.9056 19.9983 30.9056 19.4326C30.9056 18.3101 30.9056 17.1876 30.9056 16.0651C30.9056 15.8239 30.8442 15.7318 30.5942 15.7493C30.3443 15.7669 29.9979 15.7493 29.7173 15.7493C29.4366 15.7493 29.4937 15.5959 29.5068 15.4424C29.52 15.2889 29.4103 15.096 29.7041 15.096C30.7959 15.096 31.8965 15.096 32.9752 15.096C33.2339 15.096 33.1769 15.2758 33.1769 15.4161C33.1769 15.5564 33.2471 15.7669 32.9621 15.7581C32.677 15.7493 32.3 15.7581 31.9711 15.7581C31.7825 15.7581 31.7255 15.8107 31.7299 16.0037C31.7299 16.6439 31.7299 17.2797 31.7299 17.9198L31.7343 17.9155Z" fill="#1500FF"/>
<path d="M34.4308 17.5823C34.4308 18.2839 34.4308 18.9898 34.4308 19.6914C34.4308 19.915 34.3913 20.0027 34.1458 19.9984C33.6021 19.9984 33.6021 19.9984 33.6021 19.4634C33.6021 18.1216 33.6021 16.7799 33.6021 15.4381C33.6021 15.1575 33.6854 15.0566 33.9528 15.1005C33.9963 15.1092 34.041 15.1092 34.0844 15.1005C34.3475 15.061 34.4483 15.1487 34.4396 15.4381C34.4176 16.1616 34.4308 16.8676 34.4308 17.5823Z" fill="#1500FF"/>
<path d="M52.8211 14.0787C52.3043 14.1034 51.7895 13.9988 51.3232 13.7745C50.857 13.5501 50.454 13.2132 50.1507 12.794C49.9131 12.5212 49.7869 12.1688 49.7975 11.8072C49.8081 11.4455 49.9545 11.1012 50.2077 10.8427C50.3943 10.6672 50.627 10.5486 50.8786 10.5007C51.5013 10.3401 52.1568 10.36 52.7686 10.558C53.3804 10.7559 53.9233 11.1239 54.3339 11.6188C54.5441 11.8256 54.6893 12.0894 54.7516 12.3776C54.814 12.6659 54.7907 12.966 54.6846 13.2412C54.4435 13.8156 53.891 13.9647 53.3341 14.0524C53.1637 14.0705 52.9924 14.0793 52.8211 14.0787V14.0787Z" fill="#1500FF"/>
<path d="M54.1858 19.9894C53.8701 20.0858 53.7473 19.8841 53.6421 19.5509C53.436 18.9151 53.4185 18.9195 52.7388 18.9195C52.3003 18.9195 51.9013 18.9195 51.4804 18.9195C51.4154 18.9091 51.349 18.9244 51.295 18.962C51.241 18.9996 51.2038 19.0567 51.191 19.1212C51.1603 19.2264 51.1208 19.3317 51.0813 19.4325C50.8753 19.9894 50.8709 19.9762 50.2745 19.985C50.0071 19.985 50.0158 19.8973 50.0948 19.7C50.5332 18.5424 51.0068 17.3848 51.4584 16.2316C51.5724 15.9422 51.6952 15.6615 51.7917 15.3546C51.8035 15.2907 51.8389 15.2335 51.8909 15.1945C51.9429 15.1555 52.0076 15.1375 52.0723 15.1441C52.7958 15.1047 52.8002 15.0959 53.0589 15.7624C53.5544 17.0252 54.0411 18.2837 54.5322 19.5465C54.6945 19.9894 54.6901 19.9894 54.1858 19.9894ZM52.3749 16.1614H52.3003C52.0679 16.8016 51.8355 17.4418 51.5944 18.0776C51.5417 18.2135 51.5067 18.3144 51.7128 18.3144H53.0019C53.1203 18.3144 53.1641 18.2617 53.1247 18.1477L52.3749 16.1614Z" fill="#1500FF"/>
<path d="M44.0698 15.1005C44.4446 15.0909 44.8195 15.1055 45.1924 15.1443C45.3778 15.1575 45.5588 15.2076 45.7247 15.2916C45.8906 15.3756 46.0381 15.4919 46.1585 15.6335C46.279 15.7752 46.37 15.9395 46.4262 16.1167C46.4824 16.294 46.5027 16.4807 46.4859 16.6658C46.4826 17.0339 46.3361 17.3863 46.0774 17.6482C45.8188 17.9101 45.4683 18.061 45.1003 18.069C44.7488 18.0975 44.396 18.1063 44.0435 18.0953C43.855 18.0953 43.798 18.1479 43.8024 18.3365C43.8024 18.775 43.8024 19.2617 43.8024 19.7221C43.8024 19.9194 43.7585 19.9939 43.548 19.9939C42.9736 19.9939 42.9736 19.9939 42.9736 19.4239C42.9736 18.0778 42.9736 16.736 42.9736 15.3899C42.9736 15.1487 43.0438 15.0829 43.2674 15.0961C43.491 15.1092 43.8068 15.1005 44.0698 15.1005ZM44.4338 15.7713C43.8068 15.7713 43.8068 15.7713 43.8068 16.3808V16.5124C43.8068 17.5165 43.8068 17.5165 44.8021 17.4376C44.9115 17.435 45.0193 17.4109 45.1194 17.3666C45.2195 17.3224 45.3099 17.2588 45.3854 17.1796C45.461 17.1004 45.5202 17.0071 45.5596 16.9051C45.5991 16.803 45.6181 16.6941 45.6155 16.5847C45.6129 16.4753 45.5888 16.3675 45.5445 16.2674C45.5003 16.1673 45.4367 16.0769 45.3575 16.0014C45.2783 15.9259 45.185 15.8667 45.083 15.8272C44.9809 15.7877 44.8721 15.7687 44.7627 15.7713C44.653 15.767 44.5434 15.7713 44.4338 15.7713V15.7713Z" fill="#1500FF"/>
<path d="M55.8916 17.3455L56.8694 15.4863C56.9396 15.3548 56.9528 15.1487 57.1238 15.1224C57.3736 15.0829 57.6281 15.0829 57.878 15.1224C58.049 15.1487 57.9087 15.2802 57.878 15.3504C57.4395 16.2011 56.9615 17.0517 56.4836 17.8936C56.3551 18.1106 56.2941 18.3609 56.3082 18.6127C56.3082 18.9898 56.3082 19.3625 56.3082 19.7352C56.3082 19.9457 56.2424 19.9983 56.0451 19.9983C55.4751 19.9983 55.44 19.9983 55.4838 19.459C55.5617 18.6467 55.3539 17.8326 54.8963 17.157C54.5192 16.5913 54.2429 15.9599 53.9009 15.3679C53.765 15.1355 53.8395 15.1268 54.0675 15.0961C54.1698 15.0713 54.2759 15.067 54.3798 15.0833C54.4837 15.0997 54.5833 15.1364 54.673 15.1915C54.7626 15.2465 54.8405 15.3187 54.9021 15.4039C54.9638 15.4891 55.008 15.5857 55.0322 15.688C55.2602 16.2361 55.5803 16.7492 55.8916 17.3455Z" fill="#1500FF"/>
<path d="M47.0669 17.556C47.0669 16.8281 47.0669 16.1002 47.0669 15.3636C47.0669 15.1356 47.1371 15.083 47.3475 15.0873C48.0096 15.1093 47.8956 15.0216 47.9 15.6223C47.9 16.758 47.9 17.8936 47.9 19.0293C47.9 19.3012 47.9746 19.367 48.2333 19.3494C48.6191 19.3494 49.005 19.3494 49.3909 19.3494C49.5838 19.3494 49.711 19.3494 49.6715 19.6125C49.6452 19.7923 49.7592 20.0071 49.4084 19.994C48.7156 19.9677 48.0228 19.994 47.3256 19.994C47.1283 19.994 47.0669 19.9457 47.0713 19.7353C47.0801 19.0118 47.0669 18.2839 47.0669 17.556Z" fill="#1500FF"/>
</svg>
