<svg width="81" height="28" viewBox="0 0 81 28" fill="none" xmlns="http://www.w3.org/2000/svg">
<path d="M26.2613 8.68345C26.1886 8.53628 26.062 8.36628 25.9208 8.31109C25.0348 7.98695 24.1215 7.73259 23.2475 7.38053C21.8469 6.81534 20.6298 5.94439 19.5216 4.92629C18.4134 3.90818 17.5324 2.72895 16.7957 1.42793C16.7688 1.38765 16.7341 1.3532 16.6936 1.32662C16.6532 1.30003 16.6078 1.28185 16.5602 1.27316C15.6432 1.15707 14.7248 1.05304 13.8116 0.946472C12.8793 1.05367 11.9692 1.14566 11.0635 1.27379C10.9748 1.29336 10.8909 1.3307 10.817 1.38357C10.743 1.43644 10.6805 1.50374 10.6331 1.58144C10.0248 2.69269 9.25716 3.7085 8.35468 4.59644C7.48526 5.46988 6.49625 6.21487 5.41739 6.80899C4.47184 7.32788 3.51299 7.81251 2.46237 8.05926C1.80985 8.21214 1.30036 8.46017 1.16366 9.18077C1.15859 9.20995 1.12948 9.23405 1.11619 9.2626C0.630122 10.3118 0.327596 11.4193 0.127599 12.5516C0.0832961 12.8015 0.171275 12.9792 0.338994 13.1745C0.832023 13.7454 1.31809 14.3322 1.75606 14.9507C2.8168 16.4414 3.46489 18.1141 3.83324 19.8985C4.13004 21.3169 4.18376 22.7755 3.9921 24.212C3.95729 24.4657 4.02943 24.6389 4.2193 24.8209C5.21486 25.7769 6.34648 26.5368 7.55659 27.1832C7.73369 27.2642 7.93417 27.2777 8.12051 27.2212C8.76986 27.0106 9.39453 26.7188 10.049 26.5311C11.8563 26.0047 13.7538 25.8651 15.6185 26.1213C16.7931 26.2831 17.9349 26.5507 19.0248 27.0271C19.7501 27.3443 19.7539 27.338 20.4709 26.9586C21.6551 26.3325 22.7345 25.525 23.6702 24.5653C23.7824 24.4366 23.841 24.2697 23.8342 24.099C23.7437 22.9477 23.7266 21.8009 23.8975 20.6546C24.1176 19.1181 24.6002 17.631 25.324 16.2587C25.8556 15.2571 26.4525 14.3043 27.2328 13.4873C27.5246 13.1815 27.5746 12.8973 27.5101 12.5231C27.2799 11.1897 26.8594 9.89659 26.2613 8.68345ZM13.8407 24.8723C8.22936 24.8723 3.89526 20.373 3.72817 15.1778C3.5383 9.22771 8.28506 4.83811 13.5546 4.72076C19.4228 4.58755 23.8937 9.27656 23.9462 14.6843C23.9987 20.3324 19.3842 24.8786 13.8407 24.8723ZM56.4013 17.7208C56.4013 16.0715 56.4013 14.4223 56.4013 12.773C56.4013 11.1563 56.4013 9.53938 56.4013 7.92225C56.4013 7.14519 56.1146 6.8534 55.3355 6.85023C54.06 6.84473 52.7845 6.84473 51.509 6.85023C51.372 6.85119 51.2353 6.86328 51.1002 6.88638C50.7204 6.94981 50.4844 7.20355 50.4356 7.58415C50.4159 7.7303 50.4053 7.87754 50.404 8.02501C50.4014 11.1003 50.4014 14.1755 50.404 17.2508C50.404 17.4303 50.4071 17.6104 50.4236 17.7887C50.4837 18.4344 50.7325 18.6641 51.3767 18.6647C52.7371 18.6647 54.0969 18.6647 55.4564 18.6647C56.1083 18.6628 56.3988 18.3742 56.3988 17.7208H56.4013ZM54.5849 16.7979C54.5849 17.0326 54.5052 17.1188 54.2735 17.115C53.7039 17.1049 53.1343 17.1011 52.5647 17.115C52.3033 17.1214 52.2166 17.0275 52.2185 16.7655C52.2286 15.4334 52.2229 14.1013 52.2229 12.7692C52.2229 11.4479 52.2305 10.1272 52.2172 8.80651C52.2172 8.5033 52.3071 8.39229 52.6141 8.40308C53.1615 8.42274 53.7103 8.41513 54.2596 8.40688C54.5033 8.40307 54.5906 8.49759 54.59 8.74498C54.5799 11.4299 54.5773 14.1142 54.5824 16.7979H54.5849ZM80.7718 18.4046C80.3765 17.3267 79.9818 16.2483 79.5877 15.1695C79.3756 14.5872 79.1655 14.0043 78.9295 13.3522C79.1307 13.3426 79.2636 13.3338 79.3965 13.3299C80.2516 13.3052 80.532 13.0198 80.532 12.1736C80.532 10.7357 80.532 9.29791 80.532 7.86008C80.532 7.15597 80.2345 6.85276 79.5294 6.85085C78.0535 6.84705 76.577 6.85593 75.0991 6.85085C74.8314 6.85085 74.7194 6.93332 74.7276 7.21623C74.7434 7.78713 74.7314 8.35803 74.7314 8.92894C74.7314 12.0482 74.7302 15.167 74.7276 18.2854C74.7276 18.5683 74.7909 18.6926 75.0966 18.6717C75.4549 18.6482 75.8143 18.6482 76.1725 18.6717C76.4624 18.6907 76.5523 18.5987 76.5523 18.3006C76.5384 16.7046 76.5453 15.108 76.5459 13.5114C76.5459 11.9255 76.5459 10.3397 76.5459 8.75386C76.5459 8.58513 76.5105 8.40244 76.782 8.40624C77.3402 8.41449 77.8997 8.41259 78.4586 8.40624C78.6446 8.40624 78.7244 8.4811 78.7238 8.67076C78.72 9.71742 78.72 10.7643 78.7238 11.8114C78.7238 11.9978 78.6484 12.0778 78.4586 12.0746C78.0896 12.0683 77.7187 12.0949 77.3516 12.0702C77.0567 12.0511 77.008 12.1767 76.9966 12.4387C76.9719 13.0096 77.1061 13.5348 77.3061 14.0683C77.8504 15.5197 78.351 16.9863 78.8826 18.4452C78.9116 18.5004 78.953 18.5481 79.0035 18.5846C79.054 18.621 79.1123 18.6452 79.1738 18.6552C79.6478 18.678 80.1231 18.6628 80.5971 18.6679C80.7946 18.6672 80.8326 18.5765 80.7693 18.4046H80.7718ZM36.2586 14.6081C36.1112 14.2066 35.9776 13.8 35.8156 13.3274C36.0371 13.3274 36.201 13.3319 36.3643 13.3274C37.0466 13.3046 37.4207 13.0267 37.4276 12.4565C37.4466 10.8918 37.4466 9.32708 37.4276 7.76239C37.4213 7.17246 37.1415 6.9181 36.5498 6.86355C36.4232 6.85213 36.2966 6.85212 36.17 6.85149H32.0562C31.6321 6.85149 31.6321 6.85149 31.6321 7.28855C31.6321 10.7871 31.6321 14.2857 31.6321 17.7843C31.6321 18.6647 31.6321 18.6647 32.5055 18.666C33.4473 18.666 33.4448 18.666 33.4441 17.7202C33.4416 14.7502 33.4416 11.7803 33.4441 8.81031C33.4441 8.41386 33.4505 8.40688 33.8555 8.40624C34.3511 8.40624 34.8466 8.41386 35.3422 8.40624C35.5447 8.40244 35.6251 8.47349 35.6245 8.68092C35.6181 9.71657 35.6181 10.7527 35.6245 11.7892C35.6245 12.0036 35.5568 12.0905 35.3289 12.0809C34.9289 12.0638 34.5277 12.067 34.1264 12.0854C34.0448 12.0892 33.8998 12.1958 33.8992 12.2554C33.8992 12.7146 33.8327 13.1726 34.0258 13.6268C34.2663 14.1869 34.4403 14.7756 34.6454 15.3509C35.015 16.3849 35.3814 17.4201 35.765 18.449C35.7933 18.5029 35.8338 18.5495 35.8833 18.5849C35.9327 18.6204 35.9897 18.6438 36.0498 18.6533C36.5124 18.6755 36.977 18.6609 37.4422 18.666C37.6561 18.666 37.7352 18.5949 37.6536 18.3774C37.1852 17.1218 36.7194 15.8654 36.2561 14.6081H36.2586ZM49.5496 6.84578C49.2242 6.86925 48.8964 6.85085 48.5692 6.85149C48.0768 6.85149 48.066 6.86354 47.9888 7.34373C47.6576 9.39644 47.3253 11.4487 46.992 13.5006C46.9287 13.9009 46.8559 14.2999 46.7876 14.6995L46.7015 14.6957C46.6809 14.649 46.6644 14.6006 46.6521 14.551C46.4441 13.2587 46.2367 11.9661 46.03 10.6734C45.8439 9.50618 45.6593 8.33837 45.4762 7.16993C45.4389 6.92951 45.3256 6.83373 45.0737 6.84705C44.6845 6.86735 44.2927 6.86418 43.9035 6.84705C43.6718 6.8369 43.5965 6.91048 43.6395 7.13884C43.7699 7.82329 43.8876 8.50964 44.0193 9.19409C44.3357 10.8313 44.6617 12.4673 44.9737 14.1057C45.2477 15.5457 45.5104 16.9875 45.7711 18.43C45.8047 18.6152 45.892 18.6704 46.0699 18.6672C46.5129 18.6584 46.9559 18.6584 47.399 18.6672C47.5888 18.6717 47.6635 18.5899 47.6952 18.4179C47.8382 17.6496 47.9842 16.882 48.1331 16.1153C48.5395 14.0009 48.9462 11.8864 49.3534 9.77197C49.5192 8.91118 49.6787 8.04975 49.8527 7.19023C49.9046 6.91747 49.8268 6.82548 49.5464 6.84578H49.5496ZM68.2157 6.84578C67.8258 6.8572 67.4347 6.86228 67.0455 6.84135C66.8018 6.82866 66.7062 6.92 66.6733 7.15343C66.598 7.68627 66.5062 8.21658 66.4202 8.74752C66.1759 10.2255 65.9305 11.7037 65.6841 13.1822C65.6037 13.6642 65.5183 14.1457 65.4347 14.6272C65.3951 14.6063 65.3603 14.5771 65.333 14.5415C65.3057 14.5059 65.2864 14.4648 65.2765 14.421C65.0822 13.2335 64.893 12.0448 64.7018 10.8567C64.5018 9.61655 64.3044 8.3758 64.0936 7.13694C64.0765 7.03545 63.967 6.87179 63.8955 6.86862C63.3519 6.84578 62.8069 6.85593 62.2399 6.85593C62.4031 7.76874 62.5519 8.63904 62.7158 9.50745C63.1078 11.5796 63.5031 13.6518 63.9019 15.7239C64.0696 16.605 64.2373 17.4867 64.3961 18.3704C64.4348 18.586 64.5303 18.6729 64.755 18.6653C65.1866 18.6514 65.6195 18.6603 66.0518 18.6653C66.2316 18.6653 66.305 18.5873 66.3404 18.4078C66.7121 16.4266 67.0885 14.4468 67.4695 12.4685C67.8068 10.7063 68.1436 8.94416 68.4916 7.18452C68.5385 6.92761 68.4714 6.84071 68.2125 6.84769L68.2157 6.84578ZM42.8997 17.0713C42.0877 17.0801 41.2756 17.0675 40.4643 17.0776C40.2149 17.0776 40.1117 17.018 40.1168 16.7389C40.1345 15.7349 40.1345 14.731 40.1168 13.727C40.1111 13.4492 40.2029 13.3794 40.4567 13.3839C41.1313 13.3947 41.806 13.3839 42.482 13.3883C42.6952 13.3883 42.7851 13.3192 42.7725 13.0908C42.7557 12.7635 42.7557 12.4355 42.7725 12.1082C42.7832 11.8697 42.6914 11.7955 42.456 11.7999C41.7921 11.8114 41.1269 11.7904 40.4643 11.8094C40.1782 11.8177 40.1079 11.7162 40.1124 11.4441C40.1276 10.578 40.1276 9.71107 40.1124 8.8433C40.1067 8.54707 40.1858 8.42971 40.4997 8.43733C41.2896 8.45572 42.082 8.43733 42.8712 8.44748C43.1035 8.44748 43.1952 8.37326 43.1876 8.13792C43.1756 7.82075 43.1731 7.50359 43.1914 7.18642C43.2073 6.92507 43.1155 6.84008 42.8516 6.84198C41.4706 6.8534 40.0896 6.84769 38.7086 6.84896C38.313 6.84896 38.2978 6.86418 38.2978 7.25747C38.2978 9.09661 38.2978 10.9362 38.2978 12.7762H38.2941V13.1251C38.2941 14.8589 38.2941 16.5928 38.2941 18.3266C38.2941 18.5251 38.2991 18.6691 38.57 18.6672C40.0244 18.6579 41.4801 18.6579 42.937 18.6672C43.1528 18.6672 43.2414 18.6038 43.2326 18.378C43.2142 18.0507 43.2142 17.7227 43.2326 17.3954C43.2427 17.1283 43.1294 17.0706 42.8908 17.0732L42.8997 17.0713ZM73.9884 18.3596C73.971 18.0427 73.971 17.725 73.9884 17.4081C74.0105 17.1258 73.8897 17.0681 73.6409 17.0713C72.808 17.0808 71.9751 17.0713 71.1422 17.0757C70.9429 17.0757 70.865 17.0192 70.8669 16.8042C70.8771 15.7685 70.8771 14.7325 70.8669 13.696C70.8669 13.4644 70.9302 13.3788 71.1701 13.3864C71.8549 13.401 72.5403 13.3864 73.2258 13.3921C73.4542 13.3921 73.5498 13.3287 73.5333 13.0826C73.5143 12.7657 73.5143 12.4479 73.5333 12.1311C73.546 11.8824 73.4561 11.7949 73.2068 11.7987C72.5429 11.8107 71.8777 11.7885 71.215 11.8069C70.946 11.8145 70.8669 11.7238 70.8701 11.465C70.8802 10.5668 70.8834 9.66857 70.8657 8.77035C70.8606 8.49124 70.9676 8.43479 71.2169 8.4386C72.0289 8.45001 72.8409 8.4386 73.6523 8.44621C73.8517 8.44621 73.9485 8.39927 73.9441 8.18613C73.9365 7.8271 73.9403 7.46743 73.9441 7.10776C73.9441 6.90541 73.8631 6.84324 73.6542 6.84451C72.2732 6.85403 70.8922 6.84451 69.5113 6.84451C69.0739 6.84451 69.0682 6.85276 69.0682 7.28855C69.0682 9.11712 69.0682 10.9457 69.0682 12.7743C69.0682 14.624 69.0682 16.4735 69.0682 18.3228C69.0682 18.5226 69.0752 18.6704 69.3435 18.6691C70.7984 18.6594 72.254 18.6579 73.7105 18.6647C73.9289 18.6685 73.9953 18.5696 73.9884 18.3596ZM61.7247 18.666C61.919 18.666 61.9899 18.5898 61.9873 18.4046C61.9829 18.0456 61.9753 17.6859 61.9873 17.3263C61.9975 17.082 61.8962 17.0199 61.6709 17.0237C60.9747 17.0345 60.2785 17.0237 59.5823 17.0237C59.1627 17.0237 59.1557 17.018 59.1557 16.6018C59.1557 13.8446 59.1557 11.0872 59.1557 8.32949C59.1557 7.93874 59.1481 7.54736 59.1557 7.15661C59.1614 6.9219 59.0614 6.83944 58.8342 6.83944C58.4545 6.84896 58.0747 6.85783 57.695 6.83563C57.3975 6.81787 57.3235 6.93078 57.3254 7.21623C57.3368 9.0558 57.3311 10.8954 57.3311 12.7311C57.3311 14.591 57.3311 16.4502 57.3273 18.3095C57.3273 18.541 57.3747 18.6584 57.6399 18.6565C59.0036 18.6543 60.3652 18.6571 61.7247 18.666ZM56.7475 22.8348C56.3682 22.8113 55.9877 22.8113 55.6083 22.8348C55.5191 22.8399 55.4374 22.9674 55.3552 23.0391C55.4457 23.1025 55.5311 23.1989 55.6286 23.2116C55.8388 23.2336 56.0506 23.2368 56.2615 23.2211C56.4475 23.2122 56.5425 23.2674 56.5146 23.4717C56.502 23.5757 56.5438 23.695 56.507 23.7851C56.4703 23.8751 56.3684 24.0039 56.2912 24.0064C55.7216 24.0248 55.152 24.0134 54.5824 24.0178C54.4064 24.0178 54.3387 23.943 54.34 23.7692C54.3457 23.2509 54.333 22.7327 54.352 22.2157C54.352 22.1383 54.4893 22.0032 54.5666 22.0007C55.1457 21.9823 55.726 21.9848 56.3058 22.0007C56.3501 22.0091 56.3916 22.0284 56.4265 22.057C56.4615 22.0856 56.4887 22.1225 56.5058 22.1643C56.5292 22.3248 56.5418 22.425 56.7507 22.3781C56.9336 22.3369 57.0039 22.2512 56.9741 22.0711C56.9342 21.8173 56.821 21.627 56.5355 21.6207C56.1558 21.6137 55.776 21.6207 55.3963 21.6207V21.6042C55.0799 21.6042 54.7634 21.5953 54.4469 21.6042C54.0425 21.6194 53.8653 21.785 53.8558 22.1815C53.8427 22.7312 53.8438 23.281 53.859 23.8307C53.8691 24.205 54.0229 24.4016 54.3558 24.4086C55.0716 24.4308 55.7887 24.4264 56.5077 24.4086C56.807 24.4023 56.9621 24.1993 56.9748 23.9087C56.9922 23.6239 56.989 23.3381 56.9653 23.0537C56.9577 22.9718 56.8279 22.8393 56.7475 22.8348ZM80.6535 21.856C80.563 21.7203 80.3294 21.6182 80.1573 21.6106C79.5041 21.5839 78.8497 21.5934 78.1953 21.6106C77.7915 21.6188 77.6364 21.766 77.6257 22.1662C77.608 22.7261 77.6067 23.2865 77.6219 23.8472C77.6314 24.2031 77.7909 24.4023 78.0978 24.4111C78.8143 24.4314 79.5313 24.427 80.2497 24.4168C80.5123 24.4168 80.7003 24.2602 80.7225 23.9931C80.7452 23.6663 80.7471 23.3383 80.7281 23.0112C80.7173 22.9703 80.6962 22.9328 80.6669 22.9024C80.6375 22.872 80.6009 22.8496 80.5604 22.8374C80.1503 22.8234 79.7377 22.8209 79.3282 22.8431C79.2522 22.8469 79.1839 22.9813 79.1117 23.0549C79.1851 23.1114 79.2541 23.2078 79.332 23.2161C79.5525 23.2368 79.7744 23.2385 79.9953 23.2211C80.2237 23.2046 80.3028 23.2992 80.275 23.5161C80.2661 23.5896 80.2661 23.664 80.275 23.7375C80.3003 23.9646 80.1978 24.028 79.9807 24.0229C79.4541 24.0102 78.9263 24.014 78.3984 24.0229C78.1883 24.0229 78.0928 23.9658 78.0997 23.7343C78.1149 23.2484 78.1181 22.7612 78.0997 22.2753C78.0909 22.0356 78.1915 21.988 78.3978 21.9918C78.851 22 79.3048 21.9918 79.7579 21.9918C80.037 21.9918 80.3699 21.9049 80.2984 22.3762C80.7421 22.3603 80.8699 22.1815 80.6535 21.856ZM67.1803 21.6258C67.0316 21.6492 66.8575 21.7013 66.7575 21.8053C66.5986 21.9696 66.4955 22.1859 66.3619 22.3762C66.1297 22.7054 65.8923 23.0315 65.6335 23.3911L65.1613 22.7657C64.9012 22.4206 64.655 22.0679 64.374 21.7361C64.3031 21.6524 64.1398 21.6315 64.0151 21.6201C63.9848 21.6169 63.9075 21.7647 63.9063 21.8434C63.8968 22.6255 63.8924 23.4076 63.9063 24.1904C63.9063 24.2703 64.0462 24.3483 64.1208 24.427C64.1905 24.3477 64.3177 24.2703 64.3208 24.1885C64.3392 23.6924 64.3284 23.1951 64.3303 22.6984C64.3303 22.6001 64.3423 22.5018 64.3493 22.4035H64.4234C64.7582 22.8608 65.0993 23.3131 65.424 23.7768C65.6025 24.0305 65.6828 24.0502 65.8518 23.8028C66.0955 23.4463 66.3303 23.0835 66.574 22.7244C66.6468 22.6185 66.7392 22.5253 66.8822 22.3546C66.8822 23.0035 66.8822 23.5503 66.8822 24.0971C66.8822 24.2532 66.8429 24.4321 67.0948 24.4308C67.3271 24.4308 67.3309 24.2729 67.3303 24.1041C67.3303 23.3854 67.3366 22.6667 67.3233 21.9474C67.3208 21.8338 67.2132 21.6207 67.1803 21.6258ZM75.2181 21.5985C75.1377 21.6841 75.0036 21.7615 74.9877 21.8579C74.9523 22.0743 74.9751 22.302 74.9751 22.5215V23.6062L74.8941 23.636C74.6637 23.4254 74.4346 23.2129 74.2023 23.0017C73.7257 22.5716 73.253 22.1377 72.765 21.7197C72.6653 21.6504 72.5449 21.6175 72.4239 21.6264C72.391 21.6264 72.3372 21.8015 72.3359 21.8966C72.3277 22.6464 72.3359 23.3962 72.3258 24.146C72.3258 24.328 72.3789 24.4264 72.5726 24.4264C72.7878 24.4264 72.7625 24.2716 72.7625 24.1371C72.7625 23.6829 72.7625 23.2287 72.7625 22.7746C72.7625 22.6445 72.7802 22.5138 72.7903 22.3718C72.8599 22.3882 72.8979 22.3857 72.9169 22.4035C73.4063 22.85 73.8945 23.2979 74.3814 23.747C74.5985 23.9455 74.8074 24.1574 75.0409 24.3344C75.2618 24.5018 75.4206 24.4333 75.4206 24.191C75.4206 23.4095 75.4206 22.628 75.4061 21.844C75.4055 21.7647 75.2833 21.6822 75.2169 21.5991L75.2181 21.5985ZM60.8019 21.8637C60.5842 21.4831 60.2323 21.4831 60.0095 21.8598C59.8658 22.1047 59.719 22.3483 59.5842 22.5982C59.2678 23.1799 58.9633 23.7641 58.6405 24.3743C58.969 24.512 59.1469 24.3896 59.2298 24.139C59.3393 23.8174 59.5412 23.7032 59.8753 23.7292C60.2113 23.7562 60.5489 23.7562 60.8848 23.7292C61.2095 23.7026 61.3911 23.8275 61.5126 24.1219C61.6544 24.4619 61.762 24.4911 62.1607 24.3521C61.9019 23.8802 61.6456 23.4146 61.3905 22.9484C61.1937 22.5855 61.0044 22.2208 60.8019 21.8637ZM59.6855 23.3328L60.3424 22.0489L60.4405 22.059L61.0854 23.3328H59.6855ZM70.0562 23.0232H70.0505C70.0505 22.6318 70.0473 22.2411 70.0505 21.8497C70.0505 21.6829 69.9992 21.596 69.815 21.596C69.6309 21.596 69.5707 21.6791 69.5707 21.8497C69.5707 22.6217 69.5707 23.3937 69.5707 24.165C69.5707 24.3553 69.6435 24.4352 69.8334 24.4321C70.0233 24.4289 70.0625 24.3344 70.0593 24.1682C70.0511 23.7844 70.0562 23.4038 70.0562 23.0232ZM12.7679 15.0382C13.1679 14.9659 13.3774 14.721 13.3786 14.3189C13.3843 13.0077 13.3875 11.6972 13.3786 10.386C13.3748 9.83477 13.1027 9.58103 12.5559 9.5804C11.3223 9.5804 10.0876 9.59182 8.8553 9.57215C8.52683 9.56708 8.45088 9.67174 8.45215 9.98574C8.46417 12.5123 8.45974 15.0382 8.45974 17.5648C8.45974 18.1566 8.4686 18.7491 8.45151 19.3409C8.44265 19.6371 8.53252 19.7729 8.84517 19.7462C9.09798 19.7272 9.35185 19.7272 9.60466 19.7462C9.8844 19.7659 9.9844 19.6828 9.9844 19.3771C9.97111 16.6818 9.9844 13.9852 9.97111 11.2906C9.97111 10.9778 10.0724 10.8865 10.3692 10.9017C10.7686 10.9227 11.1698 10.9157 11.5717 10.9074C11.778 10.903 11.8799 10.9588 11.8774 11.1916C11.8685 12.0687 11.8685 12.946 11.8774 13.8235C11.8774 14.0195 11.8072 14.0912 11.6242 14.0893C11.2869 14.0854 10.9489 14.0797 10.6116 14.0969C10.5344 14.1007 10.3977 14.1933 10.3977 14.2453C10.3977 14.5625 10.3629 14.8961 10.461 15.1854C10.9546 16.6545 11.4837 18.1116 12.0065 19.5705C12.0306 19.6378 12.1116 19.7304 12.1679 19.7323C12.6375 19.745 13.1084 19.7393 13.6565 19.7393L12.0109 15.1397C12.2951 15.101 12.5337 15.0807 12.7679 15.0382ZM17.9684 12.7039C18.295 12.6969 18.6222 12.6956 18.9494 12.7039C19.1602 12.7102 19.2507 12.6442 19.2456 12.4133C19.2323 11.7689 19.2456 11.1237 19.2418 10.4786C19.238 9.8335 18.983 9.5804 18.3349 9.57976C17.2912 9.57976 16.2463 9.57977 15.2033 9.57596C14.4894 9.57596 14.2426 9.82271 14.2426 10.5478C14.2426 11.9116 14.2426 13.2754 14.2426 14.6392C14.2426 16.0665 14.2426 17.4937 14.2426 18.921C14.2426 19.4614 14.4736 19.7285 14.9868 19.7342C16.1683 19.7477 17.3497 19.7477 18.5311 19.7342C18.9741 19.7291 19.2273 19.4805 19.233 19.0428C19.2463 17.5419 19.238 16.0411 19.2412 14.539C19.2412 14.3544 19.1653 14.2681 18.9773 14.2688C18.2602 14.2688 17.5431 14.2643 16.8254 14.2726C16.7482 14.2726 16.6064 14.3474 16.6045 14.3918C16.5906 14.7597 16.6045 15.1283 16.6045 15.4962C16.8469 15.5273 17.0893 15.5596 17.3324 15.5888C17.3637 15.5917 17.3953 15.5917 17.4267 15.5888C17.6349 15.5761 17.6963 15.6783 17.6938 15.8787C17.6841 16.6289 17.6841 17.3795 17.6938 18.1306C17.6938 18.3374 17.6178 18.4179 17.4166 18.4154C16.995 18.4097 16.5723 18.3964 16.1508 18.4205C15.8406 18.4382 15.7349 18.3571 15.7368 18.0209C15.752 15.769 15.7438 13.5171 15.7438 11.2658C15.7438 11.2125 15.7242 11.1447 15.7495 11.1104C15.8071 11.0318 15.8849 10.9131 15.9583 10.9106C16.4425 10.8947 16.928 10.9106 17.414 10.9036C17.6203 10.9036 17.695 10.9886 17.6919 11.1891C17.6855 11.6008 17.702 12.0137 17.6919 12.4254C17.683 12.643 17.7716 12.7083 17.9684 12.7039Z" fill="#1500FF"/>
</svg>
