<svg width="76" height="28" viewBox="0 0 76 28" fill="none" xmlns="http://www.w3.org/2000/svg">
<path d="M75.8161 16.3545H73.7883C73.7276 15.9547 73.67 15.5869 73.6252 15.2862C72.8491 15.698 72.0491 16.0632 71.2297 16.3801C69.9759 16.7863 68.7733 16.6231 67.7754 15.6509C66.9183 14.8161 66.736 13.7798 66.9823 12.6732C67.083 12.1183 67.3604 11.6108 67.7731 11.2264C68.1858 10.8419 68.7116 10.6012 69.2723 10.5399C70.3789 10.3864 71.5271 10.5207 72.6561 10.5399C72.9216 10.5399 73.187 10.6071 73.4493 10.6391C73.8491 8.95034 73.0271 7.88209 71.348 7.8629C70.2254 7.8629 69.9407 7.97164 68.7222 9.00471C68.2584 8.60171 67.7626 8.20512 67.3277 7.77015C67.2701 7.71578 67.3277 7.45031 67.4268 7.33837C68.1078 6.63859 68.9939 6.17372 69.9567 6.01106C71.0849 5.74972 72.2647 5.82081 73.3534 6.21575C74.6039 6.6955 75.4547 7.56546 75.7105 8.92795C75.7105 8.98552 75.7777 9.03349 75.8161 9.08466V16.3545ZM73.4333 12.2638C72.4578 12.219 71.4376 12.1199 70.4173 12.1327C69.6273 12.1327 69.2563 12.622 69.2819 13.3864C69.3043 14.0453 69.8032 14.4899 70.5324 14.5122C71.4024 14.541 72.1316 14.17 72.8512 13.751C73.3885 13.4408 73.7212 13.073 73.4333 12.2638Z" fill="#1500FF"/>
<path d="M52.6555 0.957581C52.6555 4.9683 52.6555 8.97796 52.6555 12.9865C52.6555 14.4034 53.663 14.9855 54.8943 14.3171C54.9819 14.2901 55.0748 14.2854 55.1647 14.3033C55.2546 14.3211 55.3386 14.361 55.4093 14.4194C55.7675 14.7968 56.0777 15.219 56.4295 15.654C55.63 16.4152 54.664 16.6135 53.615 16.5591C52.0158 16.4791 50.8388 15.5708 50.4422 14.0452C50.3398 13.6082 50.2915 13.1603 50.2983 12.7115C50.2983 9.01207 50.2983 5.31052 50.2983 1.60684C50.2983 1.38936 50.2791 1.17507 50.2695 0.967175L52.6555 0.957581Z" fill="#1500FF"/>
<path d="M75.8158 25.892C75.2305 27.5391 73.9352 27.5743 72.9021 27.3025C72.1761 27.1106 72.1825 27.0882 72.2625 26.2918C74.3734 27.0722 75.141 26.682 75.029 24.8397C74.7698 24.9894 74.5005 25.1209 74.223 25.2331C73.9699 25.3267 73.6977 25.3566 73.4303 25.3201C73.1629 25.2836 72.9087 25.1818 72.6899 25.0238C72.4712 24.8658 72.2947 24.6563 72.1761 24.4139C72.0575 24.1715 72.0004 23.9037 72.0098 23.634C72.0098 22.7544 72.0098 21.8749 72.0098 20.9602H72.7646V23.3205C72.7646 24.1361 73.1356 24.5807 73.8201 24.5999C74.5557 24.6191 75.0258 24.1553 75.0482 23.3461C75.0706 22.5369 75.0482 21.7949 75.0482 20.9761L75.8094 20.9026L75.8158 25.892Z" fill="#1500FF"/>
<path d="M0.801811 15.2125C0.813369 13.6179 1.14129 12.0414 1.76656 10.5745C2.39184 9.10752 3.30204 7.77924 4.44441 6.66662C5.58678 5.55399 6.93862 4.67916 8.42157 4.0928C9.90451 3.50645 11.4891 3.22023 13.0834 3.25074C19.7328 3.3243 25.138 8.51841 25.1188 15.2925C25.0996 22.0666 19.7456 27.2671 12.9651 27.2767C11.3712 27.2945 9.78966 26.9953 8.31238 26.3966C6.83511 25.7978 5.49158 24.9115 4.35985 23.789C3.22812 22.6665 2.33078 21.3302 1.71997 19.8579C1.10916 18.3856 0.79705 16.8065 0.801811 15.2125ZM1.76131 15.2125C1.61419 21.3853 6.8083 25.9909 12.1591 26.3108C19.2658 26.7298 23.9322 21.0495 24.1817 15.8298C24.5015 9.19645 18.9172 4.15267 12.9875 4.13348C6.95863 4.13987 1.56942 9.26042 1.76772 15.2381L1.76131 15.2125Z" fill="#1500FF"/>
<path d="M47.3928 16.3259H45.429L45.2659 15.2097C44.7126 15.5295 44.1944 15.8653 43.6347 16.1212C42.5153 16.6361 41.3607 16.7832 40.2061 16.2139C39.6285 15.9306 39.1555 15.4715 38.855 14.9027C38.5545 14.3338 38.4419 13.6844 38.5334 13.0476C38.592 12.4234 38.8578 11.8368 39.2885 11.3813C39.7192 10.9257 40.2899 10.6273 40.9097 10.5337C42.0196 10.3993 43.1486 10.5337 44.2936 10.5337C44.5712 10.5528 44.8477 10.5859 45.1219 10.6328C45.1987 9.73729 45.2819 8.88014 44.5047 8.26926C43.8394 7.74473 42.2242 7.68396 41.4662 8.15411C41.0888 8.38759 40.7466 8.68184 40.3436 8.98248L38.8084 7.6072C39.5558 6.70599 40.6135 6.11723 41.7733 5.95686C43.2285 5.72338 44.6518 5.82573 45.9119 6.69887C46.3625 6.98506 46.7357 7.37785 46.9984 7.84252C47.2612 8.30719 47.4054 8.82943 47.4183 9.36309C47.4727 11.6211 47.4183 13.8791 47.4183 16.1372C47.4174 16.2009 47.4088 16.2642 47.3928 16.3259V16.3259ZM45.0676 12.2736C44.1081 12.2224 43.123 12.1265 42.1251 12.1265C41.9582 12.1107 41.7899 12.1324 41.6325 12.1898C41.475 12.2472 41.3323 12.3389 41.2147 12.4584C41.0971 12.5778 41.0076 12.7219 40.9526 12.8803C40.8977 13.0386 40.8786 13.2072 40.8969 13.3738C40.8969 14.0327 41.4503 14.49 42.1955 14.5156C43.0654 14.5476 43.769 14.151 44.4919 13.7416C45.0676 13.425 45.301 13.0252 45.0676 12.2736Z" fill="#1500FF"/>
<path d="M36.7517 6.93218L35.5203 8.46739C34.7431 8.20193 34.0523 7.92687 33.339 7.72857C33.0506 7.65793 32.7503 7.64992 32.4584 7.70509C32.1666 7.76026 31.8899 7.87733 31.6471 8.04841C31.1194 8.36824 31.0522 8.95034 31.5384 9.32774C31.8823 9.58273 32.2601 9.78835 32.661 9.93863C33.6813 10.3608 34.7591 10.671 35.7378 11.1764C37.2858 11.9728 37.1195 14.1572 36.2144 15.1359C35.0438 16.4153 33.5661 16.6647 31.9701 16.5112C30.8562 16.4285 29.7813 16.0654 28.8454 15.4558C28.6823 15.3326 28.5263 15.2002 28.3784 15.0592L29.4882 13.5144C30.3277 14.1983 31.3677 14.5891 32.4499 14.6274C32.9595 14.6557 33.4692 14.5727 33.9435 14.3843C34.7591 14.0133 34.7687 13.105 33.9787 12.6572C33.4489 12.4012 32.9029 12.1801 32.3443 11.9952C31.7431 11.7649 31.1258 11.5698 30.5341 11.3171C29.5746 10.9045 28.9125 10.2393 28.8646 9.13904C28.8347 8.62449 28.9499 8.11189 29.197 7.65956C29.4441 7.20723 29.8132 6.83332 30.2622 6.58037C31.6119 5.70083 33.0768 5.69762 34.5608 6.08462C35.3053 6.32891 36.0366 6.61181 36.7517 6.93218V6.93218Z" fill="#1500FF"/>
<path d="M63.8796 8.45455C63.1248 8.20188 62.466 7.93323 61.7815 7.77011C61.3981 7.69501 61.0029 7.70483 60.6237 7.7989C60.1568 7.90124 59.6642 8.06116 59.6098 8.67524C59.5555 9.28932 60 9.57078 60.4734 9.74989C61.3913 10.1017 62.3444 10.3576 63.2528 10.7318C64.8263 11.3714 65.578 12.3693 65.1398 14.0836C64.82 15.3054 63.8796 16.0026 62.7186 16.3225C60.5598 16.9142 58.58 16.4056 56.6802 15.1455L57.8412 13.5175C58.6854 14.2258 59.7459 14.6252 60.8476 14.6497C61.3579 14.6724 61.8669 14.5818 62.338 14.3843C62.5067 14.3137 62.6507 14.1948 62.752 14.0425C62.8533 13.8903 62.9074 13.7116 62.9074 13.5287C62.9074 13.3459 62.8533 13.1671 62.752 13.0149C62.6507 12.8627 62.5067 12.7438 62.338 12.6732C61.8071 12.3885 61.2058 12.2318 60.6461 11.9983C59.8593 11.6785 59.047 11.3586 58.3049 10.9653C56.8849 10.236 56.8017 7.99079 58.2634 6.84579C59.725 5.70078 61.3018 5.6656 62.9681 6.12616C63.5624 6.31386 64.1409 6.54807 64.6984 6.8266C64.7976 6.87137 64.9031 7.14643 64.8551 7.2168C64.5257 7.68375 64.1547 8.11873 63.8796 8.45455Z" fill="#1500FF"/>
<path d="M69.9354 24.7662C68.7552 25.5402 67.8149 25.5082 67.0953 24.7246C66.3756 23.9411 66.334 22.4314 66.9449 21.6798C67.7157 20.7203 68.5825 20.6532 69.929 21.4208C69.897 20.8227 70.2776 20.9218 70.687 20.9698C70.687 22.5178 70.7766 24.0498 70.6614 25.569C70.6294 25.9111 70.5109 26.2395 70.3172 26.5233C70.1235 26.8071 69.8608 27.037 69.5538 27.1914C69.2469 27.3458 68.9057 27.4197 68.5624 27.4062C68.2191 27.3926 67.8848 27.292 67.591 27.1138C67.3927 27.0019 67.3671 26.5829 67.3255 26.2662C68.0388 26.6341 68.72 26.9283 69.4013 26.4326C69.9226 26.0552 69.9546 25.4475 69.9354 24.7662ZM69.9354 23.1511C69.9354 22.2331 69.3789 21.5519 68.6209 21.5519C67.8629 21.5519 67.3191 22.1916 67.3127 23.0423C67.3127 24.0306 67.7797 24.5999 68.6145 24.6031C69.3725 24.6095 69.9418 23.989 69.945 23.1511H69.9354Z" fill="#1500FF"/>
<path d="M44.2153 18.8619H44.9126V21.3246C45.3022 21.1425 45.7124 21.0083 46.1343 20.9248C47.3337 20.848 47.9734 21.5005 47.9798 22.7095C47.9798 23.5379 47.9798 24.363 47.9798 25.2138H47.145C47.145 24.379 47.145 23.5698 47.145 22.7607C47.145 22.0154 46.7132 21.5421 46.0608 21.5549C45.7534 21.5641 45.4622 21.6949 45.2511 21.9185C45.0401 22.1422 44.9263 22.4404 44.935 22.7479C44.935 23.557 44.935 24.3662 44.935 25.2074H44.2217L44.2153 18.8619Z" fill="#1500FF"/>
<path d="M36.1121 23.3908C36.1007 23.6462 36.1721 23.8983 36.3156 24.1098C36.4591 24.3213 36.667 24.4808 36.9085 24.5646C37.5097 24.7917 38.0919 24.5646 38.6164 23.9409L39.0897 24.3343C38.4053 25.6137 36.4543 25.6808 35.6515 24.4623C35.3723 24.0003 35.2492 23.4606 35.3004 22.9232C35.3517 22.3858 35.5746 21.8791 35.9362 21.4782C36.2358 21.1766 36.6219 20.9757 37.0408 20.9035C37.4598 20.8313 37.8909 20.8913 38.2742 21.0752C39.0226 21.4206 39.304 22.2938 39.3552 23.055C39.3744 23.3748 39.1761 23.394 38.9298 23.3908C38.0311 23.3844 37.094 23.3908 36.1121 23.3908ZM38.6132 22.732C38.3765 21.8108 38.0023 21.5006 37.2475 21.555C36.9491 21.5731 36.6693 21.7055 36.4661 21.9247C36.263 22.144 36.1522 22.4331 36.1569 22.732H38.6132Z" fill="#1500FF"/>
<path d="M61.6974 23.1031C61.5535 21.8238 62.7241 20.8899 63.7411 20.8867C64.0284 20.8853 64.313 20.9416 64.5781 21.0523C64.8432 21.1629 65.0834 21.3257 65.2844 21.5309C65.4855 21.7361 65.6433 21.9796 65.7485 22.2469C65.8537 22.5142 65.9041 22.8 65.8968 23.0871C65.9124 23.3753 65.8695 23.6635 65.7707 23.9347C65.672 24.2058 65.5195 24.4541 65.3223 24.6648C65.1251 24.8754 64.8873 25.044 64.6233 25.1604C64.3593 25.2767 64.0744 25.3385 63.7859 25.342C62.6313 25.3548 61.5311 24.3249 61.6974 23.1031ZM65.094 23.1351C65.094 22.2556 64.5375 21.5615 63.8147 21.5551C63.0215 21.5551 62.4554 22.1948 62.4522 23.1063C62.449 24.0179 62.9384 24.6 63.7571 24.6032C64.5759 24.6063 65.0685 24.0658 65.0781 23.1351H65.094Z" fill="#1500FF"/>
<path d="M53.965 23.1318C53.9525 22.8496 53.9959 22.5678 54.0926 22.3025C54.1893 22.0371 54.3374 21.7934 54.5285 21.5855C54.7195 21.3775 54.9498 21.2092 55.206 21.0904C55.4622 20.9716 55.7393 20.9045 56.0215 20.893C57.3008 20.8194 58.2092 21.9868 58.2028 23.0614C58.2028 24.36 57.3264 25.3227 56.1175 25.3386C55.8288 25.3437 55.5421 25.2897 55.2751 25.1798C55.008 25.07 54.7662 24.9067 54.5646 24.7C54.363 24.4933 54.2058 24.2476 54.1027 23.9779C53.9996 23.7082 53.9527 23.4203 53.965 23.1318V23.1318ZM56.0695 24.6094C56.2575 24.6075 56.4432 24.5676 56.6153 24.492C56.7874 24.4163 56.9424 24.3066 57.0709 24.1694C57.1995 24.0322 57.2989 23.8704 57.3631 23.6937C57.4274 23.517 57.4552 23.3291 57.4448 23.1414C57.4448 22.2938 56.8403 21.5678 56.0983 21.5422C55.3562 21.5166 54.7102 22.2363 54.7294 23.0998C54.7486 23.9634 55.3435 24.683 56.0695 24.6094V24.6094Z" fill="#1500FF"/>
<path d="M49.9182 21.5038C50.1549 21.2508 50.455 21.0658 50.7874 20.968C51.1198 20.8701 51.4723 20.863 51.8084 20.9473C52.1156 20.9894 52.3988 21.1361 52.6104 21.3628C52.8219 21.5894 52.9487 21.8821 52.9694 22.1915C53.0238 23.1894 52.9694 24.1937 52.9694 25.2203H52.2178C52.2178 24.3856 52.2178 23.5604 52.2178 22.7352C52.2178 21.7565 51.4246 21.296 50.5419 21.7309C50.3647 21.8165 50.2182 21.9544 50.1221 22.1261C50.026 22.2977 49.9849 22.4947 50.0045 22.6904C50.0045 23.4836 50.0045 24.2896 50.0045 25.0732C49.9939 25.1181 49.9767 25.1612 49.9534 25.2011H49.189V24.1681C49.189 23.2469 49.189 22.3258 49.189 21.4047C49.189 21.1488 49.189 20.9569 49.544 20.9313C49.899 20.9058 49.9853 21.0721 49.9182 21.5038Z" fill="#1500FF"/>
<path d="M33.2565 19.575C32.7992 19.575 32.4378 19.5494 32.0828 19.575C31.5774 19.6166 31.3535 19.4471 31.5102 18.8842H35.7736V19.5654H34.0593V25.2073H33.2565V19.575Z" fill="#1500FF"/>
<path d="M43.148 21.9101C42.1885 21.3919 41.5936 21.4399 41.1042 22.0604C40.8919 22.3816 40.7811 22.7592 40.7862 23.1443C40.7914 23.5293 40.9122 23.9038 41.133 24.2193C41.6032 24.7758 42.2333 24.8014 43.1096 24.3056C43.2695 24.9965 43.2344 25.0668 42.5979 25.2491C41.2194 25.6425 39.9241 24.6766 40.0072 23.0103C40.0036 22.4507 40.2115 21.9103 40.5893 21.4975C41.1618 20.8962 41.8463 20.8578 42.5787 20.957C43.116 21.0241 43.3079 21.3599 43.148 21.9101Z" fill="#1500FF"/>
<path d="M61.5347 24.9164C60.9367 25.4217 60.3834 25.4697 59.9068 25.185C59.734 25.0863 59.5838 24.9525 59.4659 24.7922C59.348 24.6319 59.265 24.4487 59.2224 24.2543C59.1552 22.4728 59.1904 20.6882 59.1904 18.8747H59.9388V19.6071C59.9388 20.9952 59.9388 22.3865 59.9388 23.7649C59.9388 24.523 60.0955 24.6285 60.8407 24.5933C61.0582 24.5965 61.2469 24.7788 61.5347 24.9164Z" fill="#1500FF"/>
<path d="M12.9364 25.6745C11.5564 25.6966 10.1858 25.4435 8.90471 24.9299C7.62362 24.4164 6.4577 23.6527 5.47508 22.6835C4.49246 21.7142 3.71282 20.5589 3.18172 19.285C2.65062 18.0111 2.37871 16.6441 2.38186 15.2639C2.42024 9.27662 7.00986 4.86931 12.9364 4.79895C14.3801 4.77481 15.8131 5.04996 17.1452 5.60706C18.4773 6.16417 19.6796 6.99115 20.6763 8.0359C21.6729 9.08065 22.4424 10.3205 22.9362 11.6774C23.43 13.0342 23.6374 14.4786 23.5453 15.9196C23.2766 20.9698 18.8661 25.812 12.9364 25.6745ZM11.7626 13.1594C11.9609 13.0826 12.0824 13.0315 12.188 12.9931C13.8191 12.4462 15.4535 11.9089 16.8224 10.8118C17.4876 10.2809 17.9226 9.60286 17.7467 8.72012C17.7079 8.43442 17.5822 8.16759 17.3865 7.95587C17.1908 7.74415 16.9346 7.59781 16.6529 7.53673C16.301 7.83737 16.0644 8.15401 15.7477 8.28834C14.7722 8.70092 13.768 9.04315 12.7733 9.41735C11.3148 9.96427 9.81801 10.4312 8.66661 11.5826C7.51521 12.734 7.93419 14.2564 8.98644 15.0272C9.82761 15.6445 10.8575 16.0123 11.817 16.4569C12.5814 16.8087 13.3682 17.0966 14.1933 17.4548C13.2018 17.7906 12.2743 18.0657 11.3756 18.4143C10.3681 18.8141 9.37024 19.2682 8.62823 20.0934C8.20285 20.5636 7.84464 21.0529 8.05573 21.8077C8.13857 22.0846 8.2845 22.3384 8.48208 22.5493C8.67965 22.7602 8.92347 22.9224 9.19434 23.0231C9.44837 22.7358 9.73617 22.4802 10.0515 22.2619C10.6258 21.9874 11.2178 21.7512 11.8234 21.555C13.5889 20.9378 15.4087 20.4868 16.9407 19.3162C17.2318 19.0934 17.4673 18.8063 17.6288 18.4772C17.7903 18.1482 17.8734 17.7862 17.8715 17.4196C17.8696 17.0531 17.7829 16.692 17.6181 16.3646C17.4533 16.0372 17.2148 15.7524 16.9215 15.5326C16.2477 15.0787 15.5232 14.7052 14.7626 14.4196C13.7967 13.9718 12.8117 13.5912 11.7626 13.1594Z" fill="#1500FF"/>
</svg>
