<svg width="63" height="22" viewBox="0 0 63 22" fill="none" xmlns="http://www.w3.org/2000/svg">
<path d="M57.5051 11.4869C57.6147 10.7722 57.3779 10.3425 56.5711 10.4039C56.3769 10.4148 56.1822 10.4148 55.988 10.4039C55.977 10.2652 55.977 10.1259 55.988 9.98729C56.3914 7.2073 56.7991 4.43023 57.2113 1.65608C57.3692 0.590565 57.0579 0.143301 56.0888 0.138916C54.2603 0.138916 52.4319 0.173994 50.6034 0.165224C49.7922 0.165224 49.3756 0.47655 49.266 1.31844C48.9444 3.76811 48.5863 6.21485 48.1917 8.65867C48.0865 9.29886 48.2355 10.0136 47.7532 10.5705L47.249 10.5354L47.192 10.5792L47.249 10.5354C47.249 10.2285 47.249 9.92151 47.3147 9.61895C47.7094 6.86965 48.1215 4.12474 48.503 1.37545C48.617 0.53794 48.275 0.173998 47.4375 0.169613C45.5827 0.169613 43.7279 0.16961 41.8731 0.138916C41.154 0.138916 40.6936 0.380095 40.584 1.13867C40.3209 2.96715 40.0753 4.79563 39.7728 6.61534C39.5623 7.88256 39.5536 9.18047 39.1765 10.417H38.51C38.4577 9.94122 38.4919 9.45993 38.6108 8.99631C38.9528 6.60657 39.3168 4.22123 39.6632 1.83149C39.8605 0.480954 39.6193 0.187157 38.2995 0.174002C36.5455 0.174002 34.7565 0.174002 32.9851 0.174002C32.7318 0.143092 32.4758 0.203324 32.2629 0.34392C32.05 0.484516 31.8941 0.696297 31.8231 0.94135C31.5577 1.84048 31.3988 2.76763 31.3495 3.7038C31.1494 5.96557 30.8215 8.21422 30.3673 10.4389C30.4038 10.4647 30.4376 10.494 30.4681 10.5266C30.4376 10.494 30.4038 10.4647 30.3673 10.4389H29.657C29.9113 8.5403 30.1481 6.6329 30.4243 4.73864C30.5778 3.68189 30.6435 2.62074 30.7488 1.56399C30.854 0.507243 30.7488 0.213469 29.6263 0.204699C27.8329 0.204699 26.0351 0.204699 24.2373 0.204699C23.5182 0.204699 23.1367 0.459012 23.0358 1.18251C22.7771 3.01099 22.4965 4.83948 22.2246 6.67235C22.0317 7.96149 21.8358 9.25064 21.6371 10.5398C21.6054 10.5553 21.5804 10.5818 21.5669 10.6143C21.3257 10.4038 21.0363 10.4696 20.7645 10.4696H3.00147C2.85036 10.4412 2.69514 10.4429 2.54467 10.4745C2.3942 10.5061 2.25142 10.567 2.1245 10.6538C1.40539 11.0923 1.6027 11.8377 1.50185 12.4823L1.42731 13.3154C1.38007 13.3596 1.35013 13.4192 1.3429 13.4835C1.33567 13.5478 1.35161 13.6126 1.38785 13.6662C1.24894 13.9643 1.20163 14.297 1.25192 14.6221C1.23 14.6221 1.19492 14.6528 1.19492 14.6703C1.18849 14.7198 1.18849 14.7699 1.19492 14.8194C1.16861 14.9948 1.1423 15.1702 1.12037 15.3499C0.959351 15.6618 0.912799 16.0202 0.988827 16.3628L0.931822 16.6961C0.859994 16.7922 0.813176 16.9046 0.795571 17.0232C0.777967 17.1418 0.790131 17.263 0.830972 17.3757C0.604015 18.4257 0.457429 19.4913 0.392487 20.5635C0.195169 21.5019 0.39249 21.7168 1.42293 21.7168L54.576 21.6729C55.966 21.6729 56.1283 21.4931 56.216 20.0549C56.251 19.726 56.2905 19.3928 56.3256 19.0639C56.3862 18.9931 56.4265 18.9071 56.4419 18.8152C56.4574 18.7233 56.4475 18.6289 56.4133 18.5421L56.3037 18.5904L56.4133 18.5421L56.4747 18.0466C56.5558 17.9224 56.6096 17.7822 56.6322 17.6355C56.6549 17.4888 56.6461 17.339 56.6062 17.196L56.6501 16.8671C56.8001 16.6104 56.8457 16.3058 56.7772 16.0165L56.8123 15.6788C56.9384 15.4762 56.9808 15.2325 56.9307 14.9992C57.1236 13.7889 57.3122 12.6401 57.5051 11.4869ZM6.59266 15.1176C6.87302 15.1351 7.15419 15.1351 7.43455 15.1176C7.90373 15.1176 8.35098 15.0606 8.31152 15.7709C8.28521 16.4111 8.10105 16.7838 7.36001 16.6479C6.99534 16.615 6.62846 16.615 6.2638 16.6479C5.74638 16.6479 5.63676 16.9723 5.61922 17.4284C5.5973 17.9633 5.96124 17.9326 6.2901 17.9414C6.93468 17.9414 7.57925 17.9414 8.22821 17.9677C8.04404 19.5594 8.44306 19.3972 6.64528 19.4322C6.02701 19.4322 5.40875 19.3665 4.79926 19.4322C4.01437 19.5068 3.7732 19.2086 3.96613 18.4807C3.98361 18.3703 3.98361 18.2579 3.96613 18.1475C4.33446 16.832 4.30815 15.4771 4.48793 14.1441C4.66771 12.8111 4.76418 12.6138 6.05771 12.6226C6.8426 12.6226 7.6231 12.6226 8.40799 12.6533C8.67108 12.6533 9.09641 12.5875 8.9254 13.0348C8.79386 13.3856 9.17095 14.0521 8.39045 14.0564C7.7985 14.0564 7.21093 14.0564 6.63651 14.0564C6.0621 14.0564 6.05333 14.359 6.02702 14.7492C5.9744 15.2666 6.35588 15.0956 6.59266 15.1176ZM13.6566 18.0335C13.8847 18.4281 14.4635 18.8885 13.9197 19.4761C13.1129 19.5068 12.3237 19.4761 12.1132 18.4588V18.4369C11.986 18.1694 12.0036 17.7178 11.6747 17.6871C11.3458 17.6564 11.1704 18.0773 10.9994 18.3448C10.596 18.9543 10.2847 19.6603 9.34196 19.4454C9.13587 19.4059 8.84209 19.577 8.71931 19.3446C8.59654 19.1122 8.80262 18.8359 9.00433 18.643L9.20603 18.3229L9.40773 18.0686C9.49154 18.0343 9.56527 17.9793 9.62202 17.9087C9.67877 17.8382 9.71669 17.7544 9.73221 17.6652V17.6652C9.70769 17.5408 9.69303 17.4147 9.68836 17.2881C9.69303 17.4147 9.70769 17.5408 9.73221 17.6652C10.1664 17.2297 10.5369 16.7352 10.8328 16.1962C11.1967 15.6569 10.6881 15.1833 10.5171 14.7142C10.3288 14.3416 10.1634 13.9579 10.0216 13.5653C9.96023 13.2715 9.38142 12.8594 9.95145 12.7103C10.4206 12.5831 11.1222 12.3288 11.5037 13.0874C12.1263 14.3195 12.1439 14.3064 12.9945 13.2014C13.0978 13.0279 13.2368 12.8784 13.4023 12.7629C13.8408 12.5261 14.4459 12.4165 14.7616 12.7059C15.0773 12.9953 14.5555 13.3505 14.3714 13.6618C14.2591 13.8925 14.1111 14.1041 13.9329 14.2888C12.6262 15.4683 12.8893 16.6873 13.6566 18.0335ZM14.4722 17.7441C14.5039 17.84 14.545 17.9326 14.595 18.0203C14.548 17.9322 14.5098 17.8397 14.481 17.7441H14.4722ZM21.3345 14.1134C20.9662 14.4116 20.5014 14.9904 19.9577 14.5125C19.6182 14.1936 19.1785 14.0026 18.7138 13.9722C18.249 13.9418 17.7882 14.0739 17.4101 14.3458C17.011 14.6102 16.7014 14.9893 16.5222 15.4331C16.3429 15.8769 16.3024 16.3647 16.4059 16.832C16.6427 17.9721 17.8617 18.4106 19.0763 17.8142C19.4666 17.6213 19.8174 17.1477 20.3304 17.5687L20.6329 17.6827C20.7085 17.7665 20.763 17.867 20.792 17.9761C20.821 18.0851 20.8236 18.1995 20.7996 18.3097C20.3238 18.7922 19.7383 19.1523 19.093 19.3593C18.4478 19.5662 17.762 19.6138 17.0944 19.498C16.5248 19.3673 16.0043 19.0767 15.5942 18.6604C15.184 18.244 14.9013 17.7193 14.7792 17.1478C14.6608 15.2798 15.336 13.8196 17.033 12.9427C18.4011 12.2411 19.8568 12.2323 21.0451 13.3812C21.2337 13.5609 21.7116 13.8196 21.3433 14.1134H21.3345ZM20.2339 17.31C20.2005 17.2771 20.1637 17.2477 20.1243 17.2223C20.1637 17.2477 20.2005 17.2771 20.2339 17.31V17.31ZM44.2892 2.2305C45.9905 2.2305 47.2095 3.51525 47.192 5.34373C47.17 7.53615 45.4073 9.35149 43.364 9.32956C41.7241 9.32956 40.584 8.06673 40.5884 6.29087C40.5665 4.16422 42.3029 2.25681 44.2673 2.2305H44.2892ZM46.8762 11.2808C46.8295 11.3354 46.7689 11.3762 46.7009 11.3992L46.6395 11.4431L46.7009 11.3992C46.761 11.3729 46.8137 11.3323 46.8543 11.2808H46.8762ZM30.8277 11.2808C30.8149 11.2571 30.7947 11.2382 30.7701 11.2271C30.7456 11.216 30.718 11.2133 30.6918 11.2194C30.717 11.2199 30.7415 11.2282 30.762 11.2431C30.7824 11.258 30.7977 11.2788 30.8058 11.3027L30.8277 11.2808ZM30.6479 11.2326L30.2752 11.2896L30.6479 11.2326ZM23.8032 7.39147C24.1847 7.295 24.5793 6.51448 24.9696 7.23798C25.3598 7.96148 25.9693 7.78611 26.5612 7.72472C26.6895 7.7136 26.81 7.65872 26.9026 7.56931C26.9952 7.4799 27.0543 7.36137 27.0699 7.23359C27.0819 7.10541 27.0473 6.97722 26.9724 6.87251C26.8974 6.7678 26.7873 6.69361 26.6621 6.66357C26.2719 6.50572 25.8641 6.39171 25.4694 6.22508C24.0093 5.68575 23.6409 4.35276 24.6144 3.15569C25.5878 1.95863 27.8066 1.87971 28.6572 3.13377C28.8238 3.37932 29.122 3.7038 28.6791 3.89234C28.2363 4.08089 27.9337 4.70793 27.3944 4.1949C27.1979 3.95441 26.9173 3.79766 26.6095 3.75641C26.2236 3.73011 25.8421 3.81342 25.7325 4.2519C25.6229 4.69039 26.0088 4.76493 26.285 4.87893C26.6753 5.04117 27.083 5.15518 27.4733 5.31742C27.7832 5.43134 28.0574 5.62539 28.2679 5.87979C28.4785 6.13419 28.6178 6.43987 28.6717 6.76564C28.7256 7.09142 28.6922 7.42566 28.5749 7.73433C28.4576 8.04299 28.2606 8.31502 28.0039 8.52274C27.4121 9.05972 26.6316 9.34038 25.8334 9.30326C24.8994 9.30326 24.0794 9.04893 23.5357 8.17196C23.3033 7.8124 23.3822 7.51862 23.7813 7.41339L23.8032 7.39147ZM29.407 11.3992C28.6616 11.4781 27.9206 11.5176 27.1751 11.5395C27.8986 11.522 28.6397 11.522 29.3851 11.4211L29.407 11.3992ZM27.1532 20.3925C27.1128 20.3926 27.0739 20.3772 27.0446 20.3494C27.0152 20.3217 26.9976 20.2838 26.9954 20.2435C26.9976 20.2838 27.0152 20.3217 27.0446 20.3494C27.0739 20.3772 27.1128 20.3926 27.1532 20.3925C27.2034 20.3905 27.2519 20.3741 27.2931 20.3454C27.3343 20.3166 27.3664 20.2767 27.3856 20.2303C27.3686 20.2842 27.3347 20.3313 27.2889 20.3645C27.2431 20.3976 27.1878 20.4152 27.1313 20.4145L27.1532 20.3925ZM27.0392 17.9633L26.9954 18.2922L26.9647 18.4763C26.8068 18.8096 27.0787 19.3533 26.4078 19.4366C25.3116 19.5638 25.18 19.4366 25.4343 18.2922C25.4914 18.0203 25.4913 17.7353 25.522 17.4591C25.3862 17.4895 25.2664 17.569 25.1855 17.6822C25.1046 17.7955 25.0683 17.9346 25.0836 18.0729C25.0683 17.9346 25.1046 17.7955 25.1855 17.6822C25.2664 17.569 25.3862 17.4895 25.522 17.4591C25.7369 16.9504 25.6624 16.6347 25.0134 16.6698C24.733 16.6851 24.4519 16.6851 24.1715 16.6698C23.6497 16.6347 23.448 16.8496 23.3779 17.3889C23.3542 18.0925 23.2256 18.7886 22.9964 19.4542C22.7759 19.441 22.5548 19.441 22.3343 19.4542C21.7248 19.5112 21.5669 19.2832 21.6721 18.6737C21.8125 17.8449 21.83 16.9987 21.9045 16.1568C22.3693 15.2798 22.2816 14.3283 22.4263 13.4031C22.514 12.8287 22.7026 12.5612 23.334 12.6138C23.8777 12.662 24.1057 12.7936 23.9347 13.3855C23.8809 13.7174 23.8647 14.0542 23.8865 14.3897V14.3897C23.5664 15.0956 23.8032 15.3675 24.5574 15.2886C24.9696 15.2447 25.3993 15.3543 25.7939 15.1351C26.0684 14.622 26.1858 14.0395 26.1315 13.4601C26.1315 12.4472 26.82 12.5831 27.3724 12.6664C27.9907 12.7585 27.7013 13.3154 27.6531 13.6706C27.447 15.1132 27.2497 16.547 27.0173 17.9852L27.0392 17.9633ZM32.5115 19.5024C32.3668 19.3226 32.0028 19.3621 32.0335 19.0201C32.0905 18.3141 31.7398 18.3097 31.1873 18.45C30.8022 18.5036 30.4121 18.511 30.0253 18.472C29.7753 18.472 29.5079 18.4501 29.4553 18.7965C29.2141 19.0332 29.1746 19.441 28.6879 19.4761C27.4865 19.5594 27.4514 19.5112 28.0346 18.0642L28.1442 17.88C28.9879 16.371 29.7505 14.818 30.4287 13.2277C30.8365 12.3069 31.5644 12.7629 32.1826 12.6796C32.8009 12.5963 32.7658 13.0611 32.8447 13.4469C33.1955 15.1424 33.5492 16.8379 33.9059 18.5334C34.112 18.757 34.3224 18.9719 34.5285 19.2086C34.3224 18.9806 34.112 18.7701 33.9059 18.5334C34.1865 19.919 33.0684 19.3358 32.5115 19.5024ZM32.8623 7.20292C33.0464 5.78662 33.3008 4.37467 33.4455 2.95837C33.5419 2.0814 34.1733 2.38397 34.6381 2.37081C35.2871 2.37081 35.0415 2.83559 35.0021 3.1513C34.8355 4.42729 34.6688 5.7033 34.4584 6.9749C34.3663 7.52301 34.4584 7.78171 35.081 7.70717C35.3312 7.67207 35.585 7.67207 35.8352 7.70717C36.1816 7.76417 36.7604 7.4397 36.7122 8.21582C36.6771 8.82093 36.6025 9.33832 35.7694 9.21116C35.3782 9.18261 34.9855 9.18261 34.5943 9.21116C32.5948 9.2287 32.586 9.22872 32.8447 7.20292H32.8623ZM40.8252 13.5303C40.5621 15.236 40.3516 16.9461 40.1192 18.6561C39.9789 18.9762 40.0841 19.4542 39.4834 19.4673C39.2635 19.4987 39.0397 19.4488 38.854 19.3268C38.6683 19.2049 38.5335 19.0195 38.4749 18.8052C38.3622 18.4909 38.1757 18.2082 37.9312 17.9809C37.839 18.0136 37.7561 18.0682 37.6897 18.14C37.6233 18.2118 37.5752 18.2986 37.5497 18.393C37.5275 18.4545 37.5099 18.5175 37.4971 18.5816C37.5099 18.5175 37.5275 18.4545 37.5497 18.393C37.5752 18.2986 37.6233 18.2118 37.6897 18.14C37.7561 18.0682 37.839 18.0136 37.9312 17.9809C37.9074 17.7533 37.7957 17.544 37.6198 17.3977C37.4535 16.9278 37.1889 16.4988 36.8437 16.1392C36.8071 16.109 36.7674 16.0825 36.7253 16.0603C36.7253 16.0603 36.6639 16.0603 36.6596 16.0954C36.5806 16.6172 36.5105 17.139 36.4359 17.6608C36.4008 17.8537 36.3658 18.0422 36.3395 18.2308C36.1597 19.6033 36.0632 19.669 34.6513 19.3402C34.9012 17.3275 35.1687 15.3193 35.3836 13.3022C35.3976 13.135 35.469 12.9777 35.5856 12.8571C35.7023 12.7364 35.8571 12.6598 36.0237 12.6401C36.2581 12.5879 36.5035 12.6221 36.7146 12.7365C36.9258 12.851 37.0884 13.0378 37.1726 13.2628C37.5628 13.9731 37.9312 14.6922 38.3126 15.407C38.4135 15.5999 38.4617 15.9025 38.7248 15.8893C39.08 15.8674 38.9923 15.5078 39.0274 15.2886C39.1414 14.6265 39.2159 13.9731 39.3168 13.2935C39.3738 12.8988 39.4527 12.6927 40.014 12.6357C40.8734 12.548 40.9216 12.8374 40.8076 13.5303H40.8252ZM48.2794 16.5777C48.2287 16.766 48.1936 16.9581 48.1742 17.1521L47.7357 17.9545C47.6611 18.0598 47.5866 18.1606 47.5164 18.2659H47.5647H47.5121L47.3454 18.4763C47.335 18.4783 47.3251 18.4825 47.3164 18.4886C47.3078 18.4947 47.3005 18.5025 47.2951 18.5117C47.2897 18.5208 47.2863 18.531 47.2851 18.5415C47.284 18.5521 47.2851 18.5627 47.2884 18.5728L47.5691 18.4851L47.7401 18.3185L47.5691 18.4851L47.2884 18.5728C45.8283 19.783 44.219 19.7611 42.544 19.1297C42.1801 18.6474 41.6671 18.279 41.5092 17.6389C41.5092 17.4942 41.5399 17.3538 41.382 17.2661V17.2442C41.2593 14.5694 43.0439 12.4954 45.4687 12.4691C46.2031 12.4474 46.9196 12.6972 47.4814 13.1707C47.7269 13.3768 48.3583 13.6311 47.9681 14.0214C47.5778 14.4116 47.192 14.9597 46.4685 14.3941C46.0626 14.1088 45.5733 13.9669 45.0778 13.9907C44.5823 14.0145 44.1089 14.2027 43.7323 14.5256C43.3982 14.8237 43.1531 15.2083 43.0238 15.637C42.8946 16.0657 42.8864 16.5218 43 16.9548C43.0836 17.2395 43.2524 17.4917 43.4837 17.6775C43.7149 17.8633 43.9976 17.9738 44.2936 17.994C45.0258 18.0861 45.7669 18.0905 46.3325 17.4854C46.422 17.3825 46.4676 17.2487 46.4597 17.1127C46.4597 16.9285 46.2492 16.9723 46.1221 16.9636C45.976 16.9731 45.8296 16.9731 45.6836 16.9636C45.3854 16.9066 44.8768 17.196 44.9557 16.5251C45.0083 16.034 44.982 15.5648 45.7274 15.6481C46.3107 15.7043 46.8981 15.7043 47.4814 15.6481C48.2355 15.5648 48.5162 15.8148 48.2443 16.5777H48.2794ZM50.7261 19.8488C50.8021 19.8532 50.8782 19.8532 50.9542 19.8488C50.8667 19.8561 50.7788 19.8576 50.6911 19.8532L50.7261 19.8488ZM53.9139 13.0786C53.8482 13.4601 54.0455 14.0652 53.322 14.0784C52.8177 14.0784 52.3091 14.1091 51.8048 14.0784C51.1953 14.0301 51.0419 14.3239 51.0155 14.872C50.9805 15.5824 51.4979 15.2184 51.7697 15.3105C52.0206 15.3346 52.2731 15.3346 52.5239 15.3105C52.8791 15.3105 53.3307 15.1351 53.3088 15.8323C53.2869 16.4243 53.1378 16.74 52.502 16.7093C52.1688 16.7093 51.8267 16.7093 51.4935 16.7093C50.9849 16.6523 50.7349 16.8276 50.6428 17.3582C50.5508 17.8888 50.6165 18.051 51.1559 18.0116C51.6952 17.9721 52.1644 18.0116 52.6686 18.0116C52.9405 18.0116 53.2606 17.9326 53.2957 18.358C53.4156 18.4982 53.4796 18.6777 53.4754 18.8622C53.4796 18.6777 53.4156 18.4982 53.2957 18.358C53.1247 18.7351 53.208 19.1867 52.9493 19.5375H52.8703L52.7914 19.5638C52.7398 19.6651 52.6717 19.7569 52.5897 19.8357C52.6717 19.7569 52.7398 19.6651 52.7914 19.5638H51.4102C50.5959 19.4696 49.7734 19.4696 48.9591 19.5638C48.9192 19.5507 48.8809 19.533 48.845 19.5112C48.8809 19.533 48.9192 19.5507 48.9591 19.5638L48.8012 19.213L48.8494 18.6912C48.8647 18.6677 48.8729 18.6403 48.8729 18.6123C48.8729 18.5843 48.8647 18.5568 48.8494 18.5334C48.8494 18.3887 48.8889 18.2396 48.9108 18.0949C48.9327 17.9502 48.8801 17.8888 48.8538 17.7967C48.8471 17.7689 48.8335 17.7433 48.8143 17.7222C48.8335 17.7433 48.8471 17.7689 48.8538 17.7967C48.8801 17.8888 48.8801 18.0116 48.9108 18.0949C49.1476 16.5777 49.4107 15.0605 49.6168 13.539C49.7045 12.8813 49.8799 12.57 50.656 12.662C51.514 12.7849 52.3851 12.7849 53.243 12.662C53.5807 12.5875 53.949 12.6401 53.8789 13.0786H53.9139ZM54.9268 11.5615C54.9674 11.559 55.0074 11.5501 55.0452 11.5352C54.9909 11.5568 54.9325 11.5658 54.8742 11.5615H54.9268ZM55.5232 2.79177C55.4311 3.19518 55.6898 3.80466 54.9312 3.90112C54.4927 3.95812 53.9095 3.58979 53.6377 4.14228C53.4922 4.56647 53.4095 5.00963 53.3921 5.45774C53.2387 6.5101 53.072 7.56248 52.9536 8.62361C52.8484 9.53566 52.16 9.14101 51.7171 9.15855C51.1559 9.18924 51.3488 8.72006 51.3882 8.41312C51.5549 7.15905 51.7259 5.90938 51.9364 4.66408C52.0372 4.08528 51.9101 3.83534 51.2743 3.86604C50.8928 3.86604 50.2877 4.12476 50.3666 3.30479C50.428 2.70407 50.5025 2.1998 51.3356 2.31381C51.8963 2.35111 52.4588 2.35111 53.0194 2.31381V2.31381C53.6377 2.31381 54.2559 2.31381 54.8742 2.31381C55.1461 2.36204 55.6196 2.24804 55.4881 2.81369L55.5232 2.79177ZM61.013 3.55034H60.6797C60.5084 3.51235 60.3294 3.52917 60.1681 3.59841C60.0068 3.66764 59.8713 3.78581 59.7808 3.93621V3.93621C59.4636 4.12889 59.2325 4.43614 59.1353 4.79442C59.0382 5.1527 59.0825 5.53462 59.2591 5.86116C59.4125 6.15495 59.6055 6.4268 59.7808 6.70743L59.7195 7.21606C59.3847 8.76947 59.1605 10.3447 59.0486 11.9298L59.0223 12.2718C58.2505 12.8681 57.7068 13.5873 57.9085 14.6309C57.9085 14.8589 57.8691 15.0693 57.8515 15.3105C57.6288 16.2042 57.4821 17.1151 57.413 18.0335C57.1938 19.6339 57.2069 19.6208 58.86 19.5857C59.5265 19.5857 59.9212 19.327 59.9913 18.6298C60.0703 17.8537 60.1711 17.0776 60.2632 16.3015L60.3114 15.9638C60.535 15.0869 60.956 14.0433 60.592 13.3066C60.2964 12.6592 60.174 11.946 60.2369 11.237C60.34 11.031 60.3752 10.7977 60.3377 10.5705C60.4593 10.366 60.497 10.1225 60.443 9.89084L60.5 9.39096C60.557 9.3189 60.5934 9.23261 60.6049 9.14142C60.6165 9.05023 60.603 8.9576 60.5657 8.87355C60.584 8.85214 60.594 8.82491 60.594 8.79679C60.594 8.76867 60.584 8.74148 60.5657 8.72006C60.5794 8.71624 60.5918 8.709 60.6019 8.69903C60.6119 8.68906 60.6193 8.67669 60.6233 8.66309C60.6272 8.64948 60.6276 8.63507 60.6245 8.62125C60.6213 8.60744 60.6147 8.59467 60.6052 8.58413L60.6578 8.20704C60.7841 7.25858 61.178 6.36574 61.7935 5.63314C62.5214 4.82194 62.0303 3.78274 61.013 3.55034ZM9.21919 18.3229C9.14903 18.4281 9.08325 18.5377 9.01748 18.643C9.22795 18.6254 9.2148 18.4676 9.21919 18.3229ZM31.3714 14.8676C30.8979 14.8106 30.8452 15.7446 30.5865 16.1831C30.2577 16.7838 30.4594 17.0162 31.0601 16.9373C31.5512 16.9767 31.9371 16.9373 31.788 16.3278C31.6345 15.8235 31.8538 14.9246 31.3714 14.8676ZM43.5262 7.82556C44.6882 7.86503 45.6967 6.7995 45.7186 5.51035C45.7186 4.46676 45.153 3.8222 44.1796 3.80028C43.8916 3.80598 43.6077 3.86834 43.3438 3.98382C43.08 4.0993 42.8415 4.26562 42.642 4.47329C42.4425 4.68096 42.2858 4.92592 42.181 5.19415C42.0761 5.46237 42.0252 5.74861 42.031 6.03654C42.0135 7.05382 42.6361 7.79487 43.5262 7.82556Z" fill="#1500FF"/>
</svg>
