<svg width="107" height="19" viewBox="0 0 107 19" fill="none" xmlns="http://www.w3.org/2000/svg">
<g clip-path="url(#clip0_595_19)">
<path d="M12.1858 13.0619C12.8425 12.7379 12.5098 12.2246 12.4353 11.76C12.4353 10.6445 12.4353 9.53184 12.4353 8.41632C12.4353 7.8686 12.4353 7.31801 12.0625 6.8133C13.178 6.66132 14.2276 6.87353 15.2599 6.66992L15.5467 6.72441C15.5782 6.79323 15.6098 6.84198 15.6585 6.72441L16.1087 6.83338L16.1518 6.85059C16.6377 7.03754 17.052 7.37349 17.3353 7.81031C17.6186 8.24714 17.7564 8.76242 17.729 9.28235C17.729 11.9923 17.729 14.6993 17.729 17.4093C17.729 17.8624 17.6487 18.0746 17.1354 18.0516C15.5696 17.9799 13.9982 18.1004 12.4324 17.9685C12.4324 17.2802 12.4754 16.592 12.4324 15.9066C12.3693 14.9832 12.7192 14.0054 12.1199 13.1393C12.1403 13.1123 12.1623 13.0864 12.1858 13.0619V13.0619Z" fill="#1500FF"/>
<path d="M5.06952 11.74C4.34113 11.74 3.60988 11.8002 2.88437 11.7629C2.55098 11.7568 2.22221 11.6838 1.91759 11.5481C1.61297 11.4125 1.33872 11.2171 1.11109 10.9734C0.883472 10.7297 0.707118 10.4428 0.592523 10.1297C0.477929 9.81652 0.42742 9.48355 0.443995 9.15051C0.443995 6.42624 0.443995 3.70197 0.443995 0.977704C0.443995 0.475866 0.570175 0.318145 1.09209 0.32388C3.40915 0.358292 5.72621 0.346822 8.04327 0.355425C8.20959 0.355425 8.37879 0.395572 8.54798 0.415645L8.28703 0.435719H4.94621C5.51974 0.527483 5.44517 0.83719 5.26164 1.23579C5.19344 1.43865 5.16996 1.65388 5.19282 1.86668C5.2301 3.47543 5.45665 5.10999 5.26739 6.69293C5.07812 8.38198 5.124 10.0596 5.06952 11.74Z" fill="#1500FF"/>
<path d="M5.07173 11.7399C5.12621 10.0594 5.07174 8.38187 5.27821 6.69282C5.46747 5.10988 5.24092 3.47532 5.20364 1.86656C5.18078 1.65377 5.20426 1.43854 5.27247 1.23568C5.456 0.837079 5.54203 0.527373 4.95703 0.435608H8.27776C8.26342 0.56752 7.84761 0.68796 8.27776 0.831343C8.50717 0.908769 8.59321 1.03495 8.39534 1.25289C8.19747 1.47083 8.30644 1.66009 8.30357 1.86656C8.30357 3.05951 8.30357 4.25245 8.30357 5.44539C7.57232 5.44539 6.84107 5.48267 6.11269 5.46547C5.63666 5.45113 5.6768 5.75223 5.6768 6.0562C5.6768 6.36017 5.65387 6.65841 6.1213 6.64981C6.76365 6.63547 7.406 6.66988 8.04835 6.68135C8.26056 7.14304 8.86563 6.63834 9.07497 7.1029C8.72225 7.21187 8.3265 7.04841 7.86194 7.27782C7.9358 7.29318 8.0059 7.32295 8.06823 7.36544C8.13056 7.40793 8.18391 7.46229 8.2252 7.52542C8.26649 7.58855 8.29492 7.65921 8.30886 7.73335C8.3228 7.80748 8.32198 7.88364 8.30644 7.95746C8.30644 9.21636 8.30644 10.4781 8.30644 11.7399C7.2289 11.7946 6.14927 11.7946 5.07173 11.7399Z" fill="#1500FF"/>
<path d="M8.30093 11.74C8.30093 10.4783 8.30093 9.2165 8.30093 7.9576C8.31646 7.88378 8.31728 7.80762 8.30334 7.73349C8.2894 7.65936 8.26097 7.5887 8.21968 7.52557C8.17839 7.46243 8.12506 7.40807 8.06273 7.36558C8.0004 7.32309 7.9303 7.29332 7.85645 7.27796C8.321 7.04855 8.71673 7.21201 9.06946 7.10304C8.86012 6.63848 8.25504 7.14319 8.04283 6.6815C10.4459 6.61554 12.8461 6.62128 15.2492 6.6815C14.2169 6.8851 13.1673 6.6815 12.0518 6.82488C12.4332 7.32958 12.4246 7.88017 12.4246 8.42789C12.4246 9.54341 12.4246 10.6561 12.4246 11.7716L8.91748 11.7515H8.28946L8.30093 11.74Z" fill="#1500FF"/>
<path d="M8.30019 5.44554C8.30019 4.2526 8.30019 3.05966 8.30019 1.86672C8.30019 1.66025 8.23137 1.43084 8.39196 1.25304C8.55255 1.07525 8.50379 0.908922 8.27437 0.831496C7.8471 0.688113 8.27437 0.567673 8.27437 0.435761L8.53534 0.415687C10.1915 0.338031 11.8294 0.788943 13.2125 1.70326C13.0117 1.82371 12.5845 1.4165 12.573 1.94415C12.5472 3.11128 12.573 4.27841 12.5586 5.44554H8.30019Z" fill="#1500FF"/>
<path d="M12.1843 13.062C12.1545 13.0896 12.1267 13.1193 12.1011 13.1509C12.6947 14.0112 12.3506 14.9948 12.4137 15.9181C12.4625 16.6035 12.4137 17.2917 12.4137 17.98H8.92952C8.76606 17.742 8.25275 17.98 8.28143 17.4495C8.34738 16.2106 8.28143 14.969 8.31871 13.7215C8.33305 13.191 8.52518 13.0562 8.92665 12.9616C9.89878 12.9616 10.8709 12.9415 11.843 12.9358C11.975 12.9387 12.1155 12.9329 12.1843 13.062Z" fill="#1500FF"/>
<path d="M27.7591 14.0484C26.7869 14.0083 25.8263 13.9251 24.9946 13.3372C24.663 13.1144 24.3912 12.8135 24.2032 12.461C24.0152 12.1084 23.9167 11.7151 23.9164 11.3155C23.9164 11.1378 23.8333 10.8969 24.1315 10.8682C24.4297 10.8395 24.4011 11.0661 24.4183 11.2582C24.4871 12.4053 25.1151 13.082 26.1819 13.3659C27.3074 13.7005 28.5086 13.6814 29.623 13.3114C30.469 13.0247 30.9135 12.4311 30.9106 11.6539C30.9077 10.8768 30.5464 10.3893 29.6087 10.1255C28.5133 9.8215 27.3949 9.58922 26.2908 9.3168C25.8264 9.21449 25.3875 9.01941 25.0004 8.74327C23.8734 7.90304 23.9021 6.11363 25.1524 5.49709C25.9299 5.09558 26.7945 4.8923 27.6695 4.90531C28.5444 4.91832 29.4027 5.1472 30.1679 5.57165C30.8475 5.9301 31.12 6.5954 31.2117 7.33238C31.2318 7.50157 31.2834 7.69371 31.0139 7.71091C30.7443 7.72812 30.7271 7.58187 30.7013 7.39261C30.4719 5.93297 29.5342 5.57452 28.3441 5.46268C27.4879 5.34385 26.6157 5.42733 25.7976 5.70643C25.0635 5.99319 24.6964 6.50363 24.705 7.21194C24.7121 7.53784 24.8234 7.85289 25.0226 8.11092C25.2218 8.36895 25.4985 8.55639 25.8119 8.64577C26.7439 8.98989 27.7419 9.07018 28.6796 9.33114C29.1556 9.46018 29.6345 9.59209 30.0962 9.76128C30.4683 9.88116 30.7935 10.1147 31.026 10.429C31.2585 10.7433 31.3866 11.1225 31.3924 11.5134C31.4439 11.9249 31.362 12.3421 31.1586 12.7035C30.9551 13.0648 30.641 13.3514 30.2625 13.5208C29.4837 13.8985 28.6241 14.0796 27.7591 14.0484Z" fill="#1500FF"/>
<path d="M66.1766 8.49086C66.4436 8.14993 66.7922 7.88167 67.1901 7.71078C67.588 7.53989 68.0225 7.47187 68.4536 7.51299C69.1389 7.54166 69.7239 7.73953 70.1225 8.32167C70.2946 8.57115 70.3864 8.63711 70.6272 8.36181C71.4101 7.46137 73.0246 7.21475 74.0512 7.81696C74.2792 7.94236 74.4731 8.12156 74.616 8.33896C74.7589 8.55636 74.8466 8.80539 74.8714 9.06439C75.0463 10.6273 74.9172 12.1987 74.9517 13.7645C74.9517 13.9365 74.9029 14.0512 74.7022 14.0512C74.5014 14.0512 74.4383 13.8706 74.4383 13.6899C74.4383 12.7436 74.4383 11.7973 74.4383 10.8509C74.4383 10.5642 74.4383 10.2516 74.4383 9.95049C74.4211 8.60269 73.9136 7.99475 72.778 7.95747C71.4703 7.91446 70.59 8.63997 70.5269 9.90748C70.4724 11.023 70.5097 12.1414 70.5068 13.2598V13.6469C70.5068 13.8419 70.5269 14.0656 70.22 14.0455C69.9132 14.0254 70.005 13.8189 70.005 13.6526C70.005 12.7082 70.005 11.7628 70.005 10.8165C70.005 10.4953 70.005 10.1713 70.005 9.85012C69.9878 8.78049 69.5777 8.18115 68.7432 8.01196C67.6793 7.79689 66.7989 8.19836 66.363 9.0988C66.1612 9.5289 66.063 10.0003 66.0763 10.4753C66.0763 11.4646 66.0763 12.4511 66.0763 13.4404C66.0763 13.6584 66.2426 14.0426 65.8182 14.034C65.4511 14.034 65.6002 13.6727 65.5974 13.4605C65.5859 11.7189 65.5859 9.97821 65.5974 8.2385C65.5974 8.0349 65.4425 7.68791 65.8096 7.66497C66.2455 7.63916 66.016 8.03777 66.0963 8.2385L66.1766 8.49086Z" fill="#1500FF"/>
<path d="M8.93227 12.9672C8.5308 13.0618 8.33867 13.1966 8.32433 13.7271C8.28992 14.9659 8.353 16.2076 8.28705 17.455C8.25837 17.997 8.77166 17.7418 8.93512 17.9856C7.66086 17.9669 6.415 17.6064 5.32763 16.9417L5.18712 16.8328C5.13263 15.8578 5.47387 14.8856 5.29894 13.9278C5.19571 13.3543 5.34482 13.1163 5.83519 12.9643L8.93227 12.9672Z" fill="#1500FF"/>
<path d="M34.8796 8.73449C36.3306 7.19456 38.4383 6.97662 39.7116 8.13229C40.9848 9.28795 41.0708 11.9118 39.9496 13.1593C38.7452 14.5042 36.6489 14.4296 34.8796 12.8926C34.8796 13.8389 34.8796 14.7049 34.8796 15.571C34.8796 15.7717 35.023 16.113 34.6416 16.1216C34.2602 16.1302 34.3921 15.786 34.3921 15.5824C34.3921 13.1143 34.3921 10.6453 34.3921 8.1753C34.3921 7.96309 34.2114 7.57596 34.6272 7.57022C35.043 7.56449 34.8337 7.95449 34.8767 8.17243C34.8932 8.35938 34.8942 8.54738 34.8796 8.73449V8.73449ZM40.2192 10.8107C40.2192 9.12162 39.3589 8.01184 37.9594 7.88853C36.322 7.74228 35.1922 8.59398 34.9255 10.1827C34.696 11.5305 35.2122 12.8696 36.1356 13.3371C37.882 14.2117 40.2192 13.5091 40.2192 10.8107Z" fill="#1500FF"/>
<path d="M12.5596 5.44548C12.5596 4.27835 12.5596 3.11122 12.5739 1.94408C12.5739 1.42791 13.0127 1.82364 13.2134 1.7032C15.1892 2.90762 16.7779 4.45615 17.6181 6.71585C16.0959 5.79861 14.3346 5.35629 12.5596 5.44548V5.44548Z" fill="#1500FF"/>
<path d="M102.011 8.71176C102.011 8.38198 102.011 8.11528 102.011 7.85146C102.011 7.66219 102.028 7.49874 102.278 7.51021C102.484 7.51021 102.504 7.6622 102.504 7.82565C102.504 9.7986 102.504 11.7715 102.504 13.7445C102.504 13.9079 102.478 14.0513 102.275 14.0628C102.025 14.0628 102.005 13.9022 102.005 13.7187V12.7982C101.268 13.7502 100.434 14.1918 99.3957 14.2062C98.3576 14.2205 97.4543 13.9194 96.8005 13.0591C95.8341 11.7801 95.9689 9.44587 97.073 8.33609C98.2458 7.14889 100.133 7.27506 102.011 8.71176ZM96.6715 10.8768C96.6715 10.9428 96.6715 11.0059 96.6715 11.0718C96.7174 12.6175 97.6752 13.6757 99.086 13.733C100.626 13.7961 101.836 12.7896 101.988 11.3156C102.177 9.5061 101.394 8.27874 99.8804 8.01492C97.9849 7.68514 96.6629 8.86087 96.6715 10.8768V10.8768Z" fill="#1500FF"/>
<path d="M81.4067 11.006C80.6124 11.006 79.8152 11.0347 79.0237 11.006C78.519 10.9802 78.4502 11.1781 78.5362 11.6082C78.7513 12.7983 79.3334 13.4492 80.4403 13.6786C81.7107 13.9425 82.9294 13.5037 83.5144 12.5746C83.5718 12.4828 83.6119 12.3825 83.6722 12.2878C83.7159 12.2247 83.7818 12.1804 83.8569 12.1639C83.9319 12.1474 84.0103 12.1599 84.0765 12.1989C84.2342 12.2735 84.1425 12.4197 84.0765 12.5287C83.996 12.706 83.9 12.8758 83.7897 13.0363C82.8778 14.2006 81.6275 14.3325 80.2941 14.1174C79.1069 13.9253 78.3957 13.1825 78.1003 12.0355C77.8984 11.2622 77.9093 10.4487 78.1319 9.68114C78.5821 8.11253 80.0274 7.28665 81.8426 7.54761C82.5566 7.62257 83.2169 7.96133 83.6943 8.49757C84.1717 9.03381 84.4317 9.72891 84.4235 10.4468C84.4378 10.9171 84.2772 11.0347 83.8499 11.0203C83.0384 10.9859 82.224 11.006 81.4067 11.006ZM81.1716 10.5787C81.9028 10.5787 82.6312 10.5787 83.3625 10.5787C83.7324 10.5787 83.8958 10.5042 83.8213 10.0597C83.6091 8.79217 82.6197 7.95194 81.2404 7.93761C80.6003 7.91293 79.9731 8.12144 79.4752 8.5244C78.9773 8.92736 78.6426 9.49736 78.5333 10.1285C78.4846 10.4669 78.5735 10.5931 78.9291 10.5816C79.6689 10.5644 80.4202 10.5787 81.1716 10.5787Z" fill="#1500FF"/>
<path d="M5.83502 12.9644C5.34466 13.1164 5.19554 13.363 5.29877 13.9279C5.4737 14.8857 5.13246 15.8578 5.18695 16.8328C3.81048 16.2364 2.82112 15.1782 1.85472 14.0856C1.23291 13.3497 0.747363 12.5087 0.420898 11.6022C1.21237 11.9636 1.85473 12.2389 2.50569 12.56C2.96112 12.7892 3.46736 12.8987 3.97679 12.8783C4.59334 12.8669 5.21274 12.9328 5.83502 12.9644Z" fill="#1500FF"/>
<path d="M59.236 7.51882C61.2691 7.51882 62.5366 8.8236 62.528 10.8912C62.528 12.8985 61.186 14.2148 59.1471 14.1976C57.1856 14.1804 55.9267 12.8555 55.9238 10.808C55.921 8.80353 57.2229 7.51308 59.236 7.51882ZM62.0118 10.8396C62.0118 9.09603 60.9193 7.94323 59.2646 7.94036C57.5211 7.94036 56.4199 9.08742 56.4228 10.8826C56.4228 12.6032 57.5268 13.733 59.213 13.733C60.9508 13.7359 62.0118 12.6376 62.0118 10.8396Z" fill="#1500FF"/>
<path d="M48.0706 8.44201C48.9309 7.49282 49.9776 7.29495 51.139 7.5215C52.3004 7.74804 52.9857 8.5051 53.0087 9.70951C53.0316 10.977 53.0087 12.2445 53.0087 13.5149C53.0087 13.7013 53.1033 13.9938 52.7477 13.9823C52.3921 13.9708 52.5011 13.6955 52.5011 13.4977C52.5011 12.3506 52.5011 11.2036 52.5011 10.0794C52.5011 8.64561 51.9276 7.98606 50.6113 7.9115C49.232 7.8312 48.1423 8.61407 48.0304 9.88731C47.9358 11.0602 47.9903 12.2474 47.9645 13.4289C47.9645 13.6296 48.1136 13.9651 47.7264 13.9794C47.3393 13.9938 47.4684 13.6468 47.4655 13.4518C47.454 11.7102 47.454 9.96951 47.4655 8.22981C47.4655 8.00613 47.2992 7.63047 47.7092 7.62187C48.1193 7.61326 47.9071 8.00326 47.9731 8.21547C47.9989 8.27282 48.0247 8.32731 48.0706 8.44201Z" fill="#1500FF"/>
<path d="M88.0643 8.57403C89.0852 7.40689 90.2954 7.3352 91.5571 7.67359C92.5293 7.93741 93.0397 8.66579 93.0569 9.68094C93.077 10.9915 93.0569 12.2991 93.0569 13.6096C93.0569 13.7874 93.1286 14.0398 92.8304 14.0512C92.4834 14.0512 92.5637 13.7845 92.5608 13.5867C92.5608 12.4712 92.5608 11.3528 92.5608 10.2373C92.5608 8.6916 91.9643 8.01197 90.5735 7.96895C89.1397 7.92594 88.0902 8.82925 88.0414 10.2172C88.0013 11.3327 88.0414 12.4511 88.0213 13.5666C88.0213 13.7587 88.1217 14.0512 87.7747 14.0455C87.4277 14.0398 87.531 13.7587 87.531 13.558C87.531 11.7762 87.531 9.99447 87.531 8.2127C87.531 8.01484 87.3876 7.66785 87.7862 7.68219C88.1848 7.69653 87.9697 8.03778 88.0213 8.23565C88.0427 8.34744 88.0571 8.46045 88.0643 8.57403V8.57403Z" fill="#1500FF"/>
<path d="M105.718 9.59218C105.718 8.30174 105.718 7.0113 105.718 5.72372C105.718 5.54019 105.586 5.23335 105.927 5.21328C106.269 5.19321 106.185 5.50005 106.185 5.68931C106.185 8.31417 106.185 10.9371 106.185 13.5581C106.185 13.7589 106.254 14.0542 105.924 14.037C105.595 14.0198 105.718 13.7101 105.718 13.5266C105.712 12.2161 105.718 10.9056 105.718 9.59218Z" fill="#1500FF"/>
<path d="M44.3966 10.7533C44.3966 11.6337 44.3966 12.5112 44.3966 13.3916C44.3966 13.5923 44.5285 13.9221 44.1328 13.9164C43.7973 13.9164 43.8861 13.6296 43.8861 13.4289C43.8861 11.584 43.8861 9.7401 43.8861 7.89715C43.8861 7.72223 43.803 7.47848 44.1184 7.46988C44.4339 7.46127 44.4052 7.71649 44.4052 7.92296C44.3995 8.86642 44.3966 9.80988 44.3966 10.7533Z" fill="#1500FF"/>
<path d="M43.8701 5.57456C43.9246 5.35088 43.7611 4.96088 44.1569 4.98382C44.5526 5.00676 44.3777 5.38242 44.3949 5.6147C44.4121 5.84698 44.4637 6.17103 44.1425 6.18823C43.7382 6.1739 43.9303 5.7925 43.8701 5.57456Z" fill="#1500FF"/>
<path d="M15.6366 6.73584C15.5879 6.84176 15.5564 6.7931 15.5249 6.73584H15.6366Z" fill="#1500FF"/>
<path d="M16.1302 6.86187L16.0874 6.84475L16.1159 6.82764L16.1302 6.86187Z" fill="#1500FF"/>
<path d="M8.82031 11.7399H8.92709L8.87226 11.7572L8.82031 11.7399Z" fill="#1500FF"/>
<path d="M5.18799 16.833L5.32997 16.9431L5.18799 16.833Z" fill="#1500FF"/>
</g>
<defs>
<clipPath id="clip0_595_19">
<rect x="0.417969" y="0.324036" width="105.785" height="17.7393" fill="white"/>
</clipPath>
</defs>
</svg>
