<svg width="33" height="31" viewBox="0 0 33 31" fill="none" xmlns="http://www.w3.org/2000/svg">
<path d="M24.1871 3.65596C24.1614 5.19928 23.9904 6.73675 23.6764 8.24801C23.5133 9.1115 23.1602 9.92791 22.6426 10.6381C22.3687 11.0263 21.9593 11.2977 21.4951 11.399C21.3833 11.4145 21.28 11.4675 21.2022 11.5494C21.1245 11.6313 21.0768 11.7372 21.0671 11.8497C20.817 12.9124 20.5771 13.9772 20.2856 15.0275C19.8969 16.4252 19.4586 17.8084 18.7267 19.0758C17.635 20.9676 15.6936 21.1785 14.1987 19.5824C13.3138 18.6396 12.6811 17.5355 12.0981 16.3983C11.0478 14.3597 10.3572 12.1888 9.74312 9.98889C9.39164 8.73801 9.05463 7.48301 8.76931 6.21766C8.42387 4.84831 8.26461 3.43864 8.29583 2.02673C8.29913 1.66746 8.41057 1.3175 8.61561 1.02247C8.82066 0.727443 9.10981 0.501014 9.4454 0.372683C9.76084 0.21102 10.1202 0.156071 10.4696 0.216096C10.8189 0.27612 11.1393 0.447873 11.3827 0.705557C11.9533 1.28654 12.4496 1.94609 12.9623 2.58083C14.4096 4.37133 15.8197 6.19285 17.3042 7.95647C18.0732 8.82455 18.8891 9.65005 19.748 10.4293C19.9548 10.636 20.2959 10.7043 20.5751 10.8428C20.6745 10.5834 20.7608 10.3191 20.8335 10.0509C21.1829 8.48577 21.4889 6.9103 21.8673 5.35343C22.1195 4.31965 22.4875 3.33135 22.8018 2.32652C22.845 2.15272 22.9327 1.99313 23.0561 1.86339C23.205 1.70372 23.4029 1.59823 23.6185 1.56359C23.8873 1.56359 24.0444 1.80963 24.0713 2.08668C24.1147 2.60978 24.1478 3.13287 24.1871 3.65596ZM16.3634 20.0724C16.6369 20.0773 16.9067 20.009 17.1449 19.8745C17.383 19.74 17.5808 19.5442 17.7177 19.3074C18.1477 18.5627 18.5296 17.7914 18.861 16.9979C19.2435 16.0386 19.5475 15.0461 19.8493 14.0558C20.0809 13.2928 20.2629 12.5175 20.4469 11.7422C20.4717 11.6326 20.391 11.4072 20.3125 11.3804C19.6488 11.1612 19.1278 10.7291 18.6088 10.297C16.3965 8.45476 14.5895 6.23628 12.8031 3.99918C12.1429 3.17216 11.4806 2.34513 10.8162 1.51811C10.657 1.32375 10.4234 1.19764 10.2125 1.33617C10.0323 1.46183 9.90496 1.64957 9.85477 1.86339C9.79348 2.20818 9.78582 2.56037 9.83203 2.9075C10.0285 4.30104 10.1877 5.70492 10.4854 7.07571C10.8555 8.76904 11.3289 10.4396 11.7983 12.1081C12.2367 13.6735 12.8159 15.1959 13.5288 16.6568C13.9979 17.6785 14.5969 18.6354 15.3111 19.5038C15.4377 19.6661 15.5966 19.8004 15.7777 19.8983C15.9588 19.9961 16.1583 20.0554 16.3634 20.0724V20.0724ZM23.8066 3.50503C23.788 3.19696 23.7674 2.73796 23.7177 2.28103C23.7074 2.17145 23.6061 2.07428 23.5461 1.96884C23.4572 2.04947 23.3208 2.11356 23.2877 2.21074C23.0003 3.10392 22.6674 3.98884 22.4607 4.89856C22.0472 6.78211 21.6957 8.68426 21.3132 10.5761C21.2574 10.849 21.3938 10.88 21.5778 10.7828C21.8145 10.6723 22.0345 10.5289 22.2312 10.3569C22.7398 9.87311 22.9507 9.21976 23.1471 8.57262C23.6516 6.97646 23.7384 5.31621 23.8149 3.50503H23.8066Z" fill="#1500FF"/>
<path d="M6.12203 28.5577C6.08482 28.6114 6.05794 28.7024 6.01038 28.7107C5.87061 28.7543 5.72237 28.7635 5.57827 28.7375C5.5121 28.7189 5.45215 28.5452 5.45215 28.4398C5.45215 27.3481 5.45215 26.2544 5.45215 25.1607C5.45215 24.9084 5.54725 24.803 5.79743 24.8112C6.0476 24.8195 6.13031 24.9229 6.1241 25.1586C6.11377 25.5163 6.1241 25.874 6.1241 26.2833C6.91391 25.9298 7.55485 26.0663 7.98491 26.8188C8.1171 27.0657 8.16637 27.3485 8.12541 27.6256C8.08445 27.9026 7.95545 28.1591 7.75747 28.3571C7.2778 28.8326 6.73817 28.8843 6.12203 28.5577ZM6.04554 27.4453C6.04171 27.5353 6.05666 27.6251 6.08941 27.709C6.12217 27.7929 6.17202 27.869 6.2358 27.9326C6.29959 27.9962 6.3759 28.0458 6.45989 28.0783C6.54389 28.1108 6.63372 28.1255 6.72369 28.1214C6.81882 28.1255 6.91376 28.1098 7.00251 28.0753C7.09127 28.0408 7.1719 27.9883 7.23933 27.9211C7.30675 27.8539 7.3595 27.7734 7.39424 27.6847C7.42897 27.5961 7.44494 27.5012 7.44114 27.406C7.4321 27.2203 7.35189 27.0451 7.21715 26.9169C7.08241 26.7887 6.90348 26.7173 6.71749 26.7175C6.6249 26.719 6.53357 26.7393 6.44903 26.7771C6.3645 26.8149 6.28852 26.8695 6.2257 26.9376C6.16287 27.0056 6.11451 27.0857 6.08355 27.173C6.05258 27.2602 6.03965 27.3529 6.04554 27.4453V27.4453Z" fill="#1500FF"/>
<path d="M1.9887 27.9582C2.31744 27.0154 2.60897 26.1449 2.9253 25.2703C2.94823 25.2079 2.98425 25.1512 3.03096 25.1039C3.07767 25.0566 3.13398 25.0198 3.19609 24.9961C3.25819 24.9724 3.32466 24.9623 3.39101 24.9664C3.45736 24.9706 3.52205 24.9889 3.58072 25.0202C3.61632 25.053 3.64312 25.0942 3.65865 25.1401C3.67419 25.186 3.67796 25.235 3.66963 25.2827C3.31607 26.3331 2.9315 27.3751 2.58622 28.4296C2.43943 28.8782 2.10448 28.781 1.78815 28.7893C1.47181 28.7976 1.41185 28.597 1.33328 28.3634C1.01695 27.4247 0.682006 26.5026 0.367738 25.5557C0.307779 25.3758 0.0803438 25.1421 0.402883 25.0015C0.725422 24.8609 0.948716 25.0408 1.05416 25.3613C1.30916 26.1235 1.56761 26.8817 1.8295 27.6356C1.87512 27.7466 1.92832 27.8544 1.9887 27.9582V27.9582Z" fill="#1500FF"/>
<path d="M31.7849 26.5498C31.9045 26.7514 31.952 26.9877 31.9197 27.2199C31.8874 27.452 31.7772 27.6663 31.607 27.8276C31.4467 27.9905 31.2388 28.0983 31.0132 28.1355C30.7877 28.1726 30.5562 28.1372 30.352 28.0344C30.2735 27.9889 30.106 27.9723 30.0688 28.0178C30.0282 28.065 29.9977 28.1199 29.9792 28.1793C29.9608 28.2387 29.9546 28.3012 29.9613 28.3631C29.9864 28.4133 30.0234 28.4566 30.0692 28.489C30.1151 28.5215 30.1682 28.5422 30.2239 28.5492C30.6043 28.5761 30.9889 28.5492 31.3672 28.5802C31.8986 28.6277 32.1322 28.8758 32.1301 29.3307C32.1301 29.7256 31.8055 30.0337 31.3445 30.1019C30.7345 30.195 29.8724 29.7566 29.8972 29.035C29.8972 28.9751 29.8331 28.9048 29.7814 28.8593C29.4278 28.5554 29.403 28.1749 29.7421 27.8545C29.8079 27.8107 29.8537 27.7426 29.8696 27.6652C29.8855 27.5877 29.8701 27.5071 29.8269 27.441C29.7437 27.2613 29.7177 27.0604 29.7524 26.8655C29.7872 26.6706 29.881 26.4911 30.0212 26.3514C30.1518 26.1888 30.327 26.0678 30.5253 26.0031C30.7236 25.9385 30.9364 25.9331 31.1377 25.9875C31.3838 26.0433 31.6381 26.0598 31.8841 26.1095C32.0069 26.1441 32.1265 26.1891 32.2418 26.2438C32.1405 26.3286 32.035 26.4155 31.9337 26.4961C31.887 26.5212 31.8369 26.5393 31.7849 26.5498V26.5498ZM31.5326 27.0729C31.5378 26.9792 31.5237 26.8854 31.4914 26.7973C31.4591 26.7092 31.4091 26.6286 31.3446 26.5604C31.28 26.4922 31.2023 26.4379 31.1161 26.4008C31.0298 26.3637 30.937 26.3446 30.8431 26.3446C30.7492 26.3446 30.6563 26.3637 30.5701 26.4008C30.4839 26.4379 30.4061 26.4922 30.3416 26.5604C30.2771 26.6286 30.2271 26.7092 30.1948 26.7973C30.1625 26.8854 30.1484 26.9792 30.1536 27.0729C30.1632 27.2493 30.2401 27.4152 30.3683 27.5366C30.4966 27.6581 30.6665 27.7257 30.8431 27.7257C31.0197 27.7257 31.1896 27.6581 31.3179 27.5366C31.4461 27.4152 31.523 27.2493 31.5326 27.0729ZM30.2921 28.9999C30.3218 29.1197 30.3655 29.2356 30.4223 29.3452C30.6622 29.6822 31.024 29.7194 31.3838 29.6408C31.5119 29.6119 31.605 29.4217 31.7166 29.3059C31.605 29.2046 31.5099 29.0268 31.3817 29.0123C31.019 28.9881 30.6552 28.984 30.2921 28.9999V28.9999Z" fill="#1500FF"/>
<path d="M16.9862 27.0875H16.1985C16.0912 27.1074 15.9812 27.1074 15.8739 27.0875C15.7767 27.0462 15.7085 26.9366 15.6278 26.858C15.7085 26.7898 15.787 26.6657 15.8697 26.6637C16.2833 26.643 16.6968 26.643 17.1103 26.6637C17.3894 26.6637 17.4514 26.8105 17.3915 27.195C17.255 28.0924 16.7443 28.6423 15.847 28.8305C15.5302 28.891 15.2033 28.8726 14.8953 28.7769C14.5873 28.6811 14.3076 28.511 14.081 28.2815C13.8543 28.0521 13.6876 27.7703 13.5957 27.4612C13.5037 27.152 13.4893 26.8249 13.5537 26.5089C13.6182 26.1928 13.7594 25.8975 13.965 25.649C14.1707 25.4005 14.4343 25.2065 14.7327 25.084C15.0311 24.9616 15.3551 24.9145 15.676 24.947C15.9969 24.9794 16.3049 25.0904 16.5727 25.2701C16.6533 25.326 16.6658 25.4769 16.7092 25.5844C16.5748 25.5844 16.4114 25.6278 16.3081 25.5699C16.1333 25.4583 15.9379 25.3831 15.7334 25.3489C15.5289 25.3146 15.3196 25.322 15.1181 25.3705C14.9165 25.4191 14.7268 25.5079 14.5604 25.6315C14.3939 25.7551 14.2542 25.9111 14.1494 26.09C14.0447 26.269 13.9772 26.4672 13.9509 26.6729C13.9247 26.8785 13.9402 27.0874 13.9966 27.2869C14.053 27.4864 14.149 27.6725 14.2791 27.834C14.4091 27.9955 14.5704 28.1291 14.7533 28.2267C15.0902 28.4252 15.4917 28.4834 15.8711 28.3886C16.2505 28.2938 16.5775 28.0538 16.7815 27.7202C16.8679 27.5156 16.9364 27.3039 16.9862 27.0875V27.0875Z" fill="#1500FF"/>
<path d="M11.8534 28.5845C11.2331 28.9132 10.8196 28.905 10.4578 28.5659C9.97812 28.1069 10.1228 27.4184 10.7659 27.2303C11.0544 27.1777 11.3471 27.1514 11.6404 27.1517C11.7279 27.1319 11.8127 27.1013 11.8927 27.0607C11.8534 26.9739 11.8348 26.854 11.7707 26.8085C11.674 26.7255 11.5508 26.6799 11.4233 26.6799C11.2959 26.6799 11.1727 26.7255 11.076 26.8085C10.8113 27.0152 10.6625 26.8374 10.5426 26.6637C10.5054 26.6038 10.6253 26.3805 10.7286 26.304C10.9049 26.1634 11.1184 26.0775 11.3429 26.0569C11.5675 26.0363 11.7931 26.082 11.9919 26.1882C12.4447 26.395 12.6019 26.8085 12.6122 27.2943C12.6122 27.6458 12.6308 27.9973 12.6122 28.3447C12.6019 28.4873 12.5357 28.7065 12.4364 28.7437C12.3372 28.7809 12.1222 28.7044 11.963 28.6672C11.9134 28.6486 11.8927 28.6072 11.8534 28.5845ZM11.9568 27.7368C11.6887 27.7241 11.4201 27.7275 11.1525 27.7471C11.0491 27.7595 10.9581 27.8774 10.861 27.9539C10.9561 28.0449 11.0388 28.1917 11.1484 28.2165C11.4792 28.2868 11.719 28.109 11.9568 27.7368Z" fill="#1500FF"/>
<path d="M21.2353 26.273C21.9135 25.8698 22.1058 25.8925 22.7612 26.4797C22.924 26.3389 23.1007 26.2149 23.2884 26.1096C23.4351 26.0422 23.5954 26.0096 23.7567 26.0145C23.9181 26.0193 24.0761 26.0614 24.2185 26.1375C24.3608 26.2136 24.4837 26.3216 24.5773 26.4531C24.671 26.5845 24.733 26.7359 24.7585 26.8953C24.8154 27.4385 24.8299 27.9853 24.8019 28.5307C24.8019 28.6093 24.6633 28.6858 24.5951 28.7644C24.5227 28.6755 24.3884 28.5907 24.3884 28.4977C24.3656 28.0717 24.3884 27.6438 24.3884 27.2178C24.3884 26.7919 24.1134 26.457 23.7143 26.4466C23.3153 26.4363 23.0134 26.7506 23.0093 27.2158C23.0093 27.6293 23.0258 28.0262 22.9969 28.4273C22.9969 28.5452 22.8542 28.6548 22.7757 28.7664C22.7012 28.6548 22.5689 28.5473 22.5689 28.4315C22.5441 28.0283 22.5689 27.621 22.5544 27.2178C22.5379 26.9036 22.4345 26.61 22.0954 26.4942C21.9642 26.4327 21.8151 26.4211 21.6758 26.4614C21.5366 26.5017 21.4168 26.5913 21.3387 26.7133C21.2194 26.9313 21.1489 27.1726 21.132 27.4205C21.0989 27.7451 21.132 28.0779 21.1175 28.4025C21.1175 28.5287 21.0058 28.7375 20.9252 28.7478C20.7184 28.7726 20.6792 28.5886 20.6812 28.4067C20.6812 27.7616 20.6812 27.1165 20.6812 26.4714C20.6813 26.406 20.6954 26.3414 20.7225 26.2818C20.7496 26.2223 20.7891 26.1692 20.8384 26.1262C20.8983 26.0931 21.0534 26.2047 21.2353 26.273Z" fill="#1500FF"/>
<path d="M19.5717 28.4935C19.3909 28.5994 19.2038 28.6939 19.0114 28.7768C18.8362 28.8421 18.6455 28.8542 18.4634 28.8115C18.2814 28.7688 18.1159 28.6733 17.988 28.5369C17.8895 28.4571 17.8154 28.3513 17.774 28.2315C17.7326 28.1118 17.7256 27.9828 17.7538 27.8592C17.782 27.7356 17.8443 27.6224 17.9335 27.5325C18.0228 27.4425 18.1355 27.3793 18.2588 27.3502C18.5208 27.2836 18.7889 27.2441 19.059 27.2323C19.2174 27.2241 19.3761 27.2241 19.5345 27.2323C19.6523 26.7237 19.2492 26.3867 18.7199 26.5211C18.6062 26.55 18.5131 26.6389 18.3953 26.6658C18.3167 26.6823 18.1575 26.6658 18.1492 26.6224C18.1244 26.5335 18.1286 26.3805 18.1865 26.335C18.7364 25.907 19.7909 25.9814 19.9708 26.8539C20.0845 27.3998 20.0349 27.9808 20.0411 28.5473C20.0331 28.5926 20.014 28.6352 19.9855 28.6713C19.957 28.7074 19.92 28.7358 19.8777 28.754C19.8198 28.7706 19.7247 28.6755 19.6544 28.6176C19.6208 28.5806 19.5929 28.5388 19.5717 28.4935V28.4935ZM19.5552 27.6251C19.2293 27.6071 18.9025 27.612 18.5772 27.6396C18.4974 27.6584 18.4234 27.6962 18.3615 27.7498C18.2995 27.8035 18.2515 27.8714 18.2216 27.9477C18.2233 28.0281 18.245 28.1069 18.2847 28.1769C18.3244 28.2469 18.3809 28.306 18.449 28.3488C18.9328 28.5886 19.6503 28.1916 19.5552 27.6251V27.6251Z" fill="#1500FF"/>
<path d="M27.0637 26.2894C27.4235 26.2088 27.775 26.0516 28.1161 26.0702C28.7364 26.1013 29.1251 26.5913 29.1892 27.3108C29.2181 27.7024 29.2181 28.0956 29.1892 28.4872C29.1892 28.5865 29.0506 28.6795 28.9824 28.7746C28.9059 28.6733 28.7757 28.5678 28.7612 28.4686C28.7343 28.1006 28.7612 27.7264 28.7508 27.3563C28.7178 26.6843 28.265 26.337 27.6633 26.4982C27.4871 26.5455 27.3311 26.6491 27.2192 26.7931C27.1072 26.9372 27.0454 27.1139 27.043 27.2963C27.0162 27.6561 27.0286 28.0158 27.0265 28.3776C27.0265 28.5596 27.0265 28.7705 26.7929 28.7539C26.7102 28.7539 26.5861 28.5182 26.5861 28.388C26.5634 27.7553 26.5654 27.1206 26.5861 26.4879C26.5861 26.3618 26.6978 26.2377 26.7577 26.1137L27.0637 26.2894Z" fill="#1500FF"/>
<path d="M9.26835 26.2813C9.42148 26.2095 9.5815 26.1534 9.74595 26.1138C9.90308 26.0932 10.116 26.0353 10.1347 26.3206C10.1471 26.5418 10.1202 26.6866 9.83485 26.7114C9.75306 26.7189 9.67358 26.7425 9.601 26.781C9.52843 26.8194 9.46422 26.8719 9.41209 26.9354C9.35997 26.9989 9.32097 27.0721 9.29736 27.1507C9.27375 27.2294 9.26599 27.312 9.27455 27.3937C9.27455 27.7534 9.27455 28.1152 9.27455 28.4771C9.27455 28.7066 9.15463 28.7789 8.94581 28.7851C8.73698 28.7913 8.58605 28.719 8.58398 28.5019C8.58398 27.7803 8.58398 27.0546 8.58398 26.3371C8.58398 26.1159 8.86517 26.0167 9.09054 26.1304C9.15492 26.1743 9.21452 26.2249 9.26835 26.2813V26.2813Z" fill="#1500FF"/>
<path d="M4.72468 27.4143C4.72468 27.7513 4.72468 28.0904 4.72468 28.4274C4.72468 28.6693 4.61717 28.7892 4.36906 28.7872C4.12095 28.7851 4.01551 28.6859 4.01965 28.4295C4.02999 27.7555 4.02999 27.0794 4.01965 26.4054C4.01965 26.1428 4.14783 26.0973 4.36493 26.0973C4.58202 26.0973 4.72675 26.151 4.72468 26.4012C4.72261 26.7382 4.72468 27.0876 4.72468 27.4143Z" fill="#1500FF"/>
<path d="M25.8784 27.437C25.8784 27.7865 25.895 28.1359 25.8784 28.4853C25.8784 28.5845 25.7523 28.6755 25.6861 28.7706C25.6014 28.6776 25.4504 28.5866 25.4463 28.4915C25.4277 27.7823 25.4298 27.0711 25.4463 26.3619C25.46 26.3067 25.487 26.2557 25.5248 26.2132C25.5626 26.1707 25.6102 26.138 25.6634 26.1179C25.8577 26.0745 25.8888 26.2296 25.8888 26.3867C25.8784 26.7361 25.8784 27.0876 25.8784 27.437Z" fill="#1500FF"/>
<path d="M4.44924 24.8133C4.53814 24.9373 4.68907 25.0552 4.70148 25.1855C4.69689 25.2709 4.6602 25.3514 4.59875 25.4109C4.53731 25.4703 4.45565 25.5044 4.37015 25.5062C4.28464 25.5081 4.2016 25.4775 4.13767 25.4207C4.07374 25.3639 4.03363 25.2851 4.02539 25.1999C4.03573 24.9642 4.16185 24.867 4.44924 24.8133Z" fill="#1500FF"/>
<path d="M25.6422 25.5721C25.514 25.3653 25.3775 25.2413 25.3899 25.1358C25.4024 25.0304 25.5719 24.9497 25.6711 24.8588C25.7621 24.958 25.9192 25.0531 25.9254 25.1565C25.9316 25.2599 25.7849 25.3757 25.6422 25.5721Z" fill="#1500FF"/>
</svg>
