<svg width="109" height="22" viewBox="0 0 109 22" fill="none" xmlns="http://www.w3.org/2000/svg">
<path d="M0.258789 1.87863C0.977811 1.87863 1.69683 1.87863 2.41585 1.87863C2.47406 1.89386 2.5286 1.9207 2.57618 1.95754C2.62376 1.99438 2.66341 2.04046 2.69274 2.093C3.56361 3.77221 4.42107 5.46034 5.28301 7.14401L6.11367 8.76962L6.90415 7.22887C7.79734 5.52733 8.65034 3.8258 9.51228 2.11979C9.54296 2.03601 9.60125 1.96517 9.67754 1.9189C9.75384 1.87264 9.8436 1.85371 9.93208 1.86523C10.5886 1.86523 11.2451 1.86523 11.9686 1.86523L6.11814 13.3249C5.82785 12.7622 5.56436 12.2575 5.30533 11.7484L0.392763 2.1064C0.355512 2.04923 0.315267 1.99407 0.272186 1.94116L0.258789 1.87863Z" fill="#1500FF"/>
<path d="M78.6044 21.8684C78.0194 21.6362 77.8809 21.1762 77.9435 20.5822H78.533C78.536 20.7202 78.5585 20.857 78.6 20.9886C78.658 21.1003 78.792 21.2342 78.8903 21.2342C78.9556 21.2223 79.0173 21.1951 79.0701 21.1547C79.1229 21.1143 79.1653 21.062 79.1939 21.002C79.23 20.867 79.2264 20.7245 79.1837 20.5914C79.1409 20.4584 79.0608 20.3405 78.9528 20.2517C78.7295 20.015 78.4749 19.8051 78.265 19.5506C78.1294 19.3958 78.032 19.2112 77.9808 19.0118C77.9296 18.8125 77.926 18.6038 77.9703 18.4028C78.0774 17.8312 78.3811 17.6079 79.0242 17.6257C79.1376 17.6252 79.2499 17.647 79.3548 17.6901C79.4596 17.7332 79.5549 17.7967 79.635 17.8769C79.7152 17.957 79.7787 18.0523 79.8218 18.1571C79.8649 18.262 79.8868 18.3743 79.8862 18.4877C79.8862 18.577 79.8862 18.6708 79.8862 18.7869H79.2565C79.2601 18.6856 79.2465 18.5844 79.2163 18.4877C79.1582 18.3894 79.0466 18.251 78.9617 18.2554C78.8976 18.2625 78.8364 18.2854 78.7833 18.322C78.7303 18.3587 78.6873 18.4079 78.658 18.4653C78.6161 18.6031 78.6163 18.7501 78.6585 18.8878C78.7006 19.0254 78.7829 19.1473 78.8947 19.238C79.1002 19.4568 79.319 19.6533 79.5244 19.8677C79.6756 20.0293 79.7864 20.2244 79.8477 20.4371C79.9091 20.6498 79.9192 20.874 79.8772 21.0913C79.8492 21.2691 79.7727 21.4358 79.6561 21.5729C79.5395 21.71 79.3873 21.8123 79.2163 21.8684H78.6044Z" fill="#1500FF"/>
<path d="M63.8146 21.8684C63.6866 21.8269 63.5681 21.7606 63.4659 21.6732C63.3636 21.5858 63.2796 21.4792 63.2186 21.3593C63.1576 21.2394 63.1209 21.1086 63.1105 20.9745C63.1001 20.8404 63.1163 20.7056 63.1581 20.5777H63.7297C63.7218 20.7289 63.7415 20.8802 63.7878 21.0243C63.819 21.0828 63.8629 21.1336 63.9162 21.1729C63.9695 21.2123 64.0309 21.2394 64.0959 21.2521C64.1602 21.2365 64.2197 21.2056 64.2695 21.1621C64.3192 21.1185 64.3577 21.0636 64.3817 21.002C64.4148 20.8664 64.4084 20.7241 64.3633 20.592C64.3182 20.4598 64.2363 20.3433 64.1272 20.2562C63.9128 20.024 63.6806 19.8096 63.4618 19.5774C63.3018 19.3982 63.1929 19.1793 63.1465 18.9436C63.1002 18.7079 63.118 18.464 63.1983 18.2376C63.3189 17.791 63.6225 17.6168 64.1718 17.6257C64.3678 17.6131 64.5619 17.6703 64.7197 17.7873C64.8775 17.9042 64.9888 18.0732 65.0338 18.2644C65.0666 18.4342 65.0905 18.6056 65.1052 18.778H64.4532C64.4623 18.6951 64.4531 18.6113 64.4264 18.5323C64.3505 18.4207 64.2522 18.2778 64.1361 18.2465C63.9441 18.1974 63.8369 18.3537 63.8146 18.5323C63.804 18.671 63.8259 18.8103 63.8786 18.939C63.9314 19.0677 64.0134 19.1823 64.1183 19.2737C64.2924 19.4479 64.48 19.6086 64.6497 19.7873C64.8229 19.9551 64.9516 20.1634 65.0242 20.3934C65.0967 20.6234 65.1107 20.8679 65.065 21.1047C65.0325 21.2752 64.9572 21.4347 64.8463 21.5683C64.7354 21.7018 64.5925 21.8051 64.4309 21.8684H63.8146Z" fill="#1500FF"/>
<path d="M27.2803 7.28251C27.2835 5.93401 27.6888 4.61711 28.4444 3.50017C29.2 2.38324 30.2715 1.51702 31.522 1.01225C32.7725 0.507492 34.1451 0.387122 35.4643 0.66654C36.7836 0.945957 37.9895 1.61246 38.928 2.58084C39.8664 3.54922 40.4948 4.77548 40.7326 6.10283C40.9705 7.43019 40.8072 8.79833 40.2634 10.0324C39.7197 11.2664 38.8202 12.3102 37.6801 13.0304C36.54 13.7505 35.2111 14.1143 33.8631 14.0753C32.0971 14.024 30.4208 13.2854 29.1913 12.0167C27.9617 10.7479 27.2761 9.04929 27.2803 7.28251V7.28251ZM29.223 4.56721C29.2058 4.6041 29.1938 4.64316 29.1873 4.68331C29.1873 6.36252 29.1873 8.04172 29.1873 9.72093C29.2003 9.78118 29.2257 9.83809 29.2618 9.88805C29.298 9.93801 29.344 9.97994 29.3972 10.0112C30.3663 10.5829 31.3443 11.1411 32.3179 11.7038L33.8319 12.5702C33.8319 12.4764 33.8319 12.4273 33.8319 12.3782C33.8319 10.7302 33.8319 9.0823 33.8319 7.43435C33.8319 7.23785 33.7292 7.17086 33.5907 7.09048L30.0537 5.054C29.7991 4.88875 29.5177 4.73245 29.223 4.56721ZM38.7132 4.1608L38.347 3.99109C37.034 3.44178 35.721 2.90139 34.4124 2.33868C34.3008 2.28037 34.1767 2.24992 34.0507 2.24992C33.9247 2.24992 33.8006 2.28037 33.689 2.33868C33.3406 2.51285 32.9744 2.64236 32.6127 2.78527L29.4508 4.12507C29.4869 4.15797 29.5258 4.18785 29.5669 4.21439C31.0198 5.05697 32.4742 5.89509 33.9301 6.72873C33.977 6.75066 34.028 6.76202 34.0797 6.76202C34.1314 6.76202 34.1825 6.75066 34.2294 6.72873C34.5822 6.54563 34.926 6.3402 35.2744 6.14369L38.7132 4.1608ZM38.9231 4.5806L38.7712 4.65652L34.5241 7.07708C34.4452 7.10855 34.3787 7.16471 34.3344 7.23717C34.2901 7.30962 34.2705 7.39447 34.2785 7.47901C34.2785 9.08676 34.2785 10.6945 34.2785 12.3023C34.2785 12.3782 34.2785 12.4541 34.3008 12.5613C35.8148 11.6904 37.2975 10.8374 38.7668 9.97549C38.8099 9.93843 38.8446 9.89254 38.8685 9.84092C38.8924 9.7893 38.9049 9.73314 38.9052 9.67627C38.9052 8.94831 38.9052 8.22037 38.9052 7.49688L38.9231 4.5806Z" fill="#1500FF"/>
<path d="M53.4318 12.329H47.7868C46.2847 12.3413 44.838 11.7623 43.7591 10.717C42.6802 9.67175 42.0558 8.24407 42.0206 6.74229C41.9854 5.24052 42.5423 3.78515 43.5711 2.69049C44.5998 1.59583 46.0178 0.949718 47.5189 0.891663H53.4273V2.94154H47.76C46.7911 2.91489 45.8514 3.27421 45.1474 3.94047C44.4435 4.60673 44.033 5.52534 44.0064 6.49422C43.9797 7.4631 44.3391 8.40288 45.0053 9.10683C45.6716 9.81077 46.5902 10.2212 47.5591 10.2479C48.7604 10.2702 49.9617 10.2479 51.1631 10.2479H51.3596V8.1042H47.7332V6.07665H53.4318V12.329Z" fill="#1500FF"/>
<path d="M108.363 0.918374V2.95933H102.669C101.7 2.93445 100.761 3.29548 100.059 3.963C99.356 4.63051 98.9472 5.54983 98.9224 6.51871C98.8975 7.48759 99.2585 8.42666 99.926 9.12935C100.594 9.83204 101.513 10.2408 102.482 10.2656C103.67 10.288 104.862 10.2656 106.055 10.2656C106.127 10.2719 106.201 10.2719 106.273 10.2656V8.11305H102.651V6.08996H108.359V12.3423H108.033H102.674C101.231 12.3541 99.8364 11.82 98.7705 10.8471C97.7046 9.87428 97.0457 8.5345 96.926 7.09633C96.8062 5.65817 97.2344 4.22788 98.1248 3.09211C99.0151 1.95635 100.302 1.19904 101.727 0.971963C102.011 0.92896 102.297 0.903612 102.584 0.896049H108.1C108.194 0.882651 108.261 0.891578 108.363 0.918374Z" fill="#1500FF"/>
<path d="M67.105 0.882874L72.8125 5.27292L78.52 0.88733V12.3068H76.4835V5.08088C76.0369 5.4203 75.6439 5.71059 75.2598 6.00534C74.514 6.58145 73.7637 7.15309 73.0269 7.73813C72.8661 7.86764 72.7678 7.84978 72.6115 7.73813C71.5665 6.92532 70.5125 6.12591 69.4853 5.32204L69.1683 5.08534V12.3202H67.105V0.882874Z" fill="#1500FF"/>
<path d="M85.8846 5.10772V12.3158H83.8481V0.91864L93.2267 8.11778V0.91864H95.2855V12.3471L85.8846 5.10772Z" fill="#1500FF"/>
<path d="M66.1222 12.3291C65.3674 12.3291 64.6797 12.3291 63.9919 12.3291C63.9281 12.3163 63.8678 12.2896 63.8153 12.2511C63.7629 12.2125 63.7195 12.1629 63.6882 12.1058C62.9379 10.6633 62.201 9.21187 61.4552 7.76489L60.2539 5.43812C60.0708 5.782 59.9011 6.10355 59.7358 6.4251C58.7712 8.30974 57.811 10.1959 56.8553 12.0835C56.8254 12.1681 56.7675 12.2399 56.6911 12.2871C56.6147 12.3342 56.5245 12.3538 56.4355 12.3425C55.779 12.3425 55.1225 12.3425 54.3945 12.3425C56.3506 8.51517 58.2844 4.72357 60.2539 0.873901C62.2234 4.69677 64.1571 8.51071 66.1222 12.3291Z" fill="#1500FF"/>
<path d="M21.8065 8.75616L22.8962 6.63036C23.6689 5.12086 24.4459 3.61137 25.2096 2.0974C25.2355 2.02181 25.2862 1.95723 25.3536 1.91423C25.4209 1.87123 25.5008 1.85235 25.5803 1.86069C26.2547 1.86069 26.9201 1.86069 27.6614 1.86069L21.8021 13.3204C19.8415 9.48411 17.9078 5.69696 15.9517 1.86069C16.7287 1.86069 17.4522 1.86069 18.1846 1.86069C18.2561 1.86069 18.3454 1.99467 18.3901 2.08399C19.4857 4.21575 20.5754 6.34603 21.6592 8.47481C21.6949 8.57306 21.744 8.64897 21.8065 8.75616Z" fill="#1500FF"/>
<path d="M82.2045 12.3158H80.168V0.91864H82.2045V12.3158Z" fill="#1500FF"/>
<path d="M14.9656 13.3026C14.3225 13.3026 13.6973 13.3026 13.0721 13.3026C13.0185 13.3026 12.9515 13.2043 12.9158 13.1373C12.9044 13.0768 12.9044 13.0148 12.9158 12.9542V1.89203H14.9701L14.9656 13.3026Z" fill="#1500FF"/>
<path d="M69.9205 17.6925C70.3547 17.6633 70.7904 17.6633 71.2246 17.6925C71.3347 17.7184 71.4385 17.7661 71.5298 17.8328C71.6211 17.8996 71.698 17.984 71.7561 18.081C71.8745 18.3235 71.9169 18.596 71.8779 18.8629C71.8388 19.1299 71.7201 19.3788 71.5372 19.5771C71.7544 19.8146 71.8956 20.1116 71.9425 20.43C71.9895 20.7483 71.9401 21.0735 71.8007 21.3635C71.6728 21.5564 71.4765 21.6936 71.2514 21.7476C70.8053 21.7772 70.3577 21.7772 69.9116 21.7476L69.9205 17.6925ZM70.6038 21.2653C70.8316 21.1894 71.1621 21.1581 71.1844 21.0598C71.2558 20.7498 71.2558 20.4276 71.1844 20.1175C71.1576 20.0148 70.8405 19.9835 70.6217 19.9076L70.6038 21.2653ZM70.6038 19.4432C70.8316 19.3315 71.0951 19.2779 71.1264 19.1663C71.189 18.9142 71.1797 18.6496 71.0996 18.4026C71.0728 18.3177 70.7959 18.3043 70.6038 18.2463V19.4432Z" fill="#1500FF"/>
<path d="M48.0219 21.8055H47.3654L47.2358 21.0865H46.4766L46.3471 21.8055H45.7397C45.7844 21.4974 45.8291 21.2026 45.8782 20.9123C46.039 19.9075 46.2087 18.8982 46.3605 17.8889C46.3873 17.7147 46.4498 17.679 46.6106 17.67C47.3654 17.6433 47.3609 17.6432 47.4815 18.3846C47.6542 19.4594 47.8313 20.5357 48.0129 21.6135C48.0219 21.6671 48.0174 21.7251 48.0219 21.8055ZM46.8875 18.7195H46.816L46.5615 20.4434H47.1421L46.8875 18.7195Z" fill="#1500FF"/>
<path d="M34.9487 17.7109C34.9768 17.6952 35.0069 17.6832 35.0381 17.6752C35.7571 17.6752 35.5963 17.5636 35.7035 18.2245C35.8419 19.0909 35.958 19.9573 36.1278 20.8237C36.2841 19.7832 36.4359 18.7471 36.5744 17.6975H37.1951L36.5565 21.8286C36.2662 21.8286 35.9893 21.8286 35.7169 21.8286C35.6454 21.8286 35.5427 21.6991 35.5293 21.6187C35.3507 20.52 35.1854 19.4169 35.0202 18.3139C34.9979 18.104 34.9711 17.9119 34.9487 17.7109Z" fill="#1500FF"/>
<path d="M75.6307 20.0193H74.7911V21.1939H75.8719V21.7968H74.1123V17.6881H75.8719V18.2732H74.7956V19.4075H75.6307V20.0193Z" fill="#1500FF"/>
<path d="M39.9516 18.2687V19.3941H40.7957V20.0194H39.9561V21.1805H41.0369V21.8013H39.2817V17.6971H41.0369V18.2687H39.9516Z" fill="#1500FF"/>
<path d="M83.8434 17.6925V18.2775H83.1825V21.8057H82.5036V18.3356C82.2827 18.3351 82.0635 18.2958 81.8561 18.2195C81.7757 18.1659 81.8293 17.8979 81.8204 17.7059L83.8434 17.6925Z" fill="#1500FF"/>
<path d="M59.8274 18.3358C59.6062 18.3375 59.3866 18.2981 59.1798 18.2196C59.0994 18.1705 59.1485 17.9026 59.1396 17.7061H61.1493V18.2911H60.5062V21.8192H59.8274V18.3358Z" fill="#1500FF"/>
<path d="M50.3579 18.282H49.688V17.6925H51.7289C51.6977 17.9024 51.7289 18.1614 51.6262 18.2463C51.5235 18.3311 51.26 18.291 51.0367 18.2999V21.7923H50.3579V18.282Z" fill="#1500FF"/>
<path d="M29.1003 17.6971V21.1895H30.1498V21.8013H28.4482V17.6971H29.1003Z" fill="#1500FF"/>
<path d="M57.0888 21.8058H56.4502V17.6971H57.0888V21.8058Z" fill="#1500FF"/>
<path d="M32.8648 21.8057H32.2173V17.6925H32.8648V21.8057Z" fill="#1500FF"/>
<path d="M33.0738 8.26042C33.047 8.31401 33.0023 8.48372 32.9041 8.52838C32.8392 8.54521 32.7716 8.54833 32.7054 8.53757C32.6393 8.5268 32.5762 8.50238 32.52 8.46585C32.3579 8.35847 32.2261 8.2114 32.137 8.03864C32.0479 7.86587 32.0044 7.67317 32.0109 7.47888C32.0109 7.14393 32.2476 7.03228 32.5289 7.19752C32.7033 7.31306 32.845 7.47153 32.9404 7.65768C33.0358 7.84382 33.0818 8.05139 33.0738 8.26042Z" fill="#1500FF"/>
<path d="M30.8033 9.5869C30.7675 9.65389 30.7318 9.83252 30.638 9.87271C30.568 9.8915 30.4948 9.89524 30.4232 9.8837C30.3516 9.87215 30.2833 9.84558 30.2227 9.80572C30.0626 9.69444 29.9335 9.5442 29.8475 9.36917C29.7615 9.19414 29.7216 9.0001 29.7314 8.80535C29.7314 8.50613 29.9547 8.35876 30.2138 8.52846C30.3946 8.63952 30.5437 8.79521 30.647 8.98057C30.7502 9.16592 30.804 9.37473 30.8033 9.5869V9.5869Z" fill="#1500FF"/>
<path d="M31.9581 8.90355C31.9089 8.98394 31.8643 9.14918 31.766 9.19831C31.7011 9.21709 31.633 9.22202 31.5661 9.21278C31.4991 9.20355 31.4349 9.18037 31.3775 9.14472C31.2166 9.03477 31.0855 8.88666 30.9959 8.71365C30.9063 8.54063 30.8609 8.3481 30.8639 8.15327C30.8639 7.81386 31.1229 7.70668 31.4132 7.88531C31.572 8.00582 31.7029 8.15917 31.7969 8.33491C31.8909 8.51065 31.9459 8.70461 31.9581 8.90355Z" fill="#1500FF"/>
<path d="M34.0575 4.69236C33.7789 4.61483 33.5071 4.51475 33.2447 4.39313C32.9946 4.25022 33.017 4.02246 33.2447 3.84829C33.4938 3.70655 33.7754 3.63202 34.062 3.63202C34.3486 3.63202 34.6302 3.70655 34.8793 3.84829C35.1294 4.03139 35.1383 4.29488 34.8793 4.43333C34.6125 4.54095 34.3378 4.62756 34.0575 4.69236V4.69236Z" fill="#1500FF"/>
<path d="M36.1162 8.80087C36.1209 8.61751 36.1681 8.43775 36.2541 8.27577C36.3401 8.11378 36.4626 7.97401 36.6119 7.86748C36.6637 7.8228 36.7277 7.79459 36.7956 7.78644C36.8635 7.7783 36.9323 7.7906 36.9932 7.82177C37.0541 7.85293 37.1043 7.90154 37.1374 7.9614C37.1706 8.02125 37.1851 8.08962 37.1791 8.15777C37.1986 8.32462 37.1761 8.49369 37.1137 8.64967C37.0513 8.80564 36.951 8.94357 36.8218 9.05096C36.753 9.10442 36.6737 9.14279 36.5891 9.16356C36.5044 9.18434 36.4163 9.18706 36.3306 9.17155C36.2145 9.11349 36.1653 8.89019 36.1162 8.80087Z" fill="#1500FF"/>
<path d="M37.1821 6.76428C37.2167 6.4384 37.3769 6.13881 37.6287 5.92914C37.6906 5.87953 37.7632 5.84518 37.8408 5.82889C37.9184 5.81259 37.9987 5.81481 38.0753 5.83536C38.14 5.87784 38.1925 5.93639 38.2278 6.00529C38.263 6.07418 38.2797 6.15106 38.2763 6.22837C38.2009 6.51738 38.0754 6.79096 37.9056 7.03671C37.8462 7.09096 37.7746 7.1302 37.697 7.15118C37.6193 7.17215 37.5377 7.17425 37.459 7.15728C37.325 7.11262 37.2714 6.90272 37.1821 6.76428Z" fill="#1500FF"/>
<path d="M35.0132 7.83612C35.0218 7.67764 35.0664 7.52321 35.1438 7.38466C35.2212 7.2461 35.3293 7.12709 35.4598 7.03672C35.5068 6.98687 35.5677 6.9522 35.6346 6.93719C35.7015 6.92217 35.7713 6.92748 35.8351 6.95244C35.899 6.9774 35.9539 7.02087 35.9929 7.07727C36.0318 7.13366 36.053 7.20041 36.0538 7.26895C36.0725 7.47276 36.0339 7.67776 35.9424 7.86083C35.8509 8.0439 35.71 8.19775 35.5357 8.30506C35.2186 8.44797 34.9953 8.26485 35.0132 7.83612Z" fill="#1500FF"/>
<path d="M36.0313 10.1989C36.0399 10.3812 36.0037 10.5628 35.9258 10.7279C35.848 10.8929 35.7308 11.0364 35.5847 11.1457C35.2899 11.3645 35.022 11.2484 34.9684 10.8866C34.96 10.6975 34.9999 10.5093 35.0842 10.3397C35.1686 10.1702 35.2947 10.0249 35.4507 9.91752C35.5126 9.8902 35.5795 9.8761 35.6472 9.8761C35.7149 9.8761 35.7818 9.8902 35.8437 9.91752C35.9688 9.97111 36.0045 10.1453 36.0313 10.1989Z" fill="#1500FF"/>
<path d="M37.1821 9.6495C37.2161 9.32595 37.3767 9.02898 37.6287 8.8233C37.6929 8.77833 37.7661 8.74783 37.8432 8.73395C37.9203 8.72007 37.9995 8.72312 38.0753 8.7429C38.1361 8.78311 38.1853 8.83842 38.2182 8.90341C38.2511 8.9684 38.2665 9.04084 38.2629 9.11359C38.187 9.40228 38.0648 9.67677 37.9011 9.9264C37.843 9.98286 37.7718 10.0242 37.694 10.0468C37.6161 10.0693 37.5339 10.0725 37.4545 10.0559C37.3161 10.0068 37.2536 9.79241 37.1821 9.6495Z" fill="#1500FF"/>
</svg>
