<svg width="60" height="26" viewBox="0 0 60 26" fill="none" xmlns="http://www.w3.org/2000/svg">
<path d="M50.2551 7.76978C51.8765 7.83024 53.4519 8.32528 54.8165 9.20311C56.181 10.0809 57.2847 11.3093 58.0119 12.7597C60.4499 17.3024 58.3627 22.4064 54.3944 24.6295C52.3412 25.7961 49.9342 26.1774 47.621 25.7023C45.3078 25.2273 43.2459 23.9282 41.8187 22.0468C40.5531 20.3273 39.9558 18.2062 40.1381 16.0789C40.3204 13.9516 41.2699 11.9631 42.8096 10.484C44.6863 8.69059 46.9884 7.76978 50.2551 7.76978ZM49.5711 24.9189C51.5605 24.9224 53.4903 24.2394 55.0346 22.9852C56.4745 21.8448 57.4682 20.235 57.8425 18.4367C58.2167 16.6384 57.9477 14.7658 57.0823 13.1456C56.4905 12.0793 55.6786 11.1512 54.7005 10.4229C53.7223 9.69463 52.6004 9.18284 51.4093 8.92155C50.2181 8.66026 48.985 8.65545 47.7918 8.90745C46.5987 9.15945 45.4728 9.66249 44.489 10.3831C41.8011 12.3739 40.6391 15.0881 41.3056 18.403C41.7155 20.2783 42.7637 21.9531 44.2712 23.1415C45.7787 24.3299 47.6519 24.9581 49.5711 24.9189V24.9189Z" fill="white"/>
<path d="M47.3516 5.25304C47.337 4.52851 47.501 3.81152 47.829 3.16534C48.1571 2.51916 48.6392 1.96366 49.2327 1.54785C49.1231 1.8504 49.0003 2.14858 48.9082 2.4599C48.5086 3.79713 48.4965 5.22025 48.8731 6.56412C48.9301 6.78336 48.9082 6.84913 48.6714 6.86228C47.2145 6.94601 45.7965 7.36465 44.5277 8.08566C44.2866 8.22159 44.2734 8.05934 44.2208 7.92341C43.7822 6.77908 43.0878 5.75019 42.1906 4.91541C41.812 4.56897 41.3957 4.266 40.9497 4.01213C41.4145 3.9069 42.3529 4.16122 43.0588 4.55586C43.6883 4.92634 44.2418 5.41289 44.69 5.9897C44.348 4.00336 44.0279 2.04334 44.212 0C45.4872 1.60379 46.543 3.37035 47.3516 5.25304V5.25304Z" fill="white"/>
<path d="M22.7833 16.237C22.5948 16.6755 22.4062 17.1579 22.2221 17.6227C21.9897 18.2058 21.7441 18.7803 21.5336 19.3766C21.4328 19.6572 21.2311 19.6046 21.0294 19.609C20.8277 19.6134 20.6874 19.609 20.5909 19.3766C20.2226 18.4119 19.8192 17.456 19.4289 16.5001C19.407 16.4344 19.4289 16.3204 19.3061 16.3379C19.1834 16.3554 19.2404 16.4607 19.2404 16.5308C19.2404 17.456 19.2404 18.3812 19.2404 19.3064C19.2404 19.5213 19.2141 19.6221 18.9641 19.6134C18.416 19.6134 18.416 19.6134 18.416 19.0565C18.416 17.741 18.416 16.4256 18.416 15.0882C18.416 14.8646 18.4599 14.7857 18.701 14.7857C19.4114 14.7857 19.4114 14.7857 19.692 15.4258C20.1042 16.3861 20.5207 17.3464 20.9329 18.3023C20.968 18.3812 21.0075 18.4514 21.0601 18.5522C21.217 18.3326 21.3356 18.088 21.4109 17.8287C21.8055 16.9518 22.1958 16.031 22.5597 15.1233C22.584 15.012 22.6507 14.9144 22.7456 14.8514C22.8405 14.7884 22.9563 14.7648 23.0683 14.7857C23.7085 14.8076 23.7085 14.7857 23.7085 15.4302C23.7085 16.7106 23.7085 17.991 23.7085 19.267C23.7085 19.5388 23.6427 19.6572 23.3665 19.6134C23.2894 19.6025 23.2112 19.6025 23.1341 19.6134C22.9149 19.6441 22.8535 19.5608 22.8579 19.3415C22.8579 18.3155 22.8579 17.2938 22.8579 16.2721L22.7833 16.237Z" fill="white"/>
<path d="M16.6237 16.9475C16.9657 16.9475 17.3077 16.9475 17.6497 16.9475C17.8514 16.9475 17.8953 17.0045 17.9128 17.2105C17.9346 17.5271 17.8906 17.8448 17.7836 18.1436C17.6766 18.4423 17.5088 18.7157 17.2909 18.9464C17.0729 19.1771 16.8096 19.3601 16.5174 19.484C16.2252 19.6078 15.9106 19.6698 15.5932 19.6661C15.032 19.6803 14.482 19.5069 14.0305 19.1732C13.579 18.8395 13.2518 18.3646 13.1008 17.8239C12.9497 17.2832 12.9835 16.7075 13.1967 16.1881C13.4099 15.6687 13.7904 15.2354 14.2778 14.9567C14.7581 14.7178 15.2981 14.6253 15.8306 14.6908C16.363 14.7562 16.8645 14.9768 17.2726 15.3251C17.4967 15.5376 17.6666 15.8007 17.7681 16.0924C17.812 16.2152 17.7988 16.2897 17.6497 16.281C17.3077 16.281 16.992 16.3204 16.7114 15.9433C16.4995 15.7129 16.2259 15.5482 15.9231 15.4686C15.6204 15.3891 15.3012 15.3981 15.0034 15.4946C14.7056 15.5911 14.4417 15.771 14.2432 16.013C14.0446 16.255 13.9196 16.5489 13.8831 16.8598C13.756 17.9604 14.2295 18.7058 15.1986 18.9119C15.6082 19.0181 16.043 18.9632 16.4134 18.7584C16.7837 18.5537 17.0614 18.2147 17.1893 17.8113C17.2419 17.6183 17.2288 17.535 16.992 17.5438C16.5535 17.5438 16.0668 17.5438 15.6064 17.5438C15.3301 17.5438 15.3784 17.3903 15.3696 17.2237C15.3608 17.0571 15.3696 16.9255 15.602 16.9387C15.9177 16.9606 16.2729 16.9475 16.6237 16.9475Z" fill="white"/>
<path d="M6.50176 17.649L7.81721 19.6046C7.51027 19.6046 7.26472 19.6046 7.01917 19.6046C6.86132 19.6046 6.81309 19.495 6.74731 19.3985C6.40968 18.8855 6.07643 18.3681 5.74318 17.8507C5.6609 17.7684 5.55841 17.7093 5.44602 17.6793C5.33363 17.6493 5.21532 17.6494 5.103 17.6797C4.99776 17.7367 5.04161 17.8331 5.03722 17.9164C5.03722 18.39 5.03722 18.8636 5.03722 19.3371C5.03722 19.5608 4.96706 19.6134 4.75221 19.609C4.2041 19.609 4.2041 19.609 4.2041 19.0784C4.2041 17.7235 4.2041 16.3686 4.2041 15.0093C4.2041 14.7857 4.25233 14.7023 4.49789 14.7155C5.14684 14.7462 5.81334 14.6717 6.44476 14.7593C6.78018 14.778 7.09768 14.9168 7.33922 15.1503C7.58075 15.3837 7.73019 15.6964 7.76021 16.031C7.78881 16.2091 7.78168 16.3911 7.73921 16.5664C7.69675 16.7418 7.61981 16.9069 7.51288 17.0522C7.40595 17.1975 7.27117 17.32 7.1164 17.4127C6.96162 17.5054 6.78995 17.5663 6.61138 17.592C6.57379 17.6089 6.5372 17.6279 6.50176 17.649ZM5.67741 15.3995C5.56789 15.4061 5.45807 15.4061 5.34855 15.3995C5.103 15.3645 5.0153 15.4434 5.02845 15.7021C5.05476 16.088 5.02845 16.4738 5.02845 16.8597C5.02845 17.0307 5.07669 17.0965 5.25208 17.0921C5.52832 17.0921 5.80457 17.0921 6.07643 17.0921C6.19004 17.1027 6.3046 17.0884 6.41205 17.0499C6.5195 17.0115 6.61721 16.95 6.69831 16.8697C6.77942 16.7895 6.84194 16.6924 6.88146 16.5854C6.92099 16.4783 6.93656 16.3639 6.92709 16.2502C6.93328 16.135 6.91455 16.0198 6.87217 15.9125C6.82979 15.8051 6.76477 15.7082 6.68153 15.6283C6.59829 15.5484 6.49879 15.4874 6.38983 15.4494C6.28086 15.4114 6.16499 15.3974 6.05012 15.4083C5.9405 15.3952 5.80896 15.3995 5.67741 15.3995V15.3995Z" fill="white"/>
<path d="M37.0599 14.6761C37.5008 14.6633 37.9356 14.7814 38.3094 15.0155C38.6832 15.2497 38.9793 15.5893 39.1602 15.9916C39.3137 16.316 39.2918 16.3292 38.9454 16.3467C38.7983 16.3714 38.6472 16.3511 38.5119 16.2885C38.3766 16.2259 38.2633 16.124 38.1868 15.996C37.9932 15.727 37.7175 15.5282 37.4012 15.4293C37.085 15.3305 36.7451 15.337 36.4328 15.4478C36.1523 15.5189 35.899 15.6713 35.7048 15.8858C35.5105 16.1004 35.384 16.3675 35.341 16.6537C35.2758 16.9572 35.2758 17.271 35.341 17.5745C35.385 17.8871 35.5251 18.1783 35.742 18.4077C35.9588 18.6371 36.2416 18.7934 36.5512 18.8549C36.8844 18.9306 37.2329 18.8998 37.5476 18.7668C37.8622 18.6339 38.1272 18.4055 38.3052 18.1138C38.4372 18.0277 38.5855 17.9696 38.7409 17.9432C38.8962 17.9167 39.0554 17.9226 39.2085 17.9604C39.2874 18.0393 39.2085 18.1226 39.1821 18.1971C39.044 18.5657 38.8074 18.8893 38.4982 19.1329C38.189 19.3764 37.8189 19.5305 37.4282 19.5784C36.8167 19.7078 36.1792 19.6194 35.626 19.3284C35.1433 19.0317 34.7728 18.583 34.5727 18.0528C34.3727 17.5226 34.3545 16.941 34.5211 16.3994C34.828 15.3382 35.7094 14.6805 37.0599 14.6761Z" fill="white"/>
<path d="M12.3998 19.5696C12.0052 19.7099 11.8956 19.5038 11.8035 19.2188C11.5843 18.5479 11.5755 18.5523 10.8871 18.5523C10.4705 18.5523 10.0496 18.5523 9.633 18.5523C9.46638 18.5523 9.36553 18.5961 9.33045 18.7715C9.30616 18.8662 9.27389 18.9586 9.23398 19.0478C9.02351 19.6134 9.02351 19.6046 8.44471 19.6134C8.19039 19.6134 8.14654 19.5696 8.24301 19.3284C8.68149 18.1971 9.11998 17.0614 9.55846 15.9258C9.67685 15.6276 9.79524 15.3338 9.90048 15.0488C9.92029 14.9694 9.96903 14.9002 10.0371 14.8548C10.1053 14.8094 10.1879 14.791 10.2688 14.8032C10.9309 14.8032 10.9397 14.8032 11.1765 15.3996C11.6939 16.715 12.2084 18.0305 12.7199 19.3459C12.9392 19.8677 12.4525 19.4687 12.3998 19.5696ZM10.488 15.6671C10.2118 16.4081 9.97941 17.057 9.73385 17.7016C9.68124 17.8419 9.6637 17.9252 9.8654 17.9252C10.3039 17.9252 10.6985 17.9252 11.1151 17.9252C11.2379 17.9252 11.3212 17.9033 11.2642 17.7586C11.0186 17.0921 10.7731 16.43 10.488 15.6671Z" fill="white"/>
<path d="M26.655 14.803C27.054 14.6715 27.1812 14.9083 27.3039 15.2415C27.8257 16.6184 28.3651 17.9908 28.9044 19.3589C28.9833 19.565 28.9702 19.6264 28.7334 19.6176C27.9792 19.5869 28.1458 19.7535 27.9047 19.0169C27.8927 18.9407 27.8653 18.8678 27.8241 18.8026C27.7829 18.7374 27.7288 18.6813 27.6652 18.6378C27.6015 18.5942 27.5296 18.5642 27.4539 18.5494C27.3782 18.5347 27.3003 18.5356 27.225 18.5521C26.7635 18.5784 26.3009 18.5784 25.8394 18.5521C25.6421 18.5521 25.5281 18.6091 25.4798 18.802C25.4557 18.8876 25.4249 18.9712 25.3878 19.052C25.1817 19.622 25.1817 19.6132 24.5722 19.6132C24.3485 19.6132 24.3135 19.5606 24.3968 19.3545C24.8908 18.0946 25.3834 16.8362 25.8745 15.5792C25.9247 15.4677 25.9687 15.3535 26.006 15.2371C26.0893 14.8995 26.2603 14.6803 26.655 14.803ZM26.6901 15.7765H26.6155L25.8701 17.7628C25.8175 17.9075 25.8701 17.9338 26.0148 17.9338C26.4533 17.9338 26.8918 17.9338 27.2995 17.9338C27.4442 17.9338 27.4662 17.8768 27.4223 17.7497C27.1768 17.0919 26.9312 16.4298 26.6901 15.7765V15.7765Z" fill="white"/>
<path d="M0 17.1404C0 16.4256 0 15.7109 0 14.9918C0 14.7769 0.0570018 14.698 0.276244 14.7112C0.925201 14.7463 1.5917 14.6673 2.22312 14.7638C2.40528 14.7776 2.58291 14.8273 2.74579 14.9101C2.90866 14.9929 3.05356 15.107 3.17216 15.246C3.29075 15.3849 3.38069 15.546 3.4368 15.7198C3.49291 15.8937 3.51408 16.0769 3.49911 16.259C3.50431 16.6195 3.3706 16.9681 3.12568 17.2326C2.88076 17.4971 2.54344 17.6572 2.18365 17.6797C1.88987 17.7104 1.5917 17.7104 1.30668 17.7148C0.868198 17.7148 0.868198 17.7148 0.868198 18.1533C0.868198 18.5918 0.868198 18.9469 0.868198 19.3416C0.868198 19.5477 0.802426 19.6003 0.605108 19.6003C0.0394624 19.6003 0.039462 19.6003 0.039462 19.0478V17.1316L0 17.1404ZM0.815582 16.2152C0.815582 17.0921 0.815582 17.0921 1.72324 17.0439C1.77586 17.0439 1.83286 17.0439 1.88548 17.0439C2.01887 17.0398 2.1492 17.0029 2.26491 16.9365C2.38062 16.87 2.47815 16.776 2.54884 16.6628C2.61953 16.5496 2.6612 16.4207 2.67016 16.2876C2.67912 16.1544 2.6551 16.0211 2.60021 15.8995C2.47305 15.5311 2.20996 15.3821 1.67063 15.3821C0.81558 15.3777 0.815582 15.3777 0.815582 16.2152Z" fill="white"/>
<path d="M31.0927 17.5306C31.0927 18.1357 31.0927 18.7408 31.0927 19.3459C31.0927 19.5345 31.062 19.6134 30.8428 19.6134C30.264 19.6134 30.264 19.6134 30.264 19.0478C30.264 17.9252 30.264 16.8027 30.264 15.6802C30.264 15.439 30.2026 15.3469 29.9526 15.3645C29.7027 15.382 29.3563 15.3645 29.0757 15.3645C28.795 15.3645 28.8521 15.211 28.8652 15.0576C28.8784 14.9041 28.7687 14.7112 29.0625 14.7112C30.1543 14.7112 31.2549 14.7112 32.3336 14.7112C32.5923 14.7112 32.5353 14.8909 32.5353 15.0312C32.5353 15.1716 32.6055 15.382 32.3205 15.3733C32.0354 15.3645 31.6583 15.3733 31.3295 15.3733C31.1409 15.3733 31.0839 15.4259 31.0883 15.6188C31.0883 16.259 31.0883 16.8948 31.0883 17.535L31.0927 17.5306Z" fill="white"/>
<path d="M33.7892 17.1974C33.7892 17.899 33.7892 18.6049 33.7892 19.3065C33.7892 19.5301 33.7497 19.6178 33.5042 19.6134C32.9605 19.6134 32.9604 19.6134 32.9604 19.0785C32.9604 17.7367 32.9604 16.395 32.9604 15.0532C32.9604 14.7726 33.0438 14.6717 33.3112 14.7156C33.3547 14.7243 33.3994 14.7243 33.4428 14.7156C33.7059 14.6761 33.8067 14.7638 33.798 15.0532C33.776 15.7767 33.7892 16.4827 33.7892 17.1974Z" fill="white"/>
<path d="M52.1795 13.6938C51.6627 13.7185 51.1479 13.6139 50.6816 13.3896C50.2154 13.1653 49.8124 12.8283 49.5091 12.4091C49.2714 12.1363 49.1453 11.784 49.1559 11.4223C49.1665 11.0607 49.3129 10.7163 49.5661 10.4578C49.7527 10.2823 49.9854 10.1637 50.237 10.1158C50.8597 9.95523 51.5152 9.97509 52.127 10.1731C52.7388 10.3711 53.2817 10.739 53.6923 11.234C53.9025 11.4408 54.0477 11.7045 54.11 11.9927C54.1724 12.281 54.1491 12.5812 54.043 12.8563C53.8019 13.4308 53.2494 13.5798 52.6925 13.6675C52.5221 13.6856 52.3508 13.6944 52.1795 13.6938V13.6938Z" fill="white"/>
<path d="M53.5442 19.6045C53.2285 19.701 53.1057 19.4993 53.0005 19.166C52.7944 18.5302 52.7769 18.5346 52.0972 18.5346C51.6587 18.5346 51.2597 18.5346 50.8388 18.5346C50.7738 18.5243 50.7074 18.5395 50.6534 18.5771C50.5994 18.6147 50.5622 18.6718 50.5494 18.7363C50.5187 18.8415 50.4792 18.9468 50.4397 19.0476C50.2337 19.6045 50.2293 19.5913 49.6329 19.6001C49.3655 19.6001 49.3742 19.5124 49.4531 19.3151C49.8916 18.1575 50.3652 16.9999 50.8168 15.8467C50.9308 15.5573 51.0536 15.2766 51.1501 14.9697C51.1619 14.9058 51.1973 14.8486 51.2493 14.8096C51.3013 14.7706 51.366 14.7526 51.4307 14.7592C52.1542 14.7198 52.1586 14.711 52.4173 15.3775C52.9128 16.6403 53.3995 17.8988 53.8906 19.1616C54.0528 19.6045 54.0485 19.6045 53.5442 19.6045ZM51.7333 15.7765H51.6587C51.4263 16.4167 51.1939 17.0569 50.9528 17.6927C50.9001 17.8286 50.8651 17.9295 51.0712 17.9295H52.3603C52.4787 17.9295 52.5225 17.8769 52.4831 17.7629L51.7333 15.7765Z" fill="white"/>
<path d="M43.4282 14.7156C43.803 14.706 44.1779 14.7207 44.5508 14.7594C44.7362 14.7726 44.9172 14.8227 45.0831 14.9067C45.249 14.9907 45.3965 15.107 45.5169 15.2486C45.6374 15.3903 45.7284 15.5546 45.7846 15.7318C45.8408 15.9091 45.8611 16.0958 45.8443 16.281C45.841 16.649 45.6945 17.0014 45.4358 17.2633C45.1772 17.5252 44.8267 17.6761 44.4587 17.6841C44.1072 17.7126 43.7544 17.7214 43.4019 17.7104C43.2134 17.7104 43.1564 17.763 43.1608 17.9516C43.1608 18.3901 43.1608 18.8768 43.1608 19.3372C43.1608 19.5345 43.1169 19.6091 42.9064 19.6091C42.332 19.6091 42.332 19.6091 42.332 19.039C42.332 17.6929 42.332 16.3511 42.332 15.005C42.332 14.7638 42.4022 14.698 42.6258 14.7112C42.8494 14.7243 43.1652 14.7156 43.4282 14.7156ZM43.7922 15.3865C43.1652 15.3865 43.1652 15.3865 43.1652 15.9959V16.1275C43.1652 17.1316 43.1652 17.1316 44.1605 17.0527C44.2699 17.0501 44.3777 17.026 44.4778 16.9817C44.5779 16.9375 44.6683 16.8739 44.7438 16.7947C44.8194 16.7155 44.8786 16.6222 44.918 16.5202C44.9575 16.4181 44.9765 16.3092 44.9739 16.1998C44.9713 16.0904 44.9472 15.9826 44.9029 15.8825C44.8587 15.7824 44.7951 15.692 44.7159 15.6165C44.6367 15.541 44.5434 15.4818 44.4414 15.4423C44.3393 15.4028 44.2305 15.3839 44.121 15.3865C44.0114 15.3821 43.9018 15.3865 43.7922 15.3865V15.3865Z" fill="white"/>
<path d="M55.25 16.9606L56.2278 15.1014C56.298 14.9699 56.3112 14.7638 56.4822 14.7375C56.732 14.698 56.9865 14.698 57.2364 14.7375C57.4074 14.7638 57.2671 14.8953 57.2364 14.9655C56.7979 15.8162 56.3199 16.6668 55.842 17.5087C55.7135 17.7257 55.6524 17.976 55.6666 18.2278C55.6666 18.6049 55.6666 18.9776 55.6666 19.3504C55.6666 19.5608 55.6008 19.6134 55.4035 19.6134C54.8335 19.6134 54.7984 19.6134 54.8422 19.0741C54.9201 18.2618 54.7123 17.4477 54.2547 16.7721C53.8776 16.2064 53.6013 15.575 53.2593 14.983C53.1234 14.7507 53.1979 14.7419 53.4259 14.7112C53.5282 14.6864 53.6343 14.6821 53.7382 14.6984C53.8421 14.7148 53.9417 14.7516 54.0314 14.8066C54.121 14.8616 54.1989 14.9338 54.2605 15.019C54.3222 15.1042 54.3664 15.2008 54.3906 15.3031C54.6186 15.8512 54.9387 16.3643 55.25 16.9606Z" fill="white"/>
<path d="M46.4253 17.1711C46.4253 16.4432 46.4253 15.7153 46.4253 14.9787C46.4253 14.7507 46.4955 14.698 46.7059 14.7024C47.368 14.7243 47.254 14.6367 47.2584 15.2374C47.2584 16.3731 47.2584 17.5087 47.2584 18.6444C47.2584 18.9163 47.333 18.982 47.5917 18.9645C47.9775 18.9645 48.3634 18.9645 48.7493 18.9645C48.9422 18.9645 49.0694 18.9645 49.0299 19.2276C49.0036 19.4074 49.1176 19.6222 48.7668 19.6091C48.074 19.5828 47.3812 19.6091 46.684 19.6091C46.4867 19.6091 46.4253 19.5608 46.4297 19.3504C46.4385 18.6269 46.4253 17.899 46.4253 17.1711Z" fill="white"/>
</svg>
